<svg enable-background="new 0 0 617 334" viewBox="0 0 617 334" xmlns="http://www.w3.org/2000/svg"><path d="m258.7 47c0-.5 1.5 0 1-.5 0-.5 1-.5 1-.5 0-1 2.9-1.5 0-1.5h-1s-.5-.5-1-.5h-.5c-.5.5-1 0-2 .5h-.5c-2 0-2 0-2-1-4.9 1.5-1-1.5 2.4-2 0-1-2.4-1.5-2-1.5h-2.4-.5c.5 0 1 0 1-.5-1-1.5 1-.5 2.4-.5 5.4 5.4 5.9 3.9 7.3 2.9.5-1 0-1.5-1.5-2v-1c-1.5.5-4.4-2.4-3.4-1.5h-.5-.5c2-.5-2-1-2.4-1 .5-.5 0-1-.5-1h1v-.5h-.5c1-1 2.9 0 3.9-2h.5c0 1-.5 1.5 1.5 1h1c1.5.5 2.9-.5 3.4-2-2.4-2-4.4-2 0-1.5.5.5 3.4.5 1-.5h-.5-1.5c1-.5-2-2-1.5-2.9 0 0 .5.5 1 .5 1.5 1 2.4 1 2.4 0-1-1-1.5-2-.5-2.9-1-1.5-1.5-.5-2.4-1h.5c.5 0 1-.5 1-1 0-.5 0-1-.5-.5 1-1.5 4.9.5 4.4 0v-.1c0-.5-1.5-2.4-2-1-.5 0-1-.5-1 0 0-.5-.5-1-.5-1.5 4.4 0-1.5-1-2.4-1 0-1 .5-1.5 1.5-1 1 .5 2.9-.5 2.4-2v1.5c-.5-1.5 6.4-6.4.5-3.9-.5.5-1.5 1.5-2 .5-.5 0-.5-.5-.5-.5-.5 0 16.7-1.5 2.4-2 2.4-1.5 3.4-1.5 3.4 0h1c2.4.5 3.4.5 3.4-1h1c2.9-1 2-1.5-1.5-1.5-2.4 1.5-3.9 1-3.9 0-2.4-.5-3.4 0-2.9 1.5-.5 0-1-.5-1.5-.5-.5.5-4.4 1.5-6.4 2h-1c-.5 0-1 0-1-.5.5-.5 1-1 1.5-.5.5-1.5 1.5-2.4 2.9-2-1 .5-2.4.5-3.4.5-1.5-.5-2.4-.5-2 .5h-1c0-.5.5-.5 0-1-2.9-1.5-4.4-1.5-4.4 0h-1-2.4-1c-2.4 1-5.4 2-1.5 0 1 0 2.4-.5 3.4-1.5 2.4 1.5 3.9 1.5 3.9 0h1c1.5 1 2.4 1 2.4 0 1.5-.5 2.4.5 3.4 0h.5 2 .5c3.4-1.5 2.4-2.4-2-2.9-1 .5-1.5 0-1.5 0-.5.5-2 1.5-2.4.5 2.9-2-1.5-1-2.9-1 2-1.5 2.4-2 1-2-2 1-2.4.5-2.4-.5h-.5c-1.5.5-2 .5-2 0h-1-1-.5c-1-.7-2.9-1.2-4.9-.2h-3.4c-1 .5-2 .5-3.4 0 0 .5.5 1 .5 1-1.5-.5-2.4-.5-2.4.5h1c-1.5 1.5-2.4 1.5-2.9 1-.5 0-4.4-1.5-3.9-.5-1 .5-1.5-.5-1.5 1v.5h1.5.5c-.5 0 4.9 3.9 1 1.5-.5-.5-2-1-2-1h-.5-2c0 2.4-1.5 1-3.9.5 1 2 3.4 3.4 4.9 4.4.5.5 1 1 0 0-1.5.5-12.7-2.9-9.8-2v.5.5.5c-.5 1-1 .5-2-.5h-.5c-.5.5-.5 0-.5 0-1.5 0-1.5-2-2.4.5v-1c0-.5.5-.5 0-1h-2v.5c-.5 0-1 0-1-.5-.5-2.4-1.5-2.4-1-1.5h-1-.5-1-.5c-4.4 2.4-1 0-4.9 3.4-1.5-1.5-2.4-1.5-2.4-1h-.5s-1 .5-1.5.5h-.5-.5-.5-.5-1-.5c-.5 0-.5 0-1 .5-3.9 3.4 1 1.5 1 1.5 7.3 0 2.4 2.9 0 3.9h-1-.5-.5-.5c-.5 0-.5 0-1 .5h-1-2-1c-2.4 5.4 6.4 4.4 7.3 3.9h-2c-2 1-3.4 1-4.9 1-2 0 2.4 3.4 2.4 3.9h1 1.5c0-.5 0-1-.5-1 .5-.5 7.8-1.5 7.8 0 2-1 5.4.5 6.4 1s4.9 2.9 4.4 4.4c-1 .5-2 1.5 0 .5 0-.5 1.5 2.4 1 2 1 .5 1 1 .5 1.5h1v.5c.5 1.5 0 2-1.5 1.5h.5c-1 .5-1.5 1-1 1.5h.5c0 1-1.5 1.5.5 1.5 1.5 0 1.5-1.5 3.4-1h2.4c-1.5.5-1.5 1-.5 1 1 0 1 0 1.5.5h-1c1 1.5-.5 1 1 1 0 .5-.5.5-1 0-2-2.4-3.9.5-4.4 1.5-.5 0-1 0-1-.5-1.5 0-2.9 2.9.5 2.9v.5h-1.5c1.5 1 2.4 1.5 2.4.5h1c0-1.5 0-3.4-1-3.9h1c.5 0 1 1 1.5 1 1 .5 2.9 2 2.4 1.5-.5 1-.5 1 .5.5v.5h.5v1c0-.5-.5-1-1-1v2 .5c-1 .5-1.5.5-1.5 0-3.9 2 2 0 2 1.5h-1c-1.5.5-2 .5-2-.5 2.4 0-3.9 4.4 0 1.5.5 0 1-.5 1.5-.5 0 .5-1 .5 1 1 0-1 0-1 1-1-.5 1.5-4.4 2.4-4.9 2.9.5.5.5.5 1 .5v.5c-1 0-1 .5-.5 1h.5c0 .5-2 .5 0 1h.5c.5-.5.5 2.4 1.5 4.4 1.5-.5 2.9-.5 2-.5v1h-1.5 1-1s0 .5.5.5c.5-.5 1 1.5 1.5 1.5.5 0 2 .5 2 2.4 1.5-1 2-1 1.5.5 1-2-.5 1.5.5.5 0 1 1 1.5 1 2v1h1v.5h.5c1-1 3.4-1 2.9-1s-.5.5-.5.5h1v.5s1.5-.5 2-.5c0 1-2 2.4.5.5-.5 2.4.5 1 .5 0-.5.5-.5 1 0 1 .5 1 .5.5 1.5.5-.5-.5-.5-.5.5-.5-1-.5-1-1 0-1-.5 0-1.5-1-1-1h.5c-.5-.5.5-2.4.5-2 1.5-1 .5-1 .5-2.4h.5v-1h-.5c0-.5 2-2 2-2-.5-2 1.5-2-1-2h.5c2 .5-1-4.4 2.9-3.4h1.5c-.5.5 3.9-1 3.9-1.5 2.4-4.9 4.9-7.8 7.3-5.4.5.5 1-.5 1.5-1v.1c.5-.5.5-.5 1-.5.5 0 1 .5 1 0h.5c1-1 4.4 0 3.4-2 1.5.5 2 .5 1.5 0-.4 4.5 2.1 3.5 2.1 3.5 0-.5-.5 0 0 0zm2.4-18.1c.5.5.5.5.5 1h-.5zm-4.4-18.6c-.5-.5-.5 0 0 0 0-.5-.5-.5 0 0zm-1.5 0c0 .5 0 .5 0 0zm-2.9 1c.5-.5.5-.5 1-.5 2-.5 2-.5.5 0-.5.5-3 1.9-1.5.5 0 0-.5.5 0 0zm-6.9-8.4c4.9-2.9 7.3-2.9 7.3-.5.5 0-5.4.5-6.9.5zm-32.8 52.5c-.5 0-.5 0-.5-.5zm3.9-3c-.5 0-.5 0 0 0zm.5 3c-.5 0-1.5.5-1.5.5.5-.5 1-1 1.5-1zm6.9 15.6c0-.5 0-.5 0 0zm13.2-14.2h-.5c1-1 1-1 .5 0zm3.9-53.9c-1 .5-1 .5-2 .5.1-1 1.5-1 2-.5zm1.5 0c-.5 0-.5 0-.5-.5l.5.5c-.5-.9-.5-.9-.5-1.4 1.5.5 4.9 1.5 2.4 1.5-1-.5-1.5 0-1.5.5l-.4-.6c.5.5 0 .5 0 0 0 0 0 .5 0 0zm11.3 41.7h-1c1-.5 1.4-.5 1 0zm-110.8-35.3h-.5c.5 0 1 .5 1 1 1.5 0 1-1.5 2.9-.5 0 1.5-2 2-2 2h-1 1 .5c0-.5.5-.5 1-.5 1 .5 2.9 1.5-.5 1h-1.4v.5 2c.5 0 1 .5 1 1 1 .5 1.5.5 2.4 0h-.4-2c1.5 1 2.4 1.5 2.4.5 1.5-1 2.4-1 2 0h-1-.5-.5c.5 2 1 2.9 2.4 2.9.5-1 2-1 2-.5 0 .5.5.5 1 .5 1-.5 2-1.5 2.4-2.9v1c1.5 0 1-1.5 2-.5h1 .5c0-.5 1-1 1.5-1-.5-1 1 0 3.9 1.5-.5-.5-1.5-.5-2.4-.5h-2.9-.5-.5c-.5.5-.5.5-1 .5-1 .5-1.5-.5-1.5 1 1.5 1 2.4 1.5 2.4.5 1-.5 2.9-2 2.9-.5 0 .5-.5 1-.5 1 1 .5 2.4 1 2.4 1.5h-.5v.5c-.5-.5-1-.5-1-.5-1.5-1.5-2.9-2.4-4.4-2h-2c2 1.5 2 2 .5 2h-1-.5c-2 3.4-2 3.9-.5 4.4.5.5.5.5.5 0v.5c1.5-.5 2-.5 1.5-.5.5-.5 1.5-.5 1.5-.5 1.5 1.5 2.9 2 3.4.5-2-1 1-1.5 1-1.5.5.5.5 1 .5 1h1.5.5c1.5-.5 1-3.4 2.9.5v1c1.5-2 2.4-2.4 2.9-1 1 0 2.9-1 1.5-1.5-3.9-1-4.4-1.5-2-1.5h1 1.5v-1.5s5.4-2 3.4-1c1 .5 1.5.5 1.5 0h.5c-1.5-.5 3.4-2.4 0-2v-1h-1.5-1-.5c-.5 0-1 .5-1.5.5.5-2-1-2 0-1.5h.5c0 .5 1 .5 1 .5 1-.5 1-.5 1 0h1c-2.4-1-2.9-1.5-.5-1h.5.5c1.5-1 1-1.5-2.4-1 .5-.5 1-1 1.5-1 0 .5 1.5.5 1.5 1 .5-1 2-1 3.4 0 .5 0 1-.5 1.5-.5-2-1.5 4.4-1 1-2 0-.5.5-.5 1 0h.5c1 0 1.5 0 1.5-.5.5-.5 0-1.5.5-.5-.5 0 7.8-2.9 5.4-2.4h1c.5-.5 3.9-1.5 2.4-1.5-10.3-2.4 12.7-1.5 0-4.4h-1-.5c-1.5.5-10.8 3.4-5.9 1.5h.5c2-1.5 1.5-1.5-1-1.5h-2c-1.5.5-2.9.5-4.4.5-1 0-1.5.5-2.4.5 1 1.5-1 0-1.5-.5-7.3 1-2.4 2.9-7.8 1v.5c-1 0-1.5 0-2.4.5 5.4 3.9-2.9-1-2.4.5 3.9 2.4-1.5 1-.5 1.5 0 0-1.5-1.5-2-1.5-2.9-.5-3.9 0-3.9 0-2 1-2.9 1 0 1h.5c.5 1 1 1.5 1.5 1-1-1-1.5-1.5-1.5-.5s-3.4 0-6.9.5c-1-.5-1.5-.5-1.5 0-2.9 1.5.5 0 1.5 1-2-.5-2 1 .5 0 3.9-.5-.5 1-2 1v.5c.5-.5 1-.5 1.5-.5h.5c4.9.5-2.4 2-1 2 1.5-.5 2-.5 2 .5l1.5-.5c2 1.5 2.4-1.5 2.9 1 2.4-2.4 3.4-2.4 2.9-.5h1 1 .5 1 1 1.5c1 0 2 0 2.9-.5h.5.5c.5 0 2-.5 1.5-.5h1 1 1c-2.9 1-3.4 1-1 1h-1c-1 0-2 .5-2.9.5.5.5 5.4-.5 1.5 1h-1c-.5 0-2-.5-2 0-2.9-.5-3.4 0-2.9 1.5 1 0 1 .5 1 1h1c1 .5 1 .5 0 0v-1c-.5-.5-1-.5-1-.5-1-1-2 0-2.4-2.9-3.9.5-4.9 3.4-6.4.5-1 .5-1.5.5-1.5-.5-2.9 2-4.4 2-4.4.5-.5 0-1.5-1-1-1-.5-1.5-1.5-2.4-2.9-2h-1s-1-.5-1.5-.5h-1.5c-2.4.5.5.5 1 .5-.2.3-.2.8-1.7.3 0 .5 0 .5 0 0-.4 0 .5.5 0 0zm20.1 14.7c-1-.5-1.5-1-.5-1 .5.5.5.5.5 1zm27.5-16.7c.5.5.5.5 0 0zm-15.2 2h.5.5c-.5.5-1 .5-1 0zm-.5.5c-.5 0-.5 0 0 0zm-1 1c-.5 0-.5 0 0 0zm-8.8 10.3h1c1.4 0-.5.5-1 0zm-17.2-7.4c-.4 0 0 0 0 0s-.4 0 0 0zm-.4-1.5v.5c-.5 0 0 0 0-.5 0 .5-.5.5 0 0zm243.4-7.3c0-1 0-1 0 0v-.5c-.5 0-.5 0-1 .5zm-179.8 1c.5 1 2.4 1.5 3.9 1.5-.5-.5-1-.5-1.5-1-1.4-1-2.9-2.5-2.4-.5zm178.3 0c-.5-1-1-1-1-.5v1c.6-.5.6-.5 1-.5 0-.5-.4 0 0 0zm-3.9 1c2-.5 2-.5 1-1v.5zm-120.5.4v-1c-.5.6-.5.6 0 1zm124.4-.9h.5zm-123.4 0s.5.5 0 0zm122 .9c.5-.5.5-.5 0-.5zm-2.5 1c.5-.5 0-1-1-.5.1.5.5.5 1 .5zm3.5 0c-.5 0-1.5-.5-2-.5 0 1 1 1 2 .5-.5-.5 0 0 0 0zm-.5 1c-1.5 0-3.4 0-2.4-.5v.5c.4 0 2.9.5 2.4 0zm.9 0c.5-1 .5-1 0 0-.4-.5 0 0 0 0 .5.5-.4-.5 0 0zm-5.3 0c.5 0 1 .5 1.5 0-.6-.5-1-.5-1.5 0zm14.2 2c2 0 4.4-.5 2.4-2-1.5 0-2 0-2 1h-1c.5.5.5.5-.5.5.6 0 1.1.5 1.1.5zm-11.3-1h1c0-.5-2-2-1 0 .5 0 0-.5 0 0zm55.8 0c.5-2-.9 0 0 0zm4 3.4c2.9.5 2.4-.5 4.9 0-1.5 0-2.9 1-4.4 2v.5c.5-.5 1.5-.5 1.5 0 0 0 .5.5.5 0l2.9.5c6.9 0 4.9-2.4.5-3.4 3.4-3.4-2.4-3.4-4.4-2v.5h-1l-1 .5c0 1.4 0 1.4.5 1.4 1.9.5 0 0 0 0zm-54.4-1c2-.5 2 1 2-1.5h1 .5c0-1-.5-1.5-1-1v-.4c-.5 0-1.5.5-1.5 0-4 .5-1 2.4-1 2.9zm-26.5 0c2 .5 4.9 0 6.9-1h1.5 1c-1.5 0-2.4 0-2.4-1h-2c-1 .5-4.4 1-4.9 1-1.5.5-2 1-.1 1zm10.8-1.4c-2.4 2-3.9 2-3.9.5h-1.5c0 .5 1.5.5.5 1h1v.5c2-1 1.5-1 3.9-1-1.5-1.5 2.9.5 2-2-.5 0-.5.5-1 .5v-.5h-1v1c-.5 0-.5 0 0 0-1 .9-.5 0 0 0zm-50.4 1.9h.5 1c0 1-2.4.5 0 1.5 2.9-1 4.9-.5 2.9 0h-1c0 .5.5 1 0 1h1c1-.5 1.5 0 1.5.5h1 .5c2.9 1 4.4 1 3.4-1 2-.5 2.9-.5 2-.5.5-.5 3.4-2.4 1.5-2.4h-1.6v-.5c-1.5.5-2 .5-3.9.5h-.5v.5c-.5.5-1 1.5-1.5 1-.5-1-2-2-3.4-1.5-1.5.9-3.4.9-3.4.9zm56.8-1.4c-.5 0-.5 0 0 0zm6.3 1.4c2-1.4 2-1.4 0 0zm-56.3-1c-.5 0-.5.5 0 0 0 0-.5.5 0 0zm48.5 1c-1-1-1-1 0 0zm6.9-1c-3.9 0-1 1.5-.5 1.5h.5c-.5-.5-.5-1 0-1.5-1 0 .5.5 0 0zm-123.5 0v.5h.5l-.5-.5.5.5zm-128.3 2c1-1 .5-.5 0-1v1c.5-.5 0-.5 0 0zm247.9-1.5c0 .5 0 .5 0 0 .5 0 .5 0 .5-.5zm-2 .5c.5-.5.5-.5 0 0zm-66.6 2.5c.5 1 1 1 .5 1-.5 1 0 1.5.5 1.5v1.5h1c1-.5 2-1 2-1.5.5 0 .5-.5 1-.5v1h1c0 .5.5.5.5.5v.5h1 1c-3.4-1.5-5.4-1-5.4 1 0 0 0 0-.5 0-2 5.4 1.5.5 1 1.5 4.9-1.5.5 1.5.5 1.5-2-.5 1.5 2.9 3.9 2 2.4-.5 3.4-1.5 3.4-2.9-.5-.5-.5-.5-.5-1 0-2 5.4-1 1-2.4-1.5-1.5-2-2-2.4-2.4.5-3.9-3.9-.5-3.4 2-1.5-1.5-2-2.9-3.9-2.4 1-1 1-1.5 0-1.5-1.7-1.4-2.7-.9-2.2.6zm61.2-1.5v-1h-1c0 .5 0 .5.5.5h.5zm13.2 0c2-1 2-1 0 0 2 1 0 0 0 0zm-11.7-.5c-.5 0-1 .5-1 1h1.5zm65.1.5c.5 1 .5 1.5 0 1.5h1c3.9 0 1.5-2-1-1.5zm12.3 5.9h1c.5 0 1.5-1 2-1h.5c1.5.5 2.4.5 3.4-.5 3.4-1-4.4-3.4-3.4-3.4-1-.5-1 0-.5.5-.5 0-1 1-1 1.5v.5c-1-.1-1.5.4-2 2.4zm-278.3-3.4v-1c-1-1-1.5-1-1.5 0v.5c0 .5.5.5.5.5h1c-.5 0 0 0 0 0 0-.5 0 0 0 0zm-51.4.4c.5-.5 1-.5.5.5l.5-.5v1h.5.5c-.5.5-.5.5 0 .5-.5.5 2.4 0 4.9.5s5.4 3.9 3.9.5c-.5-.5-2.4-1.5-2.4-1.5-1.5-1.5-5.4-2.4-7.3-2.4-.6 0-2.6-1-1.1 1.4 0-.4-1-1.4 0 0zm12.7 2c.5 0 2.4.5 1 .5.5 2 1.5 2 2.9 1h1v-1c-.5 0-.5-.5 0-.5-1-2-3.9-2.4-5.4-1 0 .5 0 .5.5 1zm19.1-2.4h-.5c0 .4.5.4.5 0 0 0 0 .4 0 0zm-40.1 1.9h1c1 .5 1 .5 1 0h1v-.5c-.1-3.9-3.5 2-3 .5zm196.9-.5c0 .5.5 1 .5 1-.5-.5-1-1.5-1-2 0 .5.5 1 .5 1zm-200.9.5c.5-.5.5-.5 1 0 5.4 2.9 1.5-1 1.5-1-1 .5-2 .5-2.5 1zm229.8-.5c2 .5-.5 0-1.5 0 0 0 1-.5 1.5 0zm-3.9.5c1 1 1 .5 0 0zm-228.3 2c4.4 1-3.9-2 0 0zm5.4-1c-1.5.5-2 1.5-1 3.4 2.9-1 3.9-2.9 2.9-3.9-.9 0-1.4 0-1.9.5zm-19.6 5.4c1 1.5 2.4 2 3.9 1 .5.5 1 .5.5-1 0 1 0 1.5 1 1.5 1-.5 2.9-3.4 2.9-3.4.5-1 1 .5 2.9-.5-.5-1.5 0-1.5 1.5-.5-.5-2-.5-3.4-2-2.4-1 1.5-4.9 1-6.9 2.9h-.5c-.5.5-2 1.5-2.4 2-.9-.1-1.4-.1-.9.4zm232.7-3.4h.5c1.5-1.5-1-1.5-2.4-1.5.5 1 .5 1 1.5 1 .4 0 .9 0 .4.5zm-179.3-1.5c-1 1-1 1-.5 1 0 .5.5.5 0 1 1.5-.5 2-1.5.5-2 0 .5.5 0 0 0zm-23.5 0c0 4.4 2.4 0 0 0zm5.4 0s0 .5 0 0c0 1 2.4 1 1 0zm12.7.5c-.5 1-5.4 0-2.4 1.5h.5.5 1.5c.5 0 3.9-1.5 1.5-1.5-.6.5-1.1.5-1.6 0-.5 0 0 0 0 0zm34.8 1c.5.9 1.4-.5 0 0zm154.8 1.4c-.5 0-1 0-1-.5-1.5-1-4.4-1.5-4.9 1.5 1 0 1-.5 2-.5v.5h.5.5c.9-.5 2.4-1 2.9-1zm261.1 40.7c0-.5 1-2 1-2.9h-.5c.5-.5 1-1 1-.5h.5c.5.5.5.5 1 .5h.5v-.5h.5c.5-2 2-2.4-2.9-3.9h-1-2.9v1.5c-1-.5-1.5-.5-.5-1.5 0-1-2-2-2.4-2.4-.5-.5-3.9-2.4-2.4-2-3.4-2.9-6.4-4.4-10.8-5.9-2 1-2.9 1-2.9 0-.5 0-.5.5-1 0 0-.5-.5-.5-1 0s-4.9 5.9-5.4 2.9c-1 0-1-1-1-1.5 0 .5-.5.5-1 .5-.5.5-2 1.5-1.5 0-2.9.5-11.8 2.4-10.8-1-1 0-2-1.5-2-2.4h-.5c-.5.5-1.5 0-2 0-1.5.5-2.4.5-2 0h-.5c-2.4-1-3.4-1-3.4.5-.5.5-1.5.5-2 .5h-2-.5-1-.5-.5-.5c.5-1 .5-2 .5-2.9.5 1 1 1 1.5 0 0-1-.5-1-1-1-2.4 1-3.4-1.5-5.4 2.4-3.4 1-1-1.5 0-2-1 2 2-.5 0-.5h-1c-2 .5-2.9-1-2-1h1c0-.5-.5-.5-1-.5h-1-.5-1-.5-1-1-.5c-1.5-1-1.5-.5-2.9.5 0 1 1.5 1.5 1.5 1.5-2.9.5-1 3.4-3.9 2-2.4 2-5.9 2-8.8-1-1.5 2-1 3.4-2.9 3.9-2-.5-2.4-1.5-3.9-1.5v-.5c.5 0 .5-.5 1-.5 0-1.5-5.9-2-5.9-2h-.5s-2.9-1-1.5-1 .5 0 .5-.5h-.5-1-1v.5h-1c-.5-.5-2-1-2.4-1h.5c-.5.5-1 .5-2 0v.5c-.5 0-2.4-1-2.9-1.5v-4.4c-.5-.5-1-1-1-1.5-3.4 0-6.4-1-6.9 2.9 0 .5-1.5 2-1 1.5-.5 0 0-2 0-2 .5-1 .5-2.4-.5-2h-2c-.5-1.5-.5-2-1.5-1-1.5 0-2.4 2-5.9 2.9-.5 0-1 .5-1.5 1-6.9 1 3.9-3.9 4.9-4.4 0-1 4.4-2 4.9-2.4h.5c1-2.4 1-2.4 2-2.4.5-1.5 0-2.4-2.4-3.4h.5c-1-2-1-2.4-1-1.5-4.4 2-6.9 1.5-8.8 0 .5-.5.5-.5 0-.5 0-1 2.4-1 0-2v1c-1.5-.5-2-.5-2 0-1 0-3.4.5-3.4 1-.5 2-.5 3.4-2.4 2.4-1 .5-1 .5-1 0h-1c0 .5.5.5.5.5.5 2-.5 2-2.4 1h-1.5v.5h-.5-1c1-1.5-3.4-1.5-3.4-1-1-.5-1.5-.5-1 .5h-2.4c-1-.5-1.5-.5-1 0-1 .5-1-.5-1.5 0h-.5s-2 .5-2 1h-.5c-.5-.5-.5-.5-.5 0h-.5c.5 0 1 .5 1 1s-.5.5-1 1v1c-4.4-1 2.4 4.4-1 3.9 0-.5.5-.5.5-1s-.5-.5-1-.5c-.5.5-1 .5-1.5.5-2-1-2.4-1-2.4 0h-.5-1-.5-1c0 .5-1 1-1.5 1v.5.5.5c1 .5 1.5 1.5 1 2.4 1.5 0 2.4 1 2.4 2.4.5 1.5 0 2.4-1 3.4 1 1 2.4 1.5 3.9 1.5 0 .5 0 1 .5 1.5-1.5 0-2.4 0-2.4-1-2.9-.5-4.9-1.5-3.4-2.9 1-2.4 1.5-3.4-1.5-3.9h.5c-1 0-2-.5-2-1.5h-.5c-1-.5-2.4 0-2.9 1h.5c-3.9 1-2 2.4-.5 3.9-1-1-1.5-1.5-1.5-.5-1-.5-1-.5-1 0v.5c-1-1-1.5-1-2-2.4v-1c0-1 0-2.9-.5-3.4 1 2.9 1 4.4-1 4.4v2.9 2c-.5 1.5-.5 2.4.5 2.4h.5c.5 0 3.4-.5 2.9-.5 2.4 1 3.4 3.9 3.9 5.4h.5.5v.5c-1-.5-2-1-2 0-2.9-2-1-10.8-5.9-1.5-2 4.4-3.4 6.4-6.4 3.9h-.5c0-.5 0-.5-1-.5.5.5 4.4-2.9 5.4-4.4 0-2-1.5-3.4-1-5.4 0-.5.5-1 .5-1.5-.5-2.9-2.9-2.4-.5-5.4-.5-1 0-2 0-2.4-2-1.5-3.9-1.5-5.4-.5v.5.5c-.5 2.4-1.5 3.9-2.9 3.9 0 1 0 1 .5 1v2.9c-.5 1-1 2-1 2.9 1 0 1.5 0 1.5.5.5-.5.5-.5.5 0v2.8h.5.5c-.5 1.5-.5 2.4-1.5 1.5l-2.4-2.4c-1-.5-1.5-1-2 0 .5-2.4-4.9-2-5.9-2v.5h-1c.5.5.5 1 .5 2v1c-1.5 0-2 .5-2 2-2-1-10.3-.5-9.3-1 0-1-.5-1.5-1-1v-1c-1.5.5-2 1-2 2v-.5c-2.4 0-6.9 2-7.3 3.9-1 3.9-2.9 1.5-1.5-2-1.5 0-2.9-1.5-2.9-2.4-2.4-1.5-2-.5-.5.5v1c-2 2.4 0 2-.5 2.9-1 1-1 2-1 2.9-4.4 1-5.4 1.5-6.4 2.9-1 1-2.4-3.9-2.4-.5h-.5c0 2 .5 2.9 1.5 2.9v.5h-.5-.5c-1.5 0-2.9-1.5-3.9-2.9 0-1.5-1-2.9-1.5-3.9-.5 0-1.5 0-2-.5h.5v-.5c-2.9.5 1.5-2.4-1.5-1 1 0 1.5-1.5 3.4.5 1-1 3.4 0 4.9 1h.5 2l.5-.5c2.9-2 2.9-3.4-.5-5.4-1.5-1-4.4-2.4-5.9-2.9-1-.5-2.9-1.5-3.4-1.5-1 .5-1.5.5-1 0h-1c1.5-1.5.5-1.5-1-1-1 0-3.4 0-3.9-.5h.5c2.9-4.4-1-1-2-1.5 0-.5 0-.5.5-1-.5 0-.5 0-1 .5-.5-1 .5-1 .5-1-.5-1-1-1-1.5 0h-.5c.5 2-2 3.4-1 1 .5-2-5.4 7.8-2 .5s0 0-.5 0v-.5c-1-.5-2.4.5-3.9 2-2.4-1.5-2.4-1-2.4-.5l.5 1c-1-1-1.5-1.5-1.5-.5l.5.5c-.5.5-1 1-1 .5v-1c-1 2-1 1-1 .5-.5.5-1.5 2-1.5.5-1 .5-1 1.5-.5 2 0-.5-.5-1-1-1 .5 1 .5.5.5.5-.5 1-1 2.4-2 3.4-.5 0-1 .5-1 1 3.9-2.9-1.5 1.5-1 1h.5-.5v.5h.5v1h.5c0 .5-1.5 2.4-2.4 2h-.5v.5s-2 1-1 1h-.5v.5c-.5.5-4.4 3.9-4.9 3.9-1 0-2 1-2 2 0 .5 2-.5-2.4 2.4-.5 0-.5-.5-1-.5v.5c-2.4-2.4-1.5 0-1 .5 0 1-1 1.5-2 1v.5c1 0 1.5.5 1 1v-.5c-.5 0-1 0-1 .5h-.5c-1.5 0-2 1.5 0 2.9 1 0 3.4-1 1 .5h-.5-1s0 0-.5 0c0 .5.5.5 1 .5 0 .5-1 1-1 1 1 1 6.9.5.5 2 0 1 0 1.5.5 1v-.5c0-.5.5-.5 1-.5.5 2-2.9 2 .5 3.4v.5c1.5.5 6.4-2.4 6.9-2.4v1c1.5 1 4.4 4.4 2.4 4.9v2.9h.5c.5 0 2.9-2 3.4-2.4h2c.5 0 2.4-1 .5-.5v-1c1-2 1-3.9-.5-4.9 1.5 0 2.4-.5 3.9-1v-.5h.5c0-.5-.5-.5-1-.5 1-.5-1.5-4.9-2-5.9.5-.5.5-1 0-1.5-.5-1 .5-2 1-2.4.5-.5.5-.5 1-.5.5-.5 1.5-1.5 2.4-1.5.5-.5 2.4-4.4 2-5.4.5-.5 1.5-1 2-1 0 2.4 4.4 0 3.4 2-.5.5-.5 1 0 1.5-2.4 0-5.9 7.8-5.4 9.8v.2c0 .5.5.5 1 .5v1h.5c-1.5-1.5 1 .5 1.5 0v.5h-1v.5s.5-.5 1-.5v-.5c.5 0 .5.5.5 1h.5v.5c1 0 2.9-1.5 3.4-2.4h2c1 0 1-.5 2-.5v.5h-.5c-1-1.5 3.9 2.4 3.9 2 1-1.5-2.9 1-2.4.5-.5.5-1 .5-1.5-.5 0 2-2 1-2 1v.4c-1 .5-1.5.5-1.5 0-.5.5-1 .5-1.5.5-.5 0-.5 0-.5.5-1 .5-1.5 0-1.5 1.5.5 1.5.5 2 .5 1v1c-1.5 1-2.9 2.4-2.4.5-1 0-1.5.5-1.5 1-1 1-1.5 2.9-1 4.4v.5c-1.5 1-1 .5-1.5 2-2.4 2 .5 1-2.4 1.5v-.5c.5-.5 0-.5-.5-.5h-1l-1 .5s-1 .5-1 1h-.5c-1 0-1.5 0-2.4.5l-1-.5c.5-.5-3.4 0-2.9.5h-.5v.5c0-.5-.5-1-1-1v-.5h-1c0-.5 0-1-.5-1 0-.5 0-1-.5-1 .5-1 1-4.4.5-6.4 0-1.5 3.4-3.9-1.5-1-.5.5-.5 3.4 0 8.3 1 1.5 1 1.5 0 1 .5 2.4-2.9 2-3.4 1-2.4 0-4.9 3.9-6.4 4.9-1.5 0-2.4 1-2 2.4-.5 1-1 1.5-2 1.5-2 1-2.4 1-2.4-.5h-1c0 .5 0 1 .5 1 0 .5 0 2.4-.5 1.5-1.5-1.5-3.9 1.5-3.9 1.5s0 0-.5 0c0 1 3.4 2.4 3.4 2v.5h.5c-.5 1 1 3.9 2 2.4 2 2.9-1 5.4-3.9 5.4h-1-2-.5.8-2.4c-1.5-1-2-1-2 0h-.5v.5c-.5.5-1 .5-1 0-1 .5-1.5 1-.5 1.5-.5 1 1 3.4.5 3.9v.5h.5v1c0 .5-1 3.9-1 3.9 1-1 .5.5 0 .5h.5v1.5 1.5h1c.5.5 1.5.5 2.4 0 2 2.4 5.4 1.5 6.4.5 1-1.5 10.8-11.8 10.3-13.2.5-2 1.5-2.4 2.9-2 1.5-.5 2 1 3.4-.5 3.4 0 16.2 12.7 14.7 13.2 5.4-5.4-1.5-5.9-.5-8.8-1.5-.5-2.9 0-3.9-2.4-.5-.5-1-1-1.5-1.5h-.5c-.5-.5-.5-1.5-.5-2 0-2-.5-2 .5-1.5 0 0 1.5-.5 1.5-1 0 .5 0 2.9.5 2.4v-.5c2-1 2.4 1.5 2.9 2.9 0 0 .5.5.5 0 1 .5 4.9 2.9 5.4 3.4v.5c0 .5.5 0 0 .5v.5c-.5 1 .5 2 1.5 2.4v.5c0 1 1 1.5 2 1.5-2.9 4.9 2.4 4.9 2 4.9-1 .5-1.5 0-1.5-.5h-.5s-1 1-.5.5 1 2.4 1 1.5h1.5v-1c2 0 1.5 0 1-1h.5c2.4 1 0-1-1-1.5-.5 0 2.9 2 2.4 2-.5-2-1.5-2.9-2.9-2 .5.5 0 .5 0 .5.5-2.9-.5-4.4 2.4-3.4s0 0 0-.5h.5c-1.5-1-1-1.5.5-1.5h1c2.4 1 1.5 2.9 5.4 0h.5c-1-.5-1.5-1-1.5-1.5 0-1.5 2.4-6.4 2.4-6.9.5-.5 0-.5 0-.5v-.5c1.5.5 2.4-2 2.4-2.4 1 0 2-1 1 .5 1 1 2.4 1 3.4.5 1 2-3.4 1.5-1.5 2 1.5 2.4 3.9 2 5.9 0-.5.5-1 .5-1.5 0-.5-.5-4.9-2-2-2.4s2.9-1 2.4-1c2.4-2.4 3.9-2.9 3.9-1.5 1-.5 1.5-1 1.5 0s-1.5 1-2 1c-.5.5-.5.5 0 .5h-1.5c1 1 1 1.5 0 2-.5.5-2.4 1.5 0 .5 0 4.4 5.9 3.9 4.9 8.8-1 0-2.4 0-3.4.5-6.9-1.5-11.3-3.4-15.2.5-1 1-1.5 1-1.5.5h-.1c-1 1-4.4 2.4-1.5 2.4-1 1.5 1.5 2.4-1 2.4.5 1 0 2 1.5 2.4v.5.5h1.5c0 .5 0 .5.5.5.5.5 1 1 1.5 1v.5c-1.5-1.5 3.4-.5 3.4-.5l1 .5c3.4-2 4.9-2 4.9 0 1.5-3.4 1.5 1.5 1.5 2v.5c3.4 2-4.4 8.8-4.4 8.8-.5 0-2.4 1.5-2-.5h-1v.5c-1.5-.5-2.4 0-2.4.5.5-.5-3.4 0-2.9 0-1 0-1 0-1-.5-1-.5-3.9-1.5-4.4-2-1.5.5-2 .5-2 0-.5.5-4.9-3.4-4.9 2 0 3.4-3.9 1.5-4.9 1-2-1-5.4-2.9-6.9-3.9h-1c-.5-.5-2.9-1-2-1.5-.5-1-.5-1-.5-.5-1-.5-.5-4.4 0-4.4 2-2.4 2-3.4 0-2.9-1-.5-1.5-1.5-2.4-.5h-1.5c-1 .5-1.5-.5-1.5.5-.5.5-2 0-2 0-1.5-.5-4.4 0-4.9.5-2.9-.5-6.4 1.5-8.3 2.9-.5 0-1.5.5-1.5-.5 0 .5-.5.5-1 .5h-1.5c-2.4 1.5-6.4 2.9-8.3 6.9-1.5 1.5-1.5 2.4-.5 2.4 1 2 1 2.4 0 2.4-3.4 3.4-6.4 6.9-8.3 10.8v.5.5c-1 .5-1 1-1 1.5.5 1.5-2.4 2.4-1.5 4.4.5 1-.5 1.5 1 2 0 .5-.5.5 0 1 .5.5 0 2 .5 2.9 0-.5-.5 4.4 0 3.4v.5.5 1c-1.5 2-1.5 3.4-.5 5.4 1 1 1.5 2 1.5 2.9h.5c-1 2 2 1.5 1.5 2.9 1 .5 1 1 1 2 1 .5 1 1 1 1.5 3.9 7.3 11.3 9.3 18.1 7.3h.5s1-.5 1.5-.5h1.5c2-.5 2-2 2.9-1.5.5 0 2-1 2.4-1.5h.5c2.4.5 3.9 1.5 3.4 3.4.5 1 1 1 2 1 .5 0 2-.5 2-.5v.5-1.5c1 0 1 0 1 1 1-.5 1.5-.5 1.5 0v.5l.5 1.5v.5c-.5 2 .5 3.9-1 4.9 0 .5 1 1 0 1 .5 1 0 1 0 2h-1v.5h.5v.5h1v.5h.5-.5c1.5 1 3.4 4.4 4.4 6.4 0 1-.5 1 .5 2v1c.5 1 1 2 1 2.9-.5 1 .5 2 0 2.9v.5 1s.5 2 1 2v1 1.5c-.5 1.5-1.5 2.4-2 3.9h-.5c.5 2.4-1.5 4.4-1 6.9 0 1.5-.5 3.4 2 4.9v.5c1 2 2.4 4.9 2.4 6.4.5 1 .5 1.5 0 1.5v1c0 1 0 1.5.5 2 .5 1.5-.5 1.5.5 2-.5 1.5-.5 2.4.5 2v1c2.4 2.9 3.9 6.9 4.4 10.8-.5 1.5-.5 2.4.5 3.9h.5v-.5c0 .5.5.5 1 0-.5-.5 5.9-.5 5.4-.5.5 0 .5 0 .5-.5h1 4.4v-.5c4.4 0 9.3-9.3 10.8-12.2 1-1.5 1-2.4 0-2.4 1-2.9 2.9-5.9 4.9-7.3v-.5s0 0 0-.5v-1.5-.5-1-.5h-.5v-.5c-1-2 .5-5.9 2-7.3h1c1.5 0 2 0 3.4-1.5 2.4-1.5 3.4-3.9 2.9-5.9.5-1 .5-1.5 0-1.5h-.5v-1-1.5s0 0 0-.5v-1c-.5-1.5-.5-2.9-1-4.4v-1c0-.5-.5-3.4-1-4.9s0-.5.5-.5c0-1 1-2.4 1-2.9-1-4.4 13.7-19.6 15.7-21.6v-1c-.5-3.9.5-5.4 2.4-5.4v-.5-1c.5-1.5 0-2-1-2-.5 0-1 .5-1 .5-.5 0-1-.5-2 0-.5 0-2 1-2.4 1-2.9 1.5-4.4 1.5-4.4 0-3.4-2-1-2-1-3.9-1-2-2.9-3.9-4.9-5.4s-2.4-4.9-2-3.9v-.9-.5-.5c0-1.5-3.4-4.9-2.4-4.4.5-1.5.5-2 0-2v-.5-1c0-1 0-1-.5-1v-.5c0-1-2-2.4-1.5-2v-.5-1.5h.5c0-.5-1-1.5-1-2-1-2-2.9-6.4-3.9-8.3 1.5 1 1.5 2 3.4 2-.5 1.5 5.4 8.3 6.4 10.3v.5c-1.5 2.4-1 3.4.5 3.4v1.5s1 2.4 2 2c2 2 3.4 5.4 3.9 8.3-.5 1-.5 1.5 0 1.5v1c-1.5 4.4 3.4 3.4 4.9 2h1c2-1 4.4-2 6.4-2.9.5-.5 2.4-1.5 2.9-2-1 0-1 0-1-.5 3.4-1.5 6.9-3.4 8.8-5.9v-1.5l.5-1h.5c0-4.4 4.9-4.9-2-7.8-1.5-1.5-2.4-2-2-4.4-2.9 1-3.9 2-3.9 3.9-2.4 0-3.9-1-3.9-2.9-2.4-.5-3.9-2.9-4.9-5.9 0-2 0-2.4-.5-3.9 5.9 3.9 9.8 7.3 15.2 8.8.5 2 4.9 2.9 6.4 2.4 1 0 3.4-.5 4.4-.5.5 0 1 0 1.5-.5 1.5-.5 2-.5 2 .5v1c.5 0 1 0 1 .5.5 0 1 1 1 1.5h.5v.5c2-1 5.9 1 2.9 2.9-2 .5 2.4.5 4.4 2.9.5 1.5-.5 3.4 0 4.9v1 .5.5c-.5.5-.5.5 0 .5v.5 1 1 .5.5c0 .5.5 1 .5 1v.5.5.5.5 1 1 .5 1c1 2 2.4 4.9 3.4 6.9 2.4 0 3.9-2 3.4-3.4v-2c-.5-2.4-.5-5.9 1-6.9 1-2.4-.5-3.4 3.4-4.4v1c0-.5 0-.5.5-.5 1 0 4.4-2 4.4-4.4 1-.5 2.4-1.5 3.4-2v-1c0-.5 1-1.5 1.5-1.5h1v.5l3.4-2.4c-.5 0-.5-.5-.5-1 2.4 2 2.9 4.9 4.9 6.4 1 .5 2 3.9 2 4.4v.5c0 1-.5 1.5-.5 2v1c0 1 5.4 0 5.4 0 0 .5.5 1.5.5 2v1 1 .5l1 2v.5c-.5 2-.5 2.4.5 2.4-1 2-1 2.4 0 2.4-1 2.9-1.5 4.9 2 8.3v.5.5.5 1 .5c.5 1 2 4.4 3.4 5.9 2.4.5 1-2.9 0-5.4v-.5c-.5-1-4.9-7.3-5.4-6.9 0-1 0-1.5-1-1.5 0-.5-.5-1 0-1.5v-.5-1-1.5c.5-1 .5-3.4.5-3.9h.5c1 0 2 1.5 2 1 2 1 3.4 4.9 4.9 6.4.5.5.5 1.5.5 2 1 0 2-.5 1.5-1v-1.5c.5 0 2.4-1 2.4-1 .5 0 1 0 1.5-.5 0-.5.5-.5 1-.5 2-1 2-3.4 1-4.9 0-2.4-1-4.4-2.9-6.4-.5 0-.5-.5-.5-.5-1-1-2-2.4-2.9-3.4 1-2.9.5-4.4 5.4-6.4.5.5 1 .5 1 0 0 .5.5 2 1 1.5h.5c1 0 2-1 2-2h.5c0-.5 0-.5.5-.5h1c1-.5 1.5-1 1.5-2 0 1 .5 1.5 1 1 1-.5 6.4-2.9 5.4-4.4.5-.5 1-.5 2-.5v-1h.5v-.5h1v-.5c.5-1.5 1-4.4 2.4-5.9h.5c0-1-1.5-2 .5-2-1.5-1.5-1-2.9-2-4.9-1 0-1-1 0-.5h.5c-1.5-3.9-2.4-5.4-2.4-3.9h-.5c3.4-4.9-2.4-4.4 3.9-7.3 3.4-.5-2-1.5-4.9-.5h-1c-1.5-.5-2-1.5-2-2.4 2-2.4 5.9-9.3 5.9-2.9v.5c1.5-.5-1 1 1 1-.5-1 2-2 2-2 3.4-1 2.9 4.4 2.4 4.4 1.5 1 .5 0 2 .5 0 1 .5 1.5 1 1.5 0 1-.5 3.4-1 4.9v.5c2 1.5 3.9-.5 4.9-2.4.5-.5.5-1 0-1-.5-1.5-.5-2.9-2-3.9v-.5c-.5-2.9 2.4-7.8 6.4-11.3v.5c.5 0 .5 0 1-.5-.5 4.4 3.4.5 3.9-.5h.5c2-2.4 3.9-4.9 4.9-7.3v-.5c.5-.5 3.9-3.9 2.9-4.4.5 0 .5-.5.5-.5v-.5-1-1s.5-4.9.5-5.9c.5 0 .5 0 1 .5-.5-.5-3.4-2.9-5.4-2.9v1c-2 1-2.9 0-2.9-1v-1.5c-6.4 1 2.9-4.4 2.9-6.9.5-.5 3.4-2.9 3.9-2.4 0-.5 5.4-7.3 4.9-4.9.5 0 1 0 1-.5 2 1 2.4-1 3.4 1v.5c.5 0 3.9.5 4.9 0 0-.5 0-.5-.5-.5.5-.5 2-.5 2-.5 2.9-2 3.4 2.4 2.4 2.4h1.5v-.5c1 0 2 .5 2.4-.5v.5c2.4-1 .5-.5 0-2.4h.5s0 0 0-.5c.5-.5 3.4-3.9 4.4-3.9.5-.5 1.5-1 2-.5 5.4 0 2.4 1.5 3.4 3.4 1-1.5 1.5-1.5 1.5-1 .5-2 1.5-2.4 2.9-2 1.5 1 1-1.5 1-2h1 1c3.9 0-1 4.4-1.5 4.4-1 2-8.8 6.9-10.8 9.3h-1c.5 1.5.5 2.4-.5 2.4 0 1.5 0 2-1 2-.5 1.5-.5 2-.5 3.9v.5c.5.5.5 1 .5 2v1 1.5.5 1s.5.5.5 1c1 7.8 10.8-11.3 9.8-11.3 0-1 1-4.9-.5-4.9-1.5-1 0-2.9 1-3.4-.5-2 1.5-2.4 2.9-2h.5c2.9-.5 1.5 0 5.9-2l1 .5c1.5 2 4.4 1.5 3.4-1.5h.5c1-1 2-2 3.9-2.4.5 0 1.5-.5 2-1s.5-.5 1-.5h1c0-.5 2 .5 2 .5 1.5-.5 2.9-.5 1-2v-.5c-.5-2.4-1-3.4-2.4-2 1-1 1-1 .5-1-1 0-3.9-1-.5-.5.5.5.5.5 1 .5h2 .5.5l.5-.5c.5-.5 0-4.4 1.5-3.9 0 .5-.5.5-.5 1 6.6-2.8 10.5.1 13 1.6 0-.5-.5-.5 0 0zm-277.3 12.7c-.5 5.4-1.5-2.4-1-1v-.4c.5 0 1 .4 1 1.4zm1 1.5c-.5.5-.5.5-.5 1 .5-2 1-2.9 1-2 0 .5 0 .5-.5 1 0 0 .5-.5 0 0zm3.9-2.9c-.5 0-.5 0 0 0zm.5 0c2.9 1.9-1.5-1 0 0zm16.7 3.9c0-2.4 0-2.9.5-1-.1.5-.1 1-.5 1-.5-1.5.4 0 0 0zm7.8-6.9v.5c-4.4-2.9-5.4-3.9-2.9-3.4v-.5h.5c.9 1 5.3 3.9 2.4 3.4zm2.4-8.3c3 1.5 3 1.5 0 0 1 0 0 .5 0 0zm4 6.4c0 1-.5 1-1 1 0-1-1-2-2-2.4s1.5-2.4 1.5-2c0-.5-.5-.5-1-.5 2 1 2.4 1 2 1v.5c0 .9.5 1.4.5 2.4-.5.4 0 0 0 0zm.4 1.9h.5c.5 0 .5 0 1 .5-.5 2-1.5-1-1.5-.5zm3.5 5.4c-1.5 0-2.9 1.5-2.4 0 0-.5 1-2-.5-1.5.9-.9 2.4 0 2.9 1.5zm-39.7 168c-.5-.5 0-.5 0 0zm1.5-67.1c-4.4-1.9-2-1.5 0 0zm34.3 4.4h1c-.1 1-.1 1-1 0 .4-.5 0 .5 0 0zm-1.5 15.2v-.5-.5c0 .5.5 1 .5 1-.5 1.5 1.5 5.4-1 1 .5-.5.5-.5.5-1zm-8.3 4.9c3.4-2.9-2 2 0 0 .5-.5-.5 0 0 0zm-3 4.4c.5 0 3-2.4 0 0zm-.5 16.2c-1.9.5 1 0 0 0zm0-12.8c.5-1.5 0-2 1-1 0 .1-.5.6-1 1 .5-.9.5 0 0 0zm4.9 12.3h-.5c-1 .5-1.5.5-1-.5-.5-1.5-1.5-3.4-2.4-4.4 0-.5.5-1 0-1.5v-1c-.5-5.9 2 1.5 2.9 3.9-.4-.4 1 3.5 1 3.5zm3-1.5c-.5 0-1 0-1-.5.5 0 1 0 1 .5-.5 0 0-.5 0 0zm2.4 12.3c-.5-1-.5-3.9-1.5-3.9 0-.5.5-1.5.5-2v-2.4-1c.5 0 1 2 1 2.4v2c-.5 1.5-.5 2 0 2v1c-1 .9-1 1.9 0 1.9zm.5-20.1c0 .5-.5.5-1 .5 0-.5.5-1 1-.5zm-3.9-8.3h2v.5c2 1.5 1 4.9 0 5.9v.5h-.5c-.5-.5-2.4-2.4-2-1h-1c.5.5.5.5 0 .5-.5 0-1-.5-.5-1-.5-.5-.5-.5-.5-1 0-2 1-3.5 2.5-4.4 1 0 0 .4 0 0zm0-2h-1c.5-1 .5-1 1 0 0-1 0-.5 0 0zm-.5-57.8v-.5zm5.4-3.9v-1zm11.7-15.7c-3.9 1-1.9.5 0 0v-.5h.5c-.5 0-.5 0-.5.5zm3-3.9c-1 0-1 0 0 0zm1.9 7.3c-3.4-.5-2.9-6.3 0 0-.4 0-.4-.5 0 0zm12.8-8.3v.5c-1.5.5-2.4 0-2-.5 0-.5-2.4 2 0 1.5h1c-.5 1.5-.5 2 0 3.4 1.5 2.9 1 3.9-.5 3.9 0 0 0 0 0-.5-3.4-2.9-5.4-2.9-6.4-1-1-.5-1-.5-1-1.5v-1-.5c.5-1 .5-2 1-2.4s2-1.5.5-2.4c-1.5-1.5-3.4-3.9-3.4-6.4-1.5-2.4-1-4.4 1-6.4v.5h.5v.5c0-.5 1.5-.5 0-1 .5-.5 1 0 1.5 0 .5-1 1.5-2 2.9-2 .5 1 1 1 2 1 1 .5 1.5 0 2 1.5h.5c0 2.4 2.4 2.9-1 4.9h-1.5c1-2.4-.5-1.5 0-1h-.5-1c.5.5.5.5.5 1h1c-1.5 2.9-1.5-1-.5 2.9.5.5 1.5 1 2 1-2 3.5 2.4 3 1.4 4zm12.2-8.8c-1 0-1 .5-.5 1-1 1-2.4 2.4-2.9 1.5s-1.5 2.4-1 1c0-1.5-.5-2-2-1 .5-.5.5-1 0-1s0 0 0-.5c1.5-3.9 2-5.4 1.5-2.9h.5c1-1 2-2 2-2.4h1.5c-.5-.5.5 0 1 0-1 .5-1.5 1.5-1 2.4-.5 1.4-.1 1.9.9 1.9zm26.5 4.4-1.5 1c-.5 0-1-.5-1-.5 2-1.5 3-2 2.5-.5zm1.9-10.3v.5h-.5v.5c-.5-.5-2.9 0-2.4 0-1 0-1 0-1-.5-.5.5-.5.5-.5-.5-.5 1-1.5 1.5-2.4 2-1.5 0-2 2-2 2.4h.5v.5c-4.9-.5 2-4.9 2.9-5.4h.5c.5 0 2 0 2.4.5h1c.6-2 1.5 0 1.5 0zm11.3-71.5s-.5.5-1 .5c.5-.5 1-1 1-.5zm10.3 64.2c-.5.5-1-1 0-.5v.5c-.5 0 0 0 0 0zm10.8 69.5h-.5c0-.5 0-.5.5 0zm1-72c.5.5 0 .5 0 1v-.5s0 0 0-.5zm.4 33.8c-.5 0-1 0-1-1 1 0 1 .5 1 1zm3.5-91.6c.5.5 0 0 0 0 0 .5 0 .5 0 0zm.5-9.8-2 1.5c-2-2.4.5-2.9 2.9-2.9v-.5c.5.5.5 1 1 .5 0 .4-1.4.9-1.9 1.4 0 0 .5-.5 0 0zm.5 9.8h1.5c-.6.5-1.1.5-1.5 0 .4-.5-.5.5 0 0zm2.9 146c.5 0-1.5-.5 0 0zm6.8-97c.5 2.9 0 3.9-1 2.4-1 1-1 1.5 0 1-.5 2.4-6.4 4.9-7.8 5.9 0-1.5 7.9-9.3 8.8-9.3zm1.5-52.4c.5-.5.5-.5 0 0zm3.4 112.2c-2 0-1-.5-1-.5.5-.5 1-1 1-.5.5 1 0 1 0 1zm11.8-5.9h.5v.5c-.5.5-1 .5-.5-.5.5 0 0 .5 0 0zm-4.9 4.9c-1-.5-1-1 .5-.5 0 .5-.5.5-.5.5-.5.5 0 0 0 0zm1-11.8c-.5 0-1-1 0 0-.5 0 0 0 0 0zm23.5-23v.5.5h-1c.5-.5 1.5-4.4 1-1zm-325.8-90.1h-.5zm-69.5 3.9c-1.5 1-2 .5-2 0h-1v1h1c-1 1.5-2.9 1.5-.5 2.4 0 .5.5.5 1 .5v-1h.5c-.5.5-.5 1 0 1 0-2 .5-2.9 1.5-2.4v1.5c2 0 4.4-.5 5.4-1 0 1-1 2-2 2h-1-.5c-2 .5-2.4 1.5-.5 2.4h.5c3.4-1 5.9-2.9 9.3-2.9h.5c1-.5 2-.5 1-2.9 0-1-1-1-1.5-1 0 2.4-1 2-1.5 2 0-.5 0-1 .5-1v-1c-1.5 0-3.4-1.5-3.4-2h-.5c0 .5.5.5.5 1h-.5c1.5 1 1.5 2 .5 2.9 2.4-.5-4.9-1-6.9-2zm40.1 5.4c-.5 1 3.4 0 2.9 0 0 .5 3.4 0 3.4 0 1 1 1.5 1 1.5.5 1.5-1 2.9-.5 4.4 0h1c.5-.5 2.9-.5 2-1v-1c.5.5 1-.5 1.5-1-.5-1-1.5-1.5-2-1.5-1.5.5-2 .5-2-.5-2 1-2.4 1-2.4 0-1-.5-4.4 1-4.4 1h-1c-1-.5-1.5-.5-1 .5-1-.5-5.4-1-4.9-1.5h-.5c.5-1 2.4-1.5-1.5-2h-.5-2.3c-1.5 1-3.9-2.9-4.9 0 0 .5.5.5 1 .5 2.4-1 3.4-1 3.4.5h.5c1.5 0 3.4 5.9 3.4 5.9 1 .1 1.5-.4 2.4-.4.5-1.5-.9 0 0 0zm-40.6-7.9h-.5v1c.5 0 1-.5.5-1zm25.5 0v.5c0 .5 0 .5.5.5h-1c-1.5-1.5-1.5-.5-.5 2 0 1.5-3.4-2-2.9-1.5 0 1.5 0 2.4-1 2.9-.5 0-1 .5-.5 1 3.9-1 3.9-1.5 5.9 1 2.4 0 2.4 0 2.9-1-1-1-1-1.5-.5-1v-.5h-.5c.5-1 .5-1 0-1v-1c-1 0-1.5-.5-1-1-1.4-.4-1.4-.9-1.4-.9zm-8.4 0c-2 2 .5 1 1 1 0-.5-.5-1-1-1-.5.5 0 0 0 0zm21.6.5c1 1.5 1.5 1.5 1 0-.5-.5-1-.5-1 0zm227.3 16.2c.5.5.5 1 .5 2 .5 0 1 0 1-.5 1-2.4 4.9 2.4 2 1.5.5 0 .5.5.5 1h-.5v.5c2 0 3.4.5 5.4 0-.5-1.5 1-1.5 2-1 0-.5-.5-.5-1-.5-1.5-1-2.4-2.4-2.4-3.9.5-1.5 2-2.9 0-3.9-.5-.5-2.9-.5-1-.5h1c1-2 1.5-1 2.9-1v-.5h.5v-1h.5v.5c-3.9 0 3.9-2.9 2.9-2.9 1 0 2.9-1 3.9-2 2.4.5 3.4-1 5.4-1h1 .5c4.4-2.9 2-2.4-1.5-2-.5.5-2 1-2.9 1-1 .5-2.4.5-3.4 0v1c-1-.5-1.5-.5-1 0h-.5s-.5.5-1 .5c-2.4.5-5.9 2-6.4 2.4-.5 0 0 2-2 1.5-1 .5-5.4 2.4-1.5 2 1.5 0-1 1.5-1 1.5 1.5.5 0 1-1.5 1.5 0 2.8-1.4 1.8-2.4 3.8 0 1 .5 0 0 0zm-249.4-14.2h1 1c0 1-2.9 1.5 0 1-1 0-1.5.5-1 1.5 1.5.5 2.4 0 2.4-1 1-.5.5-1-.5-1.5h-.5c1.6-2.5-2.9-1-2.4 0zm-18.6-1c.5 1 .5 1 .5.5 0-.5 0-.5-.5-.5zm155.3.5c.5.5.5 1 .5 1.5 0-1 .5-2-.5-1.5zm184.7.5s4.9-.5 1 0h-1c.5 1.4 0 0 0 0zm-343.4 1c-4.4 1.5 2.9 3.9 1-1-1 0-1 .5-1 1-1 0 0-.5 0 0zm61.2-.5c0 .5 3.5.5 0 0zm277.8.5s0 .4 0 0h.5c-.5-.5-.5-.5-.5 0zm-305.2 0c0 .4.5.4 0 0zm.5 1.4c1.5-1 2-1.5 1.5-1.5-1 .1-1.5.5-1.5 1.5.5 0 0-1 0 0zm375.7 3c0 .5 0 .5 0 0 2.9 3.4 3.4-2.4 0-2.9.5 1.5.5 2-.5 2 0 .4.5.4.5.9zm-372.8 0c1.5 2 1.5-2.4.5-3.4-1.5-.5-2.9 2-2.9 2.9l2 1zm123.5-1.5c.5-.5.5 0 1 0v-1c-3.5-1-1.5 1.5-1 1s0 0 0 0zm257.6-1.5c1.5 3.5 2 3 0 0zm7.4 2c.5 0 2.4.5 2.4 1 1 0 1.5-.5 2-1h.5c-1.5 0-2 0-2-1h-.5c-2-1.5-3.4-1.5-3.4 0 1 .5.5 0 1 1zm-403.2-.5c.5-.5 0-1 0-1-.5 0 0 .5 0 1zm-8.8.5c-.5 0-.5 0 0 0zm48 0c-.5 0 0 0 0 0zm96 0c0 1.5.5 1.5 1 .5-.5 0-1-.5-1-.5zm-167 9.8c3.4 2.4 9.8-2.9 12.2-5.4h.5c0-1 0-2.4-1-2.4-2 1-2.9 1-2.9 0-2-1.5-3.9-2-5.9-1h-.5-1-1c-1.5 0-1.5 1-1 2v1.5 1.5.5h-.5c0 .5 0 1 .5 1.5.1.3.6 1.3.6 1.8.5.5-.5 0 0 0zm42.6-8.8c-.5-.5-.5 0-.5 0zm65.6 0c-.5 0-1 0-1 .5.6 0 1 0 1-.5zm-63.1 0c0 .5 0 .5 0 0zm119 .9c.5 1 1 1.5 1 1h1c-1-.5-1.5-1-2-1zm121.5 0c0-.4 0-.4 0 0zm-241 5.9c.5-2 0-2.4-1.5-1-.5-3.4-2-4.9-3.4-4.4h-.5.5c-1 .5-1.5.5-1.5-.5-3.4 2-1 2.4.5 2.4 0 1-1.5 1.5-1.5 1.5h-1.5c0-1.5-.5-1-1.5-1v1c1.5 5.4 8.4 4.5 10.4 2zm98.4 183.2v-1.5c-.5-.5-1-2.9-1-2.9v-.5c-2.4-.5-4.4-2-6.4-4.4-.5 0-1.5 0-2-.5h-1s-1-.5-1.5-.5h-.5c-1-1-2-1.5-2-.5-1 0-1 2-1.5.5-1.5-2.9-4.4-3.9-7.8-1v-.5c-.5.5-.5.5-.5 0h-1c-.5-1-1-1.5-1.5-1v-.5c-.5 0-1.5.5-1 1-.5 2.4 0 1.5-.5-.5-1 0-1.5 0-1.5.5h-1c-2.4 2.4-3.9 2.9-3.9 1.5 2.4-.5 3.4 0 4.9-2 0-1 1-2 2-2.4.5-1.5 1.5-2 2.4-.5 0-1 0-1-.5-1h.5v-1c-1 0-1 .5-1 1h-.5v-2.4c.5-1 .5-2-.5-2v-1c-.5-1.5-2-2.9-2.9-3.9 0-.5-.5-1-1.5-1-1-.5-1.5-.5-1 0v-.5c-.5 0-.5 0-1-.5s0 0-.5 0h-1c-2 2-2.9-3.9-3.9 0 .5-2-.5-3.9-2-3.9-1.5-1-2-1-2 0-1.5 2.9.5-1.5 0-2-.5 0-3.4-1-1.5-1.5 0-.5-2.9 0-2.9 0-4.9-2-10.3-3.4-10.8 1.5 0 1-.5 1.5-1 1.5 0-.5-.5-1.5-.5-1.5 0-2 0-3.4.5-4.9-.5.5-1 1-1.5 1.5h-.5c-1.5.5-4.9 2.4-4.4 4.9 0 .5-.5 1.5-1 2v1c-3.4-3.4-5.9-3.9-8.8-2.9-1 0-1.5-.5-1-1-.5-.5-1-1.5-2-2-.5-1.5-1-2-.5-2.9v-1.5-2-1s.5-.5.5-1v-.5c.5-1.5-8.3-4.4-8.3-3.9v-.5c.5-1 .5-2.4.5-2.9.5.5-.5 1 .5 1-.5-1.5.5-3.9 1-5.4-.5-.5-.5-1-.5-2-2-.5-2.9 0-2.9 1.5-1 1-2.9 3.9-3.9 5.9 0-.5-.5-.5-1-.5-.5 1-1 1-2 1-1-1-2-1.5-2.9-1-1.5.5-2.4-2-2.9-2.9 0-1-.5-2-1-2.4-.5 1 0-2.9 0-2.9v-.5c0-2.9 0-5.9.5-7.8v-.5-1c0-.5 0-.5.5 0 .5-1.5 1-2 2-1.5-.5-1 1.5-1 1.5-1 1-1 0-2 1.5-1.5 4.4-.5 6.9 0 8.8 1 1-.5-3.9-4.4 1.5-2.9 0 0 3.4-.5 3.4 0 2 0 2.4.5 2.4 1.5.5 0 .5-.5 1-1 2.9 2.4 3.4 3.4 2 3.4-.5 2.9 2.9 5.4 4.4 5.4v-1-.5c0-1-1-3.4-1.5-4.4v-.5c-.5-.5-.5-1.5-.5-2 1-2.4 6.9-9.3 6.4-10.3h.5c-2-1 .5-.5.5-.5.5 0 1 0 1-.5-1-.5-3.4-3.4-1.5-3.9-1-1-1-1-.5-1-1-1-1.5-1.5-.5-1-.5-1.5.5-1.5.5-2.9 1.5-.5 2.4-1 1 1 0 1 0 1.5-.5 2.4h.5.5v1c.5 0 .5-.5 1-.5v-.5c0-.5.5-.5 0-1 .5-1-1-4.4 2-2.4v-2.4c1-1.5 2.4-2 3.9-2h.5c.5-1 .5-1.5 2-1-.5-1.5-1-2 0-3.4 0-1 1-1.5 1.5-1v-.5h.5l1-1s.5.5 1 .5c.5-.5 1.5-1.5 2-2h.5c0-1 .5-2 .5-.5 1 0 1.5-2.4 2-1.5v.5l-.5.5c.5-.5 1.5-.5 2.4-.5-2.4 1.5-2 1-4.9 3.4 0 2.4 2.4 1 2 1.5 1.5 0 1.5-.5 1.5-1.5v-3.4h.5c1 0 1.5-.5 3.9-2.4h.5c-1 0-1-.5-.5-1.5-2 1-2.9 1.5-2.9 0-.5.5-.5 0-.5 0 .5 0 .5 0 .5-.5h-1-.4v-.5h-.5v-1c1-1-1-2.9-2-2.9 0-.5 0-.5-.5-.5.5-.5 1 0 2 0v-1c.5.5 1 .5 1 0v-.5-.5h.5c-2-2-2.4-2.4-2.4-1.5-2.9.5-8.3 6.4-7.8 5.9.5-2 2-3.4 3.9-4.4.5-1.5 2-3.4 3.4-3.4h1 1c0-.5.5-.5 1 0h2v-.5h1.5c.5-.5 1.5 0 2 .5 0 0 0 0 0-.5 0 0 .5.5 1 .5.5-.5.5-.5 1-.5 0-.5 0-1 .5-1 1.5 0 5.9-3.9 5.4-5.4 0-1-1.5-2-2.4-2.4-.5.5-2 .5-2.9 1.5h-2c2 0 2.4-.5 2.4-1.5.5.5 1 0 1 0 .5 0 1.5-.5.5-.5 0-.5 0-1-.5-1-.5-.5-1.5-.5-2-.5 0 .5-.5.5-.5.5v-.5c-1 .5-1.5.5-1-.5-.5-1-1-1-2-1.5v-1.5h-.5s0 0 0-.5c-.5.5-1-.5-1-.5v-.5c1.5 1 2.4-.5 0-1.5.5-1.5.5-2-.5-2 0 0 0 0 0-.5-1.5.5 2-1.5-1-1h-.6c.5-.5.5-1 .5-1.5s0 0 0-.5h-.5v-.5h-1c.5-2 .5-2.4-.5-2.4v-1c-2 .5-2.9 4.4-3.9 5.4-2.4-.5-4.4-2-4.4-4.9v-.1h-.5c0-1 2-2 0-1.5h-1c1-.5 1-1 0-1h-1c-3.4 1-2.9-4.9-8.3-2.4-1.5-1-2-1-2 0-1 .5 0 5.4-.5 5.9h.5v1.5h.5s0 0-.5 0v.5c-2 2.4-1 4.4 2.4 6.9-1 1.5-1 2.4 0 2.4v-1c1 1 .5 1.5-.5 1-2.9 2-4.4 4.9-3.4 7.3.5 1 .5 1.5 0 1.5 0 .5.5.5.5.5-.5 0-.5 1-.5 1v1c-.5 1-1.5 1-2.4.5 1-2-1-3.9-2.4-4.9 0-2.4.5-3.4-1-4.4h-2.4c-2 0-4.9-2.4-5.9-3.9-1-.5-5.4-2-5.4-2-.5.5-1 1-1 0v-.5s-.5-.5-.5-1-.5-1-.5-1.5c0-.5 0-1-.5-1h-1.5c-1 0-1.5 0-2-2 1.5-1-.5-3.4 2-3.4 2-.5 2.4-1.5 2-2.9v-.5h.5v-.5c.5.5 2.4-2 2.9-2v-1c.5-2 1-2 2.4-2v-.5c3.4-2.9-1-3.4-.5-3.4v-.5c.5 0 1 0 1 .5 1.5.5 2-.5 3.4 1 2 0-1-5.4 3.9-2 2-.5-.5-2-1-1.5 2.4-1 3.9.5 6.9-2-.5-1.5-.5-2-.5-1-.5-1-.5-1-1.5-1 1.5-1.5 1.5-2 .5-2h-.5c.5-2 1-2.4-.5-2.4-.5 0-1-.5-.5-1 1 .5-3.9-1-2.9 0h-1c0 .5.5 0 .5 0s0 0 0 .5c.5 1 1 2 .5 2.4 1.5 2.4-3.9 7.8-5.9 2-1-3.4-1.5-4.4-1.5-2.4v1.7c-1.5 2-2 .5-2.4-2v-.5-.5h-1c-1.5-2-.5-2.4-1-2.4 0-.5 0-1 .5-1s.5 0 .5.5c1-.5 1.5-1 1-1 0 0-4.9-3.4-5.4-2.9v-1h-.5c0-.5 1-.5.5-.5.5-1 2-1 0-2 4.9-2.4 9.3-2.9 3.4-4.9h-.5-2.7c-1.5.5-3.4 0-3.4 1.5h-.6s.5 1.5.5 2c0 2 1 5.9-1 5.4 0 1 0 2.9-1 2.9v.5c.5 1 1 2 1.5 2.4v-1c.5 0 1.5 1 1.5 1.5 1 .5 1.5.5 1.5 0 1.5-1 .5 1 0 1.5-2.4-2-.5 4.4-3.9 3.9v.5c-.5.5-1 1-.5 1 2.4 2.9-.5 1-1 1-1.5-.5-1.5-1.5-1-2.4v-.5c-1 .5-.5.5-.5 0v-.5c-.5-.5-2.9-2-2.4-.5 0 0 0 0-.5 0 0 .5 0 1 .5 2 0 .5-1 .5-1 .5h-.5c-.5-.5-1.5-1-2-.5-1.5 1-2.9 1-3.9-.5v-.5c-.5.5-1 0-1.5.5h-.5s0-.5.5-.5l-3.4-2.4h-.5c-3.9-1-3.4 3.4-2.4 2 .5-.5 1.5-1 2.4-.5h.5s-3.4 1.5-3.4 5.9c-1.5-.5-3.4-2.9-5.4-3.9h-.5-.5s0 0-.5 0h-.5c-1 .5-1.5.5-1.5 0h-1c-1.5-1 .5-4.9-3.4-3.4l-2-1c-1.5-.5-3.4-1.5-5.4-2.4h-.5-1c-2-.5-3.4-2-3.4 0-.5.5-.5 1 0 1.5-.5-.5-2.4-2.4-2.9-2-2-2.9-3.9-4.9-3.9-2 0 2-1 2.4-2 2-1 1-2.4 1.5-3.4 2v.2c-5.4 2.4 0-.5 2.9-2.9v-.5h-.5c-.5-.5-1.5 2-2.4 1-1 0-3.4 1.5-4.4.5h.5v1c0 1-.5 1-1 .5v1c-.5-.5-1-.5-1 0h-.5c1 .5 1.5 1 1 2-2.4-2-5.9-3.4-9.3-4.4l-1-.5c1.5.5-9.3-1-7.3-1-1 .5-1.5.5-1.5-.5 7.3-1.5-5.4 0-5.4 0h-.5-.5-.5-1-1s0 0 0-.5h-1.5.7-1c-.5 0-2.4-.5-2.4-.5v-.5l-1-.5c-1 0-4.9 2-4.9 2-2-.5-4.9 3.9-6.9 5.9h-.5-1-.5-.5-.5c.5 2.4.5 3.4 3.9 3.9s-.5.5 0 1c1.5.5 2 0 3.4 0-1.5 1 0 1 1.5 1-1 .5-1 1-1 0-.5 0-.5.5-.5.5h.5v.5h-.5v-.5c0 .5-.5.5-1 .5-2.9-.5-2.9-1.5-4.9-2h-.5-.5c-3.9 2-2.4 3.4-2.4 3.4 1 2 2.9 2.4 4.4 1.5h1v-.5c1.5 1 1 2.4 2.9 0h1c1 2 1 3.4-.5 2.9-9.8 4.9-4.9-2-4.9 2.4-2-.5-2.4 2-2.4 2.4v.5h.5c2 2.4 2.9 2.4 4.9 2.9-.5-.5-.5-1 0-.5-.5 1.5 0 2 1 2-.5 1-.5 1.5.5 1-.5 0-.5.5-.5 1v.5c2.4-.5 2.9 0 4.9 0v-.5c1-2.4 2 3.4-3.4 7.8s0 0 0-.5c-13.2 0-2.4 2.9-2.4 2.9 0-.5 2-2.9 1.5-1.5.5-.5 1-.5 1.5 0 .5-.5 1-1.5 1-.5 0-.5.5-.5.5-.5.5 0 .5-.5.5-1 0 0 .5 0 .5.5v-.5l2-1.5c2-.5 6.9-5.4 5.4-6.4v-1c1 0 2-1 2-2 .5 0 4.4-2.9 4.4-2.9 2.9-1-1 2.4-2.9 3.9 0 .5.5 1 1 .5-2 3.9 2-1 2.4-1h.5c.5-1 1-1.5 1-.5-1 .5 4.9-2.4 2-1.5h-.5v-1c2 .5 2.9-.5 2.9.5h1 .5c-.5.5 2.4 1.5 2.9 2h1c1-1 1.5-1 1.5-.5h.5l1 .5c1.5 0 3.9.5 3.9 1 1 1 2.9 2.9 3.9 4.4s1.5 2 1.5.5c2.9 1.5.5 0 1-1-3.4-2.4-.5-2 1.5-1.5v.8h.5c-.5 1 1 2.4 1.5 3.4.5 2.9 2.4 3.9 3.4 4.4 0-.5-.5-.5-.5-1 0 3.4 2 2 1.5 5.4 0 1.5.5 2 1.5 1.5-.5-.5.5-1 .5-1 .5.5.5.5 0 .5 2 1.5-2 1 1 2 .5 1 1 1.5 1.5 2 1 1 1 1 0 1s0 0-.5 0c.5 1 1.5 1 2.4 2h1c1.5-.5 2-.5 2.4 1h1c-.5.5-.5 1 0 1 1 0 3.9 2.9 2.9 3.4 0 .5-.5 1 0 1.5-1.5.5-1-1.5-2.4-1.5-.5-.5-1-.5-1.5 0-2.4-1 1 1.5.5 3.4h.5v1c-.5-.5-.5 0-.5 1v1.5c-.5.5-.5 1-.5 1.5-.5.5-.5 1 0 1.5-.5 1.5.5 5.4 0 6.9v2h-.9c0 1 4.9 7.8 2.9 4.9h.5c.5 1 0 1.5 1 2.4-1 1.5 1.5 4.4 1.5 4.9v.5.5c2-.5 4.4 2.4 5.4 3.4s.5.5.5 1 4.9 7.8 4.4 7.3v1 .5h-1c0-.5 5.9 5.9 4.9 4.4v.5c1.5 1 3.4 3.4 2.9 5.4h.5c.5-.5-2.4-6.4-2.9-7.3 0-.5-1.5-2.4-1-2 0 1-3.4-6.4-3.4-6.4 0-.5-1-2.9-1-2.9 2.9 0 4.9 3.4 5.4 5.9v.5s2.4 3.4 2.4 2.9c.5 1.5 1 2 2.4 2-2 1.5 3.4 6.4 4.4 7.3 0 4.9 2.4 8.8 6.4 10.8 1.5 1 3.4 2 4.9 2.4.5 0 1.5 0 2 .5 4.9-1 8.3 0 11.3 3.9 1 .5 2.4 1.5 3.9 1.5 1-.5 2.9 0 2.4 1 0 1 .5 1.5 1 1.5 0 .5 1.5 2 1.5 2.4v.5c-.5 2-.5 2.9 1 2.9 0-.5.5-.5 0-1 2 .5 2.4 2 2.4 3.4v-1c2.4 0 3.9 1 4.4 2.9 2.9-1-1.5-2 4.4-2-1 1.5-1 2.4 1 2.9 0 .5-2 6.9-.5 6.4 0 1-2.9 3.4-2.9 3.9v.5c0 .5-1.5 1.5-1.5 2-1.5 3.9-2.4 6.9 0 6.9v.5h-.5c-2 5.4 0 10.8 4.4 15.2v.5c.5 1.5 2 3.9 2 6.4.5 0 .5.5.5.5 0 .5 0 1 .5 1 2 2 3.9 3.4 6.4 4.9 2.4 6.9 1 11.8 1 19.1v.5c1 2.9 1 3.9-.5 3.9v.5h-.5c-.5 1 .5 1 .5 2 0 2.9-1 6.9-1.5 9.8 0 .5-.5 1-.5 1.5.5-1.5-1.5 7.8-1.5 7.3s-.5 1 0 1c0 1.5-.5 3.4-1 4.4v1c0-.5 4.9 1.5 1.5 3.4-1 1 0 3.4-1 3.4-1 2-1 2.9.5 2.4 0 .5-1 3.4-1 2h-.5v.5c.5-1 .5-1-.5 0v-.5c-1 .5-2 1-1 2.4v-.5h.5s1 1.5 1 .5c1 .5 1.5 1 .5 2 .5 0 .5 0 0 .5h-.5v.5 2 1.5c0-1.5 0 2 .5 2.4-.5-.5 1 2.9.5 2.9h-.5v.5h-.5c.5 0 1 .5 1.5 1s.5 0 .5-.5c0-.5 0-1 .5-.5h1c0 .5-.5 1-1 .5v1 3.9h-1c0 .5.5 2 1 2-.5 1.5 2.4.5 2.9 0v-.5-.5h1.5c2.4 0 2.9-.5 2-2-.5 0-1.5 0-.5-.5 0-1 0-1.5-.5-1 1-2.9 1.5-3.4 2.9-3.9s0 0-.5 0c1.5-5.4 3.4-8.8 4.4-14.2-.5-2.4 2-2.4.5-3.9 1-1 1.5 1.5 2.4-.5 0-1-.5-1.5-1-.5-.5-1.5-1-2-2-2 .5 0 .5-.5.5-1v-.5c3.4-.5 5.4-2.4 6.9-5.4h1.5.5s1-.5 1.5-.5h.5c-.5-2.4.5-7.3 0-11.8 8.8 6.4 6.9-3.4 12.7-4.9-.5 2.4-1 3.4 0 1v-.5-.6-.5-.5c0-1 2-2.9 2-2.9-.5-1.5 0-2 1-2v-.5c-.5-.5-.5-1 0-2v-1.5c0-1.5.5-2.4 3.4-3.9 1.5-.5 3.4-1.5 2.9-2.4l2-.5h.5 1c-.5-1.5 2-2 2.4-2.4 1 3.9 3.4-10.3 3.4-9.3 0 0 .5-1.5.5-2v-1-.5c.5-2 .5-2.4-.5-2.4v-1.5h-.5c0-1 0-1 .5-1 .5-.5 1-1 .5-2 1 0 .5.5 1 1 1-2.9 2.4-5.4 4.9-7.3 0-.5.5-1 .5-1.5 1 .5 1 .5 0 .5zm-46.5-130.8c-.5 1-1 1-1-.5.5.5.5.5 1 .5 0 .5-.5 0 0 0zm-3.9-3.9c-.5 0-.5-.5 0 0zm-3.9 3c0-.5.5-1 .5-1 .5 1.5.5 2-.5 1.5zm-1 1.9c2.4 1.5-3.9 3 0 0 .5.5-.5.5 0 0zm-6.4 21.1v-1zm2-16.2h.5c-1 .5-1 .5-.5 0zm-1.5-8.8c-.5 0-1 0 0 0-.5-.5-.5 0 0 0-.5 0-.5-.5 0 0zm-1-2.9c1 .4-.5.4 0 0zm0 12.7c2-1 2.9-2.4 1 0zm0 12.7c-2 3.4-1-1-1 0h1c-.5.5 0 0 0 0zm-1.9-26.9c2.9 0-.5 1.9 0 0 .9 0 0 .5 0 0zm-27 61.7-.5-.5zm20.1-30.8h2c-.5-.5-.5-.5-.5-1h1c6.9 1.5-4.4.5-3.4 2.9-.5.5-2 1.5-2.4 2-.5 1-1.5 1.5-2.9 1.5h-1 .5c0-.5-.5-1-1-.5 0-1.5.5-2.4 1.5-2.4h.5c-3.9 3.4 5.9-1.5 4.9-.5h.5c-1.2-1.1-1.2-1.6.3-2zm-.5-2c0 1.5-1 1 0 0zm-2-4.4h1 1c-.5.5-.5 1-.5.5-1 0-1.5 0-1.5-.5zm-13.2-8.3c.5-1 1.5-2 1.5 1-1 .4-1.5-.1-1.5-1v1c-.5-.6-.5-1 0-1zm-4.9 6.8c1-2.4 2.4-3.4 3.9-3.4 1 .5 2-1 2-1 1.5.5 2 0 2.9 1.5.5 1 1 1 2 1.5.5.5 3.4 4.4 3.4 4.4h1c2.4 0 3.9 1.5 4.4 3.4-.5 0-.5 0-.5.5v.5c-.5-1-1-1-1.5-.5-1-1-1.5.5-1.5 2 1 3.9-2.9-1-2.9-2.4-2.9-3.9-4.4-.5-4.4 3.4v1c-.5.5-1 1-1 2-.5-.5-1-1-2-1v-1-.5-.5-.5-1c-.5-2.4-1-1.5 1.5-3.9v-.5c1 0 2.9-.5 2.9-.5 2 1.5 0-1-.5-1.5 0 .5-.5.5-.5.5s-2 1-2.4 1c.5 0-2.9-1.5-2.9-1.5.5-.5.5-1 .5-.5 1 0 1.5-.5 1-1-2 1-3.9 1.5-6.4 2h-.5c1.5-2 1.5-2.5 1.5-2.5 1.5-1 0 0 0 0zm-4.9-69.1s0 0 0-.5c1 .1 1 .5 0 .5zm-101.4 38.3c-.5 0-.5 0 0 0zm35.8 1.9c-.5-.5-1.5-1.5-1.5-1.5 1 .5 1.5.5 1.5 1.5zm1-1.9v-.5zm20 29.8c-.4 0-1.4 1.5 0 0zm7.9-41.1c-2 1.5-3.4 1.5-3.4 0-3.4-1 1.5-.5 2-.5.4.5.9.5 1.4.5zm0-5.9h-2.9c.5 1 2.4 2 1 1-2.4 2.4-3.9 2.4-3.4 1h.5c3.4-2-7.3-3.4-.5-3.4 0-1-1-1.5-2-1.5h-1.5-1v-.5c2 1 2.9.5 2.9-.5h1 .5c1-.5 2-.5 2.9 0h1c-1 1.5-3.4.5-.5 1.5 3.5-1 2.5 1.9 2 2.4zm8.8 61.7c-5.9-1.9 3.4-3.4 0 0-1.5-.5.5-.5 0 0zm1-52.9c-1 1.5-3.4 2.4-4.9 2.9h-1-.5c-.5-.5-1.5-1-2.4-1-1.5-1-.5-.5.5-.5 1.5-2.4 5.4 0 2.4-3.4-.5-2 1-1.5 1.5 0v.5c1.5 2 5.4-.5 6.4-1.5h1c1.5.5 2 .5.5 0 0 .5.5.5.5 1-2.1.1-3 1-4 2 0 .5 1-.5 0 0zm6.8 7.4c-3.9-1-9.8 4.4-.5 0zm6.9 2.9c1 0-1.5 2 0 0zm-.5 5.9c0-.5 0-.5 0 0 .5-.5 0 0 0 0zm2.5-3.9c-.5.5-.5 1.5-.5 2-.5 0-1 .5-1 1s0 0 0-.5c-.5-2 0-3 1.5-2.5 0-.5 0 0 0 0zm3.9 11.2c0-1.5 1-2 2-1.5.5-1 .5-1 .5-.5h.5v1.5.5c0 .5 1 2.4 1.5 2.9 2.9 1.5 1 1.5 1.5 3.4v.6c0 .5-.5 1-1 .5v-1-1c0-1 0-1-.5-1-.6-1.4-3.5-3.9-4.5-4.4zm-.5 3.5c-3-2-1.5-6.4 0 0-.5 0-.5-.5 0 0zm2.4 3.9c-2.9-3.4-3.4-4.4-1.5-3.4h.5c.1 2.4 2.5 2.9 1 3.4zm19.1 83.3c-.9-1-.9-1 0 0zm2.5 1.9c-1.5 0-2-1-1.5-2 2 1.5 2.5 2 1.5 2zm19.1 136.2c0-.5 0-.5.5-1v.5c0 .5-.5.5-.5.5 0-.5 0 0 0 0zm.5-1.5h1c0 .5-.5.5-1 0zm1 2v-1.5c.9.5.5.5 0 1.5zm4.4-81.8c-2.4-.5-1.5-1.5-1-1 1 0 1.5.5 1 1zm2.9 5.9c-1.5-1.5-.5-1.5 0 0zm-15.7-209.7c-1-1.5-1-2-1-1-.5-.5-.5-.5-.5 0h-.5-.4c0 .5-.5.5-1 0h-.5c-1 .5-1.5.5-2.4 1.5-.5 2 0 2.4 2 2.4h1.5c.4-.4 2.3-1.9 2.8-2.9zm303.8-1.5v1c1.4-1 1.4-1.5 0-1zm44.5 0c-.5 1 .5 2 0 0zm-339 9.3v-.5c-1.5-1-2-1-1.5.5s-.5-1-.5-.5v-1-.5s-2 2.4-1 .5c-1-.5-1-.5.5-1 0-1.5 0-2-1-1.5h.5c0-1 0-1.5-1-1.5h-1c-1 .5-1.5.5-1.5 0-.5 0-1-.5-1.5-.5-3.4-2-2.9-.5-2 1.5-2-1-2.4-1-1.5.5 0 0 0 0 0-.5-.5.5-1 2-1 .5v-1c-.5 0-1 .5-1 .5s0 0 0-.5c0 .5-5.4 1.5-2.4 0v-2.9c0-2-.5-2.4-2.9-1.5v.5h-1v1.5c-1-1-1 1-1 1h-1-.5c-.5 1.5 0 2 .5 2h1c-.5 0 0 1 0 1-.5-.5-1-1-2-.5v1c3.4 1 1 2.4-1.5 2.4 0-2.4 5.9 1.5.5-4.4v-.5-1c.5-1.5 2-2.4 3.9-2-.5 0-.5-.5-.5-.5-7.3 1-9.8 1.5-7.3 1.5-1.5 2.4-2.4 2.4-2.9 4.4 1.5 1 2 1.5 1 1 2-.5 2.9 0 2.9 1.5h-.5-.5c.5.5.5.5.5 1 1 0 1 0 1 1 0 0 3.9-.5 2.9 1h.5.5v-.5c2.4 1.5 3.4 2 3.4.5 2.9-.5 1.5-2.4 3.9 1-1.5-1-1-1.5 0-2 2.9 1.5 3.9 1.5 2.9-.5-.5 0-.5.5-1 .5-1-2.9 2.4 1.5 2 0 .5 1 .5 2 1.5 1 .5.5.5.5 1 .5h.5v.5c1 0 .5-1.5 1.5-.5 0 1.5.5 2 0 2v1c.5.5 1 .5.5 1.5l2.9-1.5s1 3.4 1.5 3.9c-.5.5-.5.5 0 .5h.5v.5h-.5c1 1.5 1 2 0 2h-.5c-.5 0-.5.5-1 .5-2.4 1.5 2 3.4.5 3.9h-.5c-3.4-.5-6.4.5-6.4 4.4 0 0 5.4-2.4 5.4-2 .5.5 1.5.5 2 1 .5 2.4 1.5 3.4 3.4 2.9-.5 1.5-2 2 .5 1 0 .5 3.9.5 4.4.5h1c.5-.5 1 0 1 0h1v-1h-1.5v-.5c-3.4-1-2.4-3.4-1.5-2.4 1 1 2.4 1 3.4.5 2 1.5 1.5 1 0-.5h1c-.5-1-.5-1 0-1v-.5l-1.5-1c-.5 0-3.4-3.4-3.9-3.4v-.5c2 2 0-1.5.5-1.5 1 1 1 1.5 1 .5-.5 0-.5-.5-.5-1 1 0 2.4 2 2.9 2.4 1 0 .5 0 1 .5v.5h1c0 .5 0 .5-.5 1h1c-1 .5-1 1-.5 1 .5-1 .5.5 1.5 0h.5c-.5-1-.5-2 .5-2h.5c-.5-1-.5-1.5.5-2.4.5-.5.5-.5.5 0 .5 0 .5.5 1 0-.5-1-.5-1.5.5-1 .5-1-1.5-3.4-1.5-1-1-.5-1.5 0-2 .5 0-2-.5-2-.5-.5-1 .5-1.5.5-1.5-.5-.5.5-.5 0-.5 0h.5c0-2-1.5-.5-1.5-1 .5-.5.5-1 0-1 0 1-.5 1-1 1v-.5s-2.4 2.4-1 0c0 0 0 0-.5 0v.5-.5h-.5v-.5h-.5c0-.5.5 0 .5-.5-1-.5-1.5.5-2.4-1 1-1 2-1.5 0-2.4.5.5 1 .5 2 .5-.5-.5-1-1-1.5-1h-.5c0-.5-.5-.5-.5-1 1 0 1.5 0 2-1-.5-2.9-2.4 0-2-1h-1c1-2.9-2 0-1-2-1-.5-2.9 2-1-1-.5.5-1 .5-.5 0 .4.6-.1 1.1-.1 1.1zm-11.7-2.9c.5 0 .5.5 0 0 0 .5.5.5 0 0zm11.3 3.9c-.5-.5 0-.5 0 0zm10.2 19.1h-.5zm-5.8-16.6c.5.5 0 .5 0 0h-1s.5-.5 1 0c0 0-.5-.5 0 0zm-2.5-2h.5c-.5.5-1 .5-.5 0zm-1 10.8v-1c1.5 1 1 2 3.4 1.5v.5h.5c1 1-3.9 2.9-3.4.5 0-.5 0-1-.5-1.5zm0 5.4h.5c1.5 2 1.5 2.4.5 2.4v-.5c-.5.5-1 .5-1 0h-1v-2h1zm338-24.5c1 .5 2.9 1 3.9 1 1.5.5 2 .5 2 0v-.5c-1-4.4-3.9-.5-5.9-.5zm-26.9 1c.5.5 2 2 1.5 1 .5-3.4-2-1.5-2-2 0 1 0 1 .5 1zm-358.6 10.7c.5-1-1.5-2.4-1-2-2-2.4-2.9-2.9-2.9-1-5.4-2.9-6.9-5.4-9.3-7.8-1 .5-5.4.5-5.4.5v1 .5 1c-2.9-.5-2-2-2.4-4.4-2.9-.5-4.4 0-4.4 1.5-.5-.5-.5-.5-.5 0h-.5c-2 1-2.9 2.4-2.4 4.9 1-1 2 0 2.4 0 1 0 2-.5 2.4-.5 1-.5 1.5 0 1.5.5h-.5c-.5-.5-1 0-1 0-.5.5-1 1-1.5.5-2 0-2.9.5-1.5 1.5 1.5.5 2 .5 2 0 .5 0 7.8-.5 7.8 0h-.5v.5c-2.4 1-4.4 0-6.9.5-1 .5-1 .5-1 0h-.5c.5 2-1.5 2.9 3.4 2.9 1 .5 2 1 2 2 2 1 2.9 1 2.9 0 1 .5 1 .5 1 0 2.4 1 3.4.5 3.4-.5h.5c1.5-.5 6.4-2.9 5.4-2.4 1 .5 1.5 1.5 1 2 1.5 0 1.5-1.5 2.9.5v-.5h1c2-1 2-1 1-1v-.7c-.5 0-3.4 1-2.4-1 2 1.5 2.9 1.5 2.9.5h-.5c.1.5 1.1.5 1.6 1 .5-.5 0-.5 0 0zm-8.8-10.7c-4.4-2.4-2.4-.5 0 2h.5c0-1.1 0-1.5-.5-2-1-.5.5.5 0 0zm283.6-.5h1c1.5-2.5-3.4-.5-1 0zm-268.9-.5h.5c-.5-.5-.5-.5-.5 0zm121 4.9c1 0 2-1 0-1 0-.5.5-.5.5-1-.5-.5-1-.5-2-.5 3.4 0-1.5-1.5-.5-1.5 0-.5 0 0 .5-.5-3.4-1-4.9.5-4.9 2 4.4-.5 2 2.5 6.4 2.5zm161.7-3c1-1.5.5-2-1-1 .5.6 1 .6 1 1 .9-.4 0-.4 0 0zm-282.2-1.4c-.5 0-.5 0 0 0zm359.1 1c0-.5 0-.5-.5-.5-.5.5 0 .5.5.5zm-85.3.4c.5-.5.5-.5 0-.5v.5c.5 0 0-.4 0 0zm83.8-.4c-.5 0-.5 0-.5.5 0-.1.5-.1.5-.5-.5 0 0 .4 0 0zm0 .4c.5-.4.5-.4 0 0 0-.4 0-.4 0 0zm2.4 0h-1c1 .5 1 0 1 0zm-4.4 1c0-.5.5-.5 1 0-.5-1-1-1-1-.5s.5 0 0 .5zm5.9-1h-1.5c1 1 1.5 1 1.5 0-.5.5 0 .5 0 0zm-81.8 2c.5-.5.5-.5 1-.5.5.5.5.5.5 0h.5c-2.5 0-3 0-2 .5zm78.9-1c.5 0 .5-.5.5-.5-.5 0-1 .5-.5.5zm-6.9 0h1zm5.9 1v-.5c-.5 0-.5 0 0 .5zm2.4-1c0 .5 0 .5 0 0zm1.5 1.5c-.5-1.5-.5-1.5 0-.5-.5 0-.5 0 0 .5zm-5.9 0h1c.5-1 0-1.5-1 0 .5 0 0-.5 0 0zm4 0c1.4-1-1-.5 0 0zm-1.5-.5s0 0-.5 0c.5.5.5 1 .5.5s-.5 0 0-.5zm1.9 1c.5 0 .5 0 .5-.5l-.5.5c-.4 0-.4 0 0 0zm.5 0c0 .5 0 .5 0 0 .5 0 0 .5 0 0zm-321.8 1v-.5zm30.8 0s0 1.4 0 0zm2 .4c-.5 0-.5 0 0 0zm124.9 1h.5c0-1-.5-1.4-.5 0zm199.4-1v.5c0-.5.5-.5 0-.5zm0 1c.5 0 .5 0 .5-.5v-.5c0 .5-4.4 5.4-.5 1zm-204.3.5c.5 0 .5-.5.5-1-1 0-2 0-2 1v.5c.5-.5 1-.5 1.5-.5zm2-1v.5c.5 0 1 0 0-.5zm205.7 1.5c-1-2-1.5-2.4-1.5-1.5-.4 1-.9 4.4 1.5 1.5zm43.6 1c2 .5 4.4 0 3.4-1.5h-.5-1c-1.9-1.9-1.9 1-1.9 1.5zm-329.7-1c2 .5 2.4 0 2-1-1 .5-1.5.5-1.5 0-1-.5-1.5-.5-1.5.5h-.5-1v1c1.5-1 2-1 2 0zm283.7-1c-.5 0-1 .5-1 1h1zm-403.2 1.5v-1s-.5.5 0 1c0-.5 0 0 0 0zm198.9 0c.5 0 .5-.5.5-1h-1c0 .5.5 1 .5 1 0 .5-.5 0 0 0zm202.8 0c0-.5 0-.5 0 0zm-208.2-.5c.5 1 .5 1 0 0zm3.9.5h.5zm7.4 0c0-.5 0 0 0 0zm-10.3.5v-.5zm58.3 0c0-.5 0-.5 0 0zm-229.3 0c-1-.5-.5 0 0 0-.5 0 0 0 0 0zm169.5 0c-1.5.5-1.5.5 0 1-.5 0-.5-.5 0-1-1 0-.5.5 0 0zm65.7 2.4c-2-2.9-2.9-3.4-2.9-2v.5c0 .5 2 1.5 2 2h1v-.5zm-235.2-.5c-.5-3.4-2.9.5 0 0 0-.4-1 0 0 0zm408.6 0c1-.4 1-.4 0 0 0 0-.5-.4 0 0zm-241-.9v1s.5-.5 1-.5c0 0 .5-.5 0-.5zm-184.7.5c-1.5.5-2 0-1.5-.5 0 .5-.5 1-1 1-4.9 1.5-1 2.4-1 2.4h1 .5v.5c0 1 .5 1.5 1.5 1 1 0 1 0 .5-1 2 .5 2.4.5 2.4-.5h-.5c-.9-.5-1.9-2.5-1.9-2.9zm28.4-.5c-.5 0-.5.5 0 0l-1.5.5c2.5-.5 3-.5 1.5-.5-.5.5 0 0 0 0zm-2 .9c0-.4 0 0 0 0zm3.5 0c-1 .5-1 .5-.5.5.5 0 .5 0 .5-.5 0-.4 0 .5 0 0zm3.4 1v-.5h-1c1 0 1.5 0 1 .5zm149.4 1.5c.5-1 3.9-3.4 0-.5zm-189.1-1.5c0-.5 0-.5 0 0-.5 0-.5 0 0 0zm35.8 0v-.5c-.5 0-.5 0 0 .5-.5 0-.5 0 0 0zm205.2 1.5c.5-.5.5-1 .5-1.5-1.9 0-2.4.5-.5 1.5zm-240-.5v-.5c-1-.5-1 0-1 .5zm187.6-.5c-.5.5-.5.5 0 0zm-.5 1c.5 0 .5-.5 0 0 0-.5 0-.5 0 0zm-189.6 0c-.5-.5-.5 0-.5.5zm36.8.5c-1-1-1.5-1-1 0h1c0-.5-.5 0 0 0zm151.8 1.9c1-.5 2.4-2.4.5-1.5v-.4c-1.9 1.5-1.4 1.5-.5 1.9zm-194.4-1.9h1-1c0 .5.5 0 0 0 .5 1 .5 0 0 0zm193.5 0c-.5 1 0 .5 0 0zm-143.1 0v1h.5c0-.5 0-1-.5-1zm35.3 1c-.5 0-.5 0 0 0zm-76.9.9c.5-.9-.5-1.4 0 0 .5-.9 0 0 0 0zm37.7 1c1 1.5 1.5.5 1.5-1.5-.5.1-1 .5-1.5 1.5zm146.5-1v-.5c-1 1-1.5 1-1 1 .5 0 1-.5 1-.5 0-.4-.5 0 0 0zm-143.1.5c1.5-.5 1-1 0-.5-.5.5-.5.5 0 .5zm-40.1-.5c-.5 0-.5 0 0 0zm181.7.5c0 .5 0 .5 0 0zm-161.7 1v-.5zm-121.9 2.5c-.5 0 0 0 0 0zm224.8.5c-.5 0-.5 0-1 .5 4 .4 2 .4 1-.5-.5 0 .5.4 0 0zm7.4 7.8v-.5h2c.5 0 1.5-.5 2-.5h.5s.5-.5 1-.5v-.5-.5h.5v-.5c.5.5 1 .5 1 0v-.5c0-.5-2-.5-2-2.4 0 0 0 0-.5 0 1.5-2-4.4-.5-5.4-.5v1c0-.5-.5-.5-1-.5v-.5c-1.5 0-2 .5-1.5 1.5 0 0 0 0-.5 0 0-.5-.5-.5-.5-1 2 0-2 2.4-1.5 2.4-.5-.5-1-1-.5-2-.5-.5-1-.5-1.5-1-.5 1 1 1.5-1 .5h-.5.5c0 1.5-.5 2-1.5 1.5h3.4s0 0-.5 0c0 1 0 1 1 .5-.5.5-2 .5-2.9 1 .5.5 1 1 1 .5.5.5 1 1 2 1h.5c0 .5.5.5.5.5-.5 0-1.5.5-2 .5 1 1 1.5 1 1.5.5h1c4.9-1 .5 2 2.4 1.5 1-1 2-.5 2.9 0 .1-1 .1-1-.4-1.5zm-107.8-4.9c0-.5-1.5-1.5 0 0 0-.5 0 0 0 0zm158.7-.5s0 .5 0 0zm-154.3 6.4c0-1 .5-1 1-1 1-2.9-2.4 1.5-1.5 0v-.5c-.5-1-1.5-2-2-2.9-1.5-.5-3.4 1-2-1h-.5-.5c0 2-1 5.4-1 5.9h1c1.6-2 4-2 5.5-.5 1-.5 0 0 0 0zm-139.1 0c-3.4-3.9-7.4.5 0 0zm152.8-1c.5-.5.5-.5 0 0zm133.3.5c-2 .5-1 0 0 0zm290 1.9c-3.4-2.9-3.9-1 1 .5.4 0-1-.5-1-.5zm-429.2-.9c-.9 0-.9.5 0 0zm21.6.9c1-1 .5-1.5-.5-1h-.5c0 1 .5 1.5 1 1zm-161.7-.4h-.5v.5zm129.9 1.9c2.4-1 2.9-2 2-2-2 .5-3.4 1.5-2.9 2.4.4-.4.4-.4.9-.4zm11.2-1.9c.5 1 .5 1 .5 0zm-1.4.4c0 .5 0 .5.5.5-.1-.5-.1-.9-.5-.5zm-2.5 2.5c.5-1.5 0-1.5-1 0 .5.5.5.5 1 0zm13.7 0h.5c-.5-1-1-1-.5 0zm8.8 1c.5 0 .5 0 1-.5-.5 0-1 0-1 .5zm-160.1 1.9c-1-.5 0-1.4 0 0 .9.5 0 0 0 0zm27.9 0c0 .5 0 .5 0 0zm236.1 0s0 .5 0 0zm-108.8.5h.5v-.5zm-157.2 0c-.5 0-1 0-1 .5-1-1-2.4 0 1.5.5s-.5-.5-.5-1c-.5.5 0 0 0 0zm30.4 0c-1.5 1.5 0 1.5 0 0-.5.5 0 0 0 0zm549.1 0c-.5 0 .5 2.5 0 0-1 0 0 .5 0 0zm-315 1.5v.5c0-.5 0-1 .5-1 0 0-1-.5-.5.5 0 .5 0 .5 0 0zm33.3.5c2-.5.5-1.5 0 0 1 0 .5-.5 0 0zm270.4-.5c-3.4 0 .5 3.9 0 0-2.4 0 0 .5 0 0zm8.9.5c-.5 0-.5 0-.5.5h-1c2 1.9 2 0 1.5-.5zm-380.2.5c0-.5-1-1-.5 0zm79.4 0s-1-.5 0 0zm-120.5 1c0-.5 0 0 0 0zm147.4.9c-1 1.5-.5 1 0 0zm226.8 0c-1 0-1.5 2.9-1.5 2.4.6-.9 1-1.4 1.5-2.4-.5 0 0 .5 0 0zm-508 1c-1.5 0-1.5.5-1 1h1c.5-.5.5-1 0-1zm235.7 3.9c.5 1.5 0 2.4 0 3.4v1c0-.5.5-1 .5-1 1 .5.5 1.5 0 2-.5 0-.5 1-.5 1 1.5-.5 3.4-.5 3.4 1h.5s-.5 2.4 0 2h-.5c-2.9-1-3.9 1.5-2 1.5-2.4 2-2.9 2.9-1 2.9 1-1 1.5-1 1 0 1.5.5 2 .5 2 0v-.5h1c-.5.5-.5 1-.5 1.5h-1.5-.5c-1.5.5-5.4 2.9-2.4 3.4 2-.5 2-2 4.4-2h2.9.5s5.4-1 2-1c.5-1.5 2.4-1.5 0-3.9 0 .5 0 .5-.5.5 0-.5-2.4-9.3-5.4-8.3 1-.5 1.5-2.4 1.5-3.4.5-1 0-1.5-1-1.5-.5-.5-2.4-2.4-2.4-2.4h.5v-.5h-.5c-.1 2.4-2 2.4-1.5 4.3zm-1.5-1.4c.5 0 .5-2.5 0 0zm45.6-1.5c1.5 1.5 2.9 0 1 0zm-250.4 1.9v1c5.4-1.9-5.8-3.9 0-1-.5 0-.5 0 0 0zm-29.4-.9c-1 .5-1-1-1 0-1.5 0-2 .5-2 2 .5 0 1-1 1 0h.6c.5 0 2.4-1 1.5-1 .5.5 1 0 1 0-1.6-.5-1.1-1-1.1-1zm29.9 0s0 .5 0 0zm250.3.9c0-.4 0-.4 0 0zm-4.9 0c-2.9 0 1.5 4.5 0 0 .5 0 0 .5 0 0zm-244.9 2.5c.5.5 1 .5 1 0-.5-.5-.5-.5 0-.5 0 0-2.4-1-3.9-2 0 1.5 1.5 2.4 2 2.4.4-.9 1.4 2.5.9.1zm204.3-1.5v-1 .5c.5.5 1 1.5 1 2 0-.5-.5-1-1-1.5zm-208.2 0c0-.5 0-.5 0 0zm-27.9 0c.5 0 .5 0 .5-.5-.5 0-.5 0-.5.5zm234.1 0c.5-.5.5-.5 0-.5zm-201.3 1v.5h.5s0-.5-.5-.5zm85.7 0c-.5 0-.5 0-.5.5.5 0 .5 0 .5-.5zm.5 1.5s0-1 .5-1h-.5c-1 1.5-1 2 0 2zm141.1-1.5v.5c.5 0 .5 0 0-.5zm-226.8 1c0 .5 0 .5 0 0zm1.9 2.9v-1c-3.4-2-2.9-.5-2-.5 0 1-.5 1.5 1 1v.5c2-.5.5 3 1 0zm200.9-2.9c-.5 0-.5.5 0 1 .5 0 1 0 0-1zm-202.3.5c.5 0 .5 1 0 0zm-3 0c.5.5 0 .5 0 0zm87.7 0c-.5 0-.5 0 0 0 0 .5 0 .5 0 0zm117.1 1c0-.5 0 0 0 0zm1 .4c.5-.4 0-1.4 0 0zm28.4.5s-1-.5-1.5 0c1 .5 0 2 1.5 1.5v.5h.5c.5-.5 2-3.4-.5-2.9.5.4.5.9 0 .9zm-276.8 0c-.5 0-.5 0 0 0 0 .5 0 .5 0 0zm247.9.5c0-.5 0 0 0 0zm1 .5v-.5zm-247.9 0c-.5.5-.5.5 0 0zm44.6 0c0-.5-.5-.5 0 0-.5 0-.5 0 0 0zm229.2 1h.5v-1c-1.5-.5-1.9-.5-.5 1 0 0-.5-.5 0 0zm-32.8 7.3c0 .5 0 .5-.5.5.5 0 2.9-.5 5.4-1.5h.5c-.5-.5 0-1.5.5-2 0-.5 0-1-.5-1.5.5-1-.5-1.5.5-1.5h1.5c0-1 0-1.5-1-1.5 0-.5.5-.5.5-1-.5-.5-2.4-.5-2.4-.5h-1c0 .5-1 1 0 1-1 0-1 .5-1 1.5s-1.5 0-2-.5v.5.5s1 .5.5.5h-.5c.5.5.5.5 0 .5h-.5c0 1 1 1 1.5 1h.5v-1c0 1-.5 2-1 2.4h.5c-1 .5-1 1-.5 1h-1c-.5 1.6 0 1.6 0 1.6-.5.5-.5 0 0 0zm1.5-1.4c-.5.5-.5.5 0 0zm38.7-5.9h.5c0-.5-.5-.5-1-1 0 .5.5.5.5 1 .5 0-.5-.5 0 0zm-287.1-1c-6.4 0 1 3.4 0 0-1 0 0 .5 0 0zm2 .5c-.5 0-.5 0 0 0-.5 0 0-.5 0 0zm278.2 1.5c.5 0 .5 0 .5-.5v-.5c-.5.5-.5 1-.5 1zm1 .5c2 .5 2.4-1-.5-1v.5c.5 0 .5.5.5.5zm201.8-1c1.5 1 1.5 1 0 0-1 1 .5 0 0 0zm-432.5 3.4c0-3.4 0-2-1 .5.5-.5.5-.5 1-.5zm2.9-1.9h.5c-.5-.5-.5-.5-.5 0zm-58.8 0s-.5.5-1 .5c0 0 0 0 .5.5-1 0-1 .5-1 1 1-.1 2-1.1 1.5-2 .5.4.5.4 0 0 0 .4.5.4 0 0-.5 0 .5.4 0 0zm495.3 18.6v.5 1c.5 0 2.4-1 2.4-.5-.5-1-.5-2-1-2.9-1.5-6.4 5.4-1.5 1.5-8.3v-2c0-.5.5-1.5.5-2-.5 0-.5-.5-.5-1v-.5c.5-1 .5-1.5 0-1.5-1.5-.5-1.5 0-1 1.5-5.9-26.5 4.9 37.7-1 2.9v.5 1 .5 1 1.5 1.5 1.5c1 2 1 2.9 0 2.9v1c-.4 1.4-.4 1.4-.9 1.4zm-497.7-17.2c-1 0 0 0 0 0-.5 0 0-.5 0 0zm59.7 1.5c-.5-.5-1-1-1.5-1 .5.5.5.5 0 .5 1.5 2.4 2 2.4 1.5 1 .5-1-.5-.5 0-.5 0-1-.5 0 0 0zm221-1s-.5.5-1 .5c1 0 1 0 1-.5-.5 0 0 .5 0 0zm-141.1.5s1 .5 1.5.5c-.5-1-1-1.5-1.5-.5zm-142.1.5c0-.5 0-.5 0 0zm-1.4.5c0-.5 0-.5 0 0zm549.6.5s-2-1-.5 0h.5c0-1 0 0 0 0zm-555.5 0c-1 0 0-.5 0-.5v.5c-.5 0 0 0 0 0zm73.5-.5c0-.5 0-.5 0 0zm-86.3 1s0 0 0-.5c-.5.5-.5 1 0 .5zm3-.5c0 .5 1.4 1.9 0 0zm11.7.5h.5c-.5-.5-.5-.5-.5 0zm-6.3.5c.9-.5.9-1 0 0zm.9-.5v.5c.5-.5.5-1 0-.5zm-1.9.5c.5-.5.5-.5 0-.5zm-5.4 0c.5 1 1 1.5 1 1 0-.6-.5-.6-1-1 0 .9.5.4 0 0zm574.6.9s.5-.5 0-1zm-372.3-.5h-1l-2 2.4v.5.6c-.5 1.5-1.5 2-1 2.9h-.5-.5v.5h1c-.5.5-.5.5-.5 0-1.5.5-2 1.5-1 2.4.5-.5 1-.5 1.5-.5 1 .5 1 .5 1 0h.5s1.5-.5 2 0c2.4-.5.5 1 2.4 0 0 .5-.5.5-.5 1 0 3.4 0-.5.5 0 1.5 0 2 0 1.5 1 1-1 1-1 1 0 1 0 1.5-.5 1.5-1.5.5-1 .5-1 0 0h-.5c-.5-2.4.5-2-1-.5s2.4-2.9.5-2.4c0 .5-.5.5-.5 0 0 .5-.5.5-.5 0 1.5-1.5-.5 0 0-1-1-1.5-2.9-1.5-2.9-1.5s-.5.5-1 .5v-.5h-.5-.5c1-1 1-1 0-1.5v.5c-2.9 1.5 1-2 0-2 1-.5 1-1 0-1 0 .6.5.1 1 .1-.5 0 0 .5 0 0zm95.5 1.5c0-.5 0-.5-1-.5.1.5.6.5 1 .5zm-212.1.5h-.5c.5.5.5 1 0 1 .5 1 .5 1.5 1.5 1h1v1h1c.5.5 1 1 2 1 .5 1 .5 2 2.9 2h.5.5c0-.5-1.5-1.5-1-2-1.5-2.5-3.5-3.5-5.9-3h-.5s-1.5 0-1.5-1zm455.6 1.5c-.5 0-1 0-1.5.5v.5c1 0 1.5 0 1.5-1zm-450.2.5c0 .5 0 1 1 1 0-1-.5-1-1-1zm100.9 2.4c-8.3-5.9-1.4 1.5 0 0-.5-.5-.5.5 0 0zm347.3 0s0 0 0-.5c0 0-.4 0 0 .5-.4 0-.4 0 0 0zm-388.9.5c-.5 0-.5 0 0 0-.5 0 0 0 0 0zm42.6 2.5c-.5 0-1 0-1 .5.5-.1 1-.1 1-.5zm9.8.9c.5 1 .5 1 0 0zm-8.3 3c1-.5 1.5-1 1.5-2-1.5 1-2-1-2.4 1.5 0 .5 0 1-.5 1 .5.5.5 1 .5 1.5.5 0 .5 0 .5-.5-.6-1.5-.1-.5.4-1.5zm-3.9 0v.5c.5 0 .5 0 1-.5h-1l.5-.5h-1.5v-.5c-1.5 0-1-.5-1-1.5 0 .5-.5 1-1 1 2.5 2 3.4 2.5 3 1.5 0 .5.4 0 0 0zm343.4-.5c.9-1 .9-1 0 0zm0 .5s-.5-.5 0 0zm-338.1 1c-.5-.5 0-2-1.5 0-.5 0-.5.5-.5 1 1.6-.1 2-.6 2-1zm192.6 0c0-.5 0-.5 0 0zm142 .9s0 .5 0 0v.5c1-.5 1.5-1 1.5-2-.5 1-1 1-1.5 1.5zm-370.3 0c.5-1 0-1-2-1 0 .5 1 .5 2 1-.5 0-1-.5 0 0zm-7.4-.5c0-.4 0 0 0 0-.5 0-.5 0 0 0 0-.4 0 0 0 0zm362.1 7.4c0 3.4 8.8 0 8.8-2.9-5.4 0-6.9-6.9-7.8 1 .4.9-.1 1.4-1 1.9 0 .5.4 0 0 0zm14.2-6.4c-.5 1.5-.5 2-1 1-.5 0-2 2-2 2 2-1 3-1 3-3zm-368.4 0c0 .5 0 1 0 0zm363.5 4.4c1.9-1.9 1.9-1.9 0 0 .5-.5 0 0 0 0zm1.9 0c.5-.5-.5 0 0 0zm-220.4 4.9c0 .5 1-2.4 1-2.4v-1.5c-1.5.5-3 2.9-1 3.9zm-126.4-1.9c-.5 0-.5 0-.5.5.5 0 1 0 .5-.5zm337.5 2.4h.5v-.5c-.5 0-.5 0-.5.5zm-342.4 0c-1 .5-1.5.5-1 1h1c.5 0 2-1 2-1h-1zm329.2 13.2c-.5 1.5-7.8 3.9 0 2.4l1-.5h2.4c-.5.5-1 .5-.5 1 2 2.9 3.4-1 3.4-2h1c1.5-.5 2.4 1.5 3.9-1 0-.5.5-1.5 1-1.5-.5.5-.5 1-.5 2 2-2.4 2-3.4 1-3.4v-.5-.5-.5c-.5-1.5.5-3.4 1.5-4.9.5-1.5.5-2.4-.5-2.4 0-1.5-.5-1-1.5-1.5-1-1.5-1 .5-1.5 1-1 1-1 1.5-.5 1.5h.5c0 .5-1 2.4-1 2.9-1 2-2.9 3.4-4.4 3.4 2-4.9-1 2.4-1 2.4-1 1-3.9 1-4.4 1 .6 1.1.6 1.1.1 1.1 0 1 .5 0 0 0 0 1.5.5 0 0 0zm1 .5c0 .5 0 .5 0 0v.5h-.5l.5-.5-.5.5v-.5zm-200.4-12.2c.5.5.5.5 0 0 .5 1 .5 2 .5 2.4 0 .5.5 1 .5 1 2.9-2.9 2.4-5.4-1-3.4zm-7.8 2.9c2 .5 1-1.5.5-1.5l-.5.5s-.5-.4 0 1c.5 0-.5-1.4 0 0zm3.4-1.9c-.5 0-.5 0-1 .5h1s0 0 0-.5c-.5 0 0 .5 0 0zm23.5.9c0 .5.5.5 0 0zm52.9.5c-.5.5-.5.5 0 0zm-82.8.5s.5-.5.5-1c-1 .5-.5 1-.5 1zm40.7.5s-.5-1-.5.5c.5 0 .5 0 .5-.5 0 0 0 .5 0 0zm-1 1.5v.5c.5-.5 0-.5 0-.5zm-8.8 1c.5-.5 0-.5 0 0 0-.5 0 0 0 0zm-12.7 0c.5 1.5 1.5 2.9 3.9 1.5.5-2-1-2.4-2.9-1.5h-1c0-.5.4 0 0 0zm-141.6 0c-.5 0-.5 0-.5.5.5 0 .5 0 .5-.5zm323.3 2.4v.5zm-157.7.5c0-.5 0-.5 0 0zm-8.4.5v.5zm16.2 2.9h2.4c2.9-2-1-.5-1.5 0h-.5v.5c.1-.5.1-.5-.4-.5zm-14.2-.5c2 2 2.9 2.4 2.9 1 3.5-1-.5-1.4-2.9-1 0-.4 0 0 0 0zm5.9-.4s0 .4 0 0zm170 .4c-.5 0-.5 0 0 0zm-337.1 1c-.5 0-.5 0 0 0zm338 1h-1c0 .5-.5 1-1 .5-1 1.5-1.5 1.5-1 2 1.1.9 3.5.4 3-2.5-.5 0 0 .5 0 0zm-7.3 2c1 1.5 1 2 .5 2v-.5h-.5c0 .5.5.5.5 1h.5.5c0-.5 0-1-.5-1 2-.5-.5 2-.5 2v1c.5 1 1 .5 1-.5v1.5c1 0 1.5-1.5 1.5-2v-1c.5-1.5.5-2.4-1-2.9v-.5h-1v.5c-.5-.1-.5.4-1 .4zm-5.4.9c1-.9 1-.9 0 0 0-.4 0-.4 0 0 .5 0 0-.4 0 0zm7.8 5.4c-.5 0-.5 0-.5.5zm-.9 0c-.5 0-.5 0 0 0zm-353.7 1.5c-.5.5-.5.5.5 1 .5-.5.5-1-.5-1zm121.9 3.4c0-.5.5-1 1-1-1 .1-1 .5-1 1zm-3.9.5c.5 0 1-.5 1-1-1.5.5-1.5 1-1 1zm233.7-1c-.5 0-.5 0 0 0zm-232.2.5h.5zm228.8 3v-.5zm1 0c.9-.5.9-.5 0 0zm-11.8 5.8c1.5-.5-.5 6.4 1.5 1.5v-.5c2.9-6.4 0-4.9-.5-3.4 0 1-.5 2-1 2.4zm-317.4-1.9c-1.5 0-1.5.5 0 0zm2.4 9.3h2.4c2-1-1-.5-1-2.4h-.5c-1.5-.5-2.9-1.5-3.9-2-1.5 0-2.9-1-3.9-2h-2.4c-.5-.5-1-.5-1 0-2.4-1.9 8.3 5.4 10.3 6.4zm-10.8-2.9c1.5-.5 1.5-1 .5-1v.5s0 0-.5.5zm-121-1c0 .5 0 1 0 0zm2.5 1.4c0 .5 0 .5.5.5zm134.2.5s-.5-.5 0 0zm-133.2 2c-.5.5-1 1 0 2 .5-.5.5-.5 1-.5-.6-2-1-2.5-1-1.5zm141 2.9c0-1-3.9-2.4-4.9-2.4-.5 0-1 0-1 .5-1.5 0-3.4-1-1.5 1 .5.5.5 1-.5 1h-1c-1 .5-1 .5-1 0-.5 2 2.9 2 4.4 2 1-.5 1-1 .5-1.5 1.5 1 2.4 1 2.4 0h1.5c.7-.6 1.1-.6 1.1-.6 0-.9 0 0 0 0zm284.7 2c0 .5.4.5 0 0 3.4-3.4 3.9-4.4 0 0zm-298.4-1h1c-.5-1.5-2.9-1-3.4-.5.5 1 1 1 2 1 .4 0 .4 0 .4-.5zm18.2-.5-.5-.5h-1-1c.5 0 1 .5 1 1 1 .5 1 0 1.5-.5zm296.3 4.9c-.5 1 0 1.5.5 1.5 1 2.9 2.4 4.4 4.4 3.4 1.5 2.9 2.4 3.4 2.4 1.5 0-2-1-2.9-1.5-2.4 0-1-1.5 0-1.5 0-1 .5-1-2.9-1-2.4 0-.5 1-2.9 1.5-2.4 0-.5-.5-2-.5-2.4 0-.5 0-1 .5-1-1 .5-2 .5-2.9.5.5.5.5.5 0 .5v1.5.5c-.4 1.7-.9 2.2-1.9 1.2zm-289.5-.5h-.5v.5s.5 0 .5-.5zm0 2.5c0-.5 0-1-.5-.5 0 0 .5 0 .5.5zm.5 1c-.5.5 0 .5 0 1 .5-1 0-.5 0-1zm295.9 1.9v.5h.5c0-.5 0-.5-.5-.5zm-49 .5v.5c.5-.5.5-.5 0-.5zm45.1 2.5s-3.9-4.9-1-1h.5c-.5 1 0 1.5.5 1 0-2-.5 0 0 0zm-290-1.5c0-.5 0-.5 0 0zm295.4 1c-.5.5-1 .5-1.5.5 0 .5 1.5 2.4 2 2 .4 1.4.4-2.5-.5-2.5-.5-.5.4 0 0 0zm-4.5 1c0-.5 0-.5-.5-.5.1 0 .1 0 .5.5zm-108.2-.5h-.5-1c.5.5 1 .5 1.5 0zm104.3.9h.5c-.5-.4-.5-.9-.5 0 0-.4 0 0 0 0zm6.9 0c-.5 0-1-.5-1.5-.5v1c.5 0 1 0 1.5-.5zm-3.9 3c2.4-1.5 2.4-2.4.5-2.4 0 1.4 0 1.4-.5 2.4 1.4 0 .5-1 0 0zm5.8.5.5.5c.5-.5 0-1-.5-1-2.9-3.4-.4 0 0 .5zm-10.7 0c-1.5 4.9-2.4 3.9 1.5-1v-.5-1l-1.5 2.5c-.5 1.4.5 0 0 0zm8.8-.5v-1c-1.5 2-2.5 3.9 0 1zm-295.9 0c.5-1 .5-1.5-.5-1v1c0 .5 0 .5.5 0zm293.9.5c-.5 1-2.4 0-.5 2h.5v-2s-.5-1 0 0zm-47.5-1c0 .5 0 .5 0 0zm47 0c0 .5 0 .5 0 0 0 0 0 .5 0 0 0 .5 0 .5 0 0zm2 2c2.9.4 0-1.5 0 0 .5 0 0-.5 0 0zm-67.6 3.9c-2-2-2.4-4.9-2.9-1.5v.5c.5.5 0 1 0 1 0 1 1 3.4 1.5 3.4.5-.5 1-.5 1-.5.4-1 .4-1.9.4-2.9-1-1 0 0 0 0zm70-3v.5.5h-.5c-.5.5-2.9 2.4-2.4.5-.5 1-1.5 1-2.4 1v1c0-.5 2 .5 1.5.5h.5c.5.5.5.5 1 .5v.5c2-7.3 2 3.9 2 2.9 1-1 1-1.5.5-1 0-.5-.5-1 0-1v.5c0-1 .5-1.5.5-2.4 1.3-.5 5.7-4.9-.7-4zm-296.8.5s0 0-.5 0zm-34.3 2.5c0 .5 0 .5 0 0zm2.4 0c-.5 0-.5 0 0 0-.5.5 0 .5 0 0 0 0 0 .5 0 0zm107.8.5c0-.5-.5-.5 0 0zm171.5.9c-.5 0 0 0 0 0zm23.5 12.8v.5c.5.5 1 1.5.5 2 .5.5 1 1.5.5 2 .5 0 .5-.5 1-.5-.5 2.4 2.9 4.4 4.9 4.4 1.5-.5 2.9 0 3.9 0h1v-1c1-1 2-3.4 2-4.4v-.5c.5-.5.5-1 0-1-.5-2 5.4-1 0-2.9v-1c0-2.9-1.5-2.9 1-5.4.5.5.5.5.5 0h.5c.5-.5-1-2-1-2 0-.5 0-1.5-1-1.5v-.5.5c-.5 0-1-1.5-1.5 0-1 .5-2.4 2-1.5 2v.5c-.5 0-1.5 1.5-2 1.5h-1v.5c-.5 1-1.5 2-2.4 2.4h-.5c-.5 0-2 .5-1.5 1.5v1h-.5v.5c-1.5-1.1-1.9-1.6-2.9 1.4zm-6.9 11.7h1 1v-1.5c0-1-.5-2 0-2.9v-1c-2 1-2-1.5-1.5-2.4h-1c-.5.5-.5.5-1 0 1-1.5 1-2 .5-2v-.5c-.5-.5-1-1-1-2-1.5.5-2.9-3.4-3.4-1.5-2.4-1.5-4.4-5.4-6.9-6.9h-.5c-2-1.5-2.4-1-1.5 1 1 1 2.4 2.9 3.4 3.9s2.4 2.9 2.9 4.9c.5 1 1.5 2.4 2.4 2.9.5 2 2 3.9 2.9 5.9v.5c1.3.2 5.7 3.6 2.7 1.6zm5.4-18.6v1c.5-1 .5-1 0-1zm-159.2 0c0 .5 0 1.5 0 0zm140.6 3c0-.5 0-.5-.5-.5 0 0 0 .5.5.5zm50.9 0c0 1 0 1.5 1 1 0-.6-.5-1-1-1zm-285.6 0c0 .4 0 .4 0 0zm283.7 2.4c0 2.9 1 4.9 2.4 2.4l-1-1.5v-1c0-.5-.5-2.4-1-1 .1.6.1 1.1-.4 1.1zm-39.2-.5c0 .5 0 .5.5.5 0-.5-.5-.5-.5-.5zm-7.8 0h-.5c0 1 .5 1.5 1.5 1.5-.1-.5-.6-1-1-1.5zm34.7 5.4c-.5.5-.5 1.5-.5 2v1s-.5 1-.5 1.5c0 0 1.5 5.9 1.5 4.9h1c1-2.9 1-5.4 2-2-.5 1 0 1.5.5 1.5h1v-1h1c0-.5-1.5-1-1-2-1.5-.5-2-1.5-1.5-2.9 4.4-2.4-2.9-4.9-1.5-4.9-.5 0 2 0 1.5 0h1.5.5c1-.5 2.4 0 1-1.5-1.5 1-2 1-2 0-1 .5-2 .5-2-.5-1.5-.5-2.4 1-2.9 2 1.4 1.4 1.4 1.9.4 1.9 0 .5.5 0 0 0zm-26.4-4.4c0-.5 0-.5-.5-.5v.5zm-243.5 2v-.5c-1 .5-1.5.5-1 .5s-3.9 8.3 2 .5c-1-.1-1.5-.1-1-.5 0-.5 0 0 0 0zm-69.1 1.4c-.5-1.5-1-2-1-1.5v1l1 .5c0 .5 0 1.5 0 0 0-.5 0 0 0 0zm357.6 0c-.5 0-1.5-.5-2-.5.6.5 1.6.5 2 .5 0-.5 0 0 0 0zm-356.6-.5c0-.5 0-.5 0 0-.5 0-.5 0 0 0zm64.7 0c-.5 0-.5 0 0 0zm248.8.5c-.4-.5-.4-.5 0 0zm37.8.5c-.5-1-1-.5-.5.5.5 0 .5-.5.5-.5 0-.5 0 0 0 0zm28.4 9.3c-1-2-2.9-3.4-4.9-3.9h-.5c-.5-.5-1.5-1-2.4-1-.5.5-1.5 0-2-.5h-1.5c-2.9-1-4.4-.5-5.9 2 0-.5-.5-.5-.5-.5-1 1.5-1-3.4-1-2.4 0-1.5-.5-1.5-1-1.5h-.5c-3.9-1-3.9 1-2 2.4.5.5.5 0 1.5 0 .5 0 1.5 1 .5.5-1-.5-1.5-.5-1.5 0 0-.5 1.5 2 1.5 1.5-.5 0 2.9 1 2.9 1 0 1 0 1.5.5 1h1c2-.5 4.4 2.4 4.9 3.9 0 .5 0 1 .5 2 .5 2-4.4 2.4 3.4 3.9 1.5 0 2.9-.5 3.4-1s1-2 2-2c1 1 1.5 1 1.5 0h.5c2 .5 3.9 3.4 4.4 4.4h.5l2 1h.5c-1-2.9-4.4-4.9-5.4-7.3 4.4-.5-2.4-4-2.4-3.5zm-315.5-8.8c.5-.5.5-.5 0 0zm292 0h-.5zm-51 0c1.5 2 1.5 2 0 0 .5 1 0 0 0 0zm50 0s0 .5 0 0zm.5 1c.5-.5 1-.5.5-.5s0 .5-.5.5zm-11.8 1c.5-1-1.5.5 0 0zm-27.4.5v.5.5c.5 0 1 .5 1 1 0-1-.5-2-1-2.4-1-.5-1-.5-1 .5h1zm38.2-.5h.5v-.5l-.5.5.5-.5c-.5 0-.5 0-.5.5zm-5.9-.5c-1-.5-1.5 0-1.5.5zm-1.9.5c-1.5-.5-2 .5 0 0zm-145.1.5c-1.4-.5-1.4-.5 0 0-.4-.5-.4 0 0 0zm179.3.4c1.5 0 1.5 0 0-.5v.5c.5.5 0 0 0 0zm-73.9.5c0-.5 0-.5 0 0 0-.5.5 0 0 0zm12.2 0s-.5 2.4 1 0h-1c-.5.5 0 0 0 0zm67.1.5c1 0 1.5.5 0 0zm-33.3 0c-2.4-.5-.5 1 1 1 .5.5 1 .5 2 .5-1-.5-2-1-3-1.5zm-4.9.5c1.5 2 2 .5 2 0v-.5c-.5 0-1.5.5-2 .5 0 .5.5 0 0 0zm39.7 0c.5.5 1 1 2 1-1.5-1.5-2-2-2-1zm2.9 3.4v-1c-1.4-2.4-1.4-1.9 0 1 .5-.4 0 0 0 0zm-4.9 2c-2.4-1-1 1 1 1h.5c.5-1 1.5-2 2.9-2 0-.5-.5-1 .5-1v-.5-.5c-1 .5-1.5.5-1 .5-.5 0-.5.5-.5.5v.5c-.5 0-1 .5-1 1-1.4-1-1.9-1-2.4.5-.4-.5.5 0 0 0zm-42.1-2c-.5.5-.5.5 0 0-1-.5-1 0-1 0 1.5.5 2 1.5 1.5-1-.5.1-1 .6-.5 1 0 0-.5-.4 0 0zm51.4 3c-1-.5-1-2.9-2-2v1c3.5 4.4 2 1 2 1-.4-.5.5 0 0 0zm-67.1 3.4 2 1c-.5-.5-.5-.5-.5-1s-.5-2-1.5-2h-.5c-3.4-1 1-4.4-6.4-2.4-2.9-1-4.9-2-5.9 1 .5 1 1 1 2 1h.5c.5 0 2 .5 2.4.5h2c.5 0 1 .5 2 .5h.5.5 1 .5.5c.4 1.4.9 1.4.9 1.4.5 0-.5-.5 0 0zm13.8-5.4s0 .5 0 0zm41.1 1c.5-.5.5-.5 0 0 0-.5 0-.5 0 0 .5-.5 0 0 0 0zm-20.6 1v-.5c-.5-.5-2 1.5-1 1.5.5.5.5-1 1-1zm-152.3 0v-1c0 .5.5.5 0 1zm118 0c-.5 0 3 1 0 0zm69.6 1.9c-.5-.5 0-.5-1-1l1 1c-.5-.4 0 .5 0 0zm-29.4-.4c-.5 0-.5 0-.5.5h.5zm-12.2 2.4c.9-2.9.4-1 0 0zm45.5.5c-2.4-2-2.4-2-1-.5 0 .5 1 1 1 .5zm-70.5 0c0-1 0-2.9 0 0zm17.1-1v.5h1.5c-.5-.5-1-1-1-.5zm50.5 0c-.5 0-.5.5-.5 1 1 1 1 .5.5-1-.5.5 0 .5 0 0zm-65.2 1.5v-1c-1 1-1.5 1.5-.5 1h.5c0-.5 0 0 0 0zm1.5 1 1-.5h1c-1.5-2-2-2.4-2.4-1h.5v.5c-2.1-.5-1.6 1.5-.1 1zm6.4 0c.5-.5 6.4-.5-.5-1h-.5c-2-.5-2.4 0-.5 1h1.5c0-.5-.5 0 0 0zm4.4-1h1c-.5-.5-.5 0-1 0zm-1.5 0c.5 0 .5-.5 0 0zm-1.5 4.4c2 .5 8.8-5.4 6.4-4.9-2.4.5-4.9 2-6.4 3.9v1c1 .5 0 0 0 0zm61.8-2.5c-.5-1-1.5-2.9-.5-.5zm-17.2 0h.5c-.5-.4-.5-.4-.5 0zm16.2 0s-2-.5-1.5-.5c-.5-.4 2.5 2.5 1.5.5zm-64.7 1.5c.5-1.5 0-2-1.5-1.5-.4 1 0 1.5 1.5 1.5 2 0-.5-.5 0 0zm49.5-.5c.5-.5 0 0 0 0zm16.2.5c.4 2 3.4 1 0 0 0 .5.9.5 0 0zm-12.8 36.3c0-.5-.5-1-.5-1v-1-.5c1-2.4-2-6.4-3.4-8.3 0-.5-.5-1-1-1-1 0-1-2.4-1-2.9 0 0-.5-.5-1-1s-2-3.9-2-2.4c-1 0-2-1-2.4-2v-.5c0-2-1-2.9-1.5-4.9v-.5-.5-.5c-.5-2-2-1.5-2.9-2.4 1-3.4-2.4-8.3-3.4-1.5 0 .5 0 1-.5 1v2.4.5c.5 1 0 1.5-.5 1.5-2.4 7.3-8.3-2.9-8.8-4.9v-.5h1c.5-.5 1-1.5.5-2.4 0 0 0 0-.5 0v-.5c-2 0-4.9.5-6.4-1-.5 1 0 2.9-2.4 1.5-1 0-1.5 0-1.5 1 0 .5-1 3.4-2 2.9 3.4 3.4-3.4 1-4.9 0v-.5 1c-.5 0-.5 0-.5-.5-.5 0-.5 0-.5.5-1 1 0 1-1 1.5v1h-.5-.5 2c0 1.5 0 2.4-1 1h-.5c1 1.5 1 2 0 2h-.5v.5c-1-.5-1-3.4-2-.5 0 1-.5 1.5 0 2 0 1-1.5 2.4-2.4 2.9h-.5c-3.4 1-7.3 2.9-10.3 5.9h.5v-1c-.5 0-.5.5-.5 1 .5 1.5 0 2.4-1 3.9.5 1.5 3.4 4.4.5 3.4-.5 1 0 2 .5 2-1.5 0 .5 2.4 2 6.9v.5c.5.5 1 2.4 1 3.4v.5c0 .5.5.5 0 1s-.5 1 0 1.5c0 1.5 0 2-1 1 .5 2 2.9 3.4 4.9 2.9 1 0 2.9-1.5 2.9-2h1c.5-.5 2-.5 2.4 0-.5.5 6.9-2 6.4-2.4 1 0 2-1 2-1.5h1.5c.5.5 1.5-1 2.4-.5h1 .5c2.4.5 3.9 1 5.9 2-1.5 1 0 2.9 1.5 3.4 2-2 4.4-3.9 3.4 1-.5 1.5-.5 2-.5 1.5 1-1 1.5-2.4 2.4-1-.5.5-.5.5 0 .5v1.5c.5 0 1-.5 1.5-.5.5 0 .5.5 0 1-1 6.9 6.4 4.4 7.3 3.4 1 0 1-1 1 1 .5 0 .5 0 1-.5 1.5 2.9 2.4 2 4.9-1 1 .5 1.5.5 1.5 0v-.5c1-.5.5-1 0-1.5 0-1 1-2 1-2.4 0-.5 1-2.4 1.5-2.9.5-2 1.5-3.4 2.4-4.4.5-.5 1-1.5 1-2.4v-1c1-1.3.5-3.8.5-5.2zm-28.4 6.8c0-.5 0-.5 0 0zm1 1s-2.5-4.4 0 0zm2.9-1c-.5 0-1-.5-1-1.5.5.1 1 .5 1 1.5zm-10.8-40.1h.5c-.5-1-.9-.5-.5 0zm-1.4 0c.5 2.4 0-2.5 0 0 0 .4.5 0 0 0zm1.4 0c0-.5-.4-.5 0 0-.5 0-.5 0-.5.5.1-.5.5-.5.5-.5 0-.5 0 0 0 0zm-128.8 5.3c0-.5 0-.5-.5-.5v-1c0-.5-1.5-2.9-1.5-2.9-.5.5-1 1-.5 1.5v1c.5.5.5.5 0 .5-1 .5-1.5 1-1.5 2v.5s-.5 0-.5-.5c.5 1 0 1.5-.5 1.5-2.9.5-4.4 1.5-5.4 3.4 0 .5.5 2.4.5 3.4-2 2.9-2.4 3.9-1 3.9 0 1-1 1-1 2.4-.5 1-.5 1.5 0 1.5 0 .5.5 1.5 1 2v.5c1.5 2.9 3.4 3.4 5.9 1v-.5-.5-.5-1-.5l.5-1v-1.5-.5l.5-1v-1-.5-1c-.5-1 .5-2.9 1.5-3.9v-.5c-.5-.5.5-2 .5-2 0-.5-.5-2.9 0-3.4.5.5 2.9 3.4 1-1.5 1.5.6 1 .6 1 .6zm138.2 0v-1h-1v1h.5zm-509.5 2.5c-.5 0-1 .5-1 .5 1 0 1.5 0 1-.5zm559.9 1c-1-1.5-.5.5.5 1 0-1.5 0-1.5-.5-1-.5 0 0 0 0 0zm-46.5 1.4c1.4-.9 0-.5 0 0zm63.7 1c2.9-2 2.9-2 0-.5-.5 0-.5 0 0 .5.9-1-.5-.5 0 0zm-578.6-1c-1.5-.5-2.4 1 0 0zm371.8.5c.5 0 .5-.5 0 0 .5-.5 0-.5 0 0zm189.6 0c1 2 1 2 0 0zm15.2 2c.5.5 1 .5 1 1-.5-.5-.5-1-1-1 0 .5.5-.5 0 0zm-193 3.4-.5 1h.5c1-1.5 1-1.5 0-1zm174.9 5.4c.5 0 1 0 1 .5 4.9-4.4-11.3-2.5-1-.5zm-178.3-2.9c1 1 1.5 1.5 1 0-1-.5-1-.5-1 0zm179.3 0v1zm-86.3 7.8s0 .5 0 0zm-264 14.7c.5 0 .5 0 .5-.5-.5 0-.5 0-.5.5zm-2 1c0-.5 0 0 0 0zm370.4 12.7c-.5.5-1 1-2 1-.5-.5-1.5-1.5-1.5-1.5.5-1 0-1-.5-1v-.5-.5 1 1c-.5 0-.5-.5-.5-.5s-.5-2.9 0-2.9v-1c-1 .5-2.4-2-2-1-.5-.5-1.5-.5-1-1.5-1 0 2.9 5.4 2.4 4.9-.5 1.5 1.5 1 .5 2.9v1s-.5.5-.5 1c0 7.3 3.4 2 3.9 2 .5-.5 1-.5 2-.5-.5-1-.5-1.5.5-1.5v-.5s.5-.5.5-1c-1.3-.4-1.8-.9-1.8-.9-1 0 0 0 0 0zm-65.7-5.4c-1.5.5-1.5 1 .5.5-1-.5-1-.5-.5-.5zm61.8 2.5c-.5-.5-.5-.5 0 0zm-52.5 7.3c.5-.5.5-.5.5-1-.5.5-.5.5-.5 1zm6.9-.5c1.5 2 1 .5 0 0zm0 2c-1.5 1.5-2.4 2-2.4 1h-.5c-3.4-1.5-2.4 1-1.5 2.9 0 2.9 1.5 2 2.9 2.9.5-1 .5-1.5 1-2.9.5-1.5.5-3.9.5-3.9zm42.1 1.5c-2.4-4.9-6.4 4.4-8.3 6.4-1 .5-2.4 2-2.9 2.9-.5.5-1 1-1 1.5.5 1 1 1.5 2 1v.5s1 .5 1.5.5c2.4 0 3.4-.5 3.4-2 0-.5.5-2 1-2v-.5c0-2 2-2 3.4-2h-.5c0-1.5 0-2.4 1-2.4.9-1 3.9-4.9.4-3.9zm-396.8 2.9c-1 2.4 1 0 1 0 0-1.5-.5-1.5 0-2.9-.5.5-.5.5-1 0v1zm-.5 3.4c0-.5 0-.5 0 0zm.5 0c0 .5-.5.5 0 .5zm-.9 3-.5.5c.5 0 1 0 1-.5h.5c0-.5 0-1-.5-2-.5 0-.5 2-.5 2zm387.9 2.9c-.9 2.5 0 2.5 0 0 0 .5 0 .5 0 0zm-389.4 3.4c0 .5 0 1-.5 1v1c-.5 2 0 3.4 1.5 2v-.5-1c-.5-.5-1-2.4-1-2v-.5c.5 0 .5.5 0 0zm.5 4.4s1.4 1.5 0 0zm1 1c.9 1 .9 1 0 0 0 .5.4 0 0 0zm-1.5.5c0-.5 0-.5-.5 0 0 .5.5.5.5 0zm1.5 1c.4.5.4.5 0 0l.5.5-.5-.5c.5-.5 0-1-.5-1-1 1.5-.5 2.4.5 2h.5c-.5-.5-.5-.5-.5-1zm23.5 1c0-1.5-1.5-1-1.5 0s-2 2.4.5 1c.5-1 1-1.5 1-1zm2.4-.5c-1 0-2.4 2.4-2.9 2h1v-1c1 .5 1.5.5 2-.5-.1 0-.6-.5-.1-.5zm-24.5 3.9c-.5-.5-1-1-1.5-1h1c.5-.5.5-1 0-1-5.8-2.9 1 1.5.5 2 0 0 0 .5 0 0zm12.3 3.9h-.5-.5c-1.5-1.5-4.4-3.9-4.9-4.9-1 .5-1.5.5-2.4.5v1c.5 1 .5 1 .5.5v1c2-2 1 4.4 0 2-.5.5-.5.5-.5 0s0 0 0-.5v-.5c-.5 0-.5-.5-.5-1h-.5v1c-.5-.5-1-1-1.5-.5 0-.5 2.9 2.9.5 2v-.5h.5 1v.5h1c.5.5 1 0 .5.5 1.5.5 2 .5 2-.5h.5.5c1.8 1.9 3.3.9 4.3-.6zm-2.5.5h-1.5.5zm-7.8-2.4c.5 0-3.4 0-1-.5v.5c0 .5 1 .5 1 0 0 .5 0 .5 0 0zm12.7 1.4s1 2 0 0c-.5.5 0 .5 0 0zm-11.7 1c.5 0 0-.5 0 0zm.5 1c.5 0 1 .5 1-.5-.1-.5-.6 0-1 .5zm4.4.5v-1c-1 0-1 0-2 .5-2.4.5-.5 1 .5 1v-.5h1.5c0-.5-.5-.5 0 0zm-.5 0c1 1.5 1 1.5 0 0 .5.5 1 0 0 0 0 .5 1 0 0 0zm1.9 1h.5c-.5-.5-1-.5-.5 0zm-.5 0s0 .5 0 0c0 .5 0 .5 0 0 0 0 0 .5 0 0zm19.6 14.2c-2 .5 0 .5 0 .5h.5s0-.5-.5-.5 0 0 0 0z" opacity=".16" transform="translate(-.439371 1.25)"/></svg>