<svg width="350" height="74" viewBox="0 0 350 74" fill="none" xmlns="http://www.w3.org/2000/svg">
<path fill-rule="evenodd" clip-rule="evenodd" d="M0.313158 27.7801C0.313158 23.31 0.234868 19.5591 0 16.2037H8.3125L8.70395 21.9549H8.93882C10.8224 18.9209 14.2717 15.3272 20.7053 15.3272C25.725 15.3272 29.6395 18.204 31.2882 22.5122H31.4447C32.7803 20.3546 34.3461 18.7567 36.149 17.6421C38.2674 16.1228 40.6944 15.3249 43.8329 15.3249C50.1836 15.3249 56.6125 19.7141 56.6125 32.1692V55.0768H47.2039V33.6052C47.2039 27.1372 45.0118 23.3077 40.3813 23.3077C37.0885 23.3077 34.6592 25.7011 33.6414 28.4946C33.4043 29.452 33.1717 30.6499 33.1717 31.7668V55.0768H23.7586V32.5669C23.7586 27.1372 21.6401 23.3054 17.173 23.3054C13.5671 23.3054 11.1355 26.1775 10.272 28.8901C9.88059 29.8498 9.72632 30.9667 9.72632 32.0859V55.0722H0.313158V27.7801ZM71.5888 16.2037L78.4875 37.0393C79.2704 39.4351 80.0602 42.3904 80.6059 44.6243H80.8431C81.4648 42.3904 82.174 39.5137 82.8786 36.963L88.8378 16.206H99.1905L89.623 42.7073C84.3684 57.2367 80.8408 63.6978 76.2908 67.6915C72.526 71.1256 68.6046 72.4044 66.173 72.7258L63.9786 64.4147C65.625 64.0169 67.6628 63.1428 69.6247 61.7044C71.4276 60.5089 73.5437 58.1894 74.8747 55.5578C75.2661 54.834 75.5033 54.2813 75.5033 53.8003C75.5033 53.4002 75.425 52.8429 74.9507 51.8856L60.9967 16.2037H71.5796H71.5888ZM104.913 44.3815C108.049 46.2176 112.753 47.8156 117.692 47.8156C123.886 47.8156 127.34 44.8625 127.34 40.4757C127.34 36.4011 124.669 34.0053 117.929 31.5309C109.225 28.3397 103.653 23.6291 103.653 15.8846C103.653 7.10169 110.872 0.39775 122.32 0.39775C128.045 0.39775 132.279 1.67425 135.024 3.11031L132.668 11.0121C130.785 9.97612 127.101 8.45681 122.162 8.45681C116.043 8.45681 113.377 11.8099 113.377 14.9249C113.377 19.0758 116.435 20.9906 123.492 23.7864C132.666 27.3014 137.136 32.0096 137.136 39.7519C137.136 48.3775 130.704 55.9579 117.063 55.9579C111.496 55.9579 105.695 54.2836 102.792 52.5284L104.91 44.3815H104.913ZM218.209 53.8812C216.176 54.8363 212.176 55.9556 207.391 55.9556C195.473 55.9556 187.708 48.1324 187.708 36.0796C187.708 24.4246 195.546 15.3249 208.962 15.3249C212.489 15.3249 216.093 16.1251 218.287 17.1634L216.567 24.5056C215.001 23.7887 212.722 22.9886 209.275 22.9886C201.906 22.9886 197.508 28.4993 197.591 35.6032C197.591 43.586 202.687 48.137 209.275 48.137C212.643 48.137 215.001 47.4155 216.88 46.6177L218.204 53.8859L218.209 53.8812ZM225.349 16.2037H235.071V55.0768H225.349V16.2037ZM235.619 5.34881C235.619 8.30188 233.501 10.6213 230.132 10.6213C226.915 10.6213 224.797 8.30188 224.797 5.34881C224.797 2.3125 226.993 0 230.208 0C233.501 0 235.543 2.3125 235.619 5.34881ZM252.239 38.3968C252.477 45.4221 257.888 48.4561 264.006 48.4561C268.473 48.4561 271.688 47.8156 274.591 46.694L276.003 53.4835C272.705 54.8386 268.162 55.9579 262.67 55.9579C250.282 55.9579 242.992 48.1324 242.992 36.2415C242.992 25.4653 249.421 15.3249 261.653 15.3249C274.121 15.3249 278.121 25.7034 278.121 34.2481C278.121 36.0819 277.967 37.5203 277.81 38.3968H252.244H252.239ZM269.026 31.5332C269.104 27.9396 267.534 22.0335 261.105 22.0335C255.141 22.0335 252.631 27.5372 252.239 31.5332H269.026ZM296.934 6.22525V16.2037H306.112V23.5505H296.934V40.7093C296.934 45.4221 298.188 47.9011 301.873 47.9011C303.676 47.9011 304.535 47.7393 305.637 47.4155L305.794 54.9242C304.38 55.4792 301.87 55.9648 298.817 55.9648C295.285 55.9648 292.305 54.6837 290.505 52.6903C288.464 50.4564 287.525 46.9391 287.525 41.8331V23.5505H282.033V16.206H287.523V9.02337L296.927 6.22525H296.934ZM319.985 16.2037L326.893 37.0393C327.676 39.4351 328.454 42.3904 329.007 44.6243H329.237C329.87 42.3904 330.577 39.5137 331.277 36.963L337.237 16.206H347.585L338.019 42.7073C332.765 57.2367 329.24 63.7048 324.687 67.6961C320.925 71.1302 317.001 72.4044 314.579 72.7258L312.377 64.4193C314.024 64.0216 316.066 63.1405 318.023 61.7044C319.826 60.5089 321.945 58.1894 323.278 55.5624C323.674 54.8386 323.907 54.2813 323.907 53.8049C323.907 53.4049 323.824 52.8429 323.354 51.8856L309.4 16.2037H319.983" fill="white"/>
<path fill-rule="evenodd" clip-rule="evenodd" d="M161.599 13.7314C164.311 13.7314 166.513 15.9699 166.513 18.7334C166.513 21.4968 164.311 23.7376 161.596 23.7376C158.879 23.7376 156.683 21.4945 156.683 18.7357C156.683 15.9746 158.882 13.7361 161.594 13.7361" fill="#ED1C24"/>
<path fill-rule="evenodd" clip-rule="evenodd" d="M161.599 47.145C164.311 47.145 166.513 49.3881 166.513 52.1493C166.513 54.9127 164.311 57.1535 161.596 57.1535C158.879 57.1535 156.683 54.9104 156.683 52.1516C156.683 49.3928 158.882 47.1496 161.594 47.1496" fill="#29ABE2"/>
<path fill-rule="evenodd" clip-rule="evenodd" d="M173.335 18.7612C176.046 18.7612 178.249 20.9997 178.249 23.7609C178.249 26.5243 176.048 28.7628 173.338 28.7628C170.621 28.7628 168.424 26.5243 168.424 23.7609C168.424 20.9997 170.625 18.7612 173.338 18.7612" fill="#F8931E"/>
<path fill-rule="evenodd" clip-rule="evenodd" d="M153.291 50.6968C151.352 52.6162 148.239 52.5862 146.344 50.6136C144.446 48.6364 144.485 45.4706 146.427 43.542C148.368 41.6064 151.476 41.6457 153.374 43.6183C155.269 45.5908 155.234 48.752 153.293 50.6945" fill="#662D91"/>
<path fill-rule="evenodd" clip-rule="evenodd" d="M178.007 30.2983C180.718 30.2983 182.921 32.5368 182.921 35.3003C182.921 38.0568 180.718 40.2953 178.007 40.2953C175.297 40.2953 173.098 38.0591 173.098 35.3003C173.098 32.5368 175.297 30.2983 178.007 30.2983Z" fill="#FCEE21"/>
<path fill-rule="evenodd" clip-rule="evenodd" d="M145.188 30.5781C147.905 30.5781 150.102 32.8213 150.102 35.5801C150.102 38.3435 147.903 40.5843 145.188 40.5843C142.471 40.5843 140.274 38.3412 140.274 35.5801C140.274 32.8189 142.471 30.5781 145.185 30.5781" fill="#93278F"/>
<path fill-rule="evenodd" clip-rule="evenodd" d="M169.727 50.7917C167.811 48.8331 167.811 45.6719 169.727 43.7155C171.647 41.7661 174.758 41.7661 176.676 43.7155C178.594 45.6719 178.594 48.8331 176.676 50.7917C174.756 52.7412 171.647 52.7412 169.729 50.7917" fill="#8CC63F"/>
</svg>
