<svg width="48px" height="24px" viewBox="0 0 48 24" xmlns="http://www.w3.org/2000/svg" xmlns:xlink="http://www.w3.org/1999/xlink"><defs><path d="M6 12A6 6 0 1 1 6 0a6 6 0 0 1 0 12zm0-3a3 3 0 1 0 0-6 3 3 0 0 0 0 6z" id="a"/><linearGradient id="b"><stop stop-color="#333" stop-opacity=".5" offset="25%"/><stop stop-color="#333" offset="75%"/></linearGradient><linearGradient id="d"><stop stop-color="#333" stop-opacity=".5" offset="25%"/><stop stop-color="#333" stop-opacity="0" offset="66%"/></linearGradient><path d="M6 12A6 6 0 1 1 6 0a6 6 0 0 1 0 12zm0-3a3 3 0 1 0 0-6 3 3 0 0 0 0 6z" id="e"/><linearGradient id="f"><stop stop-color="#FFF" stop-opacity=".5" offset="25%"/><stop stop-color="#FFF" offset="75%"/></linearGradient><linearGradient id="h"><stop stop-color="#FFF" stop-opacity=".5" offset="25%"/><stop stop-color="#FFF" stop-opacity="0" offset="66%"/></linearGradient></defs><g fill="none" fill-rule="evenodd"><path fill="#333" d="M6 0l6 10H0z"/><path fill="#FFF" d="M6 12l6 10H0z"/><g transform="translate(12)"><mask id="c" fill="#fff"><use xlink:href="#a"/></mask><path fill="url(#b)" mask="url(#c)" d="M0 0h12v6H0z"/><path fill="url(#d)" mask="url(#c)" d="M0 6h12v6H0z"/></g><g transform="translate(12 12)"><mask id="g" fill="#fff"><use xlink:href="#e"/></mask><path fill="url(#f)" mask="url(#g)" d="M0 0h12v6H0z"/><path fill="url(#h)" mask="url(#g)" d="M0 6h12v6H0z"/></g><path d="M29 5V2h2v3h3v2h-3v3h-2V7h-3V5h3z" fill="#333"/><path d="M29 17v-3h2v3h3v2h-3v3h-2v-3h-3v-2h3z" fill="#FFF"/><path fill="#333" d="M38 5h8v2h-8z"/><path fill="#FFF" d="M38 17h8v2h-8z"/></g></svg>