<?xml version="1.0" standalone="no"?>
<!DOCTYPE svg PUBLIC "-//W3C//DTD SVG 1.1//EN" "http://www.w3.org/Graphics/SVG/1.1/DTD/svg11.dtd" >
<svg xmlns="http://www.w3.org/2000/svg">
<metadata>
This is a custom SVG webfont generated by Font Squirrel.
Copyright   : 35 I1995 Jos Buivenga
</metadata>
<defs>
<font id="DeliciousSmallCapsRegular" horiz-adv-x="450" >
<font-face units-per-em="1000" ascent="800" descent="-200" />
<missing-glyph horiz-adv-x="300" />
<glyph unicode=" "  horiz-adv-x="300" />
<glyph unicode="&#x09;" horiz-adv-x="300" />
<glyph unicode="&#xa0;" horiz-adv-x="300" />
<glyph unicode="!" horiz-adv-x="264" d="M207 46q0 -24 -19.5 -42.5t-44.5 -18.5q-24 0 -41 16t-17 40q0 25 19.5 43t44.5 18q24 0 41 -16t17 -40zM195 699q-17 -99 -17 -193v-344h-60q-14 258 -14 368q0 88 15 159z" />
<glyph unicode="&#x22;" horiz-adv-x="346" d="M126 708l14 -63l-22 -157h-33l-21 157l13 63h49zM264 708l14 -63l-22 -157h-33l-21 157l13 63h49z" />
<glyph unicode="#" horiz-adv-x="556" d="M325 279l19 152h-114l-19 -152h114zM375 675h60l-22 -178h85l-6 -66h-88l-19 -152h75l-6 -66h-77l-26 -204h-60l26 204h-115l-23 -185h-60l23 185h-81l10 66h80l19 152h-71l10 66h69l25 197h60l-25 -197h115z" />
<glyph unicode="$" horiz-adv-x="445" d="M263 256v-201q33 11 51 38.5t18 63.5q0 54 -69 99zM218 379v201q-37 -6 -57.5 -31t-20.5 -62q0 -27 12.5 -48t25 -31t40.5 -29zM409 156q0 -66 -40.5 -111.5t-105.5 -56.5v-61h-45v58q-80 2 -151 43l23 60q75 -37 128 -40v236l-22.5 14.5l-24 15.5l-21 14.5t-21.5 16 l-18 16.5t-17 19.5t-12.5 20t-11.5 24t-5.5 26t-2.5 29.5q0 72 42 115.5t114 48.5v55h45v-56q72 -9 122 -48l-27 -54q-40 29 -95 38v-228q77 -49 101 -74q45 -48 45 -121z" />
<glyph unicode="%" horiz-adv-x="699" d="M253 512q0 31 -21.5 52.5t-52.5 21.5t-52.5 -21.5t-21.5 -52.5t21.5 -52.5t52.5 -21.5t52.5 21.5t21.5 52.5zM482 630l-222 -630h-66l211 584q-17 -9 -43 -13.5t-44 -4.5l-17 -1q11 -21 11 -53q0 -55 -39 -94t-94 -39t-94 39t-39 94t39 94t94 39q39 0 71 -20 q40 -11 70 -11q28 0 56 7.5t42 14.5l13 8zM651 118q0 -55 -39 -94t-94 -39t-94 39t-39 94t39 94t94 39t94 -39t39 -94zM592 118q0 31 -21.5 52.5t-52.5 21.5t-52.5 -21.5t-21.5 -52.5t21.5 -52.5t52.5 -21.5t52.5 21.5t21.5 52.5z" />
<glyph unicode="&#x26;" horiz-adv-x="630" d="M413 490v47q0 46 -25 76t-70 30q-40 0 -71 -22.5t-31 -61.5q0 -37 32 -53t73 -16h92zM599 13q-56 -28 -102 -28q-47 0 -67.5 31.5t-20.5 80.5v335h-97q-99 0 -141.5 -47.5t-42.5 -147.5q0 -94 31 -153q20 -37 38 -37q11 0 27 16.5t38.5 33t50.5 16.5q25 0 49 -11l-15 -54 q-20 6 -31 6q-23 0 -55 -34.5t-65 -34.5q-41 0 -72.5 25.5t-48 65.5t-25 80.5t-8.5 77.5q0 85 44 158.5t123 76.5q-69 29 -69 90q0 60 52.5 97.5t115.5 37.5q69 0 122 -38t53 -104v-62h99v-58h-97v-331q0 -55 39 -55q26 0 58 14z" />
<glyph unicode="'" horiz-adv-x="208" d="M126 708l14 -63l-22 -157h-33l-21 157l13 63h49z" />
<glyph unicode="(" horiz-adv-x="336" d="M307 -84l-7 -62q-128 97 -190.5 210.5t-62.5 267.5q0 133 68.5 253t182.5 191l8 -57q-93 -61 -146.5 -167.5t-53.5 -221.5q0 -253 201 -414z" />
<glyph unicode=")" horiz-adv-x="339" d="M40 776q114 -71 182.5 -191t68.5 -253q0 -154 -62.5 -267.5t-190.5 -210.5l-7 62q202 161 202 414q0 115 -54 221.5t-147 167.5z" />
<glyph unicode="*" horiz-adv-x="424" d="M265 674l-34 -113l149 52v-62l-131 -42l106 -163h-70l-77 123l-76 -123h-65l98 163l-130 42v64l150 -54l-36 113h116z" />
<glyph unicode="+" horiz-adv-x="471" d="M426 220h-162v-173h-58v173h-161v60h161v173h58v-173h162v-60z" />
<glyph unicode="," horiz-adv-x="258" d="M139 87q13 0 29 -11.5t26 -23.5l9 -11q-41 -87 -129 -184l-45 31q48 69 60 117q5 20 5 41l-2 24q28 17 47 17z" />
<glyph unicode="-" horiz-adv-x="302" d="M245 285v-60h-191v60h191z" />
<glyph unicode="." horiz-adv-x="258" d="M194 46q0 -24 -19.5 -42.5t-44.5 -18.5q-24 0 -41 16t-17 40q0 25 19.5 43t44.5 18q24 0 41 -16t17 -40z" />
<glyph unicode="/" horiz-adv-x="356" d="M339 757l-259 -905h-63l259 905h63z" />
<glyph unicode="0" d="M225 -10q-82 0 -139 94.5t-57 230.5t57 230.5t139 94.5t139 -94.5t57 -230.5t-57 -230.5t-139 -94.5zM225 571q-50 0 -88.5 -73.5t-38.5 -182.5t38.5 -182.5t88.5 -73.5t88.5 73.5t38.5 182.5t-38.5 182.5t-88.5 73.5z" />
<glyph unicode="1" d="M224 0v553h-145v54q25 0 63 5.5t64 11.5l25 6h70v-630h-77z" />
<glyph unicode="2" d="M227 645q82 0 129 -42q36 -33 44 -86t-7 -103.5t-45 -87.5l-145 -176q-14 -17 -26.5 -37.5t-17.5 -32.5l-5 -11h244v-69h-330l-6 62q17 48 69 111l100 120q149 178 61 261q-29 27 -70 27q-72 0 -146 -57l-14 58q7 7 20.5 17.5t56.5 28t88 17.5z" />
<glyph unicode="3" d="M242 12q-48 -19 -104 -24q-30 -3 -61 -3h-5v57h14.5t33.5 3t49 9t51 19t48.5 31t33.5 47.5t14 66.5q0 92 -139 92q-35 0 -85 -6v60l44 6q52 28 125 84q43 32 43 73q0 13 -4 21q-18 35 -58 35q-29 0 -73.5 -19.5t-72.5 -39.5l-18 55q33 25 83 45.5t97 20.5q92 0 117 -79 q6 -18 6 -37q0 -69 -80 -123l-54 -34q41 0 81 -23q65 -37 65 -115q0 -165 -151 -222z" />
<glyph unicode="4" d="M356 140v-140h-72v140h-249l-4 65q65 183 244 425h83v-424h64v-66h-66zM284 533q-114 -166 -177 -327h177v327z" />
<glyph unicode="5" d="M250 13q-50 -22 -111 -26q-22 -2 -67 -2h-5v60q82 -6 152 28q92 44 92 147q0 49 -32 71t-80 22q-41 0 -115 -20l28 337h248v-62h-178l-16 -198q21 5 41 5h26q48 -2 87 -24q29 -15 49 -46t20 -69q0 -86 -39 -141t-100 -82z" />
<glyph unicode="6" d="M337 221q0 95 -90 111q-15 3 -29 3q-34 0 -90 -25q-8 -38 -8 -74q0 -78 30.5 -134.5t82.5 -56.5q72 0 95 86q9 36 9 90zM330 643l27 -49l-62.5 -40t-44 -33.5t-42.5 -42.5q-47 -58 -67 -117q66 23 105 23h15q22 -1 46 -10t48.5 -27t40 -51.5t15.5 -77.5 q0 -102 -48 -167.5t-136 -65.5q-89 0 -134.5 78.5t-45.5 193.5q0 152 113 267q69 70 170 119z" />
<glyph unicode="7" d="M387 630v-64q0 -135 -69 -318q-61 -165 -148 -275l-66 28q90 118 149 272q62 164 62 293h-256v64h328z" />
<glyph unicode="8" d="M409 138q-10 -71 -62.5 -112t-128.5 -41q-74 0 -125.5 51t-51.5 124q0 59 40 116q25 36 78 61q-44 27 -68 55t-30 69q-2 18 -2 26q0 64 43.5 110.5t120.5 47.5h6q83 1 120.5 -41.5t36.5 -109.5v-7q0 -38 -28.5 -78t-82.5 -65q5 -3 25 -13q56 -29 84 -66t28 -91 q0 -16 -3 -36zM314 509q-6 79 -93 79q-38 0 -63.5 -29.5t-25.5 -75.5q0 -39 20.5 -64.5t61.5 -46.5l37 19q63 32 63 104v14zM272 273q-10 5 -24.5 13.5l-25 14.5t-12.5 7q-93 -49 -93 -137q0 -49 30.5 -87.5t79.5 -38.5q48 0 78 38.5t30 86.5q0 69 -63 103z" />
<glyph unicode="9" d="M334 396q0 77 -30.5 133t-82.5 56q-104 0 -104 -176q0 -50 27 -79t63 -33q6 -1 18 -1q25 0 61 9q23 8 40 17q8 38 8 74zM294 106q-86 -88 -204 -135l-21 58q130 68 176 124q44 53 66 114l-6 -2q-3 -1 -16.5 -6t-22.5 -7q-24 -7 -60 -7q-24 0 -50.5 9t-52.5 27t-43 52.5 t-17 78.5q0 102 47 167.5t135 65.5q64 0 106 -42t61 -113q16 -57 16 -126q0 -142 -114 -258z" />
<glyph unicode=":" horiz-adv-x="258" d="M194 46q0 -24 -19.5 -42.5t-44.5 -18.5q-24 0 -41 16t-17 40q0 25 19.5 43t44.5 18q24 0 41 -16t17 -40zM194 353q0 -24 -19.5 -42.5t-44.5 -18.5q-24 0 -41 16t-17 40q0 25 19.5 43t44.5 18q24 0 41 -16t17 -40z" />
<glyph unicode=";" horiz-adv-x="258" d="M136 87q13 0 29 -11.5t25 -23.5l10 -11q-41 -87 -129 -184l-45 31q48 69 60 117q5 20 5 41l-2 24q28 17 47 17zM194 352q0 -25 -19.5 -43.5t-44.5 -18.5q-24 0 -41 16t-17 40q0 25 19.5 43.5t44.5 18.5q24 0 41 -16t17 -40z" />
<glyph unicode="&#x3c;" horiz-adv-x="300" d="M267 100l-47 -38l-187 188l185 188l47 -38l-149 -150z" />
<glyph unicode="=" horiz-adv-x="480" d="M426 203v-60h-382v60h382zM426 352v-60h-382v60h382z" />
<glyph unicode="&#x3e;" horiz-adv-x="300" d="M33 100l47 -38l187 188l-185 188l-47 -38l149 -150z" />
<glyph unicode="?" horiz-adv-x="358" d="M194 46q0 -24 -19.5 -42.5t-44.5 -18.5q-24 0 -41 16t-17 40q0 25 19.5 43t44.5 18q24 0 41 -16t17 -40zM164 162h-61v51q0 42 1 62t10 50.5t27 54.5l82 110q34 47 34 79q0 28 -15 45t-43 17q-43 0 -84 -9v57q47 13 90 13q59 0 93 -31t34 -90q0 -48 -49 -112l-80 -106 q-22 -29 -30.5 -59t-8.5 -81v-51z" />
<glyph unicode="@" horiz-adv-x="792" d="M497 457q-37 48 -100 48q-38 0 -64.5 -40.5t-36 -85t-9.5 -81.5q0 -29 10.5 -52t36.5 -23q9 0 21 3t20 6t23 11t20 11l21 12.5t17 10.5zM528 146q-35 0 -58 17t-23 51q0 6 2 16q-58 -50 -85 -62q-22 -10 -44 -10q-48 0 -74.5 39.5t-26.5 89.5q0 46 9 90.5t28.5 87 t56.5 69t86 26.5q71 0 110 -57l10 41h65l-69 -289q-6 -22 -6 -33q0 -27 27 -27q61 0 106.5 74t45.5 139q0 123 -79.5 192.5t-204.5 69.5q-124 0 -209.5 -95.5t-85.5 -221.5q0 -132 87.5 -223.5t219.5 -91.5q74 0 142.5 32t112.5 89l47 -25q-46 -68 -132 -110t-170 -42 q-156 0 -264.5 108.5t-108.5 264.5q0 146 109 258.5t254 112.5q144 0 239 -87.5t95 -230.5q0 -55 -27.5 -115t-78 -103.5t-106.5 -43.5z" />
<glyph unicode="A" horiz-adv-x="510" d="M255 547l-75 -278h150zM498 0h-82l-67 203h-188l-67 -203h-82l200 630h86z" />
<glyph unicode="B" horiz-adv-x="502" d="M382 184q0 36 -11.5 60t-34 35.5t-47 15.5t-59.5 4h-70v-233q45 -13 75 -13q66 0 106.5 33t40.5 98zM348 472q0 96 -114 96h-74v-204h74q51 0 82.5 29t31.5 79zM235 630q60 0 99 -15q93 -37 93 -144q0 -42 -28 -82.5t-67 -51.5q61 -4 95.5 -47.5t34.5 -106.5 q0 -95 -64 -146.5t-161 -51.5q-61 0 -157 25v620h155z" />
<glyph unicode="C" horiz-adv-x="497" d="M472 41q-33 -26 -81 -41t-93 -15q-66 0 -115 29.5t-76 78.5t-39.5 104.5t-12.5 117.5q0 58 14.5 114t42.5 105.5t77 80t111 30.5q95 0 162 -43l-29 -52q-58 32 -133 32q-42 0 -75.5 -28.5t-52 -72t-28 -88t-9.5 -82.5q0 -44 8 -86t25.5 -83.5t52 -66.5t81.5 -25 q81 0 136 41z" />
<glyph unicode="D" horiz-adv-x="547" d="M258 566h-99v-502h93q48 0 81 23t49 62.5t22.5 78.5t6.5 84q0 254 -153 254zM262 630q65 0 111.5 -27.5t71.5 -74.5t36 -100t11 -114t-13 -114.5t-40 -99.5t-75 -73t-112 -27h-172v630h182z" />
<glyph unicode="E" horiz-adv-x="454" d="M404 630v-67h-244v-200h187v-69h-187v-225h254v-69h-334v630h324z" />
<glyph unicode="F" horiz-adv-x="412" d="M376 630v-66h-216v-201h171v-69h-171v-294h-80v630h296z" />
<glyph unicode="G" horiz-adv-x="524" d="M464 11q-63 -26 -164 -26q-66 0 -115.5 29t-76.5 78t-40 105t-13 118q0 58 14.5 114t42.5 105.5t77 80t111 30.5q47 0 82 -10t81 -33l-31 -53q-55 34 -132 34q-54 0 -93 -47t-55.5 -107t-16.5 -118q0 -44 7.5 -86t25 -83.5t52 -67t82.5 -25.5q53 0 88 14v206h74v-258z " />
<glyph unicode="H" horiz-adv-x="548" d="M468 0h-80v295h-228v-295h-80v630h80v-267h228v267h80v-630z" />
<glyph unicode="I" horiz-adv-x="238" d="M158 630v-630h-78v630h78z" />
<glyph unicode="J" horiz-adv-x="245" d="M165 -28q0 -100 -142 -135l-17 54q81 27 81 87v652h78v-658z" />
<glyph unicode="K" horiz-adv-x="485" d="M477 0h-80l-237 263v-263h-80v630h80v-288l220 288h85l-242 -324l254 -282v-24z" />
<glyph unicode="L" horiz-adv-x="382" d="M156 630v-564h217v-66h-293v630h76z" />
<glyph unicode="M" horiz-adv-x="742" d="M662 630v-630h-80v428l5 87l-181 -515h-70l-181 516q5 -52 5 -86v-430h-80v630h106l185 -532l185 532h106z" />
<glyph unicode="N" horiz-adv-x="554" d="M474 0h-82l-237 514q5 -47 5 -86v-428h-80v630h106l213 -482q-5 48 -5 88v394h80v-630z" />
<glyph unicode="O" horiz-adv-x="548" d="M274 579q-38 0 -67 -29t-43.5 -73.5t-21.5 -85.5t-7 -76t7 -76t21.5 -85.5t43.5 -73.5t67 -29t67 29t43.5 73.5t21.5 85.5t7 76t-7 76t-21.5 85.5t-43.5 73.5t-67 29zM274 645q58 0 102.5 -32t69 -83.5t36 -106t11.5 -108.5t-11.5 -108.5t-36 -106t-69 -83.5t-102.5 -32 t-102.5 32t-69 83.5t-36 106t-11.5 108.5t11.5 108.5t36 106t69 83.5t102.5 32z" />
<glyph unicode="P" horiz-adv-x="489" d="M216 566h-56v-255q48 -21 81 -21q59 0 94 43.5t35 103.5q0 65 -43.5 97t-110.5 32zM216 630q103 0 168.5 -48t65.5 -146q0 -93 -55.5 -152t-148.5 -59q-49 0 -86 20v-245h-80v630h136z" />
<glyph unicode="Q" horiz-adv-x="548" d="M335 -5q63 -67 128 -67q20 0 36 4l-21 -76q-16 -2 -24 -2q-25 0 -47 6.5t-43 22t-33 25.5t-34 32.5l-28 28.5l-18 17q-52 6 -92 40.5t-61.5 84t-32 101.5t-10.5 103q0 54 11.5 108.5t36 106t69 83.5t102.5 32t102.5 -32t69 -83.5t36 -106t11.5 -108.5q0 -102 -39 -196.5 t-119 -123.5zM274 579q-38 0 -67 -29t-43.5 -73.5t-21.5 -85.5t-7 -76t7 -76t21.5 -85.5t43.5 -73.5t67 -29t67 29t43.5 73.5t21.5 85.5t7 76t-7 76t-21.5 85.5t-43.5 73.5t-67 29z" />
<glyph unicode="R" horiz-adv-x="505" d="M370 437q0 65 -43.5 97t-110.5 32h-56v-255q46 -21 74 -21q63 0 99.5 41.5t36.5 105.5zM480 0h-78l-207 230q-19 6 -35 15v-245h-80v630h136q103 0 168.5 -48t65.5 -146q0 -77 -41 -134t-115 -72l186 -206v-24z" />
<glyph unicode="S" horiz-adv-x="434" d="M220 645q43 0 84.5 -20t63.5 -54l-45 -38q-38 48 -103 48q-42 0 -69.5 -24t-27.5 -65q0 -40 28 -71.5t67.5 -53.5t79 -47t67.5 -66.5t28 -97.5q0 -77 -54 -124t-132 -47q-37 0 -78.5 16.5t-71.5 42.5l34 57q63 -52 117 -52q47 0 77.5 30.5t30.5 77.5q0 35 -28 64.5 t-67.5 52.5l-79.5 48.5t-68 65.5t-28 92q0 79 47.5 122t127.5 43z" />
<glyph unicode="T" horiz-adv-x="405" d="M395 560h-154v-560h-78v560h-153v70h385v-70z" />
<glyph unicode="U" horiz-adv-x="558" d="M479 241q0 -110 -48 -183t-152 -73t-152 74t-48 186v385h80v-386q0 -193 120 -193t120 194v385h80v-389z" />
<glyph unicode="V" horiz-adv-x="510" d="M505 630l-206 -630h-88l-205 630h87l164 -534l165 534h83z" />
<glyph unicode="W" horiz-adv-x="708" d="M700 630l-148 -630h-85l-112 509l-112 -509h-85l-148 630h85l97 -446q8 -35 8 -66l115 512h80l115 -512q0 31 8 66l101 446h81z" />
<glyph unicode="X" horiz-adv-x="492" d="M480 0h-92l-148 250l-143 -250h-87l187 323l-182 307h87l139 -231l134 231h82l-173 -303z" />
<glyph unicode="Y" horiz-adv-x="471" d="M459 630l-184 -399v-231h-79v231l-183 399h85l140 -314l141 314h80z" />
<glyph unicode="Z" horiz-adv-x="458" d="M401 630v-69q-147 -242 -277 -491h304v-70h-392v68q138 273 272 493h-250v69h343z" />
<glyph unicode="[" horiz-adv-x="248" d="M183 732v-58h-93v-772h93v-58h-155v888h155z" />
<glyph unicode="\" horiz-adv-x="335" d="M333 -148h-62l-259 905h62z" />
<glyph unicode="]" horiz-adv-x="249" d="M221 732v-888h-155v58h93v772h-93v58h155z" />
<glyph unicode="^" horiz-adv-x="624" d="M551 320h-70l-170 307l-170 -307h-70l212 388h56q198 -364 212 -388z" />
<glyph unicode="_" d="M450 -75v-60h-450v60h450z" />
<glyph unicode="`" horiz-adv-x="338" d="M261 606l-32 -45q-117 62 -184 128l62 63q52 -72 154 -146z" />
<glyph unicode="a" horiz-adv-x="465" d="M359 0l-54 162h-147l-53 -162h-83l169 514h81l170 -514h-83zM232 419l-59 -193h117z" />
<glyph unicode="b" horiz-adv-x="479" d="M227 -16q-49 0 -137 22v508h135q53 0 85 -12q81 -31 81 -120q0 -16 -7.5 -38t-18.5 -35q-15 -17 -39 -32q94 -26 94 -127q0 -76 -54 -121t-139 -45zM282 442q-22 12 -58 12h-55v-152l54 -1q39 -1 64.5 20.5t25.5 61.5q0 44 -31 59zM308 223q-23 16 -87 16h-52v-180 q34 -9 56 -9q53 0 84.5 25.5t31.5 74.5q0 51 -33 73z" />
<glyph unicode="c" horiz-adv-x="465" d="M273 -16q-56 0 -97.5 24.5t-65 65.5t-34.5 87t-11 96q0 113 53 188q58 85 157 85q82 0 142 -38l-29 -52q-57 29 -113 29q-28 0 -57 -21.5t-46 -55.5q-28 -56 -28 -138q0 -84 24 -131q38 -76 108 -76q59 0 114 38l35 -51q-68 -50 -152 -50z" />
<glyph unicode="d" horiz-adv-x="509" d="M239 0h-149v514h157q95 0 146 -67t51 -191q0 -126 -57 -191t-148 -65zM244 452h-76v-390h71q126 0 126 193q0 197 -121 197z" />
<glyph unicode="e" horiz-adv-x="437" d="M90 0v514h282v-64h-203v-149h156v-66h-156v-169h212v-66h-291z" />
<glyph unicode="f" horiz-adv-x="394" d="M169 450v-149h143v-66h-143v-235h-79v514h260v-64h-181z" />
<glyph unicode="g" horiz-adv-x="498" d="M386 440q-46 29 -111 29q-28 0 -56.5 -21t-46.5 -56q-28 -56 -28 -138q0 -84 24 -131q38 -76 108 -76q34 0 67 10v169h74v-218q-60 -23 -142 -23q-45 0 -81.5 16t-60 43t-39.5 62.5t-22.5 73t-6.5 77.5q0 113 53 188q59 85 157 85q42 0 71 -8.5t72 -29.5z" />
<glyph unicode="h" horiz-adv-x="514" d="M346 0v236h-177v-236h-79v514h79v-213h177v213h79v-514h-79z" />
<glyph unicode="i" horiz-adv-x="261" d="M90 0v514h82v-514h-82z" />
<glyph unicode="j" horiz-adv-x="255" d="M136 -87q-31 -28 -102 -47l-18 54q41 13 61 36q8 9 8 30v528h80v-533q0 -44 -29 -68z" />
<glyph unicode="k" horiz-adv-x="457" d="M357 0l-188 201v-201h-79v514h79v-218l173 218h86l-205 -264l209 -219v-31h-75z" />
<glyph unicode="l" horiz-adv-x="367" d="M90 0v514h76v-450h181v-64h-257z" />
<glyph unicode="m" horiz-adv-x="673" d="M505 0v369l-127 -369h-66l-144 375v-26v-349h-78v514h98l134 -346q0 -1 1.5 -3.5t3 -7.5t4 -12l6 -17t6.5 -21l18 60l124 347h98v-514h-78z" />
<glyph unicode="n" horiz-adv-x="527" d="M356 0l-185 384q0 -11 0.5 -19.5t1 -12t0.5 -5.5v-347h-79v515h98l164 -357q-1 26 -1 36v321h79v-515h-78z" />
<glyph unicode="o" horiz-adv-x="505" d="M253 -16q-48 0 -86 25.5t-59 67t-32 88t-11 95.5q0 65 18.5 124.5t63 102.5t106.5 43q63 0 107.5 -44t62.5 -103.5t18 -125.5t-18 -125.5t-62.5 -103.5t-107.5 -44zM253 466q-31 0 -54 -19.5t-34.5 -52.5t-16.5 -68t-5 -74q0 -37 5 -70.5t16.5 -65t34.5 -50t54 -18.5 q42 0 67.5 35t33.5 78t8 96q0 52 -8.5 96t-34.5 78.5t-66 34.5z" />
<glyph unicode="p" horiz-adv-x="455" d="M354 221q-47 -41 -120 -41q-31 0 -65 17v-197h-79v514h119q103 0 152 -45.5t49 -114.5q0 -85 -56 -133zM209 452h-40v-194q31 -15 55 -15q50 0 78.5 31.5t28.5 80.5q0 44 -31 70.5t-91 26.5z" />
<glyph unicode="q" horiz-adv-x="505" d="M427 -118q-12 -2 -25 -2q-21 0 -40 6t-38 19t-30.5 22.5t-32 30t-28.5 27.5q-57 7 -96.5 52t-55.5 102t-16 120q0 65 18.5 124.5t63 103t106.5 43.5q63 0 107.5 -44t62.5 -103.5t18 -126.5q0 -83 -31.5 -156.5t-95.5 -103.5q54 -45 96 -45q12 0 38 5zM253 466 q-31 0 -54 -20t-34.5 -53t-16.5 -68t-5 -74q0 -37 5 -70t16.5 -64.5t34.5 -50t54 -18.5q42 0 67.5 34.5t33.5 77.5t8 96q0 38 -5 72.5t-17 66.5t-34 51.5t-53 19.5z" />
<glyph unicode="r" horiz-adv-x="481" d="M361 0l-173 184l-19 9v-193h-79v514h119q103 0 152 -46t49 -114q0 -60 -32 -105.5t-93 -62.5l150 -159v-27h-74zM209 452h-40v-194q1 -1 8.5 -4.5t21 -7t25.5 -3.5q50 0 78.5 31.5t28.5 80.5q0 44 -31 70.5t-91 26.5z" />
<glyph unicode="s" horiz-adv-x="408" d="M196 -16q-60 0 -133 52l35 55q18 -13 37 -24q38 -20 62 -20q36 0 60 22t24 59q0 43 -52 76l-95 57q-79 49 -79 132q0 65 41.5 101t110.5 36q35 0 66 -14.5t44 -27t21 -24.5l-47 -38q-38 42 -84 42q-33 0 -54 -17.5t-21 -48.5q0 -51 56 -84l86 -53q83 -49 83 -138 q0 -64 -46.5 -103.5t-114.5 -39.5z" />
<glyph unicode="t" horiz-adv-x="388" d="M232 447v-447h-77v447h-127v67h332v-67h-128z" />
<glyph unicode="u" horiz-adv-x="522" d="M261 -16q-88 0 -130 61.5t-42 152.5v316h78v-316q0 -150 94 -150t94 150v316h78v-319q0 -92 -42 -151.5t-130 -59.5z" />
<glyph unicode="v" horiz-adv-x="466" d="M274 0h-82l-173 514h84l132 -412l132 412h81z" />
<glyph unicode="w" horiz-adv-x="627" d="M482 0h-77q-73 307 -89 383l-6 -28l-83 -355h-80l-125 514h83l82 -369l91 369h76l90 -369l83 369h80z" />
<glyph unicode="x" horiz-adv-x="452" d="M341 0l-119 194l-115 -194h-86l158 264l-154 250h86l112 -178l107 178h82l-147 -247l166 -267h-90z" />
<glyph unicode="y" horiz-adv-x="416" d="M247 189v-189h-78v189l-155 325h84l112 -242l113 242h80z" />
<glyph unicode="z" horiz-adv-x="429" d="M49 0v61q117 224 211 370l11 17h-204v66h298v-62q-116 -182 -211 -355l-16 -30h249v-67h-338z" />
<glyph unicode="{" horiz-adv-x="333" d="M290 -108l-11 -54h-57q-20 0 -35 4t-31.5 16t-25 39.5t-8.5 69.5v176q0 50 -25.5 85.5t-56.5 35.5v47q31 0 56.5 35t25.5 85v176q0 78 27 104t71 26h59l11 -54h-59q-28 0 -38 -17.5t-10 -72.5v-176q0 -40 -18.5 -73t-36.5 -46l-19 -13q3 -2 8 -5t18 -14.5t22.5 -25 t17.5 -36t8 -47.5v-176q0 -55 10.5 -72t43.5 -17h53z" />
<glyph unicode="|" horiz-adv-x="222" d="M141 756v-774h-60v774h60z" />
<glyph unicode="}" horiz-adv-x="333" d="M290 264q-31 0 -56.5 -35.5t-25.5 -85.5v-176q0 -42 -8.5 -69.5t-25 -39.5t-31.5 -16t-35 -4h-57l-11 54h53q33 0 43.5 17t10.5 72v176q0 25 7.5 47.5t18.5 36.5t22 24.5t19 14.5l7 5q-3 2 -8 5t-18 15.5t-22.5 26.5t-17.5 37t-8 48v176q0 55 -10 72.5t-38 17.5h-59 l11 54h59q20 0 35 -4t30.5 -16.5t24 -40t8.5 -69.5v-176q0 -50 25.5 -85t56.5 -35v-47z" />
<glyph unicode="~" horiz-adv-x="666" d="M146 308q12 26 36 44t51 18q38 0 104 -34t102 -34q55 0 81 58l-1 -72q-12 -23 -36.5 -37.5t-50.5 -14.5q-37 0 -104 34t-102 34q-52 0 -80 -58v62z" />
<glyph unicode="&#xa1;" horiz-adv-x="264" d="M58 442q0 25 19.5 43.5t44.5 18.5q24 0 41 -16.5t17 -40.5t-19.5 -42.5t-44.5 -18.5q-24 0 -41 16t-17 40zM70 -210q17 97 17 193v344h60q15 -276 15 -368q0 -83 -16 -159z" />
<glyph unicode="&#xa2;" horiz-adv-x="412" d="M219 50v388q-49 -16 -71.5 -72t-22.5 -116q0 -61 23 -121.5t71 -78.5zM264 571v-68q67 -7 109 -48l-34 -45q-31 25 -75 32v-396q40 5 98 43l25 -47q-48 -45 -123 -56v-60h-45v60q-65 11 -110 64q-60 69 -60 190q0 116 49 182q47 65 121 80v69h45z" />
<glyph unicode="&#xa3;" horiz-adv-x="442" d="M398 37q-20 -22 -50 -37t-58 -15q-13 0 -35 3.5t-37 7.5l-15 4h-150q36 161 36 251v129l-59 6l20 50h39v132q0 63 47.5 93.5t113.5 30.5q71 0 104 -28l-17 -46q-31 18 -81 18q-91 0 -91 -83v-117h134v-60h-134v-127q0 -88 -23 -188h71q58 -19 88 -19q23 0 47 13t39 32z " />
<glyph unicode="&#xa4;" horiz-adv-x="542" d="M550 620l-28 -60q-55 67 -147 67q-161 0 -185 -195h274l-30 -63h-252q-2 -26 -2 -33q0 -8 2 -30h223l-30 -63h-185q11 -93 58 -142.5t117 -49.5q42 0 83.5 21t71.5 58v-80q-62 -62 -160 -62q-95 0 -162 69t-78 186h-110l30 63h71q-1 13 -1 31q0 19 1 32h-101l30 63h80 q12 112 81.5 185t178.5 73q100 0 170 -70z" />
<glyph unicode="&#xa5;" horiz-adv-x="476" d="M467 317h-148l-41 -89v-5h187v-60h-187v-163h-80v163h-183v60h183v6l-41 88h-140v60h112l-117 253h85l141 -314l141 314h84q-116 -253 -117 -253h121v-60z" />
<glyph unicode="&#xa7;" horiz-adv-x="420" d="M301 262q0 32 -25.5 51.5t-58.5 19.5q-46 0 -73.5 -23t-27.5 -68q0 -28 25.5 -45.5t54.5 -17.5q45 0 75 20t30 63zM211 647q77 0 144 -38l-27 -52q-68 32 -119 32q-39 0 -64 -20.5t-25 -58.5q0 -25 26 -45t63 -36.5t73.5 -35.5t62.5 -51.5t26 -74.5q0 -53 -29 -87.5 t-81 -45.5q31 -16 50.5 -29t37.5 -38t18 -54q0 -75 -48 -115t-124 -40q-91 0 -174 49l28 55q72 -44 150 -44q42 0 69 20.5t27 61.5q0 30 -26 53t-63.5 39.5l-75 34.5t-63.5 46.5t-26 65.5q0 61 36 95t98 43q-72 34 -94 54q-36 32 -36 76q0 68 48 104t118 36z" />
<glyph unicode="&#xa8;" horiz-adv-x="384" d="M157 642q0 -22 -19 -39t-41 -17q-16 0 -27 10.5t-11 26.5q0 22 17.5 40.5t39.5 18.5q17 0 29 -11.5t12 -28.5zM311 642q0 -22 -19 -39t-41 -17q-16 0 -27 10.5t-11 26.5q0 22 17.5 40.5t39.5 18.5q17 0 29 -11.5t12 -28.5z" />
<glyph unicode="&#xa9;" horiz-adv-x="879" d="M763 245q0 -133 -94.5 -227.5t-227.5 -94.5t-227 94.5t-94 227.5t94 227t227 94q134 0 228 -94t94 -227zM714 245q0 113 -80 193t-193 80t-192.5 -80t-79.5 -193q0 -115 80 -194t195 -79q112 0 191 80t79 193zM555 114q-20 -19 -51 -33.5t-56 -14.5q-74 0 -116 51 t-42 127q0 75 40 128t113 53q60 0 102 -39l-27 -34q-30 25 -75 25q-51 0 -73.5 -37.5t-22.5 -92.5q0 -57 24.5 -95.5t78.5 -38.5q37 0 84 34z" />
<glyph unicode="&#xaa;" horiz-adv-x="378" d="M276 374l-41 123h-112l-40 -123h-63l128 391h62l129 -391h-63zM179 693l-44 -147h89z" />
<glyph unicode="&#xab;" horiz-adv-x="500" d="M267 100l-47 -38l-187 188l185 188l47 -38l-149 -150zM445 100l-47 -38l-187 188l185 188l47 -38l-149 -150z" />
<glyph unicode="&#xac;" horiz-adv-x="535" d="M449 176l-59 -11v206h-344v60h403v-255z" />
<glyph unicode="&#xae;" horiz-adv-x="879" d="M760 244q0 -134 -94 -228t-227 -94t-227 94.5t-94 227.5q0 134 93.5 227.5t227.5 93.5t227.5 -93.5t93.5 -227.5zM711 244q0 113 -80 193t-192 80q-113 0 -192.5 -80t-79.5 -193q0 -116 79.5 -194.5t195.5 -78.5q113 0 191 80t78 193zM582 71h-53l-120 121q-11 3 -22 9 v-130h-51v355h86q61 0 103.5 -29t42.5 -87q0 -41 -28 -77.5t-68 -40.5l110 -106v-15zM515 312q0 38 -26.5 55.5t-66.5 17.5h-35v-142q28 -13 46 -13q37 0 59.5 22t22.5 60z" />
<glyph unicode="&#xaf;" horiz-adv-x="335" d="M304 632v-59h-274v59h274z" />
<glyph unicode="&#xb0;" horiz-adv-x="352" d="M172 601q-39 0 -66.5 -27.5t-27.5 -66.5t27.5 -66.5t66.5 -27.5t66.5 27.5t27.5 66.5t-27.5 66.5t-66.5 27.5zM172 646q57 0 98 -41t41 -98t-41 -98t-98 -41t-98 41t-41 98t41 98t98 41z" />
<glyph unicode="&#xb1;" horiz-adv-x="447" d="M416 59v-60h-361v60h361zM426 220h-162v-125h-58v125h-161v60h161v173h58v-173h162v-60z" />
<glyph unicode="&#xb2;" d="M227 645q82 0 129 -42q36 -33 44 -86t-7 -103.5t-45 -87.5l-145 -176q-14 -17 -26.5 -37.5t-17.5 -32.5l-5 -11h244v-69h-330l-6 62q17 48 69 111l100 120q149 178 61 261q-29 27 -70 27q-72 0 -146 -57l-14 58q7 7 20.5 17.5t56.5 28t88 17.5z" />
<glyph unicode="&#xb3;" d="M242 12q-48 -19 -104 -24q-30 -3 -61 -3h-5v57h14.5t33.5 3t49 9t51 19t48.5 31t33.5 47.5t14 66.5q0 92 -139 92q-35 0 -85 -6v60l44 6q52 28 125 84q43 32 43 73q0 13 -4 21q-18 35 -58 35q-29 0 -73.5 -19.5t-72.5 -39.5l-18 55q33 25 83 45.5t97 20.5q92 0 117 -79 q6 -18 6 -37q0 -69 -80 -123l-54 -34q41 0 81 -23q65 -37 65 -115q0 -165 -151 -222z" />
<glyph unicode="&#xb4;" horiz-adv-x="338" d="M213 752l62 -63q-68 -67 -184 -128l-32 45q98 71 154 146z" />
<glyph unicode="&#xb5;" horiz-adv-x="519" d="M181 -88q0 -37 -19 -70l-100 -18q29 67 29 112q0 30 -5.5 91t-5.5 91v372h76v-372q0 -37 10.5 -54t45.5 -17q34 0 79 17.5t70 39.5v386h76v-415q0 -39 21 -40l-25 -50q-27 0 -46.5 15.5t-23.5 41.5q-31 -25 -74.5 -41t-83.5 -16q-15 0 -43 15q19 -57 19 -88z" />
<glyph unicode="&#xb6;" horiz-adv-x="543" d="M497 639l-3 -51l-52 -12q0 -170 -34 -362t-98 -322l-64 20q69 125 104 310t35 354q-125 13 -143 13q-42 0 -59.5 -35.5t-17.5 -81.5q0 -25 3.5 -48.5t12.5 -48t27.5 -39.5t45.5 -15q43 0 81 30q-50 -99 -143 -99q-80 0 -122.5 59t-42.5 142q0 84 51.5 138t134.5 54 q26 0 55.5 -2.5t65 -6.5l54.5 -6l-1 43h56q0 -29 -1 -43z" />
<glyph unicode="&#xb7;" horiz-adv-x="258" d="M194 246q0 -24 -19.5 -42.5t-44.5 -18.5q-24 0 -41 16t-17 40q0 25 19.5 43t44.5 18q24 0 41 -16t17 -40z" />
<glyph unicode="&#xb8;" horiz-adv-x="402" d="M331 -63q0 -33 -33 -64t-70 -47l-38 31q81 44 81 75q0 13 -9 21t-23 8q-13 0 -49 -9v47h104q37 -27 37 -62z" />
<glyph unicode="&#xb9;" d="M224 0v553h-145v54q25 0 63 5.5t64 11.5l25 6h70v-630h-77z" />
<glyph unicode="&#xba;" horiz-adv-x="392" d="M203 361q-70 0 -106.5 64.5t-36.5 145.5q0 79 37 142t106 63q70 0 106.5 -63.5t36.5 -144.5q0 -80 -36.5 -143.5t-106.5 -63.5zM203 727q-31 0 -50.5 -27t-26 -61t-6.5 -74q0 -64 19 -109.5t64 -45.5q32 0 51.5 26.5t25.5 59t6 72.5t-6.5 73t-26 59.5t-50.5 26.5z" />
<glyph unicode="&#xbb;" horiz-adv-x="500" d="M242 100l47 -38l187 188l-185 188l-47 -38l149 -150zM64 100l47 -38l187 188l-185 188l-47 -38l149 -150z" />
<glyph unicode="&#xbc;" horiz-adv-x="1239" d="M1145 140v-140h-72v140h-249l-4 65q65 183 244 425h83v-424h64v-66h-66zM1073 533q-114 -166 -177 -327h177v327zM870 745l-430 -876h-63l430 876h63zM224 0v553h-145v54q25 0 63 5.5t64 11.5l25 6h70v-630h-77z" />
<glyph unicode="&#xbd;" horiz-adv-x="1239" d="M1016 645q82 0 129 -42q36 -33 44 -86t-7 -103.5t-45 -87.5l-145 -176q-14 -17 -26.5 -37.5t-17.5 -32.5l-5 -11h244v-69h-330l-6 62q17 48 69 111l100 120q149 178 61 261q-29 27 -70 27q-72 0 -146 -57l-14 58q7 7 20.5 17.5t56.5 28t88 17.5zM870 745l-430 -876h-63 l430 876h63zM224 0v553h-145v54q25 0 63 5.5t64 11.5l25 6h70v-630h-77z" />
<glyph unicode="&#xbe;" horiz-adv-x="1239" d="M1145 140v-140h-72v140h-249l-4 65q65 183 244 425h83v-424h64v-66h-66zM1073 533q-114 -166 -177 -327h177v327zM870 745l-430 -876h-63l430 876h63zM242 12q-48 -19 -104 -24q-30 -3 -61 -3h-5v57h14.5t33.5 3t49 9t51 19t48.5 31t33.5 47.5t14 66.5q0 92 -139 92 q-35 0 -85 -6v60l44 6q52 28 125 84q43 32 43 73q0 13 -4 21q-18 35 -58 35q-29 0 -73.5 -19.5t-72.5 -39.5l-18 55q33 25 83 45.5t97 20.5q92 0 117 -79q6 -18 6 -37q0 -69 -80 -123l-54 -34q41 0 81 -23q65 -37 65 -115q0 -165 -151 -222z" />
<glyph unicode="&#xbf;" horiz-adv-x="358" d="M180 444q0 25 19.5 43t44.5 18q24 0 41 -16t17 -40t-19.5 -42.5t-44.5 -18.5q-24 0 -41 16t-17 40zM210 325h61v-48q0 -42 -1 -62t-10 -50.5t-27 -54.5l-82 -110q-34 -45 -34 -78q0 -29 15 -46t43 -17q43 0 84 9v-57q-54 -13 -90 -13q-59 0 -93 31t-34 91q0 46 49 112 l80 105q23 30 31 59.5t8 80.5v48z" />
<glyph unicode="&#xc0;" horiz-adv-x="510" d="M255 547l-75 -278h150zM498 0h-82l-67 203h-188l-67 -203h-82l200 630h86zM366 736l-32 -45q-117 62 -184 128l62 63q52 -72 154 -146z" />
<glyph unicode="&#xc1;" horiz-adv-x="510" d="M255 547l-75 -278h150zM498 0h-82l-67 203h-188l-67 -203h-82l200 630h86zM304 882l62 -63q-68 -67 -184 -128l-32 45q98 71 154 146z" />
<glyph unicode="&#xc2;" horiz-adv-x="510" d="M255 547l-75 -278h150zM498 0h-82l-67 203h-188l-67 -203h-82l200 630h86zM405 736l-32 -46q-57 30 -121 100q-65 -71 -121 -100l-32 45q80 55 153 147q62 -80 153 -146z" />
<glyph unicode="&#xc3;" horiz-adv-x="510" d="M255 547l-75 -278h150zM498 0h-82l-67 203h-188l-67 -203h-82l200 630h86zM188 830q29 0 71.5 -22t65.5 -22q26 0 41 6.5t43 25.5l31 -38q-36 -33 -61 -44.5t-61 -11.5q-20 0 -62.5 22t-70.5 22q-9 0 -17.5 -2t-19.5 -7.5l-16 -8t-19 -11.5t-16 -10l-29 43q74 58 120 58z " />
<glyph unicode="&#xc4;" horiz-adv-x="510" d="M255 547l-75 -278h150zM498 0h-82l-67 203h-188l-67 -203h-82l200 630h86zM224 772q0 -22 -19 -39t-41 -17q-16 0 -27 10.5t-11 26.5q0 22 17.5 40.5t39.5 18.5q17 0 29 -11.5t12 -28.5zM378 772q0 -22 -19 -39t-41 -17q-16 0 -27 10.5t-11 26.5q0 22 17.5 40.5 t39.5 18.5q17 0 29 -11.5t12 -28.5z" />
<glyph unicode="&#xc5;" horiz-adv-x="510" d="M315 784q0 24 -17 42t-40 18q-25 0 -43.5 -18t-18.5 -42t18 -42t41 -18q24 0 42 18t18 42zM361 784q0 -44 -31.5 -75t-74.5 -31t-73.5 31t-30.5 75q0 43 31.5 74.5t74.5 31.5t73.5 -31t30.5 -75zM255 547l-75 -278h150zM498 0h-82l-67 203h-188l-67 -203h-82l200 630h86z " />
<glyph unicode="&#xc6;" horiz-adv-x="726" d="M255 547l-74 -278h149zM676 630v-67h-244v-200h187v-69h-187v-225h254v-69h-334v203h-190l-67 -203h-83l199 630h93l48 -211v211h324z" />
<glyph unicode="&#xc7;" horiz-adv-x="497" d="M376 -63q0 -33 -33 -64t-70 -47l-38 31q81 44 81 75q0 13 -9 21t-23 8q-13 0 -49 -9v40q-50 14 -86.5 48t-56 80.5t-28.5 95t-9 99.5q0 58 14.5 114t42.5 105.5t77 80t111 30.5q97 0 162 -43l-29 -52q-62 33 -133 33q-40 0 -75.5 -30.5t-54.5 -70.5q-35 -71 -35 -171 q0 -44 8 -86t25.5 -84t52 -67.5t81.5 -25.5q80 0 135 44l35 -51q-48 -39 -122 -52q26 -26 26 -52z" />
<glyph unicode="&#xc8;" horiz-adv-x="454" d="M404 630v-67h-244v-200h187v-69h-187v-225h254v-69h-334v630h324zM355 736l-32 -45q-117 62 -184 128l62 63q52 -72 154 -146z" />
<glyph unicode="&#xc9;" horiz-adv-x="454" d="M404 630v-67h-244v-200h187v-69h-187v-225h254v-69h-334v630h324zM295 882l62 -63q-68 -67 -184 -128l-32 45q98 71 154 146z" />
<glyph unicode="&#xca;" horiz-adv-x="454" d="M404 630v-67h-244v-200h187v-69h-187v-225h254v-69h-334v630h324zM396 736l-32 -46q-57 30 -121 100q-65 -71 -121 -100l-32 45q80 55 153 147q62 -80 153 -146z" />
<glyph unicode="&#xcb;" horiz-adv-x="454" d="M404 630v-67h-244v-200h187v-69h-187v-225h254v-69h-334v630h324zM215 772q0 -22 -19 -39t-41 -17q-16 0 -27 10.5t-11 26.5q0 22 17.5 40.5t39.5 18.5q17 0 29 -11.5t12 -28.5zM369 772q0 -22 -19 -39t-41 -17q-16 0 -27 10.5t-11 26.5q0 22 17.5 40.5t39.5 18.5 q17 0 29 -11.5t12 -28.5z" />
<glyph unicode="&#xcc;" horiz-adv-x="238" d="M158 630v-630h-78v630h78zM296 736l-32 -45q-117 62 -184 128l62 63q52 -72 154 -146z" />
<glyph unicode="&#xcd;" horiz-adv-x="238" d="M158 630v-630h-78v630h78zM234 882l62 -63q-68 -67 -184 -128l-32 45q98 71 154 146z" />
<glyph unicode="&#xce;" horiz-adv-x="238" d="M158 630v-630h-78v630h78zM386 736l-32 -46q-57 30 -121 100q-65 -71 -121 -100l-32 45q80 55 153 147q62 -80 153 -146z" />
<glyph unicode="&#xcf;" horiz-adv-x="238" d="M158 630v-630h-78v630h78zM178 772q0 -22 -19 -39t-41 -17q-16 0 -27 10.5t-11 26.5q0 22 17.5 40.5t39.5 18.5q17 0 29 -11.5t12 -28.5zM332 772q0 -22 -19 -39t-41 -17q-16 0 -27 10.5t-11 26.5q0 22 17.5 40.5t39.5 18.5q17 0 29 -11.5t12 -28.5z" />
<glyph unicode="&#xd1;" horiz-adv-x="554" d="M474 0h-82l-237 514q5 -47 5 -86v-428h-80v630h106l213 -482q-5 48 -5 88v394h80v-630zM215 830q29 0 71.5 -22t65.5 -22q26 0 41 6.5t43 25.5l31 -38q-36 -33 -61 -44.5t-61 -11.5q-20 0 -62.5 22t-70.5 22q-9 0 -17.5 -2t-19.5 -7.5l-16 -8t-19 -11.5t-16 -10l-29 43 q74 58 120 58z" />
<glyph unicode="&#xd2;" horiz-adv-x="548" d="M274 579q-38 0 -67 -29t-43.5 -73.5t-21.5 -85.5t-7 -76t7 -76t21.5 -85.5t43.5 -73.5t67 -29t67 29t43.5 73.5t21.5 85.5t7 76t-7 76t-21.5 85.5t-43.5 73.5t-67 29zM274 645q58 0 102.5 -32t69 -83.5t36 -106t11.5 -108.5t-11.5 -108.5t-36 -106t-69 -83.5t-102.5 -32 t-102.5 32t-69 83.5t-36 106t-11.5 108.5t11.5 108.5t36 106t69 83.5t102.5 32zM380 736l-32 -45q-117 62 -184 128l62 63q52 -72 154 -146z" />
<glyph unicode="&#xd3;" horiz-adv-x="548" d="M274 579q-38 0 -67 -29t-43.5 -73.5t-21.5 -85.5t-7 -76t7 -76t21.5 -85.5t43.5 -73.5t67 -29t67 29t43.5 73.5t21.5 85.5t7 76t-7 76t-21.5 85.5t-43.5 73.5t-67 29zM274 645q58 0 102.5 -32t69 -83.5t36 -106t11.5 -108.5t-11.5 -108.5t-36 -106t-69 -83.5t-102.5 -32 t-102.5 32t-69 83.5t-36 106t-11.5 108.5t11.5 108.5t36 106t69 83.5t102.5 32zM321 882l62 -63q-68 -67 -184 -128l-32 45q98 71 154 146z" />
<glyph unicode="&#xd4;" horiz-adv-x="548" d="M274 579q-38 0 -67 -29t-43.5 -73.5t-21.5 -85.5t-7 -76t7 -76t21.5 -85.5t43.5 -73.5t67 -29t67 29t43.5 73.5t21.5 85.5t7 76t-7 76t-21.5 85.5t-43.5 73.5t-67 29zM274 645q58 0 102.5 -32t69 -83.5t36 -106t11.5 -108.5t-11.5 -108.5t-36 -106t-69 -83.5t-102.5 -32 t-102.5 32t-69 83.5t-36 106t-11.5 108.5t11.5 108.5t36 106t69 83.5t102.5 32zM426 739l-32 -46q-57 30 -121 100q-65 -71 -121 -100l-32 45q80 55 153 147q62 -80 153 -146z" />
<glyph unicode="&#xd5;" horiz-adv-x="548" d="M274 579q-38 0 -67 -29t-43.5 -73.5t-21.5 -85.5t-7 -76t7 -76t21.5 -85.5t43.5 -73.5t67 -29t67 29t43.5 73.5t21.5 85.5t7 76t-7 76t-21.5 85.5t-43.5 73.5t-67 29zM274 645q58 0 102.5 -32t69 -83.5t36 -106t11.5 -108.5t-11.5 -108.5t-36 -106t-69 -83.5t-102.5 -32 t-102.5 32t-69 83.5t-36 106t-11.5 108.5t11.5 108.5t36 106t69 83.5t102.5 32zM206 830q29 0 71.5 -22t65.5 -22q26 0 41 6.5t43 25.5l31 -38q-36 -33 -61 -44.5t-61 -11.5q-20 0 -62.5 22t-70.5 22q-9 0 -17.5 -2t-19.5 -7.5l-16 -8t-19 -11.5t-16 -10l-29 43 q74 58 120 58z" />
<glyph unicode="&#xd6;" horiz-adv-x="548" d="M274 579q-38 0 -67 -29t-43.5 -73.5t-21.5 -85.5t-7 -76t7 -76t21.5 -85.5t43.5 -73.5t67 -29t67 29t43.5 73.5t21.5 85.5t7 76t-7 76t-21.5 85.5t-43.5 73.5t-67 29zM274 645q58 0 102.5 -32t69 -83.5t36 -106t11.5 -108.5t-11.5 -108.5t-36 -106t-69 -83.5t-102.5 -32 t-102.5 32t-69 83.5t-36 106t-11.5 108.5t11.5 108.5t36 106t69 83.5t102.5 32zM244 772q0 -22 -19 -39t-41 -17q-16 0 -27 10.5t-11 26.5q0 22 17.5 40.5t39.5 18.5q17 0 29 -11.5t12 -28.5zM398 772q0 -22 -19 -39t-41 -17q-16 0 -27 10.5t-11 26.5q0 22 17.5 40.5 t39.5 18.5q17 0 29 -11.5t12 -28.5z" />
<glyph unicode="&#xd8;" horiz-adv-x="548" d="M363 531l-135 -471q22 -9 46 -9q44 0 73.5 27t42.5 72t18 84t5 81q0 145 -50 216zM188 93l136 474q-22 12 -50 12q-43 0 -73 -28t-43 -74.5t-18 -86t-5 -81.5q0 -150 53 -216zM171 -140h-50l46 161q-58 45 -85 128t-27 170q0 54 12 108t36 104.5t68.5 82t102.5 31.5 q38 0 68 -13l34 117h50l-41 -143q56 -45 82 -125.5t26 -165.5q0 -54 -11.5 -108.5t-35.5 -106t-68.5 -83.5t-103.5 -32q-31 0 -64 11z" />
<glyph unicode="&#xd9;" horiz-adv-x="558" d="M479 241q0 -110 -48 -183t-152 -73t-152 74t-48 186v385h80v-386q0 -193 120 -193t120 194v385h80v-389zM389 736l-32 -45q-117 62 -184 128l62 63q52 -72 154 -146z" />
<glyph unicode="&#xda;" horiz-adv-x="558" d="M479 241q0 -110 -48 -183t-152 -73t-152 74t-48 186v385h80v-386q0 -193 120 -193t120 194v385h80v-389zM329 882l62 -63q-68 -67 -184 -128l-32 45q98 71 154 146z" />
<glyph unicode="&#xdb;" horiz-adv-x="558" d="M479 241q0 -110 -48 -183t-152 -73t-152 74t-48 186v385h80v-386q0 -193 120 -193t120 194v385h80v-389zM430 736l-32 -46q-57 30 -121 100q-65 -71 -121 -100l-32 45q80 55 153 147q62 -80 153 -146z" />
<glyph unicode="&#xdc;" horiz-adv-x="550" d="M479 241q0 -110 -48 -183t-152 -73t-152 74t-48 186v385h80v-386q0 -193 120 -193t120 194v385h80v-389zM250 772q0 -22 -19 -39t-41 -17q-16 0 -27 10.5t-11 26.5q0 22 17.5 40.5t39.5 18.5q17 0 29 -11.5t12 -28.5zM404 772q0 -22 -19 -39t-41 -17q-16 0 -27 10.5 t-11 26.5q0 22 17.5 40.5t39.5 18.5q17 0 29 -11.5t12 -28.5z" />
<glyph unicode="&#xdd;" horiz-adv-x="471" d="M358 896l62 -63q-68 -67 -184 -128l-32 45q98 71 154 146zM459 630l-184 -399v-231h-79v231l-183 399h85l140 -314l141 314h80z" />
<glyph unicode="&#xdf;" horiz-adv-x="572" d="M542 124q0 -69 -50.5 -104t-122.5 -35q-92 0 -174 50l28 55q72 -45 150 -45q41 0 68.5 22t27.5 61q0 29 -26 52t-63.5 39.5l-75 34.5t-63.5 46.5t-26 66.5q0 67 44 103t113 36q7 26 7 46q0 46 -30.5 71t-76.5 25q-43 0 -75 -26.5t-32 -68.5v-553h-76v432l-66 9v49h66v76 q0 65 54 103t122 38q76 0 127 -45t51 -120q0 -26 -20 -102q-17 9 -44 9q-39 0 -64 -20.5t-25 -58.5q0 -24 26 -44t63 -36.5t74 -36t63 -52.5t26 -77z" />
<glyph unicode="&#xe0;" horiz-adv-x="465" d="M359 0l-54 162h-147l-53 -162h-83l169 514h81l170 -514h-83zM232 419l-59 -193h117zM335 631l-32 -45q-117 62 -184 128l62 63q52 -72 154 -146z" />
<glyph unicode="&#xe1;" horiz-adv-x="465" d="M359 0l-54 162h-147l-53 -162h-83l169 514h81l170 -514h-83zM232 419l-59 -193h117zM272 777l62 -63q-68 -67 -184 -128l-32 45q98 71 154 146z" />
<glyph unicode="&#xe2;" horiz-adv-x="465" d="M359 0l-54 162h-147l-53 -162h-83l169 514h81l170 -514h-83zM232 419l-59 -193h117zM382 631l-32 -46q-57 30 -121 100q-65 -71 -121 -100l-32 45q80 55 153 147q62 -80 153 -146z" />
<glyph unicode="&#xe3;" horiz-adv-x="465" d="M359 0l-54 162h-147l-53 -162h-83l169 514h81l170 -514h-83zM232 419l-59 -193h117zM165 725q29 0 71.5 -22t65.5 -22q26 0 41 6.5t43 25.5l31 -38q-36 -33 -61 -44.5t-61 -11.5q-20 0 -62.5 22t-70.5 22q-9 0 -17.5 -2t-19.5 -7.5l-16 -8t-19 -11.5t-16 -10l-29 43 q74 58 120 58z" />
<glyph unicode="&#xe4;" horiz-adv-x="465" d="M359 0l-54 162h-147l-53 -162h-83l169 514h81l170 -514h-83zM232 419l-59 -193h117zM204 667q0 -22 -19 -39t-41 -17q-16 0 -27 10.5t-11 26.5q0 22 17.5 40.5t39.5 18.5q17 0 29 -11.5t12 -28.5zM358 667q0 -22 -19 -39t-41 -17q-16 0 -27 10.5t-11 26.5q0 22 17.5 40.5 t39.5 18.5q17 0 29 -11.5t12 -28.5z" />
<glyph unicode="&#xe5;" horiz-adv-x="465" d="M359 0l-54 162h-147l-53 -162h-83l169 514h81l170 -514h-83zM232 419l-59 -193h117zM233 744q-25 0 -43.5 -17.5t-18.5 -42.5q0 -24 17.5 -42t41.5 -18t42 18t18 42t-16.5 42t-40.5 18zM232 790q43 0 73.5 -31.5t30.5 -74.5q0 -44 -31 -75t-75 -31q-43 0 -73.5 31.5 t-30.5 74.5t31.5 74.5t74.5 31.5z" />
<glyph unicode="&#xe6;" horiz-adv-x="645" d="M302 0v160h-145l-53 -160h-82l167 515h86l27 -151v151h279v-66h-200v-150h153v-67h-153v-164h208v-68h-287zM232 411l-58 -186h108z" />
<glyph unicode="&#xe7;" horiz-adv-x="465" d="M337 -43q4 -9 4 -20q0 -32 -33 -63.5t-70 -47.5l-38 31q81 44 81 75q0 5 -1 8q-7 21 -31 21q-11 0 -49 -9v45q-69 26 -102 99t-33 161q0 113 53 188q58 85 157 85q82 0 142 -38l-29 -52q-57 29 -113 29q-28 0 -57 -21.5t-46 -55.5q-28 -56 -28 -138q0 -84 24 -131 q38 -76 108 -76q59 0 114 38l35 -51q-47 -35 -109 -46q14 -14 21 -31z" />
<glyph unicode="&#xe8;" horiz-adv-x="437" d="M90 0v514h282v-64h-203v-149h156v-66h-156v-169h212v-66h-291zM340 631l-32 -45q-117 62 -184 128l62 63q52 -72 154 -146z" />
<glyph unicode="&#xe9;" horiz-adv-x="437" d="M90 0v514h282v-64h-203v-149h156v-66h-156v-169h212v-66h-291zM280 777l62 -63q-68 -67 -184 -128l-32 45q98 71 154 146z" />
<glyph unicode="&#xea;" horiz-adv-x="437" d="M386 631l-32 -46q-57 30 -121 100q-65 -71 -121 -100l-32 45q80 55 153 147q62 -80 153 -146zM102 0v514h282v-64h-203v-149h156v-66h-156v-169h212v-66h-291z" />
<glyph unicode="&#xeb;" horiz-adv-x="437" d="M90 0v514h282v-64h-203v-149h156v-66h-156v-169h212v-66h-291zM204 642q0 -22 -19 -39t-41 -17q-16 0 -27 10.5t-11 26.5q0 22 17.5 40.5t39.5 18.5q17 0 29 -11.5t12 -28.5zM358 642q0 -22 -19 -39t-41 -17q-16 0 -27 10.5t-11 26.5q0 22 17.5 40.5t39.5 18.5 q17 0 29 -11.5t12 -28.5z" />
<glyph unicode="&#xec;" horiz-adv-x="261" d="M90 0v514h82v-514h-82zM306 631l-32 -45q-117 62 -184 128l62 63q52 -72 154 -146z" />
<glyph unicode="&#xed;" horiz-adv-x="261" d="M90 0v514h82v-514h-82zM244 777l62 -63q-68 -67 -184 -128l-32 45q98 71 154 146z" />
<glyph unicode="&#xee;" horiz-adv-x="261" d="M90 0v514h82v-514h-82zM396 631l-32 -46q-57 30 -121 100q-65 -71 -121 -100l-32 45q80 55 153 147q62 -80 153 -146z" />
<glyph unicode="&#xef;" horiz-adv-x="261" d="M90 0v514h82v-514h-82zM188 667q0 -22 -19 -39t-41 -17q-16 0 -27 10.5t-11 26.5q0 22 17.5 40.5t39.5 18.5q17 0 29 -11.5t12 -28.5zM342 667q0 -22 -19 -39t-41 -17q-16 0 -27 10.5t-11 26.5q0 22 17.5 40.5t39.5 18.5q17 0 29 -11.5t12 -28.5z" />
<glyph unicode="&#xf1;" horiz-adv-x="539" d="M366 0l-185 384q0 -11 0.5 -19.5t1 -12t0.5 -5.5v-347h-79v515h98l164 -357q-1 26 -1 36v321h79v-515h-78zM201 725q29 0 71.5 -22t65.5 -22q26 0 41 6.5t43 25.5l31 -38q-36 -33 -61 -44.5t-61 -11.5q-20 0 -62.5 22t-70.5 22q-9 0 -17.5 -2t-19.5 -7.5l-16 -8 t-19 -11.5t-16 -10l-29 43q74 58 120 58z" />
<glyph unicode="&#xf2;" horiz-adv-x="505" d="M263 -16q-48 0 -86 25.5t-59 67t-32 88t-11 95.5q0 65 18.5 124.5t63 102.5t106.5 43q63 0 107.5 -44t62.5 -103.5t18 -125.5t-18 -125.5t-62.5 -103.5t-107.5 -44zM263 466q-31 0 -54 -19.5t-34.5 -52.5t-16.5 -68t-5 -74q0 -37 5 -70.5t16.5 -65t34.5 -50t54 -18.5 q42 0 67.5 35t33.5 78t8 96q0 52 -8.5 96t-34.5 78.5t-66 34.5zM363 631l-32 -45q-117 62 -184 128l62 63q52 -72 154 -146z" />
<glyph unicode="&#xf3;" horiz-adv-x="505" d="M263 -16q-48 0 -86 25.5t-59 67t-32 88t-11 95.5q0 65 18.5 124.5t63 102.5t106.5 43q63 0 107.5 -44t62.5 -103.5t18 -125.5t-18 -125.5t-62.5 -103.5t-107.5 -44zM263 466q-31 0 -54 -19.5t-34.5 -52.5t-16.5 -68t-5 -74q0 -37 5 -70.5t16.5 -65t34.5 -50t54 -18.5 q42 0 67.5 35t33.5 78t8 96q0 52 -8.5 96t-34.5 78.5t-66 34.5zM310 777l62 -63q-68 -67 -184 -128l-32 45q98 71 154 146z" />
<glyph unicode="&#xf4;" horiz-adv-x="505" d="M263 -16q-48 0 -86 25.5t-59 67t-32 88t-11 95.5q0 65 18.5 124.5t63 102.5t106.5 43q63 0 107.5 -44t62.5 -103.5t18 -125.5t-18 -125.5t-62.5 -103.5t-107.5 -44zM263 466q-31 0 -54 -19.5t-34.5 -52.5t-16.5 -68t-5 -74q0 -37 5 -70.5t16.5 -65t34.5 -50t54 -18.5 q42 0 67.5 35t33.5 78t8 96q0 52 -8.5 96t-34.5 78.5t-66 34.5zM406 631l-32 -46q-57 30 -121 100q-65 -71 -121 -100l-32 45q80 55 153 147q62 -80 153 -146z" />
<glyph unicode="&#xf5;" horiz-adv-x="505" d="M263 -16q-48 0 -86 25.5t-59 67t-32 88t-11 95.5q0 65 18.5 124.5t63 102.5t106.5 43q63 0 107.5 -44t62.5 -103.5t18 -125.5t-18 -125.5t-62.5 -103.5t-107.5 -44zM263 466q-31 0 -54 -19.5t-34.5 -52.5t-16.5 -68t-5 -74q0 -37 5 -70.5t16.5 -65t34.5 -50t54 -18.5 q42 0 67.5 35t33.5 78t8 96q0 52 -8.5 96t-34.5 78.5t-66 34.5zM188 725q29 0 71.5 -22t65.5 -22q26 0 41 6.5t43 25.5l31 -38q-36 -33 -61 -44.5t-61 -11.5q-20 0 -62.5 22t-70.5 22q-9 0 -17.5 -2t-19.5 -7.5l-16 -8t-19 -11.5t-16 -10l-29 43q74 58 120 58z" />
<glyph unicode="&#xf6;" horiz-adv-x="505" d="M263 -16q-48 0 -86 25.5t-59 67t-32 88t-11 95.5q0 65 18.5 124.5t63 102.5t106.5 43q63 0 107.5 -44t62.5 -103.5t18 -125.5t-18 -125.5t-62.5 -103.5t-107.5 -44zM263 466q-31 0 -54 -19.5t-34.5 -52.5t-16.5 -68t-5 -74q0 -37 5 -70.5t16.5 -65t34.5 -50t54 -18.5 q42 0 67.5 35t33.5 78t8 96q0 52 -8.5 96t-34.5 78.5t-66 34.5zM228 667q0 -22 -19 -39t-41 -17q-16 0 -27 10.5t-11 26.5q0 22 17.5 40.5t39.5 18.5q17 0 29 -11.5t12 -28.5zM382 667q0 -22 -19 -39t-41 -17q-16 0 -27 10.5t-11 26.5q0 22 17.5 40.5t39.5 18.5 q17 0 29 -11.5t12 -28.5z" />
<glyph unicode="&#xf7;" horiz-adv-x="489" d="M308 404q0 -24 -19.5 -42.5t-44.5 -18.5q-24 0 -41 16t-17 40q0 25 19.5 43t44.5 18q24 0 41 -16t17 -40zM308 107q0 -24 -19.5 -42.5t-44.5 -18.5q-24 0 -41 16t-17 40q0 25 19.5 43t44.5 18q24 0 41 -16t17 -40zM434 280v-60h-380v60h380z" />
<glyph unicode="&#xf8;" horiz-adv-x="505" d="M182 85l108 373q-18 8 -37 8q-31 0 -54 -19.5t-34.5 -52.5t-16.5 -68t-5 -74q0 -114 39 -167zM329 419l-106 -366q15 -5 30 -5q42 0 67.5 35t33.5 78t8 96q0 105 -33 162zM382 605l-31 -109q45 -36 67.5 -102t22.5 -137q0 -66 -18 -125.5t-62.5 -103.5t-107.5 -44 q-22 0 -48 7l-29 -102h-50l36 124q-48 36 -72.5 104.5t-24.5 142.5q0 65 18.5 124.5t63 102.5t106.5 43q29 0 55 -9l24 84h50z" />
<glyph unicode="&#xf9;" horiz-adv-x="522" d="M271 -16q-88 0 -130 61.5t-42 152.5v316h78v-316q0 -150 94 -150t94 150v316h78v-319q0 -92 -42 -151.5t-130 -59.5zM373 631l-32 -45q-117 62 -184 128l62 63q52 -72 154 -146z" />
<glyph unicode="&#xfa;" horiz-adv-x="522" d="M271 -16q-88 0 -130 61.5t-42 152.5v316h78v-316q0 -150 94 -150t94 150v316h78v-319q0 -92 -42 -151.5t-130 -59.5zM312 777l62 -63q-68 -67 -184 -128l-32 45q98 71 154 146z" />
<glyph unicode="&#xfb;" horiz-adv-x="522" d="M413 631l-32 -46q-57 30 -121 100q-65 -71 -121 -100l-32 45q80 55 153 147q62 -80 153 -146zM271 -16q-88 0 -130 61.5t-42 152.5v316h78v-316q0 -150 94 -150t94 150v316h78v-319q0 -92 -42 -151.5t-130 -59.5z" />
<glyph unicode="&#xfc;" horiz-adv-x="522" d="M271 -16q-88 0 -130 61.5t-42 152.5v316h78v-316q0 -150 94 -150t94 150v316h78v-319q0 -92 -42 -151.5t-130 -59.5zM233 667q0 -22 -19 -39t-41 -17q-16 0 -27 10.5t-11 26.5q0 22 17.5 40.5t39.5 18.5q17 0 29 -11.5t12 -28.5zM387 667q0 -22 -19 -39t-41 -17 q-16 0 -27 10.5t-11 26.5q0 22 17.5 40.5t39.5 18.5q17 0 29 -11.5t12 -28.5z" />
<glyph unicode="&#xfd;" horiz-adv-x="416" d="M331 781l62 -63q-68 -67 -184 -128l-32 45q98 71 154 146zM247 189v-189h-78v189l-155 325h84l112 -242l113 242h80z" />
<glyph unicode="&#xff;" horiz-adv-x="416" d="M187 642q0 -22 -19 -39t-41 -17q-16 0 -27 10.5t-11 26.5q0 22 17.5 40.5t39.5 18.5q17 0 29 -11.5t12 -28.5zM341 642q0 -22 -19 -39t-41 -17q-16 0 -27 10.5t-11 26.5q0 22 17.5 40.5t39.5 18.5q17 0 29 -11.5t12 -28.5zM257 189v-189h-78v189l-155 325h84l112 -242 l113 242h80z" />
<glyph unicode="&#x152;" horiz-adv-x="638" d="M264 566q-41 0 -69.5 -27t-41 -71t-17 -81.5t-4.5 -77.5q0 -39 5 -75.5t17.5 -78t41 -67t68.5 -25.5v503zM588 630v-67h-244v-200h187v-69h-187v-225h254v-69h-335q-56 0 -98.5 31.5t-65 81.5t-33.5 102t-11 104q0 50 11.5 101.5t34.5 100t65 79t97 30.5h325z" />
<glyph unicode="&#x153;" horiz-adv-x="583" d="M244 0q-61 0 -103 42t-59 98.5t-17 119.5q0 62 17.5 117.5t60 96t101.5 40.5h275v-66h-202v-146h155v-68h-155v-166h210v-68h-283zM238 450q-36 -5 -58 -37.5t-29.5 -72t-7.5 -88.5q0 -46 7.5 -84t29.5 -69t58 -35v386z" />
<glyph unicode="&#x178;" horiz-adv-x="471" d="M459 630l-184 -399v-231h-79v231l-183 399h85l140 -314l141 314h80zM217 772q0 -22 -19 -39t-41 -17q-16 0 -27 10.5t-11 26.5q0 22 17.5 40.5t39.5 18.5q17 0 29 -11.5t12 -28.5zM371 772q0 -22 -19 -39t-41 -17q-16 0 -27 10.5t-11 26.5q0 22 17.5 40.5t39.5 18.5 q17 0 29 -11.5t12 -28.5z" />
<glyph unicode="&#x2c6;" horiz-adv-x="402" d="M366 606l-32 -46q-57 30 -121 100q-65 -71 -121 -100l-32 45q80 55 153 147q62 -80 153 -146z" />
<glyph unicode="&#x2dc;" horiz-adv-x="380" d="M121 700q29 0 71.5 -22t65.5 -22q26 0 41 6.5t43 25.5l31 -38q-36 -33 -61 -44.5t-61 -11.5q-20 0 -62.5 22t-70.5 22q-9 0 -17.5 -2t-19.5 -7.5l-16 -8t-19 -11.5t-16 -10l-29 43q74 58 120 58z" />
<glyph unicode="&#x2013;" horiz-adv-x="358" d="M358 285v-60h-358v60h358z" />
<glyph unicode="&#x2014;" horiz-adv-x="608" d="M608 286v-60h-608v60h608z" />
<glyph unicode="&#x2018;" horiz-adv-x="267" d="M110 431q-13 0 -29 11.5t-25 23.5l-10 11q41 87 129 184l45 -31q-48 -69 -60 -117q-5 -20 -5 -41l2 -24q-28 -17 -47 -17z" />
<glyph unicode="&#x2019;" horiz-adv-x="270" d="M158 646q13 0 29 -11.5t25 -22.5l10 -12q-41 -87 -129 -184l-45 31q48 69 60 117q5 20 5 41l-2 24q28 17 47 17z" />
<glyph unicode="&#x201a;" horiz-adv-x="258" d="M139 90q13 0 29 -11.5t26 -22.5l9 -12q-41 -87 -129 -184l-45 31q48 69 60 117q5 20 5 41l-2 24q28 17 47 17z" />
<glyph unicode="&#x201c;" horiz-adv-x="446" d="M288 431l47 17q-2 9 -2 24q0 21 5 41q12 48 60 117l-45 31q-86 -95 -129 -184q34 -46 64 -46zM111 431l47 17q-2 9 -2 24q0 21 5 41q12 48 60 117l-45 31q-86 -95 -129 -184q34 -46 64 -46z" />
<glyph unicode="&#x201d;" horiz-adv-x="446" d="M157 646l-47 -17q2 -9 2 -24q0 -21 -5 -41q-12 -48 -60 -117l45 -31q86 95 129 184q-34 46 -64 46zM334 646l-47 -17q2 -9 2 -24q0 -21 -5 -41q-12 -48 -60 -117l45 -31q86 95 129 184q-34 46 -64 46z" />
<glyph unicode="&#x201e;" horiz-adv-x="434" d="M139 90l-47 -17q2 -9 2 -24q0 -21 -5 -41q-12 -48 -60 -117l45 -31q86 95 129 184q-34 46 -64 46zM316 90l-47 -17q2 -9 2 -24q0 -21 -5 -41q-12 -48 -60 -117l45 -31q86 95 129 184q-34 46 -64 46z" />
<glyph unicode="&#x2022;" horiz-adv-x="424" d="M211 487q71 0 122 -50.5t51 -121.5t-51 -121.5t-122 -50.5t-121.5 50.5t-50.5 121.5t50.5 121.5t121.5 50.5z" />
<glyph unicode="&#x2026;" horiz-adv-x="604" d="M192 46q0 -24 -19.5 -42.5t-44.5 -18.5q-24 0 -41 16t-17 40q0 25 19.5 43t44.5 18q24 0 41 -16t17 -40zM364 46q0 -24 -19.5 -42.5t-44.5 -18.5q-24 0 -41 16t-17 40q0 25 19.5 43t44.5 18q24 0 41 -16t17 -40zM534 46q0 -24 -19.5 -42.5t-44.5 -18.5q-24 0 -41 16 t-17 40q0 25 19.5 43t44.5 18q24 0 41 -16t17 -40z" />
<glyph unicode="&#x2039;" horiz-adv-x="300" d="M267 100l-47 -38l-187 188l185 188l47 -38l-149 -150z" />
<glyph unicode="&#x203a;" horiz-adv-x="300" d="M33 100l47 -38l187 188l-185 188l-47 -38l149 -150z" />
<glyph unicode="&#x2044;" horiz-adv-x="339" d="M420 745l-430 -876h-63l430 876h63z" />
<glyph unicode="&#x2122;" horiz-adv-x="802" d="M310 650h-97v-353h-49v353h-97v44h243v-44zM724 694v-397h-50v270l3 54l-114 -324h-44l-114 325q3 -33 3 -54v-271h-51v397h67l117 -335l116 335h67z" />
<glyph unicode="&#xe000;" horiz-adv-x="515" d="M0 515h515v-515h-515v515z" />
<glyph unicode="&#xfb01;" horiz-adv-x="661" d="M490 0v514h76v-514h-76zM173 450v-149h142v-66h-142v-235h-78v514h257v-64h-179z" />
<glyph unicode="&#xfb02;" horiz-adv-x="762" d="M488 0v514h75v-450h179v-64h-254zM173 450v-149h141v-66h-141v-235h-78v514h256v-64h-178z" />
<glyph unicode="&#xfb03;" horiz-adv-x="1049" d="M878 0v514h82v-514h-82zM563 450v-149h143v-66h-143v-235h-79v514h260v-64h-181zM169 450v-149h143v-66h-143v-235h-79v514h260v-64h-181z" />
<glyph unicode="&#xfb04;" horiz-adv-x="1155" d="M878 0v514h76v-450h181v-64h-257zM563 450v-149h143v-66h-143v-235h-79v514h260v-64h-181zM169 450v-149h143v-66h-143v-235h-79v514h260v-64h-181z" />
</font>
</defs>
</svg>
