<svg fill="none" height="20" viewBox="0 0 20 20" width="20" xmlns="http://www.w3.org/2000/svg"><g fill="#595959"><path d="m14 0c.2449.00003231.4813.0899562.6644.252715.183.16276.2999.387034.3286.630285l.007.117v1h1c.7652-.00004 1.5015.29233 2.0583.81728.5567.52496.8918 1.24283.9367 2.00672l.005.176v12c0 .7652-.2923 1.5015-.8173 2.0583-.5249.5567-1.2428.8918-2.0067.9367l-.176.005h-12c-.76521 0-1.50151-.2923-2.05826-.8173-.55675-.5249-.89185-1.2428-.93674-2.0067l-.005-.176v-12c-.000043-.76521.29233-1.50151.81728-2.05826.52496-.55675 1.24283-.89185 2.00672-.93674l.176-.005h1v-1c.00028-.25488.09788-.500032.27285-.685368s.4141-.296867.66854-.31180412c.25445-.01493708.50499.06784672.70044.23143712.19546.16359.32107.395639.35117.648735l.007.117v1h6v-1c0-.265216.1054-.51957.2929-.707107.1875-.187536.4419-.292893.7071-.292893zm3 7h-14v9.625c0 .705.386 1.286.883 1.366l.117.009h12c.513 0 .936-.53.993-1.215l.007-.16z"/><path d="m9.99987 10c.24493 0 .48133.09.66433.2527.1831.1628.3.387.3287.6303l.007.117v3c-.0003.2549-.0979.5-.2729.6854-.1749.1853-.4141.2968-.6685.3118-.25447.0149-.50501-.0679-.70046-.2315-.19546-.1636-.32107-.3956-.35117-.6487l-.007-.117v-2c-.25488-.0003-.50003-.0979-.68537-.2728-.18534-.175-.29687-.4142-.3118-.6686-.01494-.2544.06784-.505.23143-.7004.16359-.1955.39564-.3211.64874-.3512l.117-.007z"/></g></svg>