<?xml version="1.0" encoding="UTF-8" standalone="no"?>
<svg width="52px" height="52px" viewBox="0 0 52 52" version="1.1" xmlns="http://www.w3.org/2000/svg" xmlns:xlink="http://www.w3.org/1999/xlink" xmlns:sketch="http://www.bohemiancoding.com/sketch/ns">
    <!-- Generator: Sketch 3.0.3 (7892) - http://www.bohemiancoding.com/sketch -->
    <title>binoculars</title>
    <desc>Created with Sketch.</desc>
    <defs></defs>
    <g id="Page-1" stroke="none" stroke-width="1" fill="none" fill-rule="evenodd" sketch:type="MSPage">
        <g id="binoculars" sketch:type="MSArtboardGroup">
            <circle id="Oval-1" fill="#A94CA6" sketch:type="MSShapeGroup" cx="26" cy="26" r="25"></circle>
            <path d="M34.3616,35.125 C31.6608,35.125 29.46304,32.9336111 29.46304,30.2375 C29.46304,29.6625 29.56864,29.1130556 29.7536,28.5955556 C30.43072,26.7044444 32.23744,25.35 34.3616,25.35 C35.4368,25.35 36.43008,25.7013889 37.2384,26.2891667 C38.4608,27.1772222 39.25952,28.6147222 39.25952,30.2375 C39.25952,32.9336111 37.0624,35.125 34.3616,35.125 L34.3616,35.125 Z M26.8384,30.8444444 C26.64512,31.1255556 26.32256,31.3044444 25.95776,31.3044444 C25.59296,31.3044444 25.27104,31.1255556 25.07776,30.8444444 C24.95744,30.6719444 24.8864,30.4611111 24.8864,30.2375 C24.8864,30.1288889 24.90816,30.0202778 24.9408,29.9180556 C24.9728,29.8158333 25.01632,29.72 25.07776,29.6305556 C25.27104,29.3494444 25.59296,29.1705556 25.95776,29.1705556 C26.32256,29.1705556 26.64512,29.3494444 26.8384,29.6305556 C26.89792,29.72 26.94208,29.8158333 26.97536,29.9180556 C27.00736,30.0202778 27.02912,30.1288889 27.02912,30.2375 C27.02912,30.4611111 26.95808,30.6719444 26.8384,30.8444444 L26.8384,30.8444444 Z M17.55456,35.125 C14.85248,35.125 12.65536,32.9336111 12.65536,30.2375 C12.65536,28.6147222 13.45408,27.1772222 14.67712,26.2891667 C15.48672,25.7013889 16.47808,25.35 17.55456,25.35 C19.67808,25.35 21.4848,26.7044444 22.16192,28.5955556 C22.34624,29.1130556 22.45248,29.6625 22.45248,30.2375 C22.45248,32.9336111 20.25664,35.125 17.55456,35.125 L17.55456,35.125 Z M39.83296,25.0561111 L37.40096,20.8330556 C37.27488,20.5838889 37.13408,20.3411111 36.97472,20.1175 C36.95168,20.0855556 36.93056,20.0536111 36.90304,20.0216667 C36.19456,19.0569444 35.1968,18.3158333 34.03264,17.9388889 C33.89184,16.2969444 32.51008,15 30.83072,15 C29.05728,15 27.61536,16.4438889 27.61536,18.2136111 C27.61536,18.7119444 27.73184,19.1783333 27.93664,19.6 C27.49632,20.0983333 27.14176,20.6669444 26.89344,21.2866667 C26.60032,21.1844444 26.28608,21.1205556 25.95776,21.1205556 C25.62816,21.1205556 25.31584,21.1844444 25.02272,21.2866667 C24.76224,20.635 24.38592,20.0472222 23.91872,19.5361111 C24.10368,19.1272222 24.20864,18.6863889 24.20864,18.2136111 C24.20864,16.4438889 22.76608,15 20.99328,15 C19.30176,15 17.91424,16.3161111 17.78944,17.9708333 C16.66496,18.3605556 15.70048,19.0825 15.01184,20.0216667 C14.98496,20.0536111 14.96384,20.0855556 14.9408,20.1175 C14.78144,20.3411111 14.64064,20.5838889 14.51392,20.8330556 L12.0832,25.0561111 C10.7968,26.4041667 10,28.2313889 10,30.2375 C10,34.3966667 13.38944,37.7763889 17.55456,37.7763889 C20.67648,37.7763889 23.36128,35.8788889 24.51072,33.1763889 C24.94784,33.3936111 25.43808,33.515 25.95776,33.515 C26.47744,33.515 26.96768,33.3936111 27.4048,33.1763889 C28.55424,35.8788889 31.23904,37.7763889 34.3616,37.7763889 C38.52608,37.7763889 41.91488,34.3966667 41.91488,30.2375 C41.91488,28.2313889 41.11808,26.4041667 39.83296,25.0561111 L39.83296,25.0561111 Z" id="Fill-507" fill="#FFFFFF" sketch:type="MSShapeGroup"></path>
        </g>
    </g>
</svg>