<?xml version="1.0" encoding="UTF-8" standalone="no"?>
<svg width="258px" height="188px" viewBox="0 0 258 188" version="1.1" xmlns="http://www.w3.org/2000/svg" xmlns:xlink="http://www.w3.org/1999/xlink" xmlns:sketch="http://www.bohemiancoding.com/sketch/ns">
    <!-- Generator: Sketch 3.0.3 (7892) - http://www.bohemiancoding.com/sketch -->
    <title>devices</title>
    <desc>Created with Sketch.</desc>
    <defs></defs>
    <g id="Page-1" stroke="none" stroke-width="1" fill="none" fill-rule="evenodd" sketch:type="MSPage">
        <g id="Fill-46-+-Fill-47-+-Rectangle-11-+-Fill-115-+-Rectangle-10-+-Fill-281" sketch:type="MSLayerGroup">
            <g id="Fill-46-+-Fill-47" transform="translate(30.323433, 0.332982)" fill="#FF8585" sketch:type="MSShapeGroup">
                <path d="M93.0908542,147.968617 L85.6529717,174.087164 C85.6529717,175.993628 87.297888,177.53613 89.3267436,177.53613 L138.267709,177.53613 C140.296565,177.53613 141.945245,175.993628 141.945245,174.087164 L134.49607,147.968617 L93.0908542,147.968617" id="Fill-46"></path>
                <path d="M10.3787049,10.1912355 L218.777044,10.1912355 L218.777044,130.767415 L10.3787049,130.767415 L10.3787049,10.1912355 Z M16.3398221,0.230225054 C7.37462458,0.230225054 0.107277151,6.21949941 0.107277151,13.6042596 L0.107277151,129.176888 C0.107277151,136.56542 7.37462458,142.554694 16.3398221,142.554694 L211.194431,142.554694 C220.168781,142.554694 227.436129,136.56542 227.436129,129.176888 L227.436129,13.6042596 C227.436129,6.21949941 220.168781,0.230225054 211.194431,0.230225054 L16.3398221,0.230225054 Z" id="Fill-47"></path>
            </g>
            <g id="Rectangle-11-+-Fill-115" transform="translate(0.037028, 78.038562)" sketch:type="MSShapeGroup">
                <rect id="Rectangle-11" fill="#FFFFFF" x="8.99925905" y="6.76425293" width="72.8058228" height="92.85279"></rect>
                <path d="M10.9446709,9.67680875 L76.6858042,9.67680875 L76.6858042,95.9663059 L10.9446709,95.9663059 L10.9446709,9.67680875 Z M43.8152375,103.397762 C42.6175594,103.397762 41.6478057,102.424312 41.6478057,101.224228 C41.6478057,100.019827 42.6175594,99.0485362 43.8152375,99.0485362 C45.0129157,99.0485362 45.9826694,100.019827 45.9826694,101.224228 C45.9826694,102.424312 45.0129157,103.397762 43.8152375,103.397762 L43.8152375,103.397762 Z M82.760204,0.30924614 L4.86812081,0.30924614 C2.18033326,0.30924614 0,2.27557092 0,4.70164013 L0,102.424312 C0,104.85254 2.18033326,106.814548 4.86812081,106.814548 L82.760204,106.814548 C85.4501418,106.814548 87.6304751,104.85254 87.6304751,102.424312 L87.6304751,4.70164013 C87.6304751,2.27557092 85.4501418,0.30924614 82.760204,0.30924614 L82.760204,0.30924614 Z" id="Fill-115" fill="#FF6666"></path>
            </g>
            <g id="Rectangle-10-+-Fill-281" transform="translate(70.464114, 122.038562)" sketch:type="MSShapeGroup">
                <rect id="Rectangle-10" fill="#FFFFFF" x="2.44917547" y="2.46110627" width="32.6556729" height="61.1174723"></rect>
                <path d="M2.5785893,5.3093677 L34.5093812,5.3093677 L34.5093812,52.7952409 L2.5785893,52.7952409 L2.5785893,5.3093677 Z M18.5446427,62.7495267 C16.6208809,62.7495267 15.0653032,61.1863712 15.0653032,59.2558808 C15.0653032,57.3267118 16.6208809,55.7609136 18.5446427,55.7609136 C20.4684045,55.7609136 22.0226672,57.3267118 22.0226672,59.2558808 C22.0226672,61.1863712 20.4684045,62.7495267 18.5446427,62.7495267 L18.5446427,62.7495267 Z M31.2917012,0 L5.79626924,0 C2.60753219,0 0,2.62155575 0,5.82318356 L0,60.2178227 C0,63.4207718 2.60753219,66.0396849 5.79626924,66.0396849 L31.2917012,66.0396849 C34.4804383,66.0396849 37.0879705,63.4207718 37.0879705,60.2178227 L37.0879705,5.82318356 C37.0879705,2.62155575 34.4804383,0 31.2917012,0 L31.2917012,0 Z" id="Fill-281" fill="#E04B4B"></path>
            </g>
        </g>
    </g>
</svg>