<?xml version="1.0" encoding="UTF-8" standalone="no"?>
<svg width="52px" height="52px" viewBox="0 0 52 52" version="1.1" xmlns="http://www.w3.org/2000/svg" xmlns:xlink="http://www.w3.org/1999/xlink" xmlns:sketch="http://www.bohemiancoding.com/sketch/ns">
    <!-- Generator: Sketch 3.0.3 (7892) - http://www.bohemiancoding.com/sketch -->
    <title>open</title>
    <desc>Created with Sketch.</desc>
    <defs></defs>
    <g id="Page-1" stroke="none" stroke-width="1" fill="none" fill-rule="evenodd" sketch:type="MSPage">
        <g id="open" sketch:type="MSArtboardGroup">
            <circle id="Oval-1" fill="#54B1E4" sketch:type="MSShapeGroup" cx="26" cy="26" r="25"></circle>
            <g id="Group" sketch:type="MSLayerGroup" transform="translate(9.000000, 7.000000)" fill="#FFFFFF">
                <path d="M5.53142857,31.6048085 L2.245,19.149234 L29.6107143,11.7430213 L32.8971429,24.1985957 L5.53142857,31.6048085 L5.53142857,31.6048085 Z M12.175,5.42842553 C12.3121429,5.45085106 12.4507143,5.46387234 12.5921429,5.46387234 C12.8207143,5.46387234 13.0478571,5.43348936 13.2707143,5.37344681 C13.6328571,5.27578723 13.9592857,5.0992766 14.2421429,4.86561702 L22.8578571,11.4912766 L7.97285714,15.5199149 L12.175,5.42842553 L12.175,5.42842553 Z M11.6128571,2.23604255 C11.765,1.97055319 12.0092857,1.78102128 12.3014286,1.70144681 C12.3964286,1.67540426 12.4964286,1.66238298 12.5935714,1.66238298 C13.1042857,1.66238298 13.555,2.01251064 13.6878571,2.5152766 C13.7207143,2.63825532 13.7271429,2.76340426 13.7192857,2.88710638 C13.7071429,3.06 13.6621429,3.23 13.5735714,3.38480851 C13.4371429,3.62353191 13.2221429,3.79642553 12.9685714,3.88685106 C12.9407143,3.89625532 12.915,3.9107234 12.8864286,3.91868085 C12.8571429,3.92591489 12.8285714,3.9266383 12.7992857,3.93170213 C12.3514286,4.01561702 11.9042857,3.81017021 11.6571429,3.44340426 C11.5892857,3.34068085 11.5321429,3.23 11.4992857,3.10702128 C11.4214286,2.81042553 11.4621429,2.50153191 11.6128571,2.23604255 L11.6128571,2.23604255 Z M35.0692857,24.6507234 L31.2714286,10.2535319 C31.2021429,9.996 31.0378571,9.77680851 30.8092857,9.64297872 C30.5821429,9.50987234 30.3107143,9.47297872 30.0571429,9.54242553 L24.3735714,11.0811064 L14.9857143,3.86153191 C15.2214286,3.31391489 15.2785714,2.71059574 15.1242857,2.1253617 C14.82,0.965744681 13.7785714,0.156255319 12.5935714,0.156255319 C12.3664286,0.156255319 12.1385714,0.186638298 11.9178571,0.246680851 C11.2407143,0.429702128 10.6764286,0.868085106 10.325,1.48225532 C9.97571429,2.09497872 9.88142857,2.81114894 10.0614286,3.49548936 C10.2185714,4.09012766 10.5707143,4.59 11.035,4.93795745 L6.45642857,15.9300851 L0.774285714,17.4680426 C0.244285714,17.6112766 -0.0685714286,18.1617872 0.0721428571,18.6971064 L3.87071429,33.0935745 C3.98928571,33.5428085 4.39071429,33.8394043 4.82857143,33.8394043 C4.91214286,33.8394043 4.99857143,33.8285532 5.085,33.8054043 L34.3678571,25.8797872 C34.8957143,25.7365532 35.2107143,25.1860426 35.0692857,24.6507234 L35.0692857,24.6507234 Z" id="Fill-224" sketch:type="MSShapeGroup"></path>
                <path d="M10.0878571,25.3820851 C9.96428571,25.5918723 9.745,25.7351064 9.42071429,25.8233617 C9.10857143,25.9072766 8.84928571,25.8913617 8.63,25.7741702 C8.42142857,25.6613191 8.25928571,25.390766 8.14785714,24.9711915 L7.81428571,23.701617 C7.70285714,23.2820426 7.70928571,22.9659149 7.83642857,22.7626383 C7.96785714,22.5499574 8.18285714,22.4052766 8.49714286,22.3206383 C8.63285714,22.2837447 8.76142857,22.2649362 8.87785714,22.2649362 C9.03571429,22.2649362 9.17071429,22.2982128 9.29357143,22.3654894 C9.49714286,22.4797872 9.65785714,22.7517872 9.76928571,23.1728085 L10.1042857,24.4416596 C10.2157143,24.8626809 10.21,25.1795319 10.0878571,25.3820851 L10.0878571,25.3820851 Z M11.2885714,22.7619149 C11.1942857,22.4088936 11.0585714,22.0869787 10.8814286,21.8048511 C10.7,21.514766 10.4692857,21.2774894 10.1985714,21.0980851 C9.92714286,20.9194043 9.61214286,20.804383 9.265,20.7551915 C8.92071429,20.7067234 8.53142857,20.7407234 8.10928571,20.8542979 C7.695,20.9671489 7.34428571,21.1328085 7.07,21.3491064 C6.79142857,21.5675745 6.57714286,21.8265532 6.43214286,22.1188085 C6.28928571,22.4088936 6.21,22.7300851 6.19357143,23.0737021 C6.17928571,23.4064681 6.21857143,23.7551489 6.31142857,24.1081702 L6.64357143,25.3683404 C6.73785714,25.7213617 6.875,26.0432766 7.05214286,26.3254043 C7.23428571,26.6154894 7.46214286,26.852766 7.72928571,27.0314468 C7.99857143,27.2122979 8.31214286,27.328766 8.65928571,27.377234 C8.76428571,27.3924255 8.87142857,27.3996596 8.98285714,27.3996596 C9.23857143,27.3996596 9.515,27.3591489 9.80642857,27.2810213 C10.2271429,27.166 10.5807143,26.999617 10.855,26.7833191 C11.1321429,26.5655745 11.3478571,26.3065957 11.495,26.013617 C11.6421429,25.7220851 11.725,25.4001702 11.74,25.0565532 C11.7542857,24.7237872 11.715,24.3751064 11.6207143,24.0213617 L11.2885714,22.7619149 L11.2885714,22.7619149 Z" id="Fill-225" sketch:type="MSShapeGroup"></path>
                <path d="M15.1671429,21.8981702 C15.1142857,21.9741277 15.0342857,22.0479149 14.9328571,22.1173617 C14.825,22.1882553 14.6871429,22.2475745 14.5178571,22.2931489 L14.0992857,22.406 L13.7071429,20.9201277 L14.1257143,20.8065532 C14.4514286,20.7182979 14.7064286,20.7211915 14.8707143,20.815234 C15.0371429,20.9107234 15.1421429,21.049617 15.1921429,21.2413191 L15.2478571,21.4496596 C15.2664286,21.5234468 15.27,21.5986809 15.2585714,21.6789787 C15.2464286,21.7549362 15.2171429,21.8272766 15.1671429,21.8981702 L15.1671429,21.8981702 Z M16.72,20.8969787 C16.6428571,20.6047234 16.5228571,20.3406809 16.3642857,20.1120851 C16.1985714,19.8748085 15.985,19.6838298 15.7307143,19.5434894 C15.4771429,19.4038723 15.18,19.3206809 14.8485714,19.2953617 C14.525,19.2722128 14.1585714,19.3141702 13.76,19.421234 L12.595,19.7366383 C12.3757143,19.7959574 12.21,19.9102553 12.1014286,20.0751915 C11.9578571,20.294383 11.965,20.4882553 11.9985714,20.611234 L13.3057143,25.571617 C13.3528571,25.7445106 13.4678571,25.8877447 13.6492857,25.9977021 C13.7671429,26.0685957 13.8964286,26.1054894 14.0357143,26.1054894 C14.1107143,26.1054894 14.1892857,26.0946383 14.2671429,26.0729362 C14.4828571,26.0143404 14.6457143,25.9000426 14.7492857,25.7329362 C14.8528571,25.5629362 14.8835714,25.3806383 14.8371429,25.2055745 L14.4557143,23.7558723 L14.8735714,23.6422979 C15.2964286,23.528 15.6485714,23.3739149 15.9164286,23.1858298 C16.1892857,22.9948511 16.4007143,22.7778298 16.5478571,22.5405532 C16.6971429,22.2989362 16.7857143,22.0406809 16.8114286,21.7722979 C16.835,21.5125957 16.8142857,21.2514468 16.7464286,20.9953617 L16.72,20.8969787 L16.72,20.8969787 Z" id="Fill-226" sketch:type="MSShapeGroup"></path>
                <path d="M21.7742857,22.4031064 L20.0228571,22.8769362 L19.7592857,21.8764681 L20.8528571,21.5805957 C21.09,21.5162128 21.2585714,21.3982979 21.3557143,21.2282979 C21.4507143,21.0611915 21.4735714,20.8665957 21.4207143,20.6654894 C21.3635714,20.4499149 21.2492857,20.290766 21.0821429,20.192383 C20.9164286,20.0961702 20.7114286,20.0773617 20.4728571,20.1410213 L19.3785714,20.437617 L19.135,19.5094894 L20.8864286,19.0356596 C21.1164286,18.9734468 21.2821429,18.8562553 21.3807143,18.6855319 C21.475,18.5177021 21.4971429,18.3231064 21.4442857,18.1227234 C21.3871429,17.9071489 21.2735714,17.748 21.1057143,17.6488936 C20.94,17.5519574 20.7364286,17.5338723 20.5064286,17.5960851 L18.0092857,18.2717447 C17.7892857,18.3310638 17.6221429,18.4446383 17.5135714,18.6102979 C17.37,18.8294894 17.3785714,19.0226383 17.4107143,19.1470638 L18.7078571,24.0618723 C18.7414286,24.1862979 18.8285714,24.3584681 19.0614286,24.4742128 C19.165,24.5270213 19.2807143,24.5537872 19.4028571,24.5537872 C19.4835714,24.5537872 19.5685714,24.5422128 19.6571429,24.5183404 L22.155,23.8419574 C22.385,23.7790213 22.5521429,23.6611064 22.6485714,23.4918298 C22.7442857,23.3247234 22.7664286,23.1301277 22.7121429,22.9297447 C22.6557143,22.7141702 22.5428571,22.5550213 22.375,22.4559149 C22.2092857,22.3589787 22.0071429,22.3408936 21.7742857,22.4031064 Z" id="Fill-227" sketch:type="MSShapeGroup"></path>
                <path d="M27.3864286,16.350383 C27.3407143,16.1760426 27.2235714,16.0335319 27.0492857,15.938766 C26.8778571,15.8468936 26.6821429,15.8273617 26.4735714,15.8845106 C26.2457143,15.9467234 26.0771429,16.0610213 25.9714286,16.2274043 C25.8328571,16.4444255 25.8442857,16.6368511 25.8757143,16.7591064 L26.5814286,19.4320851 L23.8935714,17.094766 C23.8178571,16.9819149 23.7078571,16.8951064 23.5664286,16.8357872 C23.41,16.7699574 23.235,16.7612766 23.0507143,16.8104681 C22.8314286,16.8697872 22.665,16.9833617 22.5564286,17.1490213 C22.4114286,17.3682128 22.4207143,17.5620851 22.4542857,17.6857872 L23.7985714,22.7807234 C23.8314286,22.9044255 23.92,23.0773191 24.1521429,23.1937872 C24.2571429,23.2458723 24.3714286,23.2726383 24.4928571,23.2726383 C24.575,23.2726383 24.66,23.2610638 24.7471429,23.2364681 C24.9628571,23.1785957 25.1235714,23.0642979 25.2278571,22.8971915 C25.3321429,22.7271915 25.3635714,22.5448936 25.3178571,22.3698298 L24.625,19.746766 L27.3142857,22.0688936 L27.3292857,22.0811915 C27.4214286,22.1991064 27.5442857,22.2794043 27.6935714,22.3213617 C27.835,22.3604255 27.9957143,22.3582553 28.1685714,22.311234 C28.3792857,22.2533617 28.5378571,22.1397872 28.64,21.9734043 C28.7457143,21.8034043 28.7764286,21.6211064 28.73,21.4460426 L27.3864286,16.350383" id="Fill-228" sketch:type="MSShapeGroup"></path>
            </g>
        </g>
    </g>
</svg>