<?xml version="1.0" encoding="UTF-8" standalone="no"?>
<svg width="52px" height="52px" viewBox="0 0 52 52" version="1.1" xmlns="http://www.w3.org/2000/svg" xmlns:xlink="http://www.w3.org/1999/xlink" xmlns:sketch="http://www.bohemiancoding.com/sketch/ns">
    <!-- Generator: Sketch 3.0.3 (7892) - http://www.bohemiancoding.com/sketch -->
    <title>pointer</title>
    <desc>Created with Sketch.</desc>
    <defs></defs>
    <g id="Page-1" stroke="none" stroke-width="1" fill="none" fill-rule="evenodd" sketch:type="MSPage">
        <g id="pointer" sketch:type="MSArtboardGroup">
            <circle id="Oval-1" fill="#DD4E4D" sketch:type="MSShapeGroup" cx="26" cy="26" r="25"></circle>
            <path d="M14.6230606,22.8922814 C14.8074511,22.5628729 15.3201625,22.3275811 15.8421598,22.3275811 C16.2348186,22.3275811 17.2025366,22.4754788 17.7305034,23.8603392 C17.9460677,24.4250395 18.5251067,24.7746159 19.1545545,24.6670539 C19.7574714,24.559492 20.200539,24.0284047 20.2071717,23.4032008 L20.3451329,11.0201287 C20.3517656,10.7781143 20.4373281,9.59493258 21.4501488,9.59493258 C21.7287242,9.6016552 21.9237271,9.66888144 22.0451064,9.79661128 C22.3011305,10.0789615 22.3601619,10.6705523 22.3475597,10.9058441 C22.3462331,10.9394572 22.3449066,10.979793 22.3462331,11.0201287 L22.5352665,18.4284596 C22.3760805,19.6318091 22.6115431,21.4334722 22.616186,21.4603626 C22.7422082,22.0586761 23.2642056,22.488924 23.8584998,22.488924 C23.9142149,22.488924 23.9705933,22.488924 24.0223287,22.4822014 C24.684277,22.4015299 25.1704575,21.8301069 25.1518858,21.1578446 L25.0941809,18.6503061 C25.2473974,17.7696425 25.6347499,17.7024162 26.1215937,17.7024162 C26.6595096,17.7091389 27.0561479,17.8234235 27.210691,18.0251022 C27.4056938,18.2738392 27.3605911,18.7578681 27.3294172,18.9124884 C27.2989065,19.0334956 27.2863043,19.1545029 27.2909472,19.2755101 L27.3154884,19.8469331 C27.271049,20.4855823 27.3599278,21.6822092 27.3818159,21.7897712 C27.497889,22.4015299 28.0218761,22.845223 28.6254563,22.845223 C28.6811714,22.845223 28.738213,22.8385004 28.7879586,22.8317778 C29.4492436,22.7511063 29.9460365,22.1662381 29.9195055,21.4939758 L29.8803723,19.9477724 C29.9606286,19.188116 30.3161439,19.1410576 30.9203873,19.1813934 C31.4171802,19.2150065 31.5597843,19.3965173 31.6214688,19.4704662 C31.8854522,19.7998747 31.9849434,20.5191954 31.8887686,21.3191876 C31.8277473,21.5880925 31.8025429,22.1527928 31.7866243,22.6032086 C31.7342255,23.2821936 32.1965281,23.880507 32.8617928,23.988069 C33.5343535,24.095631 34.1505359,23.6653831 34.3183444,22.952785 C34.3190077,22.9460624 34.3674267,22.1057345 34.4032436,21.8368296 C34.5889606,21.097341 34.8536072,21.097341 34.9537617,21.097341 C35.0240689,21.097341 35.1036618,21.1107862 35.1878978,21.1309541 C36.2564336,21.3729685 36.1463299,22.9998434 36.1410237,23.0670696 C36.1383706,23.1074053 36.1363808,23.1410185 36.1363808,23.1813542 L36.1450034,27.1006436 C36.1463299,27.1409793 36.2272495,31.1342175 33.9787477,35.0198938 C33.2663905,36.2501338 32.7808733,36.8350021 32.4266845,37.26525 C32.2714782,37.4534834 32.1401498,37.6081037 32.0293829,37.7761693 L22.0258714,37.7828919 C21.8845938,37.5274323 21.7002034,37.26525 21.4634143,36.9223962 C21.0382551,36.3039148 20.4552365,35.4635869 19.6168571,33.998055 C18.494596,32.0417717 17.6873905,30.1191014 16.8868177,28.216599 C16.1870628,26.5426658 15.5257777,24.969572 14.7033169,23.5443759 C14.5016813,23.1947995 14.5554066,23.0132886 14.6230606,22.8922814 L14.6230606,22.8922814 Z M38.6979483,23.2418578 C38.7994294,21.8906105 38.3125856,19.1746707 35.7450486,18.5965251 C35.1607035,18.4620727 34.5929402,18.4755179 34.088188,18.6301383 C33.9588494,18.3343428 33.7983369,18.0654379 33.6073138,17.8301461 C33.0136828,17.0906575 32.1461192,16.6671323 31.1001348,16.5931834 C30.4799728,16.546125 29.9513427,16.6066286 29.4638357,16.7746942 C29.3975082,16.6604096 29.3238847,16.546125 29.2442917,16.4452857 C28.5816801,15.5713447 27.52442,15.1209289 26.0957259,15.1074837 C25.7103632,15.1074837 25.3462253,15.154542 25.0092817,15.2486587 L24.9091272,11.0066835 C24.9270356,10.5831582 24.9078007,9.11762633 23.9321233,8.04200661 C23.3179308,7.36974428 22.4749085,7.01344525 21.4236178,7 C18.6259244,7 17.8193822,9.59493258 17.7842286,10.9663477 L17.6834109,20.1360059 C17.1123312,19.8738236 16.4861997,19.7326485 15.8421598,19.7326485 C14.3929043,19.7326485 13.0411501,20.4654144 12.3997633,21.5948151 C11.8366429,22.596486 11.8698067,23.7863903 12.490632,24.86201 C13.2354896,26.1460311 13.8682538,27.6518987 14.5381615,29.251883 C15.3122032,31.1006044 16.1910424,33.1913403 17.3995292,35.302244 C19.0610327,38.2064172 19.7680838,39.2417012 20.0572716,39.6181681 C20.2642133,40.0820291 20.7172301,40.3778245 21.2239721,40.3778245 L32.7901591,40.3778245 C33.1622563,40.3778245 33.5290473,40.2030363 33.7704794,39.9072409 C33.8600215,39.7996789 33.9316552,39.6786717 33.9508901,39.6047228 L33.9973194,39.5576645 C34.2049244,39.3492632 34.7554425,38.8114533 36.1901061,36.3308053 C38.8266237,31.7795894 38.7132036,27.2418187 38.7072342,27.0603078 L38.6979483,23.2418578 L38.6979483,23.2418578 Z" id="Fill-145" fill="#FFFFFF" sketch:type="MSShapeGroup"></path>
        </g>
    </g>
</svg>