<?xml version="1.0" encoding="UTF-8" standalone="no"?>
<svg width="52px" height="52px" viewBox="0 0 52 52" version="1.1" xmlns="http://www.w3.org/2000/svg" xmlns:xlink="http://www.w3.org/1999/xlink" xmlns:sketch="http://www.bohemiancoding.com/sketch/ns">
    <!-- Generator: Sketch 3.0.3 (7892) - http://www.bohemiancoding.com/sketch -->
    <title>scales</title>
    <desc>Created with Sketch.</desc>
    <defs></defs>
    <g id="Page-1" stroke="none" stroke-width="1" fill="none" fill-rule="evenodd" sketch:type="MSPage">
        <g id="scales" sketch:type="MSArtboardGroup">
            <circle id="Oval-1" fill="#61B252" sketch:type="MSShapeGroup" cx="26" cy="26" r="25"></circle>
            <path d="M35.84456,34.7745455 C33.35192,34.7745455 31.2416,33.4509091 30.57632,31.64 L41.11208,31.64 C40.44752,33.4509091 38.33792,34.7745455 35.84456,34.7745455 L35.84456,34.7745455 Z M40.59872,29.2181818 L31.09472,29.2181818 L35.86184,19.5309091 L40.59872,29.2181818 L40.59872,29.2181818 Z M15.88616,34.7745455 C13.3928,34.7745455 11.28464,33.4509091 10.61936,31.64 L21.15584,31.64 C20.48984,33.4509091 18.38096,34.7745455 15.88616,34.7745455 L15.88616,34.7745455 Z M15.90344,19.5309091 L20.64176,29.2181818 L11.13776,29.2181818 L15.90344,19.5309091 L15.90344,19.5309091 Z M43.72712,30.3963636 C43.7264,30.3527273 43.71992,30.3090909 43.71488,30.2654545 C43.71056,30.2290909 43.70552,30.1927273 43.69688,30.1563636 C43.68896,30.12 43.67528,30.0836364 43.66448,30.0472727 C43.6508,30.0036364 43.63712,29.96 43.6184,29.9236364 C43.61264,29.9163636 43.61192,29.9018182 43.60688,29.8945455 L36.94112,16.2654545 C36.93464,16.2509091 36.92312,16.2436364 36.91664,16.2290909 C36.87704,16.1563636 36.83096,16.0836364 36.77696,16.0254545 C36.76256,16.0036364 36.75104,15.9890909 36.73592,15.9745455 C36.66896,15.9018182 36.59408,15.8363636 36.51272,15.7854545 C36.49544,15.7709091 36.47744,15.7636364 36.46088,15.7563636 C36.39248,15.72 36.3176,15.6836364 36.24056,15.6545455 C36.21608,15.6472727 36.19088,15.64 36.16496,15.6327273 C36.06992,15.6109091 35.97344,15.5890909 35.86976,15.5890909 L35.86688,15.5890909 L27.08648,15.5890909 L27.08648,14.2145455 C27.08648,13.5454545 26.55008,13 25.88624,13 C25.2224,13 24.68528,13.5454545 24.68528,14.2145455 L24.68528,15.5890909 L15.90776,15.5890909 C15.80408,15.5890909 15.70328,15.6109091 15.60824,15.6327273 C15.58304,15.64 15.56,15.6472727 15.53336,15.6545455 C15.45632,15.6836364 15.38432,15.7127273 15.3152,15.7563636 C15.2972,15.7636364 15.27776,15.7709091 15.2612,15.7854545 C15.17912,15.8363636 15.10568,15.9018182 15.03728,15.9672727 C15.02288,15.9890909 15.00992,16.0036364 14.99768,16.0181818 C14.94368,16.0836364 14.89688,16.1563636 14.85728,16.2290909 C14.85008,16.2436364 14.83928,16.2509091 14.83136,16.2654545 L8.12672,29.8872727 C8.12096,29.9018182 8.11952,29.9090909 8.1152,29.9236364 C8.09576,29.96 8.08136,30.0036364 8.06696,30.0472727 C8.05544,30.0836364 8.04392,30.12 8.03528,30.1563636 C8.02664,30.1927273 8.0216,30.2290909 8.01728,30.2654545 C8.0108,30.3090909 8.00576,30.3527273 8.0036,30.3963636 C8.0036,30.4109091 8,30.4181818 8,30.4327273 C8,34.1636364 11.53736,37.1963636 15.88616,37.1963636 C20.23568,37.1963636 23.77304,34.1636364 23.77304,30.4327273 C23.77304,30.4181818 23.77016,30.4109091 23.77016,30.3963636 C23.76872,30.3527273 23.76296,30.3090909 23.75576,30.2654545 C23.75288,30.2290909 23.74712,30.1927273 23.7392,30.1563636 C23.73056,30.12 23.7176,30.0836364 23.70824,30.0472727 C23.69384,30.0036364 23.67872,29.96 23.66072,29.9236364 C23.65496,29.9163636 23.65352,29.9018182 23.6492,29.8945455 L17.8388,18.0181818 L24.68528,18.0181818 L24.68528,21.0145455 C24.68528,21.6836364 25.2224,22.2218182 25.88624,22.2218182 C26.55008,22.2218182 27.08648,21.6836364 27.08648,21.0145455 L27.08648,18.0181818 L33.92792,18.0181818 L28.0844,29.8872727 C28.07936,29.9018182 28.0772,29.9090909 28.07216,29.9236364 C28.05344,29.96 28.03904,30.0036364 28.02392,30.0472727 C28.01312,30.0836364 28.00088,30.12 27.99224,30.1563636 C27.98432,30.1927273 27.98,30.2290909 27.97496,30.2654545 C27.9692,30.3090909 27.96272,30.3527273 27.962,30.3963636 C27.962,30.4109091 27.9584,30.4181818 27.9584,30.4327273 C27.9584,34.1636364 31.49576,37.1963636 35.84456,37.1963636 C40.19408,37.1963636 43.73,34.1636364 43.73,30.4327273 C43.73,30.4181818 43.72712,30.4109091 43.72712,30.3963636 L43.72712,30.3963636 Z" id="Fill-563" fill="#FFFFFF" sketch:type="MSShapeGroup"></path>
        </g>
    </g>
</svg>