<?xml version="1.0" encoding="UTF-8" standalone="no"?>
<svg width="200px" height="166px" viewBox="0 0 200 166" version="1.1" xmlns="http://www.w3.org/2000/svg" xmlns:xlink="http://www.w3.org/1999/xlink" xmlns:sketch="http://www.bohemiancoding.com/sketch/ns">
    <!-- Generator: Sketch 3.0.3 (7892) - http://www.bohemiancoding.com/sketch -->
    <title>signs</title>
    <desc>Created with Sketch.</desc>
    <defs></defs>
    <g id="Page-1" stroke="none" stroke-width="1" fill="none" fill-rule="evenodd" sketch:type="MSPage">
        <g id="Fill-205-+-Fill-206-+-Fill-205-+-Fill-207-+-Fill-202-+-Fill-203-+-Fill-204" sketch:type="MSLayerGroup">
            <g id="Fill-205-+-Fill-206" transform="translate(0.000000, 87.000000)" fill="#6BC8FA" sketch:type="MSShapeGroup">
                <path d="M32.6179231,76.0012245 C32.6179231,77.6134694 33.9199231,78.9193878 35.5288462,78.9193878 C37.1361538,78.9193878 38.4397692,77.6134694 38.4397692,76.0012245 L38.4397692,45.1912245 L32.6179231,45.1912245 L32.6179231,76.0012245" id="Fill-205"></path>
                <path d="M62.4912308,6.20714286 L38.4397692,6.20714286 L38.4397692,3.01489796 C38.4397692,1.40265306 37.1361538,0.112857143 35.5288462,0.112857143 C33.9199231,0.112857143 32.6179231,1.40265306 32.6179231,3.01489796 L32.6179231,6.20714286 L14.5805385,6.20714286 C14.0878462,6.20714286 13.621,6.43285714 13.3092308,6.80367347 L0.633307692,22.2006122 C0.132538462,22.8132653 0.135769231,23.7 0.644615385,24.2965306 L13.3173077,39.3710204 C13.6306923,39.7418367 14.0943077,39.967551 14.5805385,39.967551 L62.4912308,39.967551 C63.4006923,39.967551 64.1373077,39.2259184 64.1373077,38.3230612 L64.1373077,7.85163265 C64.1373077,6.94877551 63.4006923,6.20714286 62.4912308,6.20714286" id="Fill-206"></path>
            </g>
            <g id="Fill-205-+-Fill-207" transform="translate(179.500000, 140.000000) scale(-1, 1) translate(-179.500000, -140.000000) translate(159.000000, 114.000000)" fill="#8DD6FD" sketch:type="MSShapeGroup">
                <path d="M20.5767436,50.0261224 C20.5767436,51.0873469 21.4240769,51.9469388 22.4711538,51.9469388 C23.5171795,51.9469388 24.3655641,51.0873469 24.3655641,50.0261224 L24.3655641,29.7461224 L20.5767436,29.7461224 L20.5767436,50.0261224" id="Fill-205"></path>
                <path d="M40.0181026,4.08571429 L24.3655641,4.08571429 L24.3655641,1.9844898 C24.3655641,0.923265306 23.5171795,0.0742857143 22.4711538,0.0742857143 C21.4240769,0.0742857143 20.5767436,0.923265306 20.5767436,1.9844898 L20.5767436,4.08571429 L8.83812821,4.08571429 C8.51748718,4.08571429 8.21366667,4.23428571 8.01076923,4.47836735 L-0.238641026,14.6130612 C-0.564538462,15.0163265 -0.562435897,15.6 -0.231282051,15.9926531 L8.01602564,25.915102 C8.21997436,26.1591837 8.52169231,26.3077551 8.83812821,26.3077551 L40.0181026,26.3077551 C40.6099744,26.3077551 41.089359,25.8195918 41.089359,25.2253061 L41.089359,5.16816327 C41.089359,4.57387755 40.6099744,4.08571429 40.0181026,4.08571429" id="Fill-206"></path>
            </g>
            <g id="Fill-202-+-Fill-203-+-Fill-204" transform="translate(69.000000, 0.000000)" fill="#54B1E4" sketch:type="MSShapeGroup">
                <path d="M56.6317568,159.50102 C56.6317568,162.868367 59.3851351,165.629592 62.7702703,165.629592 C66.1621622,165.629592 68.9121622,162.868367 68.9121622,159.50102 L68.9121622,111.954082 L56.6317568,113.503061 L56.6317568,159.50102" id="Fill-202"></path>
                <path d="M123.591216,23.6959184 L99.7871622,9.48571429 C99.1385135,9.11530612 98.3817568,8.94693878 97.6216216,9.01428571 L68.9121622,12.1795918 L68.9121622,5.71428571 C68.9121622,2.34693878 66.1621622,-0.380612245 62.7702703,-0.380612245 C59.3851351,-0.380612245 56.6317568,2.34693878 56.6317568,5.71428571 L56.6317568,13.5265306 L10.9763514,18.5438776 C9.06756757,18.7459184 7.69256757,20.4632653 7.90202703,22.3826531 L11.5337838,55.2142857 C11.6385135,56.1234694 12.097973,56.9653061 12.8141892,57.5377551 C13.4358108,58.0428571 14.1993243,58.2785714 14.9898649,58.2785714 L15.3682432,58.2785714 L102.013514,48.7489796 C102.756757,48.6816327 103.449324,48.344898 103.996622,47.8397959 L124.165541,29.2183673 C124.972973,28.477551 125.375,27.4 125.263514,26.322449 C125.148649,25.244898 124.530405,24.2683673 123.591216,23.6959184" id="Fill-203"></path>
                <path d="M110.040541,57.7734694 L23.2972973,66.3265306 C22.5574324,66.427551 21.8614865,66.7306122 21.3108108,67.2020408 L0.935810811,85.6214286 C0.128378378,86.3622449 -0.290540541,87.4397959 -0.189189189,88.5173469 C-0.0912162162,89.594898 0.523648649,90.5714286 1.4527027,91.1438776 L25.097973,105.623469 C25.6452703,105.960204 26.2804054,106.128571 26.9155405,106.128571 C27.0337838,106.128571 27.1452703,106.128571 27.2567568,106.094898 L114.003378,97.5418367 C114.918919,97.4408163 115.760135,97.0030612 116.347973,96.2622449 C116.932432,95.555102 117.206081,94.6459184 117.121622,93.7367347 L113.841216,60.8714286 C113.652027,58.9520408 111.952703,57.5714286 110.040541,57.7734694" id="Fill-204"></path>
            </g>
        </g>
    </g>
</svg>