<?xml version="1.0" encoding="utf-8"?>
<!-- Generator: Adobe Illustrator 17.1.0, SVG Export Plug-In . SVG Version: 6.00 Build 0)  -->
<!DOCTYPE svg PUBLIC "-//W3C//DTD SVG 1.1//EN" "http://www.w3.org/Graphics/SVG/1.1/DTD/svg11.dtd">
<svg version="1.1" id="Layer_1" xmlns="http://www.w3.org/2000/svg" xmlns:xlink="http://www.w3.org/1999/xlink" x="0px" y="0px"
	 viewBox="0 0 278 359" style="enable-background:new 0 0 278 359;" xml:space="preserve">
<style type="text/css">
	.st0{fill:#F2E8F2;}
	.st1{fill:#8F4A8B;}
	.st2{fill:#A94CA6;}
	.st3{fill:#FFFFFF;}
	.st4{fill:none;}
	.st5{fill:#7D387B;}
</style>
<g>
	<path class="st0" d="M266.9,328.2c0-6.2,5.1-11.3,11.1-11.4v-7.3c-6-0.2-11.1-5.2-11.1-11.4c0-6.2,5.1-11.3,11.1-11.4v-7.3
		c-6-0.2-11.1-5.2-11.1-11.4c0-6.2,5.1-11.3,11.1-11.4v-7.3c-6-0.2-11.1-5.2-11.1-11.4c0-6.2,5.1-11.3,11.1-11.4V219
		c-6-0.2-11.1-5.2-11.1-11.4c0-6.2,5.1-11.3,11.1-11.4v-7.3c-6-0.2-11.1-5.2-11.1-11.4c0-6.2,5.1-11.3,11.1-11.4v-7.3
		c-6-0.2-11.1-5.2-11.1-11.4c0-6.2,5.1-11.3,11.1-11.4v-7.3c-6-0.2-11.1-5.2-11.1-11.4c0-6.2,5.1-11.3,11.1-11.4v-7.3
		c-6-0.2-11.1-5.2-11.1-11.4c0-6.2,5.1-11.3,11.1-11.4v-7.3c-6-0.2-11.1-5.2-11.1-11.4c0-6.2,5.1-11.3,11.1-11.4V38
		c-6-0.2-11.1-5.2-11.1-11.4c0-6.2,5.1-11.3,11.1-11.4V0h-6.6c-0.1,6-5.1,11.3-11.4,11.3c-6.3,0-11.4-5.3-11.4-11.3h-7.3
		c-0.1,6-5.1,11.3-11.4,11.3c-6.3,0-11.4-5.3-11.4-11.3h-7.3c-0.1,6-5.1,11.3-11.4,11.3c-6.3,0-11.4-5.3-11.4-11.3h-7.3
		c-0.1,6-5.1,11.3-11.4,11.3C163.2,11.3,158.1,6,158,0h-7.3c-0.1,6-5.1,11.3-11.4,11.3C133,11.3,127.9,6,127.9,0h-7.3
		c-0.1,6-5.1,11.3-11.4,11.3C102.8,11.3,97.7,6,97.7,0h-7.3C90.3,6,85.2,11.3,79,11.3C72.7,11.3,67.6,6,67.5,0h-7.3
		c-0.1,6-5.1,11.3-11.4,11.3C42.5,11.3,37.4,6,37.4,0H30C30,6,24.9,11.3,18.6,11.3C12.3,11.3,7.2,6,7.2,0H0v15.1c0,0,0.3,0,0.4,0
		c6.3,0,11.5,5.1,11.5,11.4C11.9,32.9,6.7,38,0.4,38C0.3,38,0,38,0,38v7.3c0,0,0.3,0,0.4,0c6.3,0,11.5,5.1,11.5,11.4
		c0,6.3-5.2,11.4-11.5,11.4c-0.1,0-0.4,0-0.4,0v7.3c0,0,0.3,0,0.4,0c6.3,0,11.5,5.1,11.5,11.4c0,6.3-5.2,11.4-11.5,11.4
		c-0.1,0-0.4,0-0.4,0v7.3c0,0,0.3,0,0.4,0c6.3,0,11.5,5.1,11.5,11.4c0,6.3-5.2,11.4-11.5,11.4c-0.1,0-0.4,0-0.4,0v7.3
		c0,0,0.3,0,0.4,0c6.3,0,11.5,5.1,11.5,11.4c0,6.3-5.2,11.4-11.5,11.4c-0.1,0-0.4,0-0.4,0v7.3c0,0,0.3,0,0.4,0
		c6.3,0,11.5,5.1,11.5,11.4c0,6.3-5.2,11.4-11.5,11.4c-0.1,0-0.4,0-0.4,0v7.3c0,0,0.3,0,0.4,0c6.3,0,11.5,5.1,11.5,11.4
		c0,6.3-5.2,11.4-11.5,11.4c-0.1,0-0.4,0-0.4,0v7.3c0,0,0.3,0,0.4,0c6.3,0,11.5,5.1,11.5,11.4c0,6.3-5.2,11.4-11.5,11.4
		c-0.1,0-0.4,0-0.4,0v7.3c0,0,0.3,0,0.4,0c6.3,0,11.5,5.1,11.5,11.4c0,6.3-5.2,11.4-11.5,11.4c-0.1,0-0.4,0-0.4,0v7.3
		c0,0,0.3,0,0.4,0c6.3,0,11.5,5.1,11.5,11.4c0,6.3-5.2,11.4-11.5,11.4c-0.1,0-0.4,0-0.4,0v7.3c0,0,0.3,0,0.4,0
		c6.3,0,11.5,5.1,11.5,11.4c0,6.3-5.2,11.4-11.5,11.4c-0.1,0-0.4,0-0.4,0V359h7.2c0-1,0-0.3,0-0.3c0-6.3,5.1-11.6,11.4-11.6
		c6.3,0,11.4,5.3,11.4,11.6c0,0,0-0.7,0,0.3h7.3c0-1,0-0.3,0-0.3c0-6.3,5.1-11.6,11.4-11.6c6.3,0,11.4,5.3,11.4,11.6
		c0,0,0-0.7,0,0.3h7.3c0-1,0-0.3,0-0.3c0-6.3,5.1-11.6,11.4-11.6c6.3,0,11.4,5.3,11.4,11.6c0,0,0-0.7,0,0.3h7.3c0-1,0-0.3,0-0.3
		c0-6.3,5.1-11.6,11.4-11.6c6.3,0,11.4,5.3,11.4,11.6c0,0,0-0.7,0,0.3h7.3c0-1,0-0.3,0-0.3c0-6.3,5.1-11.6,11.4-11.6
		c6.3,0,11.4,5.3,11.4,11.6c0,0,0-0.7,0,0.3h7.3c0-1,0-0.3,0-0.3c0-6.3,5.1-11.6,11.4-11.6c6.3,0,11.4,5.3,11.4,11.6
		c0,0,0-0.7,0,0.3h7.3c0-1,0-0.3,0-0.3c0-6.3,5.1-11.6,11.4-11.6c6.3,0,11.4,5.3,11.4,11.6c0,0,0-0.7,0,0.3h7.3c0-1,0-0.3,0-0.3
		c0-6.3,5.1-11.6,11.4-11.6c6.3,0,11.4,5.3,11.4,11.6c0,0,0-0.7,0,0.3h7.3c0-1,0-0.3,0-0.3c0-6.3,5.1-11.6,11.4-11.6
		c6.3,0,11.4,5.3,11.4,11.6c0,0,0-0.7,0,0.3h6.6v-19.3C272,339.5,266.9,334.5,266.9,328.2z"/>
</g>
<g>
	<rect x="21" y="22" class="st1" width="236" height="314"/>
</g>
<g>
	<rect x="33" y="33" class="st2" width="212" height="292"/>
</g>
<g>
	<path class="st3" d="M60.3,204.9c0-33.7,26.4-49,63.4-49c13.5,0,22.7,1.2,32.8,3.7v-16.9c0-16.2-8.9-23.9-27.9-23.9
		c-19.3,0-29.1,7.4-37.1,14.4H71v-32.8c15-6.7,35.2-12.3,66.5-12.3c41.7,0,63.7,13.5,63.7,50.3v80c0,3.7,4,7.7,7.7,7.7h8.6v21.5
		c-6.1,3.7-15.3,6.1-27,6.1c-18.7,0-28.2-7.4-32.2-20.2c-12,14.7-27,19.9-46.6,19.9C81.7,253.3,60.3,236.8,60.3,204.9z M156.5,215.6
		v-34.3c-7-1.2-15-1.8-23.6-1.8c-18.1,0-29.1,7.4-29.1,23.6s9.5,23.9,24.5,23.9C139.6,226.9,148.8,222.7,156.5,215.6z"/>
</g>
<g>
	<path class="st4" d="M269.8,305.7c-9.6-1-16.6-3.3-23.7-5.5c-8.8-2.8-17.2-5.4-29.7-5.4c-13.2,0-27,3-40.2,5.8
		c-13.3,2.9-25.2,5.6-38.3,5.6v-6c12,0,23.9-2.6,36.8-5.5c13.5-2.9,27.6-6,41.6-6c13.5,0,22.9,2.9,31.9,5.7
		c5.7,1.8,11.6,3.6,18.7,4.7c0-0.4-0.1-0.7-0.1-1.1c0-2.9,1.1-5.5,2.9-7.5c-9.6-1-16.5-3.3-23.6-5.5c-8.8-2.8-17.2-5.4-29.7-5.4
		c-13.2,0-26.8,3-40,5.8c-7.8,1.7-15.8,3.4-23.6,4.5l-1-6c7.5-1,15-2.7,23-4.4c13.5-2.9,27.5-6,41.5-6c13.5,0,22.8,2.9,31.8,5.7
		c8.4,2.6,17.3,5.3,29.7,5.7v-5.7c-3.2-0.1-6.1-1.5-8.2-3.8c-9.6-1-16.6-3.3-23.7-5.5c-8.8-2.8-17.2-5.4-29.7-5.4
		c-13.2,0-26.8,3-40,5.8c-5.3,1.2-10.9,2.4-16.2,3.3l-1.3-5.9c5.2-0.9,10.5-2.1,16-3.3c13.5-2.9,27.5-6,41.5-6
		c13.5,0,22.8,2.9,31.8,5.7c5.7,1.8,11.6,3.6,18.6,4.7c0-0.3-0.1-0.7-0.1-1.1c0-2.9,1.1-5.5,2.9-7.5c-9.6-1-16.5-3.3-23.6-5.5
		c-8.8-2.8-17.2-5.4-29.7-5.4c-13.2,0-26.8,3-40,5.8c-5.3,1.2-10.9,2.4-16.2,3.3l-1.3-5.9c5.2-0.9,10.5-2.1,16-3.3
		c13.5-2.9,27.5-6,41.5-6c13.5,0,22.8,2.9,31.8,5.7c8.4,2.6,17.3,5.3,29.7,5.7v-5.7c-3.2-0.1-6.1-1.5-8.2-3.8
		c-9.6-1-16.6-3.3-23.7-5.5c-8.8-2.8-17.2-5.4-29.7-5.4c-13.2,0-26.8,3-40,5.8c-5.3,1.2-10.9,2.4-16.2,3.3l-1.3-5.9
		c5.2-0.9,10.5-2.1,16-3.3c13.5-2.9,27.5-6,41.5-6c13.5,0,22.8,2.9,31.8,5.7c5.7,1.8,11.6,3.6,18.6,4.7c0-0.3-0.1-0.7-0.1-1.1
		c0-2.9,1.1-5.5,2.9-7.5c-9.6-1-16.5-3.3-23.6-5.5c-8.8-2.8-17.2-5.4-29.7-5.4c-13.2,0-26.8,3-40,5.8c-7.9,1.7-16.2,3.5-24.1,4.6
		l-1-6c7.6-1,15.3-2.7,23.5-4.5c13.5-2.9,27.5-6,41.5-6c13.5,0,22.8,2.9,31.8,5.7c8.4,2.6,17.3,5.3,29.7,5.7V219
		c-3.2-0.1-6.1-1.5-8.2-3.8c-9.6-1-16.6-3.3-23.7-5.5c-8.8-2.8-17.2-5.4-29.7-5.4c-13.2,0-27,3-40.2,5.8
		c-13.3,2.9-25.2,5.6-38.3,5.6v-6c12,0,23.9-2.6,36.8-5.5c13.5-2.9,27.6-6,41.6-6c13.5,0,22.9,2.9,31.9,5.7
		c5.7,1.8,11.6,3.6,18.7,4.7c0-0.4-0.1-0.7-0.1-1.1c0-6.2,5.1-11.3,11.1-11.4v-7.3c-6-0.2-11.1-5.2-11.1-11.4
		c0-6.2,5.1-11.3,11.1-11.4v-7.3c-6-0.2-11.1-5.2-11.1-11.4c0-6.2,5.1-11.3,11.1-11.4v-7.3c-6-0.2-11.1-5.2-11.1-11.4
		c0-6.2,5.1-11.3,11.1-11.4v-7.3c-6-0.2-11.1-5.2-11.1-11.4c0-6.2,5.1-11.3,11.1-11.4v-7.3c-6-0.2-11.1-5.2-11.1-11.4
		c0-6.2,5.1-11.3,11.1-11.4V38c-6-0.2-11.1-5.2-11.1-11.4c0-6.2,5.1-11.3,11.1-11.4V0h-6.6c-0.1,6-5.1,11.3-11.4,11.3
		c-6.3,0-11.4-5.3-11.4-11.3h-7.3c-0.1,6-5.1,11.3-11.4,11.3c-6.3,0-11.4-5.3-11.4-11.3h-7.3c-0.1,6-5.1,11.3-11.4,11.3
		c-6.3,0-11.4-5.3-11.4-11.3h-7.3c-0.1,6-5.1,11.3-11.4,11.3C163.2,11.3,158.1,6,158,0h-7.3c-0.1,6-5.1,11.3-11.4,11.3
		C133,11.3,127.9,6,127.9,0h-7.3c-0.1,6-5.1,11.3-11.4,11.3C102.8,11.3,97.7,6,97.7,0h-7.3C90.3,6,85.2,11.3,79,11.3
		C72.7,11.3,67.6,6,67.5,0h-7.3c-0.1,6-5.1,11.3-11.4,11.3C42.5,11.3,37.4,6,37.4,0H30C30,6,24.9,11.3,18.6,11.3
		C12.3,11.3,7.2,6,7.2,0H0v15.1c0,0,0.3,0,0.4,0c6.3,0,11.5,5.1,11.5,11.4C11.9,32.9,6.7,38,0.4,38C0.3,38,0,38,0,38v7.3
		c0,0,0.3,0,0.4,0c6.3,0,11.5,5.1,11.5,11.4c0,6.3-5.2,11.4-11.5,11.4c-0.1,0-0.4,0-0.4,0v7.3c0,0,0.3,0,0.4,0
		c6.3,0,11.5,5.1,11.5,11.4c0,6.3-5.2,11.4-11.5,11.4c-0.1,0-0.4,0-0.4,0v7.3c0,0,0.3,0,0.4,0c6.3,0,11.5,5.1,11.5,11.4
		s-5.2,11.4-11.5,11.4c-0.1,0-0.4,0-0.4,0v7.3c0,0,0.3,0,0.4,0c6.3,0,11.5,5.1,11.5,11.4c0,6.3-5.2,11.4-11.5,11.4
		c-0.1,0-0.4,0-0.4,0v7.3c0,0,0.3,0,0.4,0c6.3,0,11.5,5.1,11.5,11.4c0,6.3-5.2,11.4-11.5,11.4c-0.1,0-0.4,0-0.4,0v7.3
		c0,0,0.3,0,0.4,0c6.3,0,11.5,5.1,11.5,11.4c0,6.3-5.2,11.4-11.5,11.4c-0.1,0-0.4,0-0.4,0v7.3c0,0,0.3,0,0.4,0
		c6.3,0,11.5,5.1,11.5,11.4c0,6.3-5.2,11.4-11.5,11.4c-0.1,0-0.4,0-0.4,0v7.3c0,0,0.3,0,0.4,0c6.3,0,11.5,5.1,11.5,11.4
		c0,6.3-5.2,11.4-11.5,11.4c-0.1,0-0.4,0-0.4,0v7.3c0,0,0.3,0,0.4,0c6.3,0,11.5,5.1,11.5,11.4c0,6.3-5.2,11.4-11.5,11.4
		c-0.1,0-0.4,0-0.4,0v7.3c0,0,0.3,0,0.4,0c6.3,0,11.5,5.1,11.5,11.4c0,6.3-5.2,11.4-11.5,11.4c-0.1,0-0.4,0-0.4,0V359h7
		c0-0.2,0-0.3,0-0.4c0-6.3,5.2-11.5,11.5-11.5c6.3,0,11.5,5.3,11.5,11.5c0,0.1,0,0.2,0,0.4h7c0-0.2,0-0.3,0-0.4
		c0-6.3,5.2-11.5,11.5-11.5c6.3,0,11.5,5.3,11.5,11.5c0,0.1,0,0.2,0,0.4h8c0-0.2,0-0.3,0-0.4c0-6.3,4.7-11.5,11-11.5
		c6.3,0,11,5.3,11,11.5c0,0.1,0,0.2,0,0.4h8c0-0.2,0-0.3,0-0.4c0-6.3,5.2-11.5,11.5-11.5c6.3,0,11.5,5.3,11.5,11.5
		c0,0.1,0,0.2,0,0.4h7c0-0.2,0-0.3,0-0.4c0-6.3,5.2-11.5,11.5-11.5c6.3,0,11.5,5.3,11.5,11.5c0,0.1,0,0.2,0,0.4h7c0-0.2,0-0.3,0-0.4
		c0-6.3,5.2-11.5,11.5-11.5c6.3,0,11.5,5.3,11.5,11.5c0,0.1,0,0.2,0,0.4h7c0-0.2,0-0.3,0-0.4c0-6.3,5.2-11.5,11.5-11.5
		c6.3,0,11.5,5.3,11.5,11.5c0,0.1,0,0.2,0,0.4h7c0-0.2,0-0.3,0-0.4c0-6.3,5.2-11.5,11.5-11.5c6.3,0,11.5,5.3,11.5,11.5
		c0,0.1,0,0.2,0,0.4h8c0-0.2,0-0.3,0-0.4c0-6.3,4.7-11.5,11-11.5c6.3,0,11,5.3,11,11.5c0,0.1,0,0.2,0,0.4h7v-19.3
		c-6-0.2-11.1-5.2-11.1-11.4c0-6.2,5.1-11.3,11.1-11.4v-7.3C274.8,309.4,271.9,307.9,269.8,305.7z"/>
	<path class="st5" d="M216.4,198.2c-14,0-28.1,3-41.6,6c-12.9,2.8-24.8,5.5-36.8,5.5v6c13.1,0,25-2.7,38.3-5.6
		c13.2-2.9,27-5.8,40.2-5.8c12.5,0,20.8,2.6,29.7,5.4c7.1,2.2,14,4.5,23.7,5.5c-1.6-1.8-2.7-4-2.9-6.5c-7.1-1.1-13-2.9-18.7-4.7
		C239.3,201.1,229.9,198.2,216.4,198.2z"/>
	<path class="st5" d="M216.5,213.3c-14,0-28,3-41.5,6c-8.2,1.8-15.9,3.5-23.5,4.5l1,6c7.9-1.1,16.1-2.9,24.1-4.6
		c13.2-2.9,26.8-5.8,40-5.8c12.5,0,20.8,2.6,29.7,5.4c7.1,2.2,14,4.5,23.6,5.5c2.1-2.3,5-3.8,8.3-3.9v-1.6
		c-12.4-0.4-21.3-3.1-29.7-5.7C239.3,216.2,230,213.3,216.5,213.3z"/>
	<path class="st5" d="M216.5,228.4c-14,0-28,3-41.5,6c-5.5,1.2-13.7,2.3-19,3.3l1.3,5.9c5.4-1,13.9-2.2,19.2-3.3
		c13.2-2.9,26.8-5.8,40-5.8c12.5,0,20.8,2.6,29.7,5.4c7.1,2.2,14,4.5,23.7,5.5c-1.6-1.8-2.7-4-2.9-6.5c-7.1-1.1-13-2.9-18.6-4.7
		C239.3,231.3,230,228.4,216.5,228.4z"/>
	<path class="st5" d="M216.5,243.5c-14,0-28,3-41.5,6c-5.5,1.2-10.7,2.3-16,3.3l1.3,5.9c5.4-1,10.9-2.2,16.2-3.3
		c13.2-2.9,26.8-5.8,40-5.8c12.5,0,20.8,2.6,29.7,5.4c7.1,2.2,14,4.5,23.6,5.5c2.1-2.3,5-3.8,8.3-3.9v-1.6
		c-12.4-0.4-21.3-3.1-29.7-5.7C239.3,246.4,230,243.5,216.5,243.5z"/>
	<path class="st5" d="M216.5,258.6c-14,0-28,3-41.5,6c-5.5,1.2-10.7,2.3-16,3.3l1.3,5.9c5.4-1,10.9-2.2,16.2-3.3
		c13.2-2.9,26.8-5.8,40-5.8c12.5,0,20.8,2.6,29.7,5.4c7.1,2.2,14,4.5,23.7,5.5c-1.6-1.8-2.7-4-2.9-6.5c-7.1-1.1-13-2.9-18.6-4.7
		C239.3,261.5,230,258.6,216.5,258.6z"/>
	<path class="st5" d="M216.5,273.7c-14,0-28,3-41.5,6c-8,1.7-15.6,3.4-23,4.4l1,6c7.7-1.1,15.8-2.8,23.6-4.5
		c13.2-2.9,26.8-5.8,40-5.8c12.5,0,20.8,2.6,29.7,5.4c7.1,2.2,14,4.5,23.6,5.5c2.1-2.3,5-3.8,8.3-3.9v-1.6
		c-12.4-0.4-21.3-3.1-29.7-5.7C239.3,276.6,230,273.7,216.5,273.7z"/>
	<path class="st5" d="M216.4,288.8c-14,0-28.1,3-41.6,6c-12.9,2.8-24.8,5.5-36.8,5.5v6c13.1,0,25-2.7,38.3-5.6
		c13.2-2.9,27-5.8,40.2-5.8c12.5,0,20.8,2.6,29.7,5.4c7.1,2.2,14,4.5,23.7,5.5c-1.6-1.8-2.7-4-2.9-6.5c-7.1-1.1-13-2.9-18.7-4.7
		C239.3,291.6,229.9,288.8,216.4,288.8z"/>
</g>
<g>
	<path class="st5" d="M99.6,297.2C78.3,297.2,61,280,61,258.7c0-21.2,17.3-38.5,38.5-38.5c21.2,0,38.5,17.3,38.5,38.5
		C138.1,280,120.8,297.2,99.6,297.2z M99.6,221.6c-20.5,0-37.2,16.7-37.2,37.2c0,20.5,16.7,37.2,37.2,37.2s37.2-16.7,37.2-37.2
		C136.7,238.2,120,221.6,99.6,221.6z"/>
</g>
<g>
	<path class="st5" d="M99.6,293.5c-19.2,0-34.8-15.6-34.8-34.8s15.6-34.8,34.8-34.8s34.8,15.6,34.8,34.8S118.8,293.5,99.6,293.5z
		 M99.6,225.4c-18.4,0-33.3,14.9-33.3,33.3c0,18.4,14.9,33.3,33.3,33.3s33.3-14.9,33.3-33.3C132.9,240.3,117.9,225.4,99.6,225.4z"/>
</g>
<g>
	<path class="st5" d="M99.6,313.7c-30.3,0-55-24.7-55-55s24.7-55,55-55c30.3,0,55,24.7,55,55S129.9,313.7,99.6,313.7z M99.6,205.4
		c-29.4,0-53.4,23.9-53.4,53.4s23.9,53.4,53.4,53.4c29.4,0,53.4-23.9,53.4-53.4S129,205.4,99.6,205.4z"/>
</g>
<g>
	<path class="st5" d="M99.6,321.5c-34.6,0-62.7-28.1-62.7-62.7c0-34.6,28.1-62.8,62.7-62.8s62.7,28.1,62.7,62.8
		C162.3,293.3,134.2,321.5,99.6,321.5z M99.6,202c-31.3,0-56.7,25.4-56.7,56.7s25.4,56.7,56.7,56.7c31.3,0,56.7-25.4,56.7-56.7
		S130.8,202,99.6,202z"/>
</g>
<g>
	<path class="st5" d="M138.4,232.6l1.3,1.9l-1.3,0.9l-1.3-1.9l-3.9,2.6l-1-1.5l9.4-6.2l2.6,3.9l-1.3,0.9l-1.6-2.4L138.4,232.6z"/>
	<path class="st5" d="M136.7,242.2c0.2-0.2,0.4-0.3,1.2-0.7l1.6-0.8c0.9-0.5,1.1-0.9,0.8-1.7l-0.3-0.6l-4.2,2l-0.8-1.6l10.2-4.9
		l1.2,2.4c0.8,1.7,0.4,2.7-1.2,3.5l-0.8,0.4c-1.1,0.5-1.9,0.5-2.6-0.1c0,1-0.6,1.6-1.7,2.1l-1.6,0.8c-0.5,0.2-0.9,0.4-1.2,0.8
		L136.7,242.2z M144.6,236.3l-3.1,1.5l0.3,0.6c0.3,0.6,0.7,0.8,1.5,0.4l1-0.5c0.7-0.3,0.9-0.8,0.7-1.3L144.6,236.3z"/>
	<path class="st5" d="M144.4,244.2l0.7,2.3l-1.5,0.5l-0.7-2.3l-3.2,1l0.9,2.9l-1.5,0.5l-1.4-4.6l10.8-3.4l1.4,4.6l-1.5,0.5l-0.9-2.9
		L144.4,244.2z"/>
	<path class="st5" d="M146,250.5l0.4,2.4l-1.6,0.3l-0.4-2.4l-3.3,0.5l0.5,3l-1.6,0.3l-0.8-4.8l11.2-1.8l0.8,4.8l-1.6,0.3l-0.5-3
		L146,250.5z"/>
	<path class="st5" d="M151.4,255l0.1,2.8c0,1.8-0.9,2.7-2.7,2.7l-5.7,0.1c-1.8,0-2.8-0.8-2.9-2.6l-0.1-2.8L151.4,255z M149.8,256.8
		l-8.1,0.2l0,1c0,0.6,0.3,0.9,1.1,0.9l5.9-0.1c0.8,0,1.1-0.4,1.1-0.9L149.8,256.8z"/>
	<path class="st5" d="M148.7,262.4c1.8,0.2,2.7,1.3,2.5,3s-1.4,2.5-3.2,2.3l-5.8-0.8c-1.8-0.2-2.7-1.3-2.5-3
		c0.2-1.7,1.4-2.5,3.2-2.3L148.7,262.4z M142.5,263.4c-0.8-0.1-1.2,0.2-1.2,0.8s0.2,1,1,1.1l6.1,0.8c0.8,0.1,1.2-0.2,1.2-0.8
		c0.1-0.6-0.2-1-1-1.1L142.5,263.4z"/>
	<path class="st5" d="M141.4,271.9l7.3,3.6l-0.7,2.4l-10.8-3.4l0.5-1.6l7.7,2.4l-7.4-3.6l0.5-1.6l8,1.1l-7.6-2.4l0.5-1.5l10.8,3.4
		l-0.7,2.4L141.4,271.9z"/>
	<path class="st5" d="M143.2,281.6c1.6,0.9,2,2.3,1.1,3.8c-0.9,1.5-2.3,1.8-3.8,0.9l-5.1-3c-1.6-0.9-2-2.3-1.1-3.8
		c0.9-1.5,2.3-1.8,3.8-0.9L143.2,281.6z M137.1,280c-0.7-0.4-1.1-0.3-1.4,0.2c-0.3,0.5-0.2,0.9,0.5,1.4l5.2,3.1
		c0.7,0.4,1.1,0.3,1.4-0.2c0.3-0.5,0.2-0.9-0.5-1.4L137.1,280z"/>
	<path class="st5" d="M136.4,287.7l-1.4,1.8l-1.3-1l1.4-1.8l-3.6-2.9l1.1-1.4l8.8,7.1l-2.9,3.7l-1.3-1l1.8-2.3L136.4,287.7z"/>
	<path class="st5" d="M135.1,296.5l-1.3,1.2l-7.6-8.4l1.3-1.2L135.1,296.5z"/>
	<path class="st5" d="M129,297.6l-4.8-6.7l1.3-0.9l6.6,9.2l-1.8,1.3l-5.4-4.4l4,5.5l-1.3,0.9l-6.6-9.2l1.5-1.1L129,297.6z"/>
	<path class="st5" d="M121.5,300.1l-2,1.1l-0.7-1.4l2-1.1l-2.2-4.1l1.6-0.8l5.2,10l-4.2,2.2l-0.7-1.4l2.6-1.4L121.5,300.1z"/>
	<path class="st5" d="M118.6,304.1c0.6,1.7,0.1,3-1.6,3.6c-1.6,0.6-2.9-0.1-3.5-1.8l-2-5.5c-0.6-1.7-0.1-3,1.6-3.6
		c1.6-0.6,2.9,0.1,3.5,1.8L118.6,304.1z M114.9,299.1c-0.3-0.8-0.7-0.9-1.2-0.7c-0.5,0.2-0.8,0.6-0.5,1.4l2,5.8
		c0.3,0.8,0.7,0.9,1.2,0.7c0.5-0.2,0.8-0.6,0.5-1.4L114.9,299.1z"/>
	<path class="st5" d="M106.2,298.8c0.2,0.3,0.2,0.4,0.4,1.3l0.3,1.7c0.2,1,0.6,1.3,1.4,1.2l0.6-0.1l-0.9-4.5l1.7-0.3l2.2,11.1
		l-2.6,0.5c-1.8,0.4-2.8-0.3-3.1-2.1l-0.2-0.9c-0.2-1.1,0-2,0.7-2.5c-0.9-0.2-1.4-1-1.6-2.1l-0.3-1.7c-0.1-0.5-0.2-0.9-0.5-1.3
		L106.2,298.8z M110,307.9l-0.7-3.4l-0.7,0.1c-0.7,0.1-1,0.5-0.8,1.4l0.2,1.1c0.2,0.8,0.5,1.1,1.1,1L110,307.9z"/>
	<path class="st5" d="M100.3,302.6l-1.1,8.1l-2.5,0l-0.2-11.3l1.7,0l0.1,8.1l1.1-8.1l1.7,0l1.5,8l-0.1-8l1.6,0l0.2,11.3l-2.5,0
		L100.3,302.6z"/>
	<path class="st5" d="M90,298.3l1.8,0.3l0,2.1l2.2,0.3l0.6-2l1.6,0.3l-3.6,10.9l-2.6-0.4L90,298.3z M93.5,302.5l-1.7-0.3l-0.1,5.8
		L93.5,302.5z"/>
	<path class="st5" d="M87.4,309.3l-5.3-1.6l0.5-1.6l1.8,0.5l2.8-9.3l1.7,0.5l-2.8,9.3l1.8,0.5L87.4,309.3z"/>
	<path class="st5" d="M80.7,307.1l-1.6-0.7l4.3-10.5l1.6,0.7L80.7,307.1z"/>
	<path class="st5" d="M78.4,303.2c-0.9,1.6-2.2,2-3.7,1.2c-1.5-0.8-1.9-2.2-1-3.8l2.8-5.2c0.9-1.6,2.2-2,3.7-1.2
		c1.5,0.8,1.9,2.2,1,3.8L78.4,303.2z M79.7,297.1c0.4-0.7,0.2-1.1-0.3-1.4c-0.5-0.3-1-0.2-1.3,0.5l-2.9,5.4
		c-0.4,0.7-0.2,1.1,0.3,1.4c0.5,0.3,1,0.2,1.3-0.5L79.7,297.1z"/>
	<path class="st5" d="M70.9,298.2l5-6.5l1.3,1l-6.9,9l-1.8-1.4l2.7-6.5l-4.1,5.4l-1.3-1l6.9-9l1.5,1.1L70.9,298.2z"/>
	<path class="st5" d="M61.1,285.5l-1.3-1.9l1.3-0.9l1.3,1.9l3.8-2.6l1,1.5l-9.3,6.4l-2.7-3.9l1.3-0.9l1.7,2.4L61.1,285.5z"/>
	<path class="st5" d="M62.7,275.8c-0.2,0.2-0.3,0.4-1.2,0.8l-1.6,0.8c-0.9,0.5-1.1,1-0.8,1.7l0.3,0.5l4.1-2.1l0.8,1.6l-10.1,5.1
		l-1.2-2.4c-0.8-1.6-0.4-2.7,1.1-3.5l0.8-0.4c1-0.5,1.9-0.5,2.6,0c-0.1-1,0.6-1.6,1.6-2.1l1.6-0.8c0.5-0.2,0.8-0.4,1.1-0.8
		L62.7,275.8z M54.9,281.9l3.1-1.6l-0.3-0.6c-0.3-0.6-0.7-0.8-1.5-0.4l-1,0.5c-0.7,0.4-0.9,0.8-0.6,1.3L54.9,281.9z"/>
	<path class="st5" d="M55,274l-0.8-2.3l1.5-0.5l0.8,2.3l3.1-1l-1-2.9l1.5-0.5l1.5,4.6L51,277.2l-1.5-4.6l1.5-0.5l1,2.9L55,274z"/>
	<path class="st5" d="M53.3,267.8l-0.4-2.4l1.6-0.3l0.4,2.4l3.3-0.6l-0.6-3l1.6-0.3l0.9,4.8l-11.1,2l-0.9-4.8l1.6-0.3l0.6,3
		L53.3,267.8z"/>
	<path class="st5" d="M47.8,263.3l-0.1-2.8c-0.1-1.8,0.9-2.7,2.7-2.8l5.7-0.2c1.8-0.1,2.8,0.8,2.9,2.5l0.1,2.8L47.8,263.3z
		 M49.3,261.5l8.1-0.3l0-1c0-0.6-0.3-0.9-1.1-0.9l-5.9,0.2c-0.8,0-1.1,0.4-1.1,0.9L49.3,261.5z"/>
	<path class="st5" d="M50.4,255.9c-1.8-0.2-2.7-1.3-2.5-3c0.2-1.7,1.3-2.6,3.1-2.4l5.8,0.7c1.8,0.2,2.7,1.3,2.5,3
		c-0.2,1.7-1.3,2.6-3.1,2.4L50.4,255.9z M56.5,254.8c0.8,0.1,1.1-0.2,1.2-0.8s-0.2-1-1-1l-6.1-0.7c-0.8-0.1-1.1,0.2-1.2,0.8
		s0.2,1,1,1L56.5,254.8z"/>
	<path class="st5" d="M57.5,246.3l-7.4-3.4l0.7-2.4l10.9,3.2l-0.5,1.6l-7.8-2.3l7.4,3.5l-0.5,1.6l-8-1l7.7,2.3l-0.4,1.5l-10.9-3.2
		l0.7-2.4L57.5,246.3z"/>
	<path class="st5" d="M55.5,236.6c-1.6-0.9-2-2.2-1.1-3.8s2.2-1.8,3.8-0.9l5.1,2.9c1.6,0.9,2,2.2,1.1,3.8c-0.9,1.5-2.2,1.8-3.8,0.9
		L55.5,236.6z M61.6,238.1c0.7,0.4,1.1,0.2,1.4-0.2c0.3-0.5,0.2-1-0.5-1.4l-5.3-3c-0.7-0.4-1.1-0.2-1.4,0.2c-0.3,0.5-0.2,1,0.5,1.4
		L61.6,238.1z"/>
	<path class="st5" d="M62.3,230.3l1.4-1.8l1.3,1l-1.4,1.8l3.7,2.9l-1.1,1.4l-9-6.9l2.9-3.7l1.3,1l-1.8,2.3L62.3,230.3z"/>
	<path class="st5" d="M63.3,221.6l1.3-1.2l7.8,8.2l-1.3,1.2L63.3,221.6z"/>
	<path class="st5" d="M69.4,220.4l4.9,6.6l-1.3,1l-6.8-9.1l1.8-1.3l5.5,4.3l-4.1-5.4l1.3-0.9l6.8,9.1l-1.5,1.1L69.4,220.4z"/>
	<path class="st5" d="M76.9,217.7l2-1.1l0.8,1.4l-2,1.1l2.2,4.1l-1.6,0.8l-5.4-9.9l4.1-2.2l0.8,1.4l-2.6,1.4L76.9,217.7z"/>
	<path class="st5" d="M79.7,213.6c-0.6-1.7-0.1-3,1.5-3.6s2.9,0,3.5,1.7l2.1,5.5c0.6,1.7,0.1,3-1.5,3.6s-2.9,0-3.5-1.7L79.7,213.6z
		 M83.5,218.6c0.3,0.8,0.7,0.9,1.3,0.7s0.8-0.6,0.5-1.4l-2.2-5.7c-0.3-0.8-0.7-0.9-1.3-0.7s-0.8,0.6-0.5,1.4L83.5,218.6z"/>
	<path class="st5" d="M92.2,218.8c-0.2-0.3-0.3-0.4-0.4-1.3l-0.4-1.7c-0.2-1-0.6-1.3-1.4-1.2l-0.6,0.1l1,4.5l-1.7,0.4l-2.4-11.1
		l2.6-0.6c1.8-0.4,2.8,0.3,3.1,2l0.2,0.9c0.2,1.1,0,2-0.7,2.5c0.9,0.2,1.4,1,1.7,2.1l0.4,1.7c0.1,0.5,0.2,0.9,0.5,1.3L92.2,218.8z
		 M88.2,209.7l0.7,3.4l0.7-0.1c0.6-0.1,1-0.5,0.8-1.4l-0.2-1.1c-0.2-0.8-0.5-1.1-1.1-1L88.2,209.7z"/>
	<path class="st5" d="M98.1,214.9l0.9-8.1l2.5-0.1l0.4,11.3l-1.7,0.1l-0.3-8.1l-1,8.2l-1.7,0.1l-1.6-8l0.3,8l-1.6,0.1L94,207
		l2.5-0.1L98.1,214.9z"/>
	<path class="st5" d="M108.4,219l-1.8-0.3l0-2.1l-2.2-0.3l-0.6,2l-1.6-0.2l3.4-11l2.6,0.4L108.4,219z M104.9,214.9l1.7,0.2l0-5.8
		L104.9,214.9z"/>
	<path class="st5" d="M110.8,208l5.3,1.5l-0.4,1.6l-1.8-0.5l-2.6,9.3l-1.7-0.5l2.6-9.3l-1.8-0.5L110.8,208z"/>
	<path class="st5" d="M117.6,210l1.7,0.6l-4.1,10.5l-1.7-0.6L117.6,210z"/>
	<path class="st5" d="M119.9,213.9c0.8-1.6,2.2-2.1,3.7-1.3c1.5,0.8,1.9,2.2,1.1,3.8l-2.7,5.2c-0.8,1.6-2.2,2.1-3.7,1.3
		c-1.5-0.8-1.9-2.2-1.1-3.8L119.9,213.9z M118.7,220c-0.4,0.7-0.2,1.2,0.3,1.4c0.5,0.3,1,0.2,1.3-0.6l2.8-5.4
		c0.4-0.7,0.2-1.2-0.3-1.4c-0.5-0.3-1-0.2-1.3,0.6L118.7,220z"/>
	<path class="st5" d="M127.5,218.7l-4.9,6.6l-1.3-1l6.7-9.1l1.8,1.3l-2.6,6.5l4-5.5l1.3,0.9l-6.7,9.1l-1.5-1.1L127.5,218.7z"/>
</g>
<g>
	<path class="st5" d="M100.5,262.3c-0.2-0.3-0.6-0.5-1-0.5c-0.4,0-0.7,0.2-1,0.5c-0.1,0.1-0.1,0.2-0.1,0.3c0,0.1-0.1,0.2-0.1,0.3
		c0,0.2,0.1,0.5,0.2,0.7c0.2,0.3,0.6,0.5,1,0.5c0.4,0,0.7-0.2,1-0.5c0.1-0.2,0.2-0.4,0.2-0.7c0-0.1,0-0.2-0.1-0.3
		C100.6,262.5,100.6,262.4,100.5,262.3z"/>
	<path class="st5" d="M99.6,233.2c-14.1,0-25.5,11.4-25.5,25.5s11.4,25.5,25.5,25.5c14.1,0,25.5-11.4,25.5-25.5
		S113.7,233.2,99.6,233.2z M108.7,271.2c-3.4,0-6.3-2.1-7.6-5c-0.5,0.2-1,0.4-1.6,0.4c-0.6,0-1.1-0.1-1.6-0.4c-1.3,3-4.2,5-7.6,5
		c-4.5,0-8.2-3.7-8.2-8.2c0-2.2,0.9-4.2,2.3-5.7l2.7-4.6c0.1-0.3,0.3-0.5,0.5-0.8c0,0,0-0.1,0.1-0.1c0.8-1,1.8-1.8,3-2.2
		c0.1-1.8,1.6-3.2,3.5-3.2c1.9,0,3.5,1.6,3.5,3.5c0,0.5-0.1,1-0.3,1.4c0.5,0.6,0.9,1.2,1.2,1.9c0.3-0.1,0.7-0.2,1-0.2
		c0.4,0,0.7,0.1,1,0.2c0.3-0.7,0.7-1.3,1.1-1.8c-0.2-0.5-0.4-1-0.4-1.5c0-1.9,1.6-3.5,3.5-3.5c1.8,0,3.3,1.4,3.5,3.2
		c1.3,0.4,2.4,1.2,3.1,2.3c0,0,0.1,0.1,0.1,0.1c0.2,0.2,0.3,0.5,0.5,0.8l2.7,4.6c1.4,1.5,2.3,3.5,2.3,5.7
		C117,267.5,113.3,271.2,108.7,271.2z"/>
	<path class="st5" d="M90.4,257.6c-1.2,0-2.3,0.4-3.1,1c-1.3,1-2.2,2.5-2.2,4.3c0,2.9,2.4,5.3,5.3,5.3s5.3-2.4,5.3-5.3
		c0-0.6-0.1-1.2-0.3-1.8C94.7,259.1,92.7,257.6,90.4,257.6z M90.4,260.7c-0.3,0-0.6,0.1-0.9,0.2c0,0,0,0-0.1,0
		c-0.5,0.2-0.8,0.6-1.1,1.1c-0.1,0.3-0.2,0.6-0.2,0.9c0,0.4-0.3,0.7-0.7,0.7c-0.4,0-0.7-0.3-0.7-0.7c0-1.2,0.6-2.3,1.6-3
		c0.6-0.4,1.3-0.7,2.1-0.7c0.4,0,0.7,0.3,0.7,0.7C91.1,260.4,90.8,260.7,90.4,260.7z"/>
	<path class="st5" d="M111.9,258.6c-0.9-0.6-2-1-3.1-1c-2.3,0-4.3,1.5-5,3.5c-0.2,0.6-0.3,1.2-0.3,1.8c0,2.9,2.4,5.3,5.3,5.3
		c2.9,0,5.3-2.4,5.3-5.3C114.1,261.1,113.2,259.6,111.9,258.6z M108.6,260.7c-0.3,0-0.7,0.1-0.9,0.2c-0.4,0.2-0.7,0.5-0.9,0.8
		c0,0.1-0.1,0.2-0.1,0.2c-0.1,0.3-0.2,0.6-0.2,0.9c0,0.4-0.3,0.7-0.7,0.7c-0.4,0-0.7-0.3-0.7-0.7c0-0.5,0.1-0.9,0.2-1.3
		c0.5-1.4,1.9-2.4,3.4-2.4c0.4,0,0.7,0.3,0.7,0.7C109.4,260.4,109,260.7,108.6,260.7z"/>
</g>
</svg>
