<svg width="608" height="332" viewBox="0 0 608 332" xmlns="http://www.w3.org/2000/svg"><title>Artboard 1</title><g fill="none" fill-rule="evenodd"><path d="M258.214 48.278c0-.49 1.47 0 .98-.49 0-.49.98-.49.98-.49 0-.98 2.938-1.47 0-1.47h-.98s-.49-.49-.98-.49h-.49c-.49.49-.98 0-1.96.49h-.49c-1.96 0-1.96 0-1.96-.98-4.898 1.47-.98-1.47 2.45-1.96 0-.98-2.45-1.468-1.96-1.468h-2.938c.49 0 .98 0 .98-.49-.98-1.47.98-.49 2.45-.49 5.387 5.388 5.877 3.92 7.347 2.94.49-.98 0-1.47-1.47-1.96v-.98c-1.47.49-4.41-2.45-3.43-1.47h-.98c1.96-.49-1.958-.98-2.448-.98.49-.49 0-.98-.49-.98h.98v-.49h-.49c.98-.98 2.94 0 3.92-1.96h.49c0 .98-.49 1.47 1.468.98h.98c1.47.49 2.94-.49 3.43-1.958-2.45-1.96-4.41-1.96 0-1.47.49.49 3.428.49.98-.49h-1.96c.98-.49-1.96-1.96-1.47-2.94 0 0 .49.49.98.49 1.47.98 2.45.98 2.45 0-.98-.98-1.47-1.96-.49-2.938-.98-1.47-1.47-.49-2.45-.98h.49c.49 0 .98-.49.98-.98s0-.98-.49-.49c.98-1.47 4.898.49 4.408 0v-.49c0-.49-1.468-2.45-1.958-.98-.49 0-.98-.49-.98 0 0-.49-.49-.98-.49-1.47 4.41 0-1.47-.98-2.45-.98 0-.98.49-1.468 1.47-.98.98.49 2.94-.488 2.45-1.958v1.47c-.49-1.47 6.368-6.37.49-3.92-.49.49-1.47 1.47-1.96.49-.49 0-.49-.49-.49-.49-.49 0 16.656-1.47 2.45-1.96 2.45-1.47 3.43-1.47 3.43 0h.98c2.448.49 3.428.49 3.428-.98h.98c2.94-.978 1.96-1.468-1.47-1.468-2.45 1.47-3.92.98-3.92 0-2.448-.49-3.428 0-2.938 1.47-.49 0-.98-.49-1.47-.49-.49.49-4.41 1.47-6.368 1.96h-.98c-.49 0-.98 0-.98-.49.49-.49.98-.98 1.47-.49.49-1.47 1.47-2.45 2.94-1.96-.98.49-2.45.49-3.43.49-1.47-.49-2.45-.49-1.96.49h-.98c0-.49.49-.49 0-.98-2.94-1.47-4.408-1.47-4.408 0h-4.41c-2.448.98-5.388 1.96-1.47 0 .98 0 2.45-.49 3.43-1.47 2.45 1.47 3.92 1.47 3.92 0h.98c1.47.98 2.45.98 2.45 0 1.468-.49 2.448.49 3.428 0H261.154c3.428-1.47 2.448-2.45-1.96-2.94-.98.49-1.47 0-1.47 0-.49.49-1.96 1.47-2.45.49 2.94-1.96-1.47-.98-2.94-.98 1.96-1.47 2.45-1.96.98-1.96-1.96.98-2.448.49-2.448-.488h-.49c-1.47.49-1.96.49-1.96 0h-2.45c-1.47-.98-3.428-1.47-5.388-.49h-3.43c-.98.49-1.958.49-3.428 0 0 .49.49.98.49.98-1.47-.49-2.45-.49-2.45.49h.98c-1.47 1.47-2.45 1.47-2.94.98-.49 0-4.408-1.47-3.918-.49-.98.49-1.47-.49-1.47.98v.49h1.96c-.49 0 4.9 3.918.98 1.468-.49-.49-1.96-.98-1.96-.98h-2.45c0 2.45-1.47.98-3.918.49.98 1.96 3.43 3.43 4.9 4.41.488.49.978.98 0 0-1.47.49-12.738-2.94-9.8-1.96v1.47c-.49.98-.98.49-1.958-.49h-.49c-.49.49-.49 0-.49 0-1.47 0-1.47-1.96-2.45.49v-.98c0-.49.49-.49 0-.98h-1.96v.49c-.49 0-.98 0-.98-.49-.49-2.45-1.468-2.45-.978-1.47H201.878c-4.41 2.45-.98 0-4.898 3.43-1.47-1.47-2.45-1.47-2.45-.98h-.49s-.98.49-1.47.49h-3.428c-.49 0-.49 0-.98.49-3.92 3.43.98 1.47.98 1.47 7.348 0 2.45 2.938 0 3.918h-2.45c-.49 0-.49 0-.98.49h-3.92c-2.448 5.39 6.37 4.41 7.35 3.92h-1.96c-1.96.98-3.43.98-4.9.98-1.958 0 2.45 3.428 2.45 3.918h2.45c0-.49 0-.98-.49-.98.49-.49 7.838-1.47 7.838 0 1.96-.98 5.39.49 6.37.98.978.49 4.897 2.94 4.407 4.41-.98.49-1.96 1.468 0 .49 0-.49 1.47 2.448.98 1.958.98.49.98.98.49 1.47h.98v.49c.49 1.47 0 1.96-1.47 1.47h.49c-.98.49-1.47.98-.98 1.47h.49c0 .978-1.47 1.468.49 1.468 1.47 0 1.47-1.47 3.43-.98h2.45c-1.47.49-1.47.98-.49.98.978 0 .978 0 1.468.49h-.98c.98 1.47-.49.98.98.98 0 .49-.49.49-.98 0-1.96-2.45-3.918.49-4.408 1.47-.49 0-.98 0-.98-.49-1.47 0-2.94 2.94.49 2.94v.49h-1.47c1.47.98 2.45 1.468 2.45.49h.98c0-1.47 0-3.43-.98-3.92h.98c.49 0 .98.98 1.47.98.98.49 2.938 1.96 2.448 1.47-.49.98-.49.98.49.49v.49h.49v.98c0-.49-.49-.98-.98-.98v2.448c-.98.49-1.47.49-1.47 0-3.918 1.96 1.96 0 1.96 1.47h-.98c-1.47.49-1.96.49-1.96-.49 2.45 0-3.918 4.41 0 1.47.49 0 .98-.49 1.47-.49 0 .49-.98.49.98.98 0-.98 0-.98.98-.98-.49 1.47-4.41 2.45-4.9 2.94.49.49.49.49.98.49v.49c-.98 0-.98.49-.49.978h.49c0 .49-1.958.49 0 .98h.49c.49-.49.49 2.45 1.47 4.41 1.47-.49 2.94-.49 1.96-.49v.98h-1.47.98-.98s0 .49.49.49c.49-.49.98 1.468 1.47 1.468s1.96.49 1.96 2.45c1.47-.98 1.96-.98 1.47.49.98-1.96-.49 1.47.49.49 0 .98.98 1.47.98 1.96v.98h.978v.49h.49c.98-.98 3.43-.98 2.94-.98-.49 0-.49.49-.49.49h.98v.49s1.47-.49 1.96-.49c0 .98-1.96 2.448.49.49-.49 2.448.49.978.49 0-.49.49-.49.978 0 .978.488.98.488.49 1.468.49-.49-.49-.49-.49.49-.49-.98-.49-.98-.98 0-.98-.49 0-1.47-.98-.98-.98h.49c-.49-.49.49-2.448.49-1.96 1.47-.978.49-.978.49-2.448h.49v-.98h-.49c0-.49 1.96-1.96 1.96-1.96-.49-1.96 1.47-1.96-.98-1.96h.49c1.96.49-.98-4.408 2.94-3.428h1.47c-.49.49 3.918-.98 3.918-1.47 2.45-4.898 4.9-7.837 7.35-5.388.488.49.978-.49 1.468-.98v.49c.49-.49.49-.49.98-.49s.98.49.98 0h.49c.98-.98 4.408 0 3.43-1.96 1.468.49 1.958.49 1.468 0-.49 4.41 1.96 3.43 1.96 3.43 0-.49-.49 0 0 0zm2.45-18.125c.49.49.49.49.49.98h-.49v-.98zm-4.41-18.616c-.49-.49-.49 0 0 0 0-.49-.49-.49 0 0zm-1.47 0c0 .49 0 .49 0 0zm-2.94.98c.49-.49.49-.49.98-.49 1.96-.49 1.96-.49.49 0-.49.49-2.938 1.96-1.47.49 0 0-.49.49 0 0zm-6.857-8.328c4.9-2.94 7.348-2.94 7.348-.49.49 0-5.388.49-6.858.49h-.49zm-32.82 52.416c-.49 0-.49 0-.49-.49l.49.49zm3.918-2.94c-.49 0-.49 0 0 0zm.49 2.94c-.49 0-1.47.49-1.47.49.49-.49.98-.98 1.47-.98v.49zm6.858 15.676c0-.49 0-.49 0 0zm13.226-14.207h-.49c.98-.98.98-.98.49 0 0 0 0-.49 0 0zm3.918-53.886c-.98.49-.98.49-1.96.49 0-.98 1.47-.98 1.96-.49zm1.47 0c-.49 0-.49 0-.49-.49l.49.49c-.49-.98-.49-.98-.49-1.47 1.47.49 4.9 1.47 2.45 1.47-.98-.49-1.47 0-1.47.49l-.49-.49c.49.49 0 .49 0 0 0 0 0 .49 0 0zm11.267 41.638h-.98c.98-.49 1.47-.49.98 0zm-110.71-35.27h-.49c.49 0 .978.49.978.98 1.47 0 .98-1.47 2.94-.49 0 1.47-1.96 1.96-1.96 1.96h-.98 1.47c0-.49.49-.49.98-.49.98.49 2.94 1.47-.49.98h-1.47v2.448c.49 0 .98.49.98.98.98.49 1.47.49 2.45 0h-2.45c1.47.98 2.45 1.47 2.45.49 1.47-.98 2.45-.98 1.96 0h-1.96c.49 1.96.98 2.94 2.45 2.94.49-.98 1.958-.98 1.958-.49s.49.49.98.49c.98-.49 1.96-1.47 2.45-2.94v.98c1.47 0 .98-1.47 1.96-.49h1.47c0-.49.98-.98 1.47-.98-.49-.98.98 0 3.918 1.47-.49-.49-1.47-.49-2.45-.49H157.3c-.49.49-.49.49-.98.49-.98.49-1.47-.49-1.47.98 1.47.98 2.45 1.47 2.45.49.98-.49 2.94-1.96 2.94-.49 0 .49-.49.98-.49.98.98.49 2.45.98 2.45 1.47h-.49v.49c-.49-.49-.98-.49-.98-.49-1.47-1.47-2.94-2.45-4.41-1.96h-1.96c1.96 1.47 1.96 1.96.49 1.96h-1.47c-1.96 3.428-1.96 3.918-.49 4.408.49.49.49.49.49 0v.49c1.47-.49 1.96-.49 1.47-.49.49-.49 1.47-.49 1.47-.49 1.47 1.47 2.94 1.96 3.43.49-1.96-.98.98-1.47.98-1.47.49.49.49.98.49.98h1.958c1.47-.49.98-3.43 2.94.49v.98c1.47-1.96 2.45-2.45 2.94-.98.98 0 2.938-.98 1.468-1.47-3.92-.98-4.408-1.47-1.96-1.47h2.45v-1.47s5.39-1.96 3.43-.98c.98.49 1.47.49 1.47 0h.49c-1.47-.49 3.428-2.448 0-1.96v-.978H173.465c-.49 0-.98.49-1.47.49.49-1.96-.98-1.96 0-1.47h.49c0 .49.98.49.98.49.98-.49.98-.49.98 0h.98c-2.45-.98-2.94-1.47-.49-.98h.98c1.47-.98.98-1.47-2.45-.98.49-.49.98-.98 1.47-.98 0 .49 1.47.49 1.47.98.49-.98 1.958-.98 3.428 0 .49 0 .98-.49 1.47-.49-1.96-1.47 4.408-.98.98-1.96 0-.49.49-.49.98 0h.49c.98 0 1.47 0 1.47-.49.488-.49 0-1.47.488-.49-.49 0 7.838-2.938 5.39-2.448h.98c.49-.49 3.918-1.47 2.448-1.47-10.287-2.45 12.737-1.47 0-4.41h-1.47c-1.47.49-10.777 3.43-5.878 1.47h.49c1.96-1.47 1.47-1.47-.98-1.47h-1.96c-1.47.49-2.94.49-4.408.49-.98 0-1.47.49-2.45.49.98 1.47-.98 0-1.47-.49-7.347.98-2.448 2.94-7.837.98v.49c-.98 0-1.47 0-2.45.49 5.39 3.92-2.94-.98-2.45.49 3.92 2.45-1.468.98-.49 1.47 0 0-1.468-1.47-1.958-1.47-2.94-.49-3.92 0-3.92 0-1.96.98-2.94.98 0 .98h.49c.49.98.98 1.47 1.47.98-.98-.98-1.47-1.47-1.47-.49 0 0-3.43 0-6.86.49-.978-.49-1.468-.49-1.468 0-2.94 1.47.49 0 1.47.98-1.96-.49-1.96.98.49 0 3.918-.49-.49.98-1.96.98v.49c.49-.49.98-.49 1.47-.49h.49c4.898.49-2.45 1.96-.98 1.96 1.47-.49 1.96-.49 1.96.49l1.47-.49c1.958 1.47 2.448-1.47 2.938.98 2.45-2.45 3.43-2.45 2.94-.49H165.627c.98 0 1.96 0 2.94-.49h.98c.49 0 1.958-.49 1.468-.49h2.94c-2.94.98-3.43.98-.98.98h-.98c-.98 0-1.96.49-2.94.49.49.49 5.39-.49 1.47.98h-.98c-.49 0-1.96-.49-1.96 0-2.938-.49-3.428 0-2.938 1.468.98 0 .98.49.98.98h.98c.98.49.98.49 0 0v-.98c-.49-.49-.98-.49-.98-.49-.98-.98-1.96 0-2.45-2.94-3.92.49-4.898 3.43-6.368.49-.98.49-1.47.49-1.47-.49-2.94 1.96-4.41 1.96-4.41.49-.488 0-1.468-.98-.978-.98-.49-1.468-1.47-2.448-2.94-1.958h-.98s-.98-.49-1.47-.49h-1.47c-2.448.49.49.49.98.49 0 .49 0 .98-1.468.49 0 .49 0 .49 0 0-.49 0 .49.49 0 0zm20.083 14.696c-.98-.49-1.47-.98-.49-.98.49.49.49.49.49.98 0 0 0-.49 0 0zM190.12 8.598c.49.49.49.49 0 0zm-15.185 1.96h.98c-.49.49-.98.49-.98 0zm-.49.49c-.49 0-.49 0 0 0 0 0-.49 0 0 0zm-.98.98c-.49 0-.49 0 0 0 0 0-.49 0 0 0zm-8.817 10.287h.98c1.47 0-.49.49-.98 0zm-17.146-7.35c-.49 0 0 0 0 0s-.49 0 0 0zm-.49-1.468v.49c-.49 0 0 0 0-.49 0 .49-.49.49 0 0zM390.48 6.15c0-.98 0-.98 0 0v-.49c-.49 0-.49 0-.98.49h.98zm-179.784.978c.49.98 2.45 1.47 3.92 1.47-.49-.49-.98-.49-1.47-.98-1.47-.98-2.94-2.45-2.45-.49zm178.314 0c-.49-.98-.98-.98-.98-.49v.98c.49-.49.49-.49.98-.49 0-.49-.49 0 0 0zm-3.92.98c1.96-.49 1.96-.49.98-.98v.49l-.98.49zm-120.508.49v-.98c-.49.49-.49.49 0 .98zm124.428-.98h.49-.49zm-123.448 0s.49.49 0 0zm121.978.98c.49-.49.49-.49 0-.49v.49s-.49 0 0 0zm-2.45.98c.49-.49 0-.98-.98-.49 0 .49.49.49.98.49 0 0-.49 0 0 0zm3.43 0c-.49 0-1.47-.49-1.96-.49 0 .98.98.98 1.96.49-.49-.49 0 0 0 0zm-.49.98c-1.47 0-3.43 0-2.45-.49v.49c.49 0 2.94.49 2.45 0zm.98 0c.49-.98.49-.98 0 0-.49-.49 0 0 0 0 .49.49-.49-.49 0 0zm-5.39 0c.49 0 .98.49 1.47 0-.49-.49-.98-.49-1.47 0zm14.208 1.96c1.96 0 4.408-.49 2.45-1.96-1.47 0-1.96 0-1.96.98h-.98c.49.49.49.49-.49.49.49 0 .98.49.98.49zm-11.267-.98h.98c0-.49-1.96-1.96-.98 0 .49 0 0-.49 0 0zm55.846 0c.49-1.96-.98 0 0 0 0 0-.49 0 0 0zm3.92 3.428c2.938.49 2.448-.49 4.898 0-1.47 0-2.94.98-4.41 1.96v.49c.49-.49 1.47-.49 1.47 0 0 0 .49.49.49 0l2.94.49c6.858 0 4.898-2.45.49-3.43 3.43-3.43-2.45-3.43-4.41-1.96v.49h-.98l-.98.49c0 1.47 0 1.47.49 1.47 1.96.49 0 0 0 0zm-54.377-.98c1.96-.49 1.96.98 1.96-1.47h1.468c0-.98-.49-1.47-.98-.98v-.49c-.49 0-1.47.49-1.47 0-3.918.49-.98 2.45-.98 2.94zm-26.454 0c1.96.49 4.9 0 6.858-.98h2.45c-1.47 0-2.45 0-2.45-.98h-1.96c-.98.49-4.408.98-4.898.98-1.47.49-1.96.98 0 .98zm10.777-1.47c-2.45 1.96-3.92 1.96-3.92.49h-1.468c0 .49 1.47.49.49.98h.98v.49c1.96-.98 1.47-.98 3.918-.98-1.47-1.47 2.94.49 1.96-1.96-.49 0-.49.49-.98.49v-.49h-.98v.98c-.49 0-.49 0 0 0-.98.98-.49 0 0 0zm12.247 0s0-.49 0 0zm-62.704 1.96h1.47c0 .98-2.45.49 0 1.47 2.94-.98 4.9-.49 2.94 0h-.98c0 .49.49.98 0 .98h.98c.98-.49 1.47 0 1.47.49h1.468c2.94.98 4.41.98 3.43-.98 1.96-.49 2.94-.49 1.96-.49.49-.49 3.428-2.45 1.47-2.45h-1.47v-.49c-1.47.49-1.96.49-3.92.49h-.49v.49c-.49.49-.98 1.47-1.47.98-.49-.98-1.96-1.96-3.43-1.47-1.468.98-3.428.98-3.428.98zm56.826-1.47c-.49 0-.49 0 0 0zm6.368 1.47c1.96-1.47 1.96-1.47 0 0zm-56.336-.98s0-.49 0 0c-.49 0-.49.49 0 0 0 0-.49.49 0 0zm48.498.98c-.98-.98-.98-.98 0 0 1.96 0-.49 0 0 0zm6.858-.98c-3.92 0-.98 1.47-.49 1.47h.49c-.49-.49-.49-.98 0-1.47-.98 0 .49.49 0 0zm-123.448 0v.49h.49l-.49-.49.49.49-.49-.49c0 .49 0 0 0 0zm-128.347 1.96c.98-.98.49-.49 0-.98v.98s0-.49 0 0c.49-.49 0-.49 0 0zm247.876-1.47c0 .49 0 .49 0 0 .49 0 .49 0 .49-.49l-.49.49zm-1.958.49c.49-.49.49-.49 0 0zm-66.623 2.45c.49.98.98.98.49.98-.49.98 0 1.47.49 1.47v1.47h.978c.98-.49 1.96-.98 1.96-1.47.49 0 .49-.49.98-.49v.98h.98c0 .49.49.49.49.49v.49h1.96c-3.43-1.47-5.39-.98-5.39.98h-.49c-1.96 5.387 1.47.49.98 1.468 4.9-1.47.49 1.47.49 1.47-1.96-.49 1.47 2.94 3.92 1.96 2.448-.49 3.428-1.47 3.428-2.94-.49-.49-.49-.49-.49-.98 0-1.96 5.39-.98.98-2.45l-2.45-2.448c.49-3.92-3.92-.49-3.43 1.96-1.468-1.47-1.958-2.94-3.918-2.45.98-.98.98-1.47 0-1.47-1.47-.98-2.45-.49-1.96.98zm61.233-1.47v-.98h-.98c0 .49 0 .49.49.49h.49v.49zm13.227 0c1.96-.98 1.96-.98 0 0 1.96.98 0 0 0 0zm-11.757-.49c-.49 0-.98.49-.98.98h1.47l-.49-.98zm65.153.49c.49.98.49 1.47 0 1.47h.98c3.92 0 1.47-1.96-.98-1.47zm12.247 5.88h.98c.49 0 1.47-.98 1.96-.98h.49c1.468.49 2.448.49 3.428-.49 3.43-.98-4.408-3.43-3.428-3.43-.98-.49-.98 0-.49.49-.49 0-.98.98-.98 1.47v.49c-.98 0-1.47.49-1.96 2.45zm-278.248-3.43v-.98c-.98-.98-1.47-.98-1.47 0v.49c0 .49.49.49.49.49h.98c-.49 0 0 0 0 0 0-.49 0 0 0 0zm-51.437.49c.49-.49.98-.49.49.49l.49-.49v.98h.98c-.49.49-.49.49 0 .49-.49.49 2.45 0 4.898.49 0 0 5.39 3.918 3.92.49-.49-.49-2.45-1.47-2.45-1.47-1.47-1.47-5.39-2.45-7.348-2.45-.49 0-2.45-.98-.98 1.47 0-.49-.98-1.47 0 0zm12.737 1.96c.49 0 2.45.49.98.49.49 1.958 1.47 1.958 2.94.98h.978v-.98c-.49 0-.49-.49 0-.49-.98-1.96-3.92-2.45-5.388-.98 0 .49 0 .49.49.98zm19.105-2.45h-.49c0 .49.49.49.49 0 0 0 0 .49 0 0zm-40.17 1.96h.98c.98.49.98.49.98 0h.98v-.49c0-3.92-3.43 1.96-2.94.49zm196.93-.49c0 .49.49.98.49.98-.49-.49-.98-1.47-.98-1.96 0 .49.49.98.49.98zm-200.85.49c.49-.49.49-.49.98 0 5.39 2.938 1.47-.98 1.47-.98-.98.49-1.96.49-2.45.98.49 0-.49 0 0 0zm229.752-.49c1.96.49-.49 0-1.47 0 0 0 .98-.49 1.47 0zm-3.92.49c.98.98.98.49 0 0 0 .49 0 0 0 0zm-228.28 1.96c4.41.978-3.92-1.96 0 0zm5.388-.98c-1.47.49-1.96 1.47-.98 3.428 2.94-.98 3.92-2.94 2.94-3.92-.98 0-1.47 0-1.96.49zm-19.595 5.388c.98 1.47 2.45 1.96 3.92.98.49.49.98.49.49-.98 0 .98 0 1.47.98 1.47.98-.49 2.938-3.43 2.938-3.43.49-.98.98.49 2.94-.49-.49-1.47 0-1.47 1.47-.49-.49-1.96-.49-3.43-1.96-2.45-.98 1.47-4.9.98-6.86 2.94h-.488c-.49.49-1.96 1.47-2.45 1.96-.98 0-1.47 0-.98.49zm232.69-3.43h.49c1.47-1.47-.98-1.47-2.45-1.47.49.98.49.98 1.47.98.49 0 .98 0 .49.49zm-179.293-1.47c-.98.98-.98.98-.49.98 0 .49.49.49 0 .98 1.47-.49 1.96-1.47.49-1.96 0 .49.49 0 0 0zm-23.514 0c0 4.41 2.45 0 0 0 0 .49 0 0 0 0zm5.388 0s0 .49 0 0c0 .98 2.45.98.98 0h-.98zm12.737.49c-.49.98-5.39 0-2.45 1.47h2.45c.49 0 3.92-1.47 1.47-1.47-.49.49-.98.49-1.47 0-.49 0 0 0 0 0zm34.78.98c.49.98 1.47-.49 0 0zm154.8 1.47c-.49 0-.98 0-.98-.49-1.468-.98-4.408-1.47-4.898 1.47.98 0 .98-.49 1.96-.49v.49h.98c.98-.49 2.45-.98 2.94-.98zm261.103 40.66c0-.49.98-1.96.98-2.94h-.49c.49-.49.98-.98.98-.49h.49c.49.49.49.49.98.49h.49v-.49h.49c.49-1.96 1.96-2.45-2.94-3.92h-3.92v1.47c-.98-.49-1.468-.49-.49-1.47 0-.978-1.958-1.958-2.448-2.448s-3.92-2.45-2.45-1.96c-3.43-2.94-6.368-4.408-10.777-5.878-1.958.98-2.938.98-2.938 0-.49 0-.49.49-.98 0 0-.49-.49-.49-.98 0s-4.898 5.88-5.388 2.94c-.98 0-.98-.98-.98-1.47 0 .49-.49.49-.98.49-.49.49-1.96 1.47-1.47 0-2.938.49-11.756 2.45-10.776-.98-.98 0-1.96-1.47-1.96-2.45h-.49c-.49.49-1.47 0-1.96 0-1.47.49-2.45.49-1.96 0h-.49c-2.448-.98-3.428-.98-3.428.49-.49.49-1.47.49-1.96.49H534.993c.49-.98.49-1.96.49-2.94.49.98.98.98 1.47 0 0-.98-.49-.98-.98-.98-2.45.98-3.43-1.468-5.39 2.45-3.428.98-.978-1.47 0-1.96-.978 1.96 1.96-.49 0-.49h-.978c-1.96.49-2.94-.98-1.96-.98h.98c0-.488-.49-.488-.98-.488H522.254c-1.468-.98-1.468-.49-2.938.49 0 .98 1.47 1.47 1.47 1.47-2.94.49-.98 3.428-3.92 1.96-2.45 1.958-5.878 1.958-8.817-.98-1.47 1.958-.98 3.428-2.94 3.918-1.96-.49-2.45-1.47-3.92-1.47v-.49c.49 0 .49-.49.98-.49 0-1.47-5.878-1.96-5.878-1.96h-.49s-2.94-.98-1.47-.98c0 0 .49 0 .49-.49h-2.45v.49h-.98c-.488-.49-1.958-.98-2.448-.98h.49c-.49.49-.98.49-1.96 0v.49c-.49 0-2.45-.978-2.94-1.468v-4.41c-.49-.49-.98-.98-.98-1.47-3.428 0-6.367-.978-6.857 2.94 0 .49-1.47 1.96-.98 1.47-.49 0 0-1.96 0-1.96.49-.98.49-2.45-.49-1.96h-1.96c-.49-1.468-.49-1.958-1.47-.98-1.468 0-2.448 1.96-5.877 2.94-.49 0-.98.49-1.47.98-6.858.98 3.92-3.92 4.9-4.408 0-.98 4.408-1.96 4.898-2.45h.49c.98-2.45.98-2.45 1.96-2.45.49-1.47 0-2.45-2.45-3.428h.49c-.98-1.96-.98-2.45-.98-1.47-4.41 1.96-6.858 1.47-8.818 0 .49-.49.49-.49 0-.49 0-.98 2.45-.98 0-1.96v.98c-1.47-.49-1.96-.49-1.96 0-.98 0-3.428.49-3.428.98-.49 1.96-.49 3.43-2.45 2.45-.98.49-.98.49-.98 0h-.98c0 .49.49.49.49.49.49 1.96-.49 1.96-2.45.98h-1.468v.49h-1.47c.98-1.47-3.43-1.47-3.43-.98-.98-.49-1.47-.49-.98.49h-2.448c-.98-.49-1.47-.49-.98 0-.98.49-.98-.49-1.47 0h-.49s-1.96.49-1.96.98h-.49c-.49-.49-.49-.49-.49 0h-.49c.49 0 .98.49.98.98l-.98.978v.98c-4.407-.98 2.45 4.41-.978 3.92 0-.49.49-.49.49-.98s-.49-.49-.98-.49c-.49.49-.98.49-1.47.49-1.96-.98-2.45-.98-2.45 0H428.69c0 .49-.98.98-1.47.98v1.47c.98.49 1.47 1.468.98 2.448 1.47 0 2.45.98 2.45 2.45.49 1.47 0 2.45-.98 3.43.98.978 2.45 1.468 3.918 1.468 0 .49 0 .98.49 1.47-1.47 0-2.45 0-2.45-.98-2.938-.49-4.898-1.47-3.428-2.94.98-2.45 1.47-3.428-1.47-3.918h.49c-.98 0-1.96-.49-1.96-1.47h-.49c-.98-.49-2.45 0-2.94.98h.49c-3.918.98-1.958 2.45-.49 3.92-.978-.98-1.468-1.47-1.468-.49-.98-.49-.98-.49-.98 0v.49c-.98-.98-1.47-.98-1.96-2.45v-.98c0-.98 0-2.94-.49-3.43.98 2.94.98 4.41-.98 4.41v4.898c-.49 1.47-.49 2.45.49 2.45h.49c.49 0 3.43-.49 2.94-.49 2.45.98 3.43 3.92 3.92 5.388h.98v.49c-.98-.49-1.96-.98-1.96 0-2.94-1.96-.98-10.777-5.88-1.47-1.96 4.41-3.428 6.37-6.368 3.92h-.49c0-.49 0-.49-.98-.49.49.49 4.41-2.94 5.39-4.41 0-1.96-1.47-3.428-.98-5.388 0-.49.49-.98.49-1.47-.49-2.94-2.94-2.45-.49-5.388-.49-.98 0-1.96 0-2.45-1.96-1.47-3.92-1.47-5.39-.49v.98c-.49 2.45-1.47 3.92-2.938 3.92 0 .98 0 .98.49.98v2.94c-.49.978-.98 1.958-.98 2.938.98 0 1.47 0 1.47.49.49-.49.49-.49.49 0v2.45h.98c-.49 1.47-.49 2.448-1.47 1.47l-2.45-2.45c-.98-.49-1.47-.98-1.96 0 .49-2.45-4.898-1.96-5.878-1.96v.49h-.98c.49.49.49.98.49 1.96v.98c-1.47 0-1.96.49-1.96 1.958-1.96-.98-10.287-.49-9.307-.98 0-.98-.49-1.47-.98-.98v-.98c-1.468.49-1.958.98-1.958 1.96v-.49c-2.45 0-6.858 1.96-7.348 3.92-.98 3.92-2.94 1.47-1.47-1.96-1.47 0-2.94-1.47-2.94-2.45-2.448-1.47-1.96-.49-.49.49v.98c-1.958 2.45 0 1.96-.49 2.94-.98.98-.98 1.96-.98 2.94-4.407.98-5.387 1.47-6.367 2.938-.98.98-2.45-3.92-2.45-.49h-.49c0 1.96.49 2.94 1.47 2.94v.49h-.98c-1.47 0-2.94-1.47-3.918-2.94 0-1.47-.98-2.94-1.47-3.92-.49 0-1.47 0-1.96-.49h.49v-.488c-2.94.49 1.47-2.45-1.47-.98.98 0 1.47-1.47 3.43.49.98-.98 3.428 0 4.898.98h2.45l.49-.49c2.938-1.96 2.938-3.43-.49-5.39-1.47-.98-4.41-2.448-5.88-2.938-.98-.49-2.94-1.47-3.428-1.47-.98.49-1.47.49-.98 0h-.98c1.47-1.47.49-1.47-.98-.98-.98 0-3.43 0-3.92-.49h.49c2.94-4.408-.98-.98-1.958-1.47 0-.49 0-.49.49-.98-.49 0-.49 0-.98.49-.49-.98.49-.98.49-.98-.49-.98-.98-.98-1.47 0h-.49c.49 1.96-1.96 3.43-.98.98.49-1.96-5.388 7.84-1.96.49h-.49v-.49c-.98-.49-2.448.49-3.918 1.96-2.45-1.47-2.45-.98-2.45-.49l.49.98c-.98-.98-1.47-1.47-1.47-.49l.49.49c-.49.49-.98.98-.98.49v-.98c-.98 1.96-.98.98-.98.49-.49.49-1.468 1.96-1.468.49-.98.49-.98 1.47-.49 1.96 0-.49-.49-.98-.98-.98.49.98.49.49.49.49-.49.98-.98 2.45-1.96 3.43-.49 0-.98.49-.98.98 3.92-2.94-1.47 1.468-.98.978h.49-.49v.49h.49v.98h.49c0 .49-1.47 2.45-2.45 1.96h-.49v.49s-1.958.98-.978.98h-.49v.49c-.49.49-4.41 3.918-4.9 3.918-.98 0-1.958.98-1.958 1.96 0 .49 1.96-.49-2.45 2.45-.49 0-.49-.49-.98-.49v.49c-2.45-2.45-1.47 0-.98.49 0 .98-.98 1.468-1.96.98v.488c.98 0 1.47.49.98.98v-.49c-.49 0-.98 0-.98.49h-.49c-1.468 0-1.958 1.47 0 2.94.98 0 3.43-.98.98.49h-1.468-.49c0 .49.49.49.98.49 0 .49-.98.98-.98.98.98.98 6.858.49.49 1.958 0 .98 0 1.47.49.98v-.49c0-.49.49-.49.98-.49.49 1.96-2.94 1.96.49 3.43v.49c1.47.49 6.367-2.45 6.857-2.45v.98c1.47.98 4.408 4.41 2.45 4.898v2.94h.49c.488 0 2.938-1.96 3.428-2.45h1.96c.49 0 2.448-.98.49-.49v-.98c.98-1.96.98-3.918-.49-4.898 1.47 0 2.448-.49 3.918-.98v-.49h.49c0-.49-.49-.49-.98-.49.98-.49-1.47-4.898-1.96-5.878.49-.49.49-.98 0-1.47-.49-.98.49-1.96.98-2.45.49-.49.49-.49.98-.49.49-.49 1.47-1.468 2.45-1.468.49-.49 2.45-4.41 1.96-5.39.49-.49 1.47-.98 1.96-.98 0 2.45 4.407 0 3.428 1.96-.49.49-.49.98 0 1.47-2.45 0-5.88 7.838-5.39 9.798v.49c0 .49.49.49.98.49v.98h.49c-1.47-1.47.98.49 1.47 0v.49h-.98v.49s.49-.49.98-.49v-.49c.49 0 .49.49.49.98h.49v.49c.98 0 2.94-1.47 3.43-2.45h1.96c.978 0 .978-.49 1.958-.49v.49h-.49c-.98-1.47 3.92 2.45 3.92 1.96.98-1.47-2.94.98-2.45.49-.49.49-.98.49-1.47-.49 0 1.958-1.96.98-1.96.98v.49c-.98.488-1.47.488-1.47 0-.49.488-.98.488-1.468.488-.49 0-.49 0-.49.49-.98.49-1.47 0-1.47 1.47.49 1.47.49 1.96.49.98v.98c-1.47.98-2.94 2.45-2.45.49-.98 0-1.47.49-1.47.98-.98.98-1.47 2.938-.98 4.408v.49c-1.468.98-.98.49-1.468 1.96-2.45 1.96.49.98-2.45 1.47v-.49c.49-.49 0-.49-.49-.49h-.98l-.98.49s-.98.49-.98.98h-.49c-.98 0-1.468 0-2.448.49l-.98-.49c.49-.49-3.43 0-2.94.49h-.49v.49c0-.49-.49-.98-.98-.98v-.49h-.978c0-.49 0-.98-.49-.98 0-.49 0-.98-.49-.98.49-.98.98-4.41.49-6.37 0-1.47 3.43-3.918-1.47-.98-.49.49-.49 3.43 0 8.33.98 1.47.98 1.47 0 .98.49 2.448-2.94 1.958-3.43.98-2.448 0-4.898 3.918-6.367 4.897-1.47 0-2.45.98-1.96 2.45-.49.98-.98 1.47-1.96 1.47-1.96.98-2.45.98-2.45-.49h-.98c0 .49 0 .98.49.98 0 .49 0 2.45-.49 1.47-1.468-1.47-3.918 1.47-3.918 1.47h-.49c0 .978 3.43 2.448 3.43 1.958v.49h.49c-.49.98.98 3.92 1.96 2.45 1.96 2.938-.98 5.388-3.92 5.388h-6.368c-1.47-.98-1.96-.98-1.96 0h-.49v.49c-.49.49-.98.49-.98 0-.98.49-1.47.98-.49 1.47-.49.98.98 3.43.49 3.92v.49h.49v.98c0 .49-.98 3.918-.98 3.918.98-.98.49.49 0 .49h.49v2.94h.98c.49.49 1.47.49 2.45 0 1.96 2.448 5.388 1.47 6.368.49.98-1.47 10.777-11.758 10.287-13.228.49-1.96 1.47-2.45 2.94-1.96 1.47-.49 1.96.98 3.43-.49 3.428 0 16.165 12.738 14.695 13.228 5.39-5.39-1.47-5.88-.49-8.818-1.47-.49-2.94 0-3.92-2.45L317 113.92h-.49c-.49-.49-.49-1.47-.49-1.96 0-1.958-.49-1.958.49-1.468 0 0 1.468-.49 1.468-.98 0 .49 0 2.94.49 2.45v-.49c1.96-.98 2.45 1.47 2.94 2.94 0 0 .49.49.49 0 .98.49 4.898 2.938 5.388 3.428v.49c0 .49.49 0 0 .49v.49c-.49.98.49 1.96 1.47 2.45v.49c0 .978.98 1.468 1.96 1.468-2.94 4.9 2.448 4.9 1.958 4.9-.98.49-1.47 0-1.47-.49h-.49l-.49.49s.98 2.448.98 1.47h1.47v-.98c1.96 0 1.47 0 .98-.98h.49c2.45.98 0-.98-.98-1.47-.49 0 2.94 1.96 2.45 1.96-.49-1.96-1.47-2.94-2.94-1.96.49.49 0 .49 0 .49.49-2.94-.49-4.41 2.45-3.43v-.49h.49c-1.47-.98-.98-1.47.49-1.47h.98c2.45.98 1.47 2.94 5.388 0h.49c-.98-.49-1.47-.98-1.47-1.47 0-1.468 2.45-6.367 2.45-6.857.49-.49 0-.49 0-.49v-.49c1.47.49 2.45-1.958 2.45-2.448.98 0 1.958-.98.98.49.978.98 2.448.98 3.428.49.98 1.96-3.43 1.47-1.47 1.96 1.47 2.448 3.92 1.96 5.88 0-.49.49-.98.49-1.47 0s-4.9-1.96-1.96-2.45c0 0 2.94-.98 2.45-.98 2.448-2.45 3.918-2.94 3.918-1.47.98-.49 1.47-.98 1.47 0 0 0-1.47.98-1.96.98-.49.49-.49.49 0 .49h-1.47c.98.98.98 1.47 0 1.96-.49.49-2.45 1.47 0 .49 0 4.408 5.88 3.918 4.9 8.817-.98 0-2.45 0-3.43.49-6.858-1.47-11.267-3.43-15.186.49-.98.98-1.47.98-1.47.49h-.49c-.98.978-4.408 2.448-1.47 2.448-.98 1.47 1.47 2.45-.98 2.45.49.98 0 1.96 1.47 2.45v.98h1.47c0 .488 0 .488.49.488.49.49.98.98 1.47.98v.49c-1.47-1.47 3.43-.49 3.43-.49l.98.49c3.428-1.96 4.897-1.96 4.897 0 1.47-3.43 1.47 1.47 1.47 1.96v.49c3.428 1.96-4.41 8.817-4.41 8.817-.49 0-2.45 1.47-1.96-.49h-.98v.49c-1.47-.49-2.448 0-2.448.49.49-.49-3.43 0-2.94 0-.98 0-.98 0-.98-.49-.98-.49-3.918-1.47-4.408-1.96-1.47.49-1.96.49-1.96 0-.49.49-4.9-3.428-4.9 1.96 0 3.43-3.918 1.47-4.897.98-1.96-.98-5.39-2.94-6.858-3.92h-.98c-.49-.49-2.94-.98-1.96-1.47-.49-.978-.49-.978-.49-.49-.98-.488-.49-4.407 0-4.407 1.96-2.45 1.96-3.43 0-2.94-.98-.49-1.47-1.47-2.45-.49h-1.47c-.98.49-1.47-.49-1.47.49-.49.49-1.96 0-1.96 0-1.468-.49-4.408 0-4.897.49-2.94-.49-6.37 1.47-8.328 2.94-.49 0-1.47.49-1.47-.49 0 .49-.49.49-.98.49h-1.47c-2.45 1.47-6.368 2.94-8.327 6.858-1.47 1.47-1.47 2.45-.49 2.45.98 1.958.98 2.448 0 2.448-3.43 3.43-6.368 6.86-8.328 10.778v.98c-.98.49-.98.98-.98 1.47.49 1.47-2.45 2.448-1.47 4.408.49.98-.49 1.47.98 1.96 0 .49-.49.49 0 .98s0 1.96.49 2.938c0-.49-.49 4.41 0 3.43v1.96c-1.47 1.958-1.47 3.428-.49 5.387.98.98 1.47 1.96 1.47 2.94h.49c-.98 1.96 1.96 1.47 1.47 2.94.98.49.98.98.98 1.958.98.49.98.98.98 1.47 3.918 7.35 11.266 9.31 18.124 7.35h.49s.98-.49 1.47-.49h1.47c1.96-.49 1.96-1.96 2.94-1.47.49 0 1.958-.98 2.448-1.47h.49c2.45.49 3.92 1.47 3.43 3.43.49.98.98.98 1.96.98.49 0 1.958-.49 1.958-.49v.49-1.47c.98 0 .98 0 .98.98.98-.49 1.47-.49 1.47 0v.49l.49 1.47v.488c-.49 1.96.49 3.92-.98 4.9 0 .49.98.98 0 .98.49.98 0 .98 0 1.958h-.98v.49h.49v.49h.98v.49h.49-.49c1.47.98 3.43 4.41 4.408 6.368 0 .98-.49.98.49 1.96v.98c.49.98.98 1.96.98 2.94-.49.98.49 1.958 0 2.938v1.47s.49 1.96.98 1.96V231c-.49 1.468-1.47 2.448-1.96 3.918h-.49c.49 2.45-1.47 4.408-.98 6.858 0 1.47-.49 3.43 1.96 4.9v.488c.98 1.96 2.45 4.9 2.45 6.37.49.978.49 1.468 0 1.468v.98c0 .98 0 1.47.49 1.96.49 1.47-.49 1.47.49 1.96-.49 1.47-.49 2.448.49 1.96v.978c2.448 2.94 3.918 6.86 4.408 10.778-.49 1.47-.49 2.45.49 3.92h.49v-.49c0 .49.49.49.98 0-.49-.49 5.878-.49 5.388-.49.49 0 .49 0 .49-.49H340.024v-.49c4.407 0 9.306-9.31 10.776-12.248.98-1.47.98-2.45 0-2.45.98-2.938 2.94-5.878 4.898-7.347v-.49-3.92h-.49v-.49c-.98-1.958.49-5.877 1.96-7.347h.98c1.47 0 1.96 0 3.43-1.47 2.448-1.47 3.428-3.92 2.938-5.878.49-.98.49-1.47 0-1.47h-.49v-2.45-1.47c-.49-1.468-.49-2.938-.98-4.408v-.98c0-.49-.49-3.43-.98-4.898 0 0 0-.49.49-.49 0-.98.98-2.45.98-2.94-.98-4.408 13.717-19.594 15.676-21.554v-.98c-.49-3.918.49-5.388 2.45-5.388v-1.47c.49-1.47 0-1.96-.98-1.96-.49 0-.98.49-.98.49-.49 0-.98-.49-1.96 0-.49 0-1.96.98-2.45.98-2.938 1.47-4.407 1.47-4.407 0-3.43-1.96-.98-1.96-.98-3.92-.98-1.958-2.94-3.917-4.9-5.387l-1.958-3.92v-1.47c0-1.468-3.43-4.897-2.45-4.408.49-1.47.49-1.96 0-1.96v-1.47c0-.978 0-.978-.49-.978v-.49c0-.98-1.96-2.45-1.47-1.96v-1.96h.49c0-.49-.98-1.47-.98-1.96-.98-1.96-2.938-6.368-3.918-8.328 1.468.98 1.468 1.96 3.428 1.96-.49 1.47 5.39 8.328 6.368 10.287v.49c-1.47 2.448-.98 3.428.49 3.428v1.47s.98 2.45 1.96 1.96c1.96 1.96 3.43 5.388 3.92 8.327-.49.98-.49 1.47 0 1.47v.98c-1.47 4.408 3.428 3.43 4.897 1.96h.98c1.96-.98 4.41-1.96 6.37-2.94.488-.49 2.448-1.47 2.938-1.96-.98 0-.98 0-.98-.49 3.43-1.47 6.86-3.43 8.82-5.878v-1.47l.49-.98h.488c0-4.408 4.9-4.898-1.96-7.837-1.47-1.47-2.448-1.96-1.96-4.41-2.938.98-3.917 1.96-3.917 3.92-2.45 0-3.918-.98-3.918-2.94-2.45-.49-3.92-2.94-4.9-5.878 0-1.96 0-2.45-.49-3.92 5.88 3.92 9.798 7.35 15.187 8.82.49 1.958 4.898 2.938 6.367 2.448.98 0 3.43-.49 4.41-.49.49 0 .98 0 1.47-.49 1.468-.49 1.958-.49 1.958.49v.98c.49 0 .98 0 .98.49.49 0 .98.98.98 1.47h.49v.49c1.96-.98 5.878.98 2.94 2.94-1.96.488 2.448.488 4.408 2.938.49 1.47-.49 3.43 0 4.9v1.958c-.49.49-.49.49 0 .49V175.156c0 .49.49.98.49.98v5.388l3.43 6.858c2.448 0 3.918-1.96 3.428-3.43v-1.96c-.49-2.448-.49-5.877.98-6.857.98-2.45-.49-3.43 3.43-4.41v.98c0-.49 0-.49.49-.49.98 0 4.408-1.96 4.408-4.408.98-.49 2.45-1.47 3.43-1.96v-.98c0-.49.98-1.47 1.47-1.47h.98v.49l3.428-2.448c-.49 0-.49-.49-.49-.98 2.45 1.958 2.94 4.898 4.9 6.367.98.49 1.958 3.92 1.958 4.41v.49c0 .98-.49 1.47-.49 1.958v.98c0 .98 5.39 0 5.39 0 0 .49.49 1.47.49 1.96v2.45l.98 1.958v.49c-.49 1.96-.49 2.45.49 2.45-.98 1.96-.98 2.45 0 2.45-.98 2.938-1.47 4.898 1.958 8.327V197.69c.49.98 1.96 4.408 3.43 5.878 2.45.49.98-2.94 0-5.39v-.49c-.49-.98-4.9-7.347-5.39-6.857 0-.98 0-1.47-.98-1.47 0-.49-.49-.978 0-1.468v-2.94c.49-.98.49-3.43.49-3.92h.49c.98 0 1.96 1.47 1.96.98 1.96.98 3.43 4.9 4.9 6.37.49.49.49 1.47.49 1.96.978 0 1.958-.49 1.468-.98v-1.47c.49 0 2.45-.98 2.45-.98.49 0 .98 0 1.47-.49 0-.49.49-.49.98-.49 1.96-.98 1.96-3.43.98-4.9 0-2.448-.98-4.407-2.94-6.367-.49 0-.49-.49-.49-.49-.98-.98-1.96-2.45-2.94-3.43.98-2.938.49-4.408 5.39-6.367.49.49.98.49.98 0 0 .49.49 1.96.98 1.47h.488c.98 0 1.96-.98 1.96-1.96h.49c0-.49 0-.49.49-.49h.98c.98-.49 1.47-.98 1.47-1.96 0 .98.49 1.47.98.98.98-.49 6.367-2.94 5.387-4.41.49-.488.98-.488 1.96-.488v-.98h.49v-.49h.98v-.49c.49-1.47.98-4.41 2.45-5.878h.49c0-.98-1.47-1.96.49-1.96-1.47-1.47-.98-2.94-1.96-4.9-.98 0-.98-.978 0-.488h.49c-1.47-3.92-2.45-5.39-2.45-3.92h-.49c3.43-4.898-2.45-4.408 3.92-7.348 3.428-.49-1.96-1.47-4.9-.49h-.49c-1.47-.49-1.96-1.47-1.96-2.45 1.96-2.448 5.88-9.306 5.88-2.938v.49c1.47-.49-.98.98.98.98-.49-.98 1.958-1.96 1.958-1.96 3.43-.98 2.94 4.41 2.45 4.41 1.47.98.49 0 1.96.49 0 .98.49 1.468.98 1.468 0 .98-.49 3.43-.98 4.9v.49c1.96 1.47 3.918-.49 4.898-2.45.49-.49.49-.98 0-.98-.49-1.47-.49-2.94-1.96-3.92v-.49c-.488-2.938 2.45-7.837 6.37-11.266v.49c.49 0 .49 0 .98-.49-.49 4.41 3.43.49 3.92-.49h.488c1.96-2.45 3.92-4.9 4.9-7.348v-.49c.49-.49 3.918-3.92 2.938-4.41.49 0 .49-.49.49-.49v-2.448s.49-4.9.49-5.878c.49 0 .49 0 .98.49-.49-.49-3.43-2.94-5.39-2.94v.98c-1.958.98-2.938 0-2.938-.98v-1.47c-6.368.98 2.94-4.408 2.94-6.858.49-.49 3.428-2.94 3.918-2.45 0-.49 5.39-7.347 4.9-4.898.49 0 .98 0 .98-.49 1.958.98 2.448-.98 3.428.98v.49c.49 0 3.92.49 4.9 0 0-.49 0-.49-.49-.49.49-.49 1.958-.49 1.958-.49 2.94-1.96 3.43 2.45 2.45 2.45h1.47v-.49c.98 0 1.96.49 2.45-.49v.49c2.448-.98.488-.49 0-2.45h.488v-.49c.49-.49 3.43-3.92 4.41-3.92.49-.488 1.47-.978 1.96-.488 5.387 0 2.448 1.47 3.428 3.43.98-1.47 1.47-1.47 1.47-.98.49-1.96 1.47-2.45 2.94-1.96 1.468.98.98-1.47.98-1.96h1.958c3.92 0-.98 4.41-1.47 4.41-.98 1.958-8.817 6.857-10.777 9.306h-.98c.49 1.47.49 2.45-.49 2.45 0 1.47 0 1.96-.98 1.96-.49 1.47-.49 1.96-.49 3.918v.49c.49.49.49.98.49 1.96V99.226s.49.49.49.978c.98 7.838 10.777-11.267 9.797-11.267 0-.98.98-4.898-.49-4.898-1.47-.98 0-2.94.98-3.43-.49-1.96 1.47-2.45 2.94-1.96h.49c2.938-.49 1.47 0 5.878-1.96l.98.49c1.47 1.96 4.408 1.47 3.428-1.47h.49c.98-.98 1.96-1.96 3.92-2.45.49 0 1.47-.49 1.96-.978 0 0 .49-.49.98-.49h.978c0-.49 1.96.49 1.96.49 1.47-.49 2.94-.49.98-1.96v-.49c-.49-2.45-.98-3.43-2.45-1.96.98-.98.98-.98.49-.98-.98 0-3.918-.98-.49-.49.49.49.49.49.98.49H581.04l.49-.49c.49-.49 0-4.408 1.47-3.918 0 .49-.49.49-.49.98 6.858-2.94 10.777 0 13.226 1.47 0-.49-.49-.49 0 0zM318.468 77.67c-.49 5.39-1.47-2.45-.98-.98v-.49c.49 0 .98.49.98 1.47 0 0 0-.49 0 0zm.98 1.47c-.49.49-.49.49-.49.98.49-1.96.98-2.94.98-1.96 0 .49 0 .49-.49.98 0 0 .49-.49 0 0zm3.92-2.94c-.49 0-.49 0 0 0zm.49 0c2.938 1.96-1.47-.98 0 0zm16.654 3.92c0-2.45 0-2.94.49-.98 0 .49 0 .98-.49.98-.49-1.47.49 0 0 0zm7.838-6.86v.49c-4.408-2.938-5.388-3.918-2.94-3.428v-.49h.49c.98.98 5.39 3.92 2.45 3.43 0 .49 0 0 0 0zm2.45-8.326c2.94 1.47 2.94 1.47 0 0 .98 0 0 .49 0 0zm3.92 6.368c0 .98-.49.98-.98.98 0-.98-.98-1.96-1.96-2.45 0 0 1.47-2.45 1.47-1.96 0-.49-.49-.49-.98-.49 1.96.98 2.45.98 1.96.98v.49c0 .98.49 1.47.49 2.45-.49.49 0 0 0 0zm.49 1.96h.488c.49 0 .49 0 .98.49-.49 1.96-1.47-.98-1.47-.49zm3.428 5.388c-1.47 0-2.94 1.47-2.45 0 0-.49.98-1.96-.49-1.47.98-.98 2.45 0 2.94 1.47zm-39.68 168.027c-.49-.49 0-.49 0 0zm1.47-67.113c-4.41-1.96-1.96-1.47 0 0zm34.29 4.41h.98c0 .978 0 .978-.98 0 .49-.49 0 .49 0 0zm-1.47 15.185v-.98c0 .49.49.98.49.98-.49 1.468 1.47 5.387-.98.98.49-.49.49-.49.49-.98zm-8.327 4.898c3.43-2.94-1.958 1.96 0 0 .49-.49-.49 0 0 0zm-2.938 4.408c.49 0 2.94-2.45 0 0zm-.49 16.166c-1.96.49.98 0 0 0zm0-12.736c.49-1.47 0-1.96.98-.98l-.98.98c.49-.98.49 0 0 0zm4.9 12.246h-.49c-.98.49-1.47.49-.98-.49-.49-1.47-1.47-3.43-2.45-4.408 0-.49.49-.98 0-1.47v-.98c-.49-5.878 1.96 1.47 2.94 3.92-.49-.49.98 3.428.98 3.428zm2.938-1.47c-.49 0-.98 0-.98-.49.49 0 .98 0 .98.49-.49 0 0-.49 0 0zm2.45 12.248c-.49-.98-.49-3.92-1.47-3.92 0-.49.49-1.47.49-1.96v-3.428c.49 0 .98 1.96.98 2.45v1.96c-.49 1.468-.49 1.958 0 1.958v.98c-.98.98-.98 1.96 0 1.96zm.49-20.085c0 .49-.49.49-.98.49 0-.49.49-.98.98-.49zm-3.92-8.328h1.96v.49c1.96 1.47.98 4.9 0 5.878v.49h-.49c-.49-.49-2.45-2.45-1.96-.98h-.98c.49.49.49.49 0 .49s-.98-.49-.49-.98c-.49-.49-.49-.49-.49-.98 0-1.96.98-3.428 2.45-4.408.98 0 0 .49 0 0zm0-1.96h-.98c.49-.98.49-.98.98 0 0-.98 0-.49 0 0zm-.49-57.805v-.49.49zm5.39-3.92v-.978.98zm11.756-15.675c-3.92.98-1.96.49 0 0v-.49h.49c-.49 0-.49 0-.49.49zm2.94-3.92c-.98 0-.98 0 0 0zm1.96 7.35c-3.43-.49-2.94-6.37 0 0-.49 0-.49-.49 0 0zm12.736-8.328v.49c-1.47.488-2.45 0-1.96-.49 0-.49-2.45 1.958 0 1.468h.98c-.49 1.47-.49 1.96 0 3.43 1.47 2.94.98 3.918-.49 3.918v-.49c-3.43-2.94-5.39-2.94-6.368-.98-.98-.49-.98-.49-.98-1.47v-1.468c.49-.98.49-1.96.98-2.45.49-.49 1.96-1.47.49-2.45-1.47-1.47-3.43-3.918-3.43-6.368-1.47-2.45-.98-4.408.98-6.368v.49h.49v.49c0-.49 1.47-.49 0-.98.49-.49.98 0 1.47 0 .49-.98 1.47-1.96 2.94-1.96.49.98.98.98 1.958.98.98.49 1.47 0 1.96 1.47h.49c0 2.45 2.45 2.94-.98 4.9h-1.47c.98-2.45-.49-1.47 0-.98h-1.47c.49.49.49.49.49.98h.98c-1.47 2.938-1.47-.98-.49 2.938.49.49 1.47.98 1.96.98-1.96 3.43 2.45 2.94 1.47 3.92zm12.246-8.82c-.98 0-.98.49-.49.98-.98.98-2.45 2.45-2.94 1.47 0 0-1.468 2.45-.98.98 0-1.47-.488-1.96-1.958-.98.49-.49.49-.98 0-.98v-.49c1.47-3.918 1.96-5.388 1.47-2.94h.49c.98-.978 1.96-1.958 1.96-2.448h1.47c-.49-.49.488 0 .978 0-.98.49-1.47 1.47-.98 2.45-.49 1.47 0 1.96.98 1.96zm26.454 4.41l-1.47.98c-.49 0-.98-.49-.98-.49 1.96-1.47 2.94-1.96 2.45-.49zm1.96-10.288v.49h-.49v.49c-.49-.49-2.94 0-2.45 0-.98 0-.98 0-.98-.49-.49.49-.49.49-.49-.49-.49.98-1.47 1.47-2.45 1.96-1.47 0-1.96 1.96-1.96 2.45h.49v.49c-4.898-.49 1.96-4.9 2.94-5.39h.49c.49 0 1.96 0 2.45.49h.98c.49-1.96 1.47 0 1.47 0zm11.266-71.52s-.49.49-.98.49c.49-.49.98-.98.98-.49zm10.287 64.172c-.49.49-.98-.98 0-.49v.49c-.49 0 0 0 0 0zm10.778 69.562s-.49 0 0 0h-.49c0-.49 0-.49.49 0zm.98-72.01c.49.49 0 .49 0 .98v-.49-.49zm.49 33.8c-.49 0-.98 0-.98-.98.98 0 .98.49.98.98zm3.428-91.606c.49.49 0 0 0 0 0 .49 0 .49 0 0zm.49-9.797l-1.958 1.47c-1.96-2.45.49-2.94 2.94-2.94v-.49c.49.49.49.98.98.49 0 .49-1.47.98-1.96 1.47 0 0 .49-.49 0 0zm.49 9.797h1.47c-.49.49-.98.49-1.47 0 .49-.49-.49.49 0 0zm2.94 145.982c.49 0-1.47-.49 0 0 0 .98 0 0 0 0zm6.86-96.995c.488 2.94 0 3.92-.98 2.45-.98.98-.98 1.47 0 .98-.49 2.45-6.37 4.898-7.84 5.878 0-1.47 7.84-9.308 8.82-9.308zm1.468-52.416c.49-.49.49-.49 0 0zm3.43 112.182c-1.96 0-.98-.49-.98-.49.49-.49.98-.98.98-.49.49.98 0 .98 0 .98 0 .49 0 0 0 0zm11.756-5.88h.49v.49c-.49.49-.98.49-.49-.49.49 0 0 .49 0 0zm-4.898 4.9c-.98-.49-.98-.98.49-.49 0 .49-.49.49-.49.49-.49.49 0 0 0 0zm.98-11.757c-.49 0-.98-.98 0 0-.49 0 0 0 0 0zm23.513-23.024v.98h-.98c.49-.49 1.47-4.408.98-.98zM181.792 22.805h-.49.49zm137.165.49s-.49 0 0 0zm-206.727 3.43c-1.468.98-1.958.49-1.958 0h-.98v.98h.98c-.98 1.47-2.94 1.47-.49 2.45 0 .488.49.488.98.488v-.98h.49c-.49.49-.49.98 0 .98 0-1.96.49-2.94 1.47-2.45v1.47c1.96 0 4.408-.49 5.388-.98 0 .98-.98 1.96-1.96 1.96h-1.47c-1.96.49-2.45 1.47-.49 2.45h.49c3.43-.98 5.88-2.94 9.308-2.94h.49c.98-.49 1.96-.49.98-2.94 0-.978-.98-.978-1.47-.978 0 2.45-.98 1.96-1.47 1.96 0-.49 0-.98.49-.98v-.98c-1.47 0-3.428-1.47-3.428-1.96h-.49c0 .49.49.49.49.98h-.49c1.47.98 1.47 1.96.49 2.94 2.45-.49-4.9-.98-6.86-1.96l-.49.49zm40.17 5.388c-.49.98 3.43 0 2.94 0 0 .49 3.43 0 3.43 0 .98.98 1.47.98 1.47.49 1.47-.98 2.938-.49 4.408 0h.98c.49-.49 2.94-.49 1.96-.98v-.98c.49.49.98-.49 1.47-.98-.49-.98-1.47-1.47-1.96-1.47-1.47.49-1.96.49-1.96-.49-1.96.98-2.45.98-2.45 0-.98-.49-4.408.98-4.408.98h-.98c-.98-.49-1.47-.49-.98.49-.98-.49-5.39-.98-4.9-1.47h-.49c.49-.98 2.45-1.468-1.468-1.958H146.522c-1.47.98-3.918-2.94-4.898 0 0 .49.49.49.98.49 2.45-.98 3.43-.98 3.43.49h.49c1.468 0 3.428 5.878 3.428 5.878.98 0 1.47-.49 2.45-.49.49-1.47-.98 0 0 0zm-40.658-7.838h-.49v.98c.49 0 .98-.49.49-.98zm25.473 0v.49c0 .49 0 .49.49.49h-.98c-1.47-1.47-1.47-.49-.49 1.96 0 1.47-3.43-1.96-2.94-1.47 0 1.47 0 2.45-.98 2.94-.49 0-.978.49-.49.98 3.92-.98 3.92-1.47 5.88.978 2.45 0 2.45 0 2.94-.98-.98-.98-.98-1.47-.49-.98v-.49h-.49c.49-.98.49-.98 0-.98v-.978c-.98 0-1.47-.49-.98-.98-1.47-.49-1.47-.98-1.47-.98zm-8.328 0c-1.96 1.96.49.98.98.98 0-.49-.49-.98-.98-.98 0 .49 0 0 0 0-.49.49 0 0 0 0zm21.555.49c.98 1.47 1.47 1.47.98 0-.49-.49-.98-.49-.98 0zm227.3 16.166c.49.49.49.98.49 1.96.49 0 .98 0 .98-.49.98-2.45 4.9 2.45 1.96 1.47.49 0 .49.49.49.98h-.49v.49c1.96 0 3.43.488 5.39 0-.49-1.47.978-1.47 1.958-.98 0-.49-.49-.49-.98-.49-1.47-.98-2.45-2.45-2.45-3.92.49-1.47 1.96-2.94 0-3.92-.49-.49-2.938-.49-.98-.49h.98c.98-1.958 1.47-.98 2.94-.98v-.488h.49v-.98h.49v.49c-3.92 0 3.92-2.94 2.94-2.94.98 0 2.938-.98 3.918-1.96 2.45.49 3.43-.98 5.39-.98h1.468c4.41-2.938 1.96-2.448-1.47-1.958-.49.49-1.96.98-2.94.98-.978.49-2.448.49-3.428 0v.98c-.98-.49-1.47-.49-.98 0h-.49s-.49.49-.98.49c-2.448.49-5.877 1.96-6.367 2.448-.49 0 0 1.96-1.96 1.47-.98.49-5.387 2.45-1.468 1.96 1.47 0-.98 1.47-.98 1.47 1.47.49 0 .98-1.47 1.47 0 2.938-1.47 1.958-2.45 3.918 0 .98.49 0 0 0zM128.398 26.723h1.96c0 .98-2.94 1.47 0 .98-.98 0-1.47.49-.98 1.47 1.47.49 2.45 0 2.45-.98.98-.49.49-.98-.49-1.47h-.49c1.47-2.45-2.94-.98-2.45 0zm-18.615-.98c.49.98.49.98.49.49s0-.49-.49-.49zm155.29.49c.49.49.49.98.49 1.47 0-.98.49-1.96-.49-1.47zm184.682.49s4.9-.49.98 0h-.98c0 .49 0 0 0 0 .49 1.47 0 0 0 0zm-343.4.98c-4.41 1.47 2.938 3.92.98-.98-.98 0-.98.49-.98.98-.98 0 0-.49 0 0zm61.233-.49c0 .49 3.43.49 0 0zm277.758.49s0 .49 0 0h.49c-.49-.49-.49-.49-.49 0zm-305.19 0c0 .49.49.49 0 0zm.49 1.47c1.47-.98 1.96-1.47 1.47-1.47-.98 0-1.47.49-1.47 1.47.49 0 0-.98 0 0zm375.732 2.94c0 .49 0 .49 0 0 2.94 3.428 3.43-2.45 0-2.94.49 1.47.49 1.96-.49 1.96 0 .49.49.49.49.98zm-372.794 0c1.47 1.96 1.47-2.45.49-3.43-1.47-.49-2.94 1.96-2.94 2.94l1.96.98.49-.49zm123.448-1.47c.49-.49.49 0 .98 0v-.98c-3.428-.98-1.468 1.47-.98.98.49-.49 0 0 0 0zm257.675-1.47c1.47 3.43 1.96 2.94 0 0zm7.348 1.96c.49 0 2.45.49 2.45.98.98 0 1.47-.49 1.96-.98h.49c-1.47 0-1.96 0-1.96-.98h-.49c-1.96-1.47-3.43-1.47-3.43 0 .98.49.49 0 .98.98zm-403.166-.49c.49-.49 0-.98 0-.98-.49 0 0 .49 0 .98zm-8.818.49c-.49 0-.49 0 0 0zm48.007 0c-.49 0 0 0 0 0zm96.015 0c0 1.47.49 1.47.98.49-.49 0-.98-.49-.98-.49zM97.045 40.93c3.43 2.45 9.798-2.94 12.247-5.39h.49c0-.98 0-2.448-.98-2.448-1.96.98-2.94.98-2.94 0-1.958-1.47-3.918-1.96-5.877-.98h-2.45c-1.47 0-1.47.98-.98 1.96V37.502h-.49c0 .488 0 .978.49 1.468 0 .49.49 1.47.49 1.96.49.49-.49 0 0 0zm42.62-8.818c-.49-.49-.49 0-.49 0h.49zm65.642 0c-.49 0-.98 0-.98.49.49 0 .98 0 .98-.49zm-63.193 0c0 .49 0 .49 0 0 0 .49 0 0 0 0zm119.04.98c.49.98.98 1.47.98.98h.978c-.98-.49-1.47-.98-1.96-.98 0 .49 0-.49 0 0zm121.488 0c0-.49 0-.49 0 0zM141.624 38.97c.49-1.96 0-2.45-1.47-.98-.49-3.43-1.96-4.898-3.43-4.408h-.49.49c-.98.49-1.468.49-1.468-.49-3.43 1.96-.98 2.45.49 2.45 0 .98-1.47 1.47-1.47 1.47h-1.47c0-1.47-.49-.98-1.47-.98v.98c1.47 5.387 8.328 4.408 10.288 1.958zm98.464 183.213v-1.47c-.49-.49-.98-2.94-.98-2.94v-.49c-2.45-.49-4.408-1.958-6.368-4.408-.49 0-1.47 0-1.96-.49h-.98s-.98-.49-1.47-.49h-.488c-.98-.98-1.96-1.47-1.96-.49-.98 0-.98 1.96-1.47.49-1.47-2.94-4.408-3.918-7.838-.98v-.49c-.49.49-.49.49-.49 0h-.98c-.49-.98-.98-1.47-1.47-.98v-.49c-.49 0-1.468.49-.978.98-.49 2.45 0 1.47-.49-.49-.98 0-1.47 0-1.47.49h-.98c-2.45 2.45-3.92 2.94-3.92 1.47 2.45-.49 3.43 0 4.9-1.96 0-.98.98-1.958 1.96-2.448.49-1.47 1.47-1.96 2.45-.49 0-.98 0-.98-.49-.98h.49v-.98c-.98 0-.98.49-.98.98h-.49v-2.45c.49-.98.49-1.96-.49-1.96v-.978c-.49-1.47-1.96-2.94-2.94-3.92 0-.49-.49-.98-1.47-.98-.98-.49-1.47-.49-.98 0v-.49c-.49 0-.49 0-.98-.49h-1.47c-1.958 1.96-2.938-3.92-3.918 0 .49-1.96-.49-3.92-1.96-3.92-1.47-.98-1.96-.98-1.96 0-1.468 2.94.49-1.47 0-1.958-.488 0-3.428-.98-1.468-1.47 0-.49-2.94 0-2.94 0-4.898-1.96-10.287-3.43-10.777 1.47 0 .98-.49 1.47-.98 1.47 0-.49-.49-1.47-.49-1.47 0-1.96 0-3.43.49-4.9l-1.47 1.47h-.49c-1.47.49-4.898 2.45-4.408 4.9 0 .49-.49 1.47-.98 1.96v.978c-3.43-3.43-5.878-3.92-8.817-2.94-.98 0-1.47-.49-.98-.98-.49-.488-.98-1.468-1.96-1.958-.49-1.47-.98-1.96-.49-2.94V179.565s.49-.49.49-.98v-.49c.49-1.47-8.327-4.41-8.327-3.92v-.49c.49-.978.49-2.448.49-2.938.49.49-.49.98.49.98-.49-1.47.49-3.92.98-5.39-.49-.49-.49-.978-.49-1.958-1.96-.49-2.94 0-2.94 1.47-.98.98-2.938 3.918-3.918 5.878 0-.49-.49-.49-.98-.49-.49.98-.98.98-1.96.98-.98-.98-1.96-1.47-2.938-.98-1.47.49-2.45-1.96-2.94-2.94 0-.98-.49-1.96-.98-2.45-.49.98 0-2.938 0-2.938v-.49c0-2.94 0-5.878.49-7.838v-1.47c0-.49 0-.49.49 0 .49-1.47.98-1.96 1.96-1.47-.49-.98 1.47-.98 1.47-.98.98-.978 0-1.958 1.47-1.468 4.408-.49 6.857 0 8.817.98.98-.49-3.918-4.41 1.47-2.94 0 0 3.43-.49 3.43 0 1.96 0 2.45.49 2.45 1.47.49 0 .49-.49.98-.98 2.938 2.45 3.428 3.43 1.958 3.43-.49 2.938 2.94 5.388 4.41 5.388v-1.47c0-.98-.98-3.43-1.47-4.41v-.49c-.49-.488-.49-1.468-.49-1.958.98-2.45 6.858-9.308 6.368-10.287h.49c-1.96-.98.49-.49.49-.49.49 0 .98 0 .98-.49-.98-.49-3.43-3.43-1.47-3.92-.98-.98-.98-.98-.49-.98-.98-.98-1.47-1.468-.49-.98-.49-1.468.49-1.468.49-2.938 1.47-.49 2.45-.98.98.98 0 .98 0 1.47-.49 2.45h.98v.98c.49 0 .49-.49.98-.49v-.49c0-.49.49-.49 0-.98.49-.98-.98-4.41 1.96-2.45v-2.45c.978-1.47 2.448-1.96 3.918-1.96h.49c.49-.978.49-1.468 1.96-.978-.49-1.47-.98-1.96 0-3.43 0-.98.98-1.47 1.47-.98v-.49h.49l.978-.98s.49.49.98.49l1.96-1.96h.49c0-.98.49-1.96.49-.49.98 0 1.47-2.45 1.96-1.47v.49l-.49.49c.49-.49 1.47-.49 2.448-.49-2.45 1.47-1.96.98-4.898 3.43 0 2.45 2.45.98 1.96 1.47 1.47 0 1.47-.49 1.47-1.47v-3.43h.49c.978 0 1.468-.49 3.918-2.45h.49c-.98 0-.98-.488-.49-1.468-1.96.98-2.94 1.47-2.94 0-.49.49-.49 0-.49 0 .49 0 .49 0 .49-.49h-1.47v-.49h-.49v-.98c.98-.98-.98-2.94-1.96-2.94 0-.49 0-.49-.49-.49.49-.49.98 0 1.96 0v-.978c.49.49.98.49.98 0v-.98h.49c-1.96-1.96-2.45-2.45-2.45-1.47-2.938.49-8.327 6.368-7.837 5.88.49-1.96 1.96-3.43 3.92-4.41.49-1.47 1.96-3.43 3.428-3.43h1.96c0-.49.49-.49.98 0h1.96v-.49h1.47c.49-.49 1.47 0 1.96.49v-.49s.49.49.98.49c.49-.49.49-.49.98-.49 0-.49 0-.98.49-.98 1.468 0 5.877-3.918 5.387-5.388 0-.98-1.47-1.96-2.45-2.45-.49.49-1.96.49-2.938 1.47h-1.96c1.96 0 2.448-.49 2.448-1.47.49.49.98 0 .98 0 .49 0 1.47-.49.49-.49 0-.49 0-.98-.49-.98-.49-.488-1.47-.488-1.96-.488 0 .49-.49.49-.49.49v-.49c-.98.49-1.47.49-.98-.49-.49-.98-.98-.98-1.958-1.47v-1.47h-.49v-.49c-.49.49-.98-.49-.98-.49v-.49c1.47.98 2.45-.49 0-1.47.49-1.468.49-1.958-.49-1.958v-.49c-1.47.49 1.96-1.47-.98-.98h-.49c.49-.49.49-.98.49-1.47v-.49h-.49v-.49h-.98c.49-1.96.49-2.45-.49-2.45v-.978c-1.96.49-2.938 4.408-3.918 5.388-2.45-.49-4.41-1.96-4.41-4.9v-.488h-.49c0-.98 1.96-1.96 0-1.47h-.98c.98-.49.98-.98 0-.98h-.978c-3.43.98-2.94-4.898-8.328-2.45-1.47-.98-1.96-.98-1.96 0-.98.49 0 5.39-.49 5.88h.49v1.47h0v.49c-1.96 2.448-.98 4.408 2.45 6.857-.98 1.47-.98 2.448 0 2.448v-.98c.98.98.49 1.47-.49.98-2.94 1.96-4.41 4.9-3.43 7.35.49.978.49 1.468 0 1.468 0 .49.49.49.49.49-.49 0-.49.98-.49.98v.98c-.49.98-1.47.98-2.45.49.98-1.96-.978-3.92-2.448-4.9 0-2.45.49-3.428-.98-4.408h-2.45c-1.96 0-4.898-2.45-5.878-3.92-.98-.49-5.388-1.96-5.388-1.96-.49.49-.98.98-.98 0v-.49s-.49-.488-.49-.978c0 0-.49-.98-.49-1.47s0-.98-.49-.98h-1.47c-.98 0-1.47 0-1.96-1.96 1.47-.98-.49-3.428 1.96-3.428 1.96-.49 2.45-1.47 1.96-2.94v-.49h.49v-.49c.49.49 2.45-1.96 2.94-1.96v-.978c.49-1.96.98-1.96 2.45-1.96v-.49c3.428-2.94-.98-3.43-.49-3.43v-.49c.49 0 .98 0 .98.49 1.468.49 1.958-.49 3.428.98 1.96 0-.98-5.388 3.92-1.96 1.958-.49-.49-1.958-.98-1.468 2.448-.98 3.918.49 6.857-1.96-.49-1.47-.49-1.96-.49-.98-.49-.98-.49-.98-1.47-.98 1.47-1.47 1.47-1.96.49-1.96h-.49c.49-1.958.98-2.448-.49-2.448-.49 0-.98-.49-.49-.98.98.49-3.918-.98-2.938 0h-.98c0 .49.49 0 .49 0v.49c.49.98.98 1.96.49 2.45 1.468 2.45-3.92 7.837-5.88 1.96-.98-3.43-1.47-4.41-1.47-2.45v1.47c-1.47 1.96-1.96.49-2.45-1.96v-.98h-.98c-1.468-1.96-.488-2.45-.978-2.45 0-.49 0-.98.49-.98s.49 0 .49.49c.98-.49 1.47-.98.98-.98 0 0-4.9-3.428-5.39-2.938v-.98h-.49c0-.49.98-.49.49-.49.49-.98 1.96-.98 0-1.96 4.9-2.45 9.308-2.94 3.43-4.898H146.522c-1.47.49-3.43 0-3.43 1.47h-.488s.49 1.47.49 1.96c0 1.958.98 5.877-.98 5.387 0 .98 0 2.94-.98 2.94v.49c.49.978.98 1.958 1.47 2.448v-.98c.49 0 1.47.98 1.47 1.47.98.49 1.47.49 1.47 0 1.468-.98.49.98 0 1.47-2.45-1.96-.49 4.408-3.92 3.918v.49c-.49.49-.98.98-.49.98 2.45 2.94-.49.98-.98.98-1.47-.49-1.47-1.47-.98-2.45v-.49c-.98.49-.49.49-.49 0v-.49c-.49-.49-2.94-1.96-2.45-.49h-.49c0 .49 0 .98.49 1.96 0 .49-.978.49-.978.49h-.49c-.49-.49-1.47-.98-1.96-.49-1.47.98-2.94.98-3.92-.49v-.49c-.49.49-.98 0-1.468.49h-.49s0-.49.49-.49l-3.43-2.45h-.49c-3.918-.98-3.43 3.43-2.45 1.96.49-.49 1.47-.98 2.45-.49h.49s-3.43 1.47-3.43 5.88c-1.468-.49-3.428-2.94-5.387-3.92h-.98-.98c-.98.49-1.468.49-1.468 0h-.98c-1.47-.98.49-4.898-3.43-3.43l-1.96-.98c-1.468-.488-3.428-1.468-5.387-2.448h-1.47c-1.96-.49-3.43-1.96-3.43 0-.49.49-.49.98 0 1.47-.49-.49-2.448-2.45-2.938-1.96-1.96-2.94-3.92-4.9-3.92-1.96 0 1.96-.98 2.45-1.96 1.96-.98.98-2.448 1.47-3.428 1.96v.49c-5.39 2.45 0-.49 2.938-2.94v-.49h-.49c-.49-.49-1.47 1.96-2.45.98-.98 0-3.428 1.47-4.408.49h.49v.98c0 .98-.49.98-.98.49v.98c-.49-.49-.98-.49-.98 0h-.49c.98.49 1.47.98.98 1.96-2.45-1.96-5.878-3.43-9.307-4.41l-.98-.49c1.47.49-9.307-.98-7.348-.98-.98.49-1.47.49-1.47-.49 7.35-1.47-5.388 0-5.388 0h-3.43v-.49h-1.47.49-.98c-.49 0-2.448-.49-2.448-.49v-.49l-.98-.49c-.98 0-4.9 1.96-4.9 1.96-1.96-.49-4.898 3.92-6.858 5.88H29.442c.49 2.448.49 3.428 3.92 3.918 0 0-.49.49 0 .98 1.47.49 1.96 0 3.43 0-1.47.98 0 .98 1.47.98-.98.49-.98.98-.98 0-.49 0-.49.49-.49.49h.49v.49h-.49v-.49c0 .49-.49.49-.98.49-2.94-.49-2.94-1.47-4.9-1.96h-.98c-3.918 1.96-2.45 3.43-2.45 3.43.98 1.958 2.94 2.448 4.41 1.47h.98v-.49c1.47.978.98 2.448 2.94 0h.98c.98 1.958.98 3.428-.49 2.938-9.798 4.9-4.9-1.96-4.9 2.45-1.96-.49-2.45 1.96-2.45 2.45v.49h.49c1.96 2.448 2.94 2.448 4.9 2.938-.49-.49-.49-.98 0-.49-.49 1.47 0 1.96.98 1.96-.49.98-.49 1.47.49.98-.49 0-.49.49-.49.98v.49c2.45-.49 2.94 0 4.898 0v-.49c.98-2.45 1.96 3.428-3.43 7.837v-.49c-13.226 0-2.448 2.938-2.448 2.938 0-.49 1.96-2.94 1.47-1.47.49-.49.98-.49 1.47 0 .49-.49.98-1.47.98-.49 0-.49.488-.49.488-.49.49 0 .49-.49.49-.98 0 0 .49 0 .49.49v-.49l1.96-1.47c1.96-.488 6.858-5.387 5.388-6.367v-.98c.98 0 1.96-.978 1.96-1.958.49 0 4.41-2.94 4.41-2.94 2.938-.98-.98 2.45-2.94 3.92 0 .49.49.98.98.49-1.96 3.918 1.96-.98 2.45-.98h.488c.49-.98.98-1.47.98-.49-.98.49 4.9-2.45 1.96-1.47h-.49v-.98c1.96.49 2.94-.49 2.94.49h1.47c-.49.49 2.448 1.47 2.938 1.96h.98c.98-.98 1.47-.98 1.47-.49h.49l.98.49c1.47 0 3.918.49 3.918.98.98.98 2.94 2.94 3.92 4.408.98 1.47 1.468 1.96 1.468.49 2.94 1.47.49 0 .98-.98-3.43-2.45-.49-1.96 1.47-1.47v.49h.49c-.49.98.98 2.45 1.47 3.43.49 2.94 2.45 3.92 3.428 4.41 0-.49-.49-.49-.49-.98 0 3.428 1.96 1.96 1.47 5.388 0 1.47.49 1.96 1.47 1.47-.49-.49.49-.98.49-.98.49.49.49.49 0 .49 1.96 1.47-1.96.98.98 1.96.49.98.98 1.47 1.47 1.958.98.98.98.98 0 .98h-.49c.49.98 1.47.98 2.45 1.96h.978c1.47-.49 1.96-.49 2.45.98h.98c-.49.49-.49.98 0 .98.98 0 3.918 2.938 2.94 3.428 0 .49-.49.98 0 1.47-1.47.49-.98-1.47-2.45-1.47-.49-.49-.98-.49-1.47 0-2.45-.98.98 1.47.49 3.43h.49v.98c-.49-.49-.49 0-.49.98v1.468c-.49.49-.49.98-.49 1.47-.49.49-.49.98 0 1.47-.49 1.47.49 5.388 0 6.858v1.96h-.49c0 .98 4.9 7.837 2.94 4.898h.49c.49.98 0 1.47.98 2.45-.98 1.47 1.468 4.408 1.468 4.898v.98c1.96-.49 4.41 2.45 5.39 3.43 0 0 .49.49.49.98s4.897 7.837 4.408 7.347v1.47h-.98c0-.49 5.878 5.878 4.9 4.408v.49c1.468.98 3.428 3.43 2.938 5.39h.49c.49-.49-2.45-6.368-2.94-7.348 0-.49-1.47-2.45-.98-1.96 0 .98-3.428-6.368-3.428-6.368 0-.49-.98-2.94-.98-2.94 2.94 0 4.9 3.43 5.388 5.88v.49s2.45 3.428 2.45 2.938c.49 1.47.98 1.96 2.45 1.96-1.96 1.47 3.428 6.368 4.408 7.348 0 4.9 2.45 8.818 6.368 10.777 1.47.98 3.43 1.96 4.9 2.45.49 0 1.47 0 1.96.49 4.897-.98 8.326 0 11.266 3.918.98.49 2.45 1.47 3.92 1.47.978-.49 2.938 0 2.448.98 0 .98.49 1.47.98 1.47 0 .49 1.47 1.96 1.47 2.45v.49c-.49 1.958-.49 2.938.98 2.938 0-.49.49-.49 0-.98 1.96.49 2.45 1.96 2.45 3.43v-.98c2.448 0 3.918.98 4.407 2.94 2.94-.98-1.47-1.96 4.41-1.96-.98 1.47-.98 2.45.98 2.938 0 .49-1.96 6.86-.49 6.37 0 .98-2.94 3.43-2.94 3.92v.49c0 .49-1.47 1.468-1.47 1.958-1.47 3.92-2.45 6.858 0 6.858v.49h-.49c-1.96 5.39 0 10.777 4.41 15.186v.49c.49 1.47 1.96 3.92 1.96 6.37.49 0 .49.488.49.488 0 .49 0 .98.49.98 1.958 1.96 3.917 3.43 6.367 4.9 2.45 6.857.98 11.756.98 19.104v.49c.98 2.94.98 3.92-.49 3.92v.49h-.49c-.49.978.49.978.49 1.958 0 2.94-.98 6.858-1.47 9.798 0 .49-.49.98-.49 1.47.49-1.47-1.47 7.837-1.47 7.347 0 0-.49.98 0 .98 0 1.47-.49 3.43-.98 4.41v.98c0-.49 4.9 1.468 1.47 3.428-.98.98 0 3.43-.98 3.43-.98 1.958-.98 2.938.49 2.448 0 .49-.98 3.43-.98 1.96h-.49v.49c.49-.98.49-.98-.49 0v-.49c-.98.49-1.958.98-.98 2.45v-.49h.49s.98 1.47.98.49c.98.49 1.47.98.49 1.96.49 0 .49 0 0 .49h-.49v3.918c0-1.47 0 1.96.49 2.45-.49-.49.98 2.94.49 2.94h-.49v.49h-.49c.49 0 .98.49 1.47.98 0 0 .49 0 .49-.49s0-.98.49-.49h.98c0 .49-.49.98-.98.49v4.898h-.98c0 .49.49 1.96.98 1.96-.49 1.47 2.45.49 2.94 0v-.98h1.47c2.45 0 2.938-.49 1.96-1.96-.49 0-1.47 0-.49-.49 0-.98 0-1.47-.49-.98.98-2.94 1.47-3.43 2.938-3.92h-.49c1.47-5.387 3.43-8.816 4.41-14.205-.49-2.45 1.96-2.45.49-3.92.98-.98 1.47 1.47 2.448-.49 0-.98-.49-1.47-.98-.49-.49-1.468-.98-1.958-1.96-1.958.49 0 .49-.49.49-.98v-.49c3.43-.49 5.39-2.45 6.86-5.39h1.96s.98-.488 1.468-.488h.49c-.49-2.45.49-7.348 0-11.757 8.818 6.368 6.86-3.43 12.737-4.9-.49 2.45-.98 3.43 0 .98v-1.96c0-.98 1.96-2.938 1.96-2.938-.49-1.47 0-1.96.98-1.96v-.49c-.49-.49-.49-.98 0-1.96v-1.47c0-1.468.49-2.448 3.428-3.918 1.47-.49 3.43-1.47 2.94-2.45l1.96-.49h1.47c-.49-1.468 1.958-1.958 2.448-2.448.98 3.92 3.43-10.287 3.43-9.308 0 0 .49-1.47.49-1.96v-1.47c.49-1.958.49-2.448-.49-2.448v-1.47h-.49c0-.98 0-.98.49-.98.49-.49.98-.98.49-1.96.98 0 .49.49.98.98.98-2.94 2.45-5.388 4.9-7.347 0-.49.488-.98.488-1.47.98.49.98.49 0 .49zM193.55 91.387c-.49.98-.98.98-.98-.49.49.49.49.49.98.49 0 .49-.49 0 0 0zm-3.92-3.92c-.488 0-.488-.49 0 0zm-3.918 2.94c0-.49.49-.98.49-.98.49 1.47.49 1.96-.49 1.47v-.49zm-.98 1.96c2.45 1.47-3.918 2.94 0 0 .49.49-.49.49 0 0zm-6.368 21.064v-.98.98zm1.96-16.165h.49c-.98.49-.98.49-.49 0 0 0-.49 0 0 0zm-1.47-8.818c-.49 0-.98 0 0 0-.49-.49-.49 0 0 0-.49 0-.49-.49 0 0zm-.98-2.94c.98.49-.49.49 0 0 0 .49 0 0 0 0zm0 12.738c1.96-.98 2.94-2.45.98 0h-.98zm0 12.737c-1.96 3.43-.98-.98-.98 0h.98c-.49.49 0 0 0 0zm-1.96-26.943c2.94 0-.49 1.958 0 0 .98 0 0 .488 0 0zm-26.942 61.723l-.49-.49.49.49zm20.085-30.862h1.96c-.49-.49-.49-.49-.49-.98h.98c6.857 1.47-4.41.49-3.43 2.94-.49.49-1.96 1.47-2.45 1.96-.49.98-1.47 1.47-2.94 1.47h-.978.49c0-.49-.49-.98-.98-.49 0-1.47.49-2.45 1.468-2.45h.49c-3.92 3.43 5.88-1.47 4.9-.49h.49c-.98-.98-.98-1.47.49-1.96zm-.49-1.96c0 1.47-.98.98 0 0zm-1.96-4.408h1.96c-.49.49-.49.98-.49.49-.98 0-1.47 0-1.47-.49zm-13.226-8.328c.49-.98 1.47-1.96 1.47.98-.98.49-1.47 0-1.47-.98v.98c-.49-.49-.49-.98 0-.98zm-4.898 6.86c.98-2.45 2.45-3.43 3.92-3.43.98.49 1.96-.98 1.96-.98 1.468.49 1.958 0 2.938 1.47.49.98.98.98 1.96 1.47.49.49 3.428 4.408 3.428 4.408h.98c2.45 0 3.92 1.47 4.41 3.43-.49 0-.49 0-.49.49v.49c-.49-.98-.98-.98-1.47-.49-.98-.98-1.47.49-1.47 1.958.98 3.92-2.94-.98-2.94-2.45-2.94-3.918-4.408-.49-4.408 3.43v.98c-.49.49-.98.98-.98 1.96-.49-.49-.98-.98-1.96-.98v-3.43c-.49-2.45-.98-1.47 1.47-3.92v-.488c.98 0 2.94-.49 2.94-.49 1.96 1.47 0-.98-.49-1.47 0 .49-.49.49-.49.49s-1.96.98-2.45.98c.49 0-2.94-1.47-2.94-1.47.49-.49.49-.98.49-.49.98 0 1.47-.49.98-.98-1.96.98-3.918 1.47-6.368 1.96h-.49c1.47-1.96 1.47-2.45 1.47-2.45 1.47-.98 0 0 0 0zm-4.9-69.074v-.49c.98 0 .98.49 0 .49zM42.18 76.2c-.49 0-.49 0 0 0zm35.76 1.96l-1.47-1.47c.98.49 1.47.49 1.47 1.47zm.98-1.96v-.49.49zm20.085 29.883c-.49 0-1.47 1.47 0 0zm7.838-41.15c-1.96 1.47-3.43 1.47-3.43 0-3.428-.98 1.47-.49 1.96-.49.49.49.98.49 1.47.49zm0-5.878h-2.94c.49.98 2.45 1.96.98.98-2.45 2.45-3.92 2.45-3.43.98h.49c3.43-1.96-7.347-3.43-.49-3.43 0-.98-.978-1.47-1.958-1.47h-2.45v-.49c1.96.98 2.94.49 2.94-.49h1.47c.98-.49 1.96-.49 2.94 0h.978c-.98 1.47-3.43.49-.49 1.47 3.43-.98 2.45 1.96 1.96 2.45zm8.818 61.724c-5.878-1.96 3.43-3.43 0 0-1.47-.49.49-.49 0 0zm.98-52.907c-.98 1.47-3.43 2.45-4.898 2.94h-1.47c-.49-.49-1.47-.98-2.45-.98-1.47-.98-.49-.49.49-.49 1.47-2.45 5.39 0 2.45-3.43-.49-1.96.98-1.47 1.47 0v.49c1.47 1.96 5.388-.49 6.368-1.47h.98c1.47.49 1.96.49.49 0 0 .49.49.49.49.98-1.96 0-2.94.98-3.92 1.96 0 .49.98-.49 0 0zm6.86 7.348c-3.92-.98-9.8 4.41-.49 0h.49zm6.857 2.94c.98 0-1.47 1.96 0 0zm-.49 5.88c0-.49 0-.49 0 0 .49-.49 0 0 0 0zm2.45-3.92c-.49.49-.49 1.47-.49 1.96-.49 0-.98.49-.98.98v-.49c-.49-1.96 0-2.94 1.47-2.45 0-.49 0 0 0 0zm3.918 11.267c0-1.47.98-1.96 1.96-1.47.49-.98.49-.98.49-.49h.49v1.96c0 .49.98 2.45 1.47 2.94 2.938 1.47.98 1.47 1.47 3.428v.49c0 .49-.49.98-.98.49v-1.96c0-.98 0-.98-.49-.98-.49-1.47-3.43-3.918-4.41-4.408zm-.49 3.43c-2.94-1.96-1.47-6.37 0 0-.49 0-.49-.49 0 0zm2.45 3.918c-2.94-3.43-3.43-4.41-1.47-3.43h.49c0 2.45 2.45 2.94.98 3.43zm19.105 83.278c-.98-.98-.98-.98 0 0zm2.45 1.96c-1.47 0-1.96-.98-1.47-1.96 1.96 1.47 2.45 1.96 1.47 1.96zm19.104 136.184c0-.49 0-.49.49-.98v.49c0 .49-.49.49-.49.49 0-.49 0 0 0 0zm.49-1.47h.98c0 .49-.49.49-.98 0zm.98 1.96v-1.47c.98.49.49.49 0 1.47zm4.41-81.808c-2.45-.49-1.47-1.47-.98-.98.98 0 1.47.49.98.98zm2.938 5.877c-1.47-1.47-.49-1.47 0 0zM171.996 35.05c-.98-1.468-.98-1.958-.98-.978-.49-.49-.49-.49-.49 0h-.98c0 .49-.49.49-.98 0h-.49c-.98.49-1.47.49-2.448 1.47-.49 1.96 0 2.448 1.96 2.448h1.47c.49-.49 2.448-1.96 2.938-2.94zm303.72-1.468v.98c1.47-.98 1.47-1.47 0-.98 0 .49 0 0 0 0zm44.58 0c-.49.98.49 1.96 0 0zM181.304 42.89v-.49c-1.47-.98-1.96-.98-1.47.49 0 0-.49-.98-.49-.49v-1.47s-1.96 2.45-.98.49c-.98-.49-.98-.49.49-.98 0-1.47 0-1.96-.98-1.47h.49c0-.98 0-1.47-.98-1.47h-.98c-.98.49-1.47.49-1.47 0-.49 0-.978-.49-1.468-.49-3.43-1.96-2.94-.49-1.96 1.47-1.96-.98-2.45-.98-1.47.49v-.49c-.49.49-.98 1.96-.98.49v-.98c-.49 0-.98.49-.98.49v-.49c0 .49-5.388 1.47-2.448 0v-2.94c0-1.958-.49-2.448-2.94-1.468v.49h-.98v1.47c-.98-.98-.98.98-.98.98h-1.47c-.49 1.468 0 1.958.49 1.958h.98c-.49 0 0 .98 0 .98-.49-.49-.98-.98-1.96-.49v.98c3.43.98.98 2.45-1.468 2.45 0-2.45 5.878 1.47.49-4.41v-1.47c.49-1.47 1.96-2.448 3.92-1.96-.49 0-.49-.488-.49-.488-7.35.98-9.8 1.47-7.35 1.47-1.47 2.448-2.45 2.448-2.94 4.408 1.47.98 1.96 1.47.98.98 1.96-.49 2.94 0 2.94 1.47h-.98c.49.49.49.49.49.98.98 0 .98 0 .98.98 0 0 3.92-.49 2.94.98h.98v-.49c2.45 1.468 3.428 1.958 3.428.49 2.94-.49 1.47-2.45 3.92.978-1.47-.98-.98-1.47 0-1.96 2.94 1.47 3.918 1.47 2.94-.49-.49 0-.49.49-.98.49-.98-2.938 2.448 1.47 1.958 0 .49.98.49 1.96 1.47.98.49.49.49.49.98.49h.49v.49c.98 0 .49-1.47 1.47-.49 0 1.47.49 1.96 0 1.96v.98c.49.49.98.49.49 1.47l2.938-1.47s.98 3.43 1.47 3.92c-.49.49-.49.49 0 .49h.49v.488h-.49c.98 1.47.98 1.96 0 1.96h-.49c-.49 0-.49.49-.98.49-2.45 1.47 1.96 3.43.49 3.92h-.49c-3.43-.49-6.368.49-6.368 4.408 0 0 5.39-2.45 5.39-1.96.488.49 1.468.49 1.958.98.49 2.45 1.47 3.43 3.43 2.94-.49 1.47-1.96 1.96.49.98 0 .49 3.918.49 4.408.49h.98c.49-.49.98 0 .98 0h.98v-.98h-1.47v-.49c-3.43-.98-2.45-3.43-1.47-2.45.98.98 2.45.98 3.43.49 1.96 1.47 1.47.98 0-.49h.98c-.49-.98-.49-.98 0-.98v-.49l-1.47-.98c-.49 0-3.43-3.43-3.92-3.43v-.49c1.96 1.96 0-1.468.49-1.468.98.98.98 1.47.98.49-.49 0-.49-.49-.49-.98.98 0 2.45 1.96 2.94 2.45.98 0 .49 0 .98.49v.49h.98c0 .49 0 .49-.49.98h.98c-.98.49-.98.98-.49.98.49-.98.49.488 1.468 0h.49c-.49-.98-.49-1.96.49-1.96h.49c-.49-.98-.49-1.47.49-2.45.49-.49.49-.49.49 0 .49 0 .49.49.98 0-.49-.98-.49-1.47.49-.98.49-.98-1.47-3.43-1.47-.98-.98-.49-1.47 0-1.96.49 0-1.96-.49-1.96-.49-.49-.98.49-1.47.49-1.47-.49-.49.49-.49 0-.49 0h.49c0-1.96-1.47-.49-1.47-.98.49-.49.49-.98 0-.98 0 .98-.49.98-.98.98v-.49s-2.448 2.45-.978 0h-.49v.49-.49h-.49v-.49h-.49c0-.49.49 0 .49-.49-.98-.49-1.47.49-2.45-.98.98-.98 1.96-1.468 0-2.448.49.49.98.49 1.96.49-.49-.49-.98-.98-1.47-.98h-.49c0-.49-.49-.49-.49-.98.98 0 1.47 0 1.96-.98-.49-2.94-2.45 0-1.96-.98h-.98c.98-2.94-1.96 0-.98-1.96-.98-.49-2.938 1.96-.98-.98-.49.49-.978.49-.49 0 0 .49-.488.98-.488.98zm-11.757-2.94c.49 0 .49.49 0 0 0 .49.49.49 0 0zm11.267 3.92c-.49-.49 0-.49 0 0zM191.1 62.973h-.49.49zm-5.877-16.656c.49.49 0 .49 0 0h-.98s.49-.49.98 0c0 0-.49-.49 0 0zm-1.47-.98c0 .49 0 0 0 0zm-.98-.98h.49c-.49.49-.98.49-.49 0zm-.98 10.778v-.98c1.47.98.98 1.96 3.43 1.47v.49h.49c.98.98-3.92 2.94-3.43.49 0-.49 0-.98-.49-1.47zm0 5.39h.49c1.47 1.958 1.47 2.448.49 2.448v-.49c-.49.49-.98.49-.98 0h-.98v-1.96h.98zM519.806 36.03c.98.49 2.94.98 3.92.98 1.47.49 1.96.49 1.96 0v-.49c-.98-4.408-3.92-.49-5.88-.49zm-26.943.98c.49.49 1.96 1.96 1.47.98.49-3.43-1.96-1.47-1.96-1.96 0 .98 0 .98.49.98zM134.276 47.79c.49-.98-1.47-2.45-.98-1.96-1.96-2.45-2.94-2.94-2.94-.98-5.388-2.94-6.857-5.388-9.307-7.837-.98.49-5.39.49-5.39.49v2.45c-2.94-.49-1.96-1.96-2.45-4.41-2.938-.49-4.408 0-4.408 1.47-.49-.49-.49-.49-.49 0h-.49c-1.96.98-2.94 2.45-2.45 4.9.98-.98 1.96 0 2.45 0 .98 0 1.96-.49 2.45-.49.98-.49 1.47 0 1.47.49h-.49c-.49-.49-.98 0-.98 0-.49.49-.98.98-1.47.49-1.96 0-2.94.49-1.47 1.47 1.47.49 1.96.49 1.96 0 .49 0 7.838-.49 7.838 0h-.49v.49c-2.45.98-4.41 0-6.858.49-.98.49-.98.49-.98 0h-.49c.49 1.958-1.47 2.938 3.43 2.938.98.49 1.96.98 1.96 1.96 1.96.98 2.938.98 2.938 0 .98.49.98.49.98 0 2.45.98 3.43.49 3.43-.49h.49c1.47-.49 6.367-2.94 5.388-2.45.98.49 1.47 1.47.98 1.96 1.47 0 1.47-1.47 2.94.49v-.49h.978c1.96-.98 1.96-.98.98-.98v-.49c-.49 0-3.43.98-2.45-.98 1.96 1.47 2.94 1.47 2.94.49h-.49c0 .49.98.49 1.47.98.49-.49 0-.49 0 0zm-8.818-10.777c-4.41-2.45-2.45-.49 0 1.96h.49c0-.98 0-1.47-.49-1.96-.98-.49.49.49 0 0zm283.637-.49h.98c1.47-2.448-3.43-.49-.98 0 0 .49 0 0 0 0zm-268.94-.49h.49c-.49-.49-.49-.49-.49 0zm120.998 4.9c.98 0 1.96-.98 0-.98 0-.49.49-.49.49-.98-.49-.49-.98-.49-1.96-.49 3.43 0-1.47-1.47-.49-1.47 0-.49 0 0 .49-.49-3.43-.98-4.898.49-4.898 1.96 4.408-.49 1.96 2.45 6.368 2.45zm161.658-2.94c.98-1.47.49-1.96-.98-.98.49.49.98.49.98.98.98-.49 0-.49 0 0zm-282.166-1.47c-.49 0-.49 0 0 0zm359.077.98c0-.49 0-.49-.49-.49-.49.49 0 .49.49.49zm-85.237.49c.49-.49.49-.49 0-.49v.49c.49 0 0-.49 0 0zm83.77-.49c-.49 0-.49 0-.49.49 0 0 .49 0 .49-.49-.49 0 0 .49 0 0zm0 .49c.488-.49.488-.49 0 0 0 0 0-.49 0 0 0-.49 0-.49 0 0zm2.448 0h-.98c.98.49.98 0 .98 0zm-4.408.98c0-.49.49-.49.98 0-.49-.98-.98-.98-.98-.49 0 0 .49 0 0 .49zm5.88-.98h-1.47c.98.98 1.47.98 1.47 0-.49.49 0 .49 0 0zm-81.81 1.96c.49-.49.49-.49.98-.49.49.49.49.49.49 0h.49c-2.45 0-2.94 0-1.96.49zm78.87-.98c.49 0 .49-.49.49-.49-.49 0-.98.49-.49.49zm-6.86 0h.98-.98zm5.88.98v-.49c-.49 0-.49 0 0 .49zm2.45-.98c0 .49 0 .49 0 0zm1.47 1.47c-.49-1.47-.49-1.47 0-.49-.49 0-.49 0 0 .49zm-5.88 0h.98c.49-.98 0-1.47-.98 0 .49 0 0-.49 0 0zm3.92 0c1.47-.98-.98-.49 0 0zm-1.47-.49h-.49c.49.49.49.98.49.49 0 0-.49 0 0-.49zm1.96.98c.49 0 .49 0 .49-.49l-.49.49c-.49 0-.49 0 0 0 0 0-.49 0 0 0zm.49 0c0 .49 0 .49 0 0 .49 0 0 .49 0 0zm-321.848.98v-.49.49zm30.862 0s0 1.47 0 0zm1.96.49c-.49 0-.49 0 0 0zm124.917.98h.49c0-.98-.49-1.47-.49 0zm199.38-.98v.49c0-.49.49-.49 0-.49zm0 .98c.49 0 .49 0 .49-.49v-.49c0 .49-4.41 5.388-.49.98zm-204.278.49c.49 0 .49-.49.49-.98-.98 0-1.96 0-1.96.98v.49c.49-.49.98-.49 1.47-.49zm1.96-.98v.49c.49 0 .98 0 0-.49zm205.746 1.47c-.98-1.96-1.47-2.45-1.47-1.47-.49.98-.98 4.408 1.47 1.47zm43.6.98c1.96.488 4.408 0 3.43-1.47h-1.47c-1.96-1.96-1.96.98-1.96 1.47zm-329.685-.98c1.96.49 2.45 0 1.96-.98-.98.49-1.47.49-1.47 0-.98-.49-1.47-.49-1.47.49h-1.47v.98c1.47-.98 1.96-.98 1.96 0l.49-.49zm283.636-.98c-.488 0-.978.49-.978.98h.98v-.98zm-403.164 1.47v-.98s-.49.49 0 .98c0-.49 0 0 0 0zm198.888 0c0 .49 0 0 0 0 .49 0 .49-.49.49-.98h-.98c0 .49.49.98.49.98 0 .49-.49 0 0 0zm202.808 0c0-.49 0-.49 0 0zm-208.196-.49c.49.98.49.98 0 0zm3.92.49h.49-.49zm7.347 0c0-.49 0 0 0 0zm-10.288.49v-.49.49zm58.295 0c0-.49 0-.49 0 0zm-229.26 0c-.98-.49-.49 0 0 0-.49 0 0 0 0 0zm169.496 0c-1.47.488-1.47.488 0 .978-.49 0-.49-.49 0-.98-.98 0-.49.49 0 0zm65.643 2.448c-1.96-2.94-2.94-3.43-2.94-1.96v.49c0 .49 1.96 1.47 1.96 1.96h.98v-.49zm-235.14-.49c-.49-3.43-2.94.49 0 0 0-.49-.98 0 0 0zm408.554 0c.98-.49.98-.49 0 0 0 0-.49-.49 0 0zm-241.018-.98v.98s.49-.49.98-.49c0 0 .49-.49 0-.49h-.98zm-184.682.49c-1.47.49-1.96 0-1.47-.49 0 .49-.49.98-.98.98-4.898 1.47-.98 2.45-.98 2.45h1.47v.49c0 .98.49 1.47 1.47.98.98 0 .98 0 .49-.98 1.96.49 2.45.49 2.45-.49h-.49c-.98-.49-1.96-2.45-1.96-2.94zm28.413-.49c-.49 0-.49.49 0 0l-1.47.49c2.45-.49 2.94-.49 1.47-.49-.49.49 0 0 0 0zm-1.96.98c0-.49 0 0 0 0zm3.43 0c-.98.49-.98.49-.49.49s.49 0 .49-.49 0 .49 0 0zm3.43.98v-.49h-.98c.98 0 1.468 0 .98.49zm149.41 1.47c.49-.98 3.92-3.43 0-.49v.49zm-189.09-1.47c0-.49 0-.49 0 0-.49 0-.49 0 0 0zm35.76 0v-.49c-.49 0-.49 0 0 .49-.49 0-.49 0 0 0zm205.256 1.47c.49-.49.49-.98.49-1.47-1.96 0-2.45.49-.49 1.47zm-240.037-.49v-.49c-.98-.49-.98 0-.98.49h.98zm187.62-.49c-.49.49-.49.49 0 0zm-.49.98c.49 0 .49-.49 0 0 0-.49 0-.49 0 0zm-189.58 0c-.49-.49-.49 0-.49.49l.49-.49zm36.74.49c-.98-.98-1.47-.98-.98 0h.98c0-.49-.49 0 0 0zm151.86 1.96c.98-.49 2.45-2.45.49-1.47v-.49c-1.958 1.47-1.468 1.47-.49 1.96zm-194.478-1.96h.98-.98c0 .49.49 0 0 0 .49.98.49 0 0 0zm193.5 0c-.49.98 0 .49 0 0zm-143.043 0v.98h.49c0-.49 0-.98-.49-.98zm35.27.98c-.49 0-.49 0 0 0zm-76.91.98c.49-.98-.49-1.47 0 0 .49-.98 0 0 0 0zm37.72.98c.98 1.468 1.47.488 1.47-1.47-.49 0-.98.49-1.47 1.47zm146.473-.98v-.49c-.98.98-1.47.98-.98.98s.98-.49.98-.49c0-.49-.49 0 0 0zm-143.043.49c1.47-.49.98-.98 0-.49-.49.49-.49.49 0 .49zm-40.17-.49c-.49 0-.49 0 0 0zm181.743.49c0 .49 0 .49 0 0zm-161.658.978v-.49.49s-.49 0 0 0zm-121.978 2.45c-.49 0 0 0 0 0zm224.85.49c-.49 0-.49 0-.978.49 3.92.49 1.96.49.98-.49-.49 0 .49.49 0 0zm7.35 7.838v-.49h1.96c.49 0 1.47-.49 1.958-.49h.49s.49-.49.98-.49v-.98h.49v-.49c.49.49.98.49.98 0v-.49c0-.49-1.96-.49-1.96-2.45h-.49c1.47-1.958-4.41-.49-5.388-.49v.98c0-.49-.49-.49-.98-.49v-.49c-1.47 0-1.96.49-1.47 1.47h-.49c0-.49-.49-.49-.49-.98 1.96 0-1.96 2.45-1.47 2.45-.49-.49-.98-.98-.49-1.96-.49-.49-.98-.49-1.47-.98-.488.98.98 1.47-.978.49h-.49.49c0 1.47-.49 1.96-1.47 1.47H259.684c0 .98 0 .98.98.49-.49.49-1.96.49-2.94.98.49.49.98.98.98.49.49.49.98.98 1.96.98h.49c0 .49.49.49.49.49-.49 0-1.47.49-1.96.49.98.98 1.47.98 1.47.49h.98c4.897-.98.49 1.96 2.448 1.47.98-.98 1.96-.49 2.94 0 0-.98 0-.98-.49-1.47zm-107.773-4.9c0-.49-1.47-1.47 0 0 0-.49 0 0 0 0zm158.718-.49s0 .49 0 0zm-154.31 6.37c0-.98.49-.98.98-.98.98-2.94-2.45 1.47-1.47 0v-.49c-.49-.98-1.47-1.96-1.96-2.94-1.47-.49-3.428.98-1.96-.98h-.978c0 1.96-.98 5.39-.98 5.88h.98c1.47-1.96 3.92-1.96 5.388-.49.98-.49 0 0 0 0zm-139.124 0c-3.43-3.92-7.348.49 0 0zm152.84-.98c.49-.49.49-.49 0 0zm133.246.49c-1.96.49-.98 0 0 0zm290.005 1.96c-3.43-2.94-3.92-.98.98.49.49 0-.98-.49-.98-.49zm-429.13-.98c-.98 0-.98.49 0 0zm21.556.98c.98-.98.49-1.47-.49-.98h-.49c0 .98.49 1.47.98.98zm-161.658-.49s0-.49 0 0h-.49v.49l.49-.49zm129.817 1.96c2.448-.98 2.938-1.96 1.958-1.96-1.96.49-3.43 1.47-2.94 2.45.49-.49.49-.49.98-.49.98 0-.49 0 0 0zm11.266-1.96c.49.98.49.98.49 0h-.49zm-1.47.49c0 .49 0 .49.49.49 0-.49 0-.98-.49-.49zm-2.45 2.448c.49-1.47 0-1.47-.98 0 .49.49.49.49.98 0zm13.717 0h.49c-.49-.98-.98-.98-.49 0zm8.818.98c.49 0 .49 0 .98-.49-.49 0-.98 0-.98.49zm-160.187 1.96c-.98-.49 0-1.47 0 0 .98.49 0 0 0 0zm27.922 0c0 .49 0 .49 0 0zm236.12 0s0 .49 0 0zm-108.753.49h.49v-.49l-.49.49zm-157.25 0c-.49 0-.98 0-.98.49-.978-.98-2.448 0 1.47.49 0 0-.49-.49-.49-.98-.49.49 0 0 0 0zm30.373 0c-1.47 1.47 0 1.47 0 0-.49.49 0 0 0 0zm549.148 0c-.49 0 .49 2.45 0 0-.98 0 0 .49 0 0zm-314.988 1.47v.49c0-.49 0-.98.49-.98 0 0-.98-.49-.49.49 0 .49 0 .49 0 0zm33.31.49c1.96-.49.49-1.47 0 0 .98 0 .49-.49 0 0zm270.41-.49c-3.428 0 .49 3.918 0 0-2.448 0 0 .49 0 0zm8.82.49c-.49 0-.49 0-.49.49h-.98c1.96 1.958 1.96 0 1.47-.49zm-380.143.49c0-.49-.98-.98-.49 0h.49zm79.36 0s-.98-.49 0 0zm-120.51.98c0-.49 0 0 0 0zm147.453.978c-.98 1.47-.49.98 0 0zm226.81 0c-.98 0-1.47 2.94-1.47 2.45.49-.98.98-1.47 1.47-2.45-.49 0 0 .49 0 0zm-507.998.98c-1.47 0-1.47.49-.98.98h.98c.49-.49.49-.98 0-.98zm235.63 3.92c.49 1.47 0 2.448 0 3.428v.98c0-.49.49-.98.49-.98.98.49.49 1.47 0 1.96-.49 0-.49.98-.49.98 1.47-.49 3.428-.49 3.428.98h.49s-.49 2.45 0 1.96h-.49c-2.94-.98-3.92 1.468-1.96 1.468-2.448 1.96-2.938 2.94-.98 2.94.98-.98 1.47-.98.98 0 1.47.49 1.96.49 1.96 0v-.49h.98c-.49.49-.49.98-.49 1.47h-1.96c-1.47.49-5.388 2.94-2.45 3.428 1.96-.49 1.96-1.96 4.41-1.96H293.975s5.388-.98 1.96-.98c.49-1.468 2.448-1.468 0-3.918 0 .49 0 .49-.49.49 0-.49-2.45-9.308-5.39-8.328.98-.49 1.47-2.45 1.47-3.43.49-.98 0-1.47-.98-1.47-.49-.488-2.45-2.448-2.45-2.448h.49v-.49h-.49c0 2.45-1.96 2.45-1.47 4.41zm-1.47-1.47c.49 0 .49-2.45 0 0 .98 0-.49 0 0 0zm45.558-1.47c1.47 1.47 2.94 0 .98 0h-.98zM80.39 81.1v.98c5.388-1.96-5.88-3.92 0-.98-.49 0-.49 0 0 0zm-29.393-.98c-.98.49-.98-.98-.98 0-1.47 0-1.96.49-1.96 1.96.49 0 .98-.98.98 0h.49c.49 0 2.45-.98 1.47-.98.49.49.98 0 .98 0-1.47-.49-.98-.98-.98-.98zm29.883 0s0 .49 0 0zm250.325.98c0-.49 0-.49 0 0zm-4.9 0c-2.938 0 1.47 4.408 0 0 .49 0 0 .49 0 0zM81.37 83.55c.49.49.98.49.98 0-.49-.49-.49-.49 0-.49 0 0-2.45-.98-3.92-1.96 0 1.47 1.47 2.45 1.96 2.45.49-.98 1.47 2.448.98 0zm204.277-1.47v-.98.49c.49.49.98 1.47.98 1.96 0-.49-.49-.98-.98-1.47zm-208.197 0c0-.49 0-.49 0 0zm-27.922 0c.49 0 .49 0 .49-.49-.49 0-.49 0-.49.49zm234.16 0c.49-.49.49-.49 0-.49v.49zm-201.34.98v.49h.49s0-.49-.49-.49c0 .49 0 0 0 0zm85.73 0c-.49 0-.49 0-.49.49.49 0 .49 0 .49-.49zm.49 1.468s0-.98.49-.98h-.49c-.98 1.47-.98 1.96 0 1.96v-.98zm141.082-1.47v.49c.49 0 .49 0 0-.49zm-225.83.98s-.49 0 0 0zm-.98 0c0 .49 0 .49 0 0zm1.96 2.94v-.98c-3.43-1.96-2.94-.49-1.96-.49 0 .98-.49 1.47.98.98v.49c1.958-.49.49 2.94.98 0zm200.847-2.94c-.49 0-.49.49 0 .98.49 0 .98 0 0-.98zm-202.318.49c.49 0 .49.98 0 0zm-2.94 0c.49.49 0 .49 0 0zm87.687 0c-.49 0-.49 0 0 0 0 .49 0 .49 0 0zm117.08.98c0-.49 0 0 0 0zm.98.49c.49-.49 0-1.47 0 0zm28.412.49s-.98-.49-1.47 0c.98.49 0 1.96 1.47 1.47v.49h.49c.49-.49 1.96-3.43-.49-2.94.49.49.49.98 0 .98 0 .49 0 0 0 0zm-276.78 0c-.49 0-.49 0 0 0 0 .49 0 .49 0 0zm247.877.49c0-.49 0 0 0 0zm.98.49v-.49.49zm-247.877 0c-.49.49-.49.49 0 0zm44.58 0c0-.49-.49-.49 0 0-.49 0-.49 0 0 0zm229.26.98h.49v-.98c-1.47-.49-1.96-.49-.49.98 0 0-.49-.49 0 0zm-32.822 7.348c0 .49 0 .49-.49.49.49 0 2.94-.49 5.39-1.47h.49c-.49-.49 0-1.47.49-1.96 0-.49 0-.98-.49-1.47.49-.98-.49-1.47.49-1.47h1.468c0-.98 0-1.47-.98-1.47 0-.488.49-.488.49-.978-.49-.49-2.45-.49-2.45-.49h-.98c0 .49-.978.98 0 .98-.978 0-.978.49-.978 1.47 0 0-1.47 0-1.96-.49v.98s.98.49.49.49h-.49c.49.49.49.49 0 .49h-.49c0 .98.98.98 1.47.98h.49v-.98c0 .98-.49 1.958-.98 2.448h.49c-.98.49-.98.98-.49.98h-.98c-.49 1.47 0 1.47 0 1.47-.49.49-.49 0 0 0zm1.47-1.47c-.49.49-.49.49 0 0zm38.7-5.88h.49c0-.488-.49-.488-.98-.978 0 .49.49.49.49.98.49 0-.49-.49 0 0zM32.872 87.47c-6.368 0 .98 3.43 0 0-.98 0 0 .49 0 0zm1.96.49c-.49 0-.49 0 0 0 0 0 0-.49 0 0-.49 0 0-.49 0 0zm278.248 1.47c.49 0 .49 0 .49-.49v-.49c-.49.49-.49.98-.49.98zm.98.49c1.96.49 2.45-.98-.49-.98v.49c.49 0 .49.49.49.49zm201.827-.98c1.47.98 1.47.98 0 0-.98.98.49 0 0 0zM83.33 92.365c0-3.43 0-1.96-.98.49.49-.49.49-.49.98-.49zm2.938-1.96h.49c-.49-.49-.49-.49-.49 0zm-58.785 0s-.49.49-.98.49l.49.49c-.98 0-.98.49-.98.98.98 0 1.96-.98 1.47-1.96.49.49.49.49 0 0 0 .49.49.49 0 0-.49 0 .49.49 0 0zm495.262 18.616v1.47c.49 0 2.45-.98 2.45-.49-.49-.98-.49-1.96-.98-2.94-1.47-6.368 5.39-1.47 1.47-8.327v-1.96c0-.49.49-1.47.49-1.96-.49 0-.49-.49-.49-.98v-.49c.49-.98.49-1.468 0-1.468-1.47-.49-1.47 0-.98 1.47-5.88-26.454 4.9 37.72-.98 2.938v7.35c.98 1.958.98 2.938 0 2.938v.98c-.49 1.47-.49 1.47-.98 1.47zM25.035 91.877c-.98 0 0 0 0 0-.49 0 0-.49 0 0zm59.764 1.47c-.49-.49-.98-.98-1.47-.98.49.49.49.49 0 .49 1.47 2.45 1.958 2.45 1.47.98.488-.98-.49-.49 0-.49 0-.98-.49 0 0 0zm220.93-.98s-.488.49-.978.49c.98 0 .98 0 .98-.49-.49 0 0 .49 0 0zm-141.082.49s.98.49 1.47.49c-.49-.98-.98-1.47-1.47-.49zm-142.063.49c0-.49 0-.49 0 0 0 0-.49 0 0 0zm-1.47.49c0-.49 0-.49 0 0zm549.638.49s-1.96-.98-.49 0h.49c0-.98 0 0 0 0zm-555.516 0c-.98 0 0-.49 0-.49v.49c-.49 0 0 0 0 0zm73.48-.49c0-.49 0-.49 0 0zm-86.217.98v-.49c-.49.49-.49.98 0 .49zm2.94-.49c0 .49 1.47 1.958 0 0zm11.756.49h.49c-.49-.49-.49-.49-.49 0zm-6.368.49c.98-.49.98-.98 0 0zm.98-.49v.49c.49-.49.49-.98 0-.49zm-1.96.49c.49-.49.49-.49 0-.49v.49zm-5.39 0c.49.978.98 1.468.98.978s-.49-.49-.98-.98c0 .98.49.49 0 0zm574.623.978s.49-.49 0-.98v.98zm-372.303-.49h-.98l-1.96 2.45v.98c-.49 1.47-1.47 1.96-.98 2.94h-.98v.49h.98c-.49.49-.49.49-.49 0-1.468.49-1.958 1.468-.98 2.448.49-.49.98-.49 1.47-.49.98.49.98.49.98 0h.49s1.47-.49 1.96 0c2.45-.49.49.98 2.45 0 0 .49-.49.49-.49.98 0 3.43 0-.49.49 0 1.47 0 1.96 0 1.47.98.98-.98.98-.98.98 0 .98 0 1.47-.49 1.47-1.47.488-.98.488-.98 0 0h-.49c-.49-2.45.49-1.96-.98-.49 0 0 2.448-2.94.49-2.45 0 .49-.49.49-.49 0 0 .49-.49.49-.49 0 1.47-1.47-.49 0 0-.98-.98-1.468-2.94-1.468-2.94-1.468s-.49.49-.98.49v-.49h-.98c.98-.98.98-.98 0-1.47v.49c-2.94 1.47.98-1.96 0-1.96.98-.49.98-.98 0-.98 0 .49.49 0 .98 0-.49 0 0 .49 0 0zm95.525 1.47c0-.49 0-.49-.98-.49 0 .49.49.49.98.49zm-95.525.49s-.49 0 0 0zm-116.59 0h-.49c.49.49.49.98 0 .98.49.98.49 1.47 1.47.98h.98v.98h.98c.49.49.98.98 1.96.98.49.98.49 1.96 2.938 1.96h.98c0-.49-1.47-1.47-.98-1.96-1.47-2.45-3.43-3.43-5.878-2.94h-.49s-1.47 0-1.47-.98zm203.298.98s-.49 0 0 0zm252.284.49c-.49 0-.98 0-1.47.49v.49c.98 0 1.47 0 1.47-.98zm-450.194.49c0 .49 0 .98.98.98 0-.98-.49-.98-.98-.98zm100.914 2.45c-8.328-5.88-1.47 1.47 0 0-.49-.49-.49.49 0 0zm347.32 0v-.49s-.49 0 0 .49c-.49 0-.49 0 0 0zm-388.96.49c-.49 0-.49 0 0 0 0 .49 0 0 0 0-.49 0 0 0 0 0zm42.62 2.448c-.49 0-.98 0-.98.49.49 0 .98 0 .98-.49zm9.797.98c.49.98.49.98 0 0 0 .49 0 0 0 0zm-8.328 2.94c.98-.49 1.47-.98 1.47-1.96-1.47.98-1.96-.98-2.45 1.47 0 .49 0 .98-.49.98.49.49.49.98.49 1.47.49 0 .49 0 .49-.49-.49-1.47 0-.49.49-1.47zm-3.92 0v.49c.49 0 .49 0 .98-.49h-.98l.49-.49h-1.47v-.49c-1.47 0-.98-.49-.98-1.47 0 .49-.49.98-.98.98 2.45 1.96 3.43 2.45 2.94 1.47 0 .49.49 0 0 0zm343.4-.49c.98-.98.98-.98 0 0zm0 .49s-.49-.49 0 0zm-338.01.98s0-.49 0 0c-.49-.49 0-1.96-1.47 0-.49 0-.49.49-.49.98 1.47 0 1.96-.49 1.96-.98zm192.52 0c0-.49 0-.49 0 0zm142.062.98s0 .488 0 0v.488c.98-.488 1.47-.978 1.47-1.958-.49.98-.98.98-1.47 1.47zm-370.344 0c.49-.98 0-.98-1.96-.98 0 .49.98.49 1.96.98-.49 0-.98-.49 0 0zm-7.348-.49c0-.49 0 0 0 0-.49 0-.49 0 0 0 0-.49 0 0 0 0zm362.016 7.347c0 3.43 8.818 0 8.818-2.94-5.39 0-6.858-6.858-7.838.98.49.98 0 1.47-.98 1.96 0 .49.49 0 0 0zm14.206-6.37c-.49 1.47-.49 1.96-.98.98-.49 0-1.96 1.96-1.96 1.96 1.96-.98 2.94-.98 2.94-2.94zm-368.384 0c0 .49 0 .98 0 0zm363.486 4.41c1.96-1.96 1.96-1.96 0 0 .49-.49 0 0 0 0zm1.96 0c.49-.49-.49 0 0 0zm-220.444 4.9c0 .49.98-2.45.98-2.45v-1.47c-1.47.49-2.94 2.94-.98 3.92.49 0-.49 0 0 0zm-126.387-1.96c-.49 0-.49 0-.49.49.49 0 .98 0 .49-.49zm337.523 2.45h.49v-.49c-.49 0-.49 0-.49.49 0 0 0-.49 0 0zm-342.422 0c-.98.49-1.47.49-.98.98h.98c.49 0 1.96-.98 1.96-.98h-1.96zm329.195 13.226c-.49 1.47-7.84 3.92 0 2.45l.98-.49h2.448c-.49.49-.98.49-.49.98 1.96 2.938 3.43-.98 3.43-1.96h.98c1.47-.49 2.45 1.47 3.918-.98 0-.49.49-1.47.98-1.47-.49.49-.49.98-.49 1.96 1.96-2.45 1.96-3.43.98-3.43v-1.47c-.49-1.47.49-3.428 1.47-4.898.49-1.47.49-2.45-.49-2.45 0-1.47-.49-.98-1.47-1.47-.98-1.47-.98.49-1.47.98-.98.98-.98 1.47-.49 1.47h.49c0 .49-.98 2.45-.98 2.94-.98 1.96-2.94 3.43-4.408 3.43 1.96-4.9-.98 2.448-.98 2.448-.98.98-3.92.98-4.41.98.49.98.49.98 0 .98 0 .98.49 0 0 0 0 1.47.49 0 0 0zm.98.49c0 .49 0 .49 0 0v.49h-.49l.49-.49-.49.49v-.49h.49zm-200.36-12.247c.49.488.49.488 0 0 .49.978.49 1.958.49 2.448s.49.98.49.98c2.94-2.94 2.45-5.39-.98-3.43zm-7.837 2.938c1.96.49.98-1.47.49-1.47l-.49.49s-.49-.49 0 .98c.49 0-.49-1.47 0 0zm3.43-1.96c-.49 0-.49 0-.98.49h.98v-.49c-.49 0 0 .49 0 0zm23.513.98c0 .49.49.49 0 0zm52.906.49c-.49.49-.49.49 0 0zm-82.79.49s.49-.49.49-.98c-.978.49-.49.98-.49.98zm40.66.49s-.49-.98-.49.49c.49 0 .49 0 .49-.49 0 0 0 .49 0 0zm-.98 1.47v.49c.49-.49 0-.49 0-.49zm-8.817.98c.49-.49 0-.49 0 0 0-.49 0 0 0 0zm-12.736 0c.49 1.47 1.468 2.938 3.918 1.47.49-1.96-.98-2.45-2.94-1.47h-.98c0-.49.49 0 0 0zm-141.575 0c-.49 0-.49 0-.49.49.49 0 .49 0 .49-.49zm323.317 2.448v.49-.49zm-157.74.49c0-.49 0-.49 0 0 0 0-.49 0 0 0zm-8.327.49v.49-.49zm16.166 2.94h2.45c2.94-1.96-.98-.49-1.47 0h-.49v.49c0-.49 0-.49-.49-.49zm-14.206-.49c1.96 1.96 2.94 2.45 2.94.98 3.43-.98-.49-1.47-2.94-.98 0-.49 0 0 0 0zm5.88-.49s0 .49 0 0zm169.985.49c-.49 0-.49 0 0 0 0 0-.49 0 0 0zm-337.034.98c-.49 0-.49 0 0 0zm338.012.98h-.98c0 .49-.49.98-.98.49-.98 1.47-1.47 1.47-.98 1.958.98.98 3.43.49 2.94-2.45-.49 0 0 .49 0 0zm-7.348 1.96c.98 1.468.98 1.958.49 1.958v-.49h-.49c0 .49.49.49.49.98h.98c0-.49 0-.98-.49-.98 1.96-.49-.49 1.96-.49 1.96v.98c.49.98.98.49.98-.49v1.47c.98 0 1.47-1.47 1.47-1.96v-.98c.49-1.47.49-2.45-.98-2.94v-.49h-.98v.49c-.49 0-.49.49-.98.49zm-5.388.978c.98-.98.98-.98 0 0 0-.49 0-.49 0 0 .49 0 0-.49 0 0zm7.838 5.39c-.49 0-.49 0-.49.49l.49-.49zm-.98 0c-.49 0-.49 0 0 0zm-353.69 1.468c-.488.49-.488.49.49.98.49-.49.49-.98-.49-.98zm121.98 3.43c0-.49.49-.98.98-.98-.98 0-.98.49-.98.98zm-3.92.49c.49 0 .98-.49.98-.98-1.47.49-1.47.98-.98.98zm233.67-.98c-.49 0-.49 0 0 0zm-232.2.49h.49-.49zm228.77 2.94v-.49.49zm.98 0c.98-.49.98-.49 0 0zm-11.756 5.877c1.47-.49-.49 6.368 1.47 1.47v-.49c2.94-6.37 0-4.9-.49-3.43 0 .98-.49 1.96-.98 2.45zm-317.438-1.96c-1.47 0-1.47.49 0 0zm2.45 9.307h2.45c1.958-.98-.98-.49-.98-2.45h-.49c-1.47-.49-2.94-1.47-3.92-1.958-1.47 0-2.94-.98-3.92-1.96h-2.448c-.49-.49-.98-.49-.98 0-2.45-1.96 8.328 5.388 10.288 6.367zm-10.778-2.94c1.47-.49 1.47-.98.49-.98v.49l-.49.49zm-120.998-.98c0 .49 0 .98 0 0zm2.45 1.47c0 .49 0 .49.49.49l-.49-.49zm134.224.49s-.49-.49 0 0zm-133.245 1.96c-.49.49-.98.98 0 1.96.49-.49.49-.49.98-.49-.49-1.96-.98-2.45-.98-1.47zm141.082 2.94c0-.98-3.92-2.45-4.898-2.45-.49 0-.98 0-.98.49-1.47 0-3.43-.98-1.47.98.49.49.49.98-.49.98h-.98c-.98.49-.98.49-.98 0-.49 1.96 2.94 1.96 4.41 1.96.98-.49.98-.98.49-1.47 1.47.98 2.45.98 2.45 0h1.47c.488-.49.978-.49.978-.49 0-.98 0 0 0 0zm284.617 1.96c0 .49.49.49 0 0 3.428-3.43 3.918-4.41 0 0zm-298.334-.98h.98c-.49-1.47-2.94-.98-3.43-.49.49.98.98.98 1.96.98.49 0 .49 0 .49-.49zm18.125-.49l-.49-.49h-1.958c.49 0 .98.49.98.98.98.49.98 0 1.47-.49zm296.375 4.898c-.49.98 0 1.47.49 1.47.98 2.94 2.45 4.41 4.408 3.43 1.47 2.938 2.45 3.428 2.45 1.47 0-1.96-.98-2.94-1.47-2.45 0-.98-1.47 0-1.47 0-.98.49-.98-2.94-.98-2.45 0-.49.98-2.94 1.47-2.45 0-.49-.49-1.96-.49-2.45 0-.49 0-.98.49-.98-.98.49-1.96.49-2.94.49.49.49.49.49 0 .49v1.96c-.49 1.96-.98 2.45-1.958 1.47zm-289.516-.49h-.49v.49s.49 0 .49-.49zm0 2.45c0-.49 0-.98-.49-.49 0 0 .49 0 .49.49zm.49.98c-.49.49 0 .49 0 .98.49-.98 0-.49 0-.98zm295.883 1.96v.49h.49c0-.49 0-.49-.49-.49zm-48.988.49v.49c.49-.49.49-.49 0-.49zm45.07 2.448s-3.92-4.898-.98-.98h.49c-.49.98 0 1.47.49.98 0-1.96-.49 0 0 0zm-290.006-1.47c0-.49 0-.49 0 0zm295.392.98c-.49.49-.98.49-1.47.49 0 .49 1.47 2.45 1.96 1.96.49 1.47.49-2.45-.49-2.45-.49-.49.49 0 0 0zm-4.408.98c0-.49 0-.49-.49-.49l.49.49zm-108.262-.49h-1.47c.49.49.98.49 1.47 0zm104.343.98h.49c-.49-.49-.49-.98-.49 0 0-.49 0 0 0 0zm6.858 0c-.49 0-.98-.49-1.47-.49v.98c.49 0 .98 0 1.47-.49zm-3.92 2.94c2.45-1.47 2.45-2.45.49-2.45 0 1.47 0 1.47-.49 2.45 1.47 0 .49-.98 0 0zm5.88.49l.49.49c.49-.49 0-.98-.49-.98-2.94-3.43-.49 0 0 .49zm-10.778 0c-1.47 4.898-2.45 3.918 1.47-.98v-1.47l-1.47 2.45c-.49 1.47.49 0 0 0zm8.818-.49v-.98c-1.47 1.96-2.45 3.918 0 .98zm-295.884 0c.49-.98.49-1.47-.49-.98v.98c0 .49 0 .49.49 0zm293.923.49c-.49.98-2.45 0-.49 1.96h.49v-1.96s-.49-.98 0 0zm-47.517-.98c0 .49 0 .49 0 0zm47.027 0c0 .49 0 .49 0 0 0 0 0 .49 0 0 0 .49 0 .49 0 0zm1.96 1.96c2.94.49 0-1.47 0 0 .49 0 0-.49 0 0zm-67.603 3.918c-1.96-1.96-2.45-4.898-2.94-1.47v.49c.49.49 0 .98 0 .98 0 .98.98 3.43 1.47 3.43.49-.49.98-.49.98-.49.49-.98.49-1.96.49-2.94-.98-.98 0 0 0 0zm70.052-2.938v.98h-.49c-.49.49-2.94 2.45-2.45.49-.49.98-1.47.98-2.448.98v.98c0-.49 1.96.49 1.47.49h.49c.49.488.49.488.98.488v.49c1.958-7.348 1.958 3.92 1.958 2.94.98-.98.98-1.47.49-.98 0-.49-.49-.98 0-.98v.49c0-.98.49-1.47.49-2.45 1.47-.49 5.88-4.898-.49-3.918zm-296.863.49h-.49.49zm-34.292 2.45c0 .49 0 .49 0 0zm2.45 0c-.49 0-.49 0 0 0-.49.49 0 .49 0 0 0 0 0 .49 0 0zm107.77.49c0-.49-.488-.49 0 0zm171.457.978c-.49 0 0 0 0 0zm23.514 12.737v.49c.49.49.98 1.47.49 1.96.49.49.98 1.47.49 1.96.49 0 .49-.49.978-.49-.49 2.45 2.94 4.408 4.9 4.408 1.47-.49 2.938 0 3.918 0h.98v-.98c.98-.98 1.96-3.43 1.96-4.41v-.488c.49-.49.49-.98 0-.98-.49-1.96 5.388-.98 0-2.94v-.98c0-2.938-1.47-2.938.98-5.388.49.49.49.49.49 0h.49c.49-.49-.98-1.96-.98-1.96 0-.49 0-1.47-.98-1.47v-.49.49c-.49 0-.98-1.47-1.47 0-.98.49-2.45 1.96-1.47 1.96v.49c-.49 0-1.47 1.47-1.96 1.47h-.98v.49c-.49.98-1.47 1.958-2.448 2.448h-.49c-.49 0-1.96.49-1.47 1.47v.98h-.49v.49c-1.47-.98-1.96-1.47-2.94 1.47zm3.918-1.47s0-.49 0 0zm16.656-10.287s-.49 0 0 0zm-27.433 23.514h1.96v-1.47c0-.98-.49-1.96 0-2.94v-.978c-1.96.98-1.96-1.47-1.47-2.45h-.98c-.49.49-.49.49-.98 0 .98-1.47.98-1.96.49-1.96v-.49c-.49-.49-.98-.98-.98-1.96-1.468.49-2.938-3.428-3.428-1.468-2.45-1.47-4.41-5.39-6.858-6.86h-.49c-1.96-1.468-2.45-.978-1.47.98.98.98 2.45 2.94 3.43 3.92s2.45 2.94 2.94 4.9c.49.98 1.468 2.448 2.448 2.938.49 1.96 1.96 3.92 2.94 5.88v.488c.98 0 5.388 3.43 2.45 1.47zm5.39-18.615v.98c.49-.98.49-.98 0-.98zm-159.21 0c0 .49 0 1.47 0 0zm140.594 2.938c0-.49 0-.49-.49-.49 0 0 0 .49.49.49zm50.947 0c0 .98 0 1.47.98.98 0-.49-.49-.98-.98-.98zm-285.595 0c0 .49 0 .49 0 0zm283.636 2.45c0 2.94.98 4.898 2.45 2.45l-.98-1.47v-.98c0-.49-.49-2.45-.98-.98 0 .49 0 .98-.49.98zm-39.188-.49c0 .49 0 .49.49.49 0-.49-.49-.49-.49-.49zm-7.838 0h-.49c0 .98.49 1.47 1.47 1.47 0-.49-.49-.98-.98-1.47zm34.78 5.388c-.49.49-.49 1.47-.49 1.96v.98s-.49.98-.49 1.47c0 0 1.47 5.878 1.47 4.898h.98c.98-2.94.98-5.39 1.96-1.96-.49.98 0 1.47.49 1.47h.98v-.98h.98c0-.49-1.47-.98-.98-1.96-1.47-.49-1.96-1.47-1.47-2.938 4.41-2.45-2.94-4.9-1.47-4.9H491.884c.98-.49 2.45 0 .98-1.47-1.47.98-1.96.98-1.96 0-.98.49-1.96.49-1.96-.49-1.47-.49-2.45.98-2.94 1.96 1.47 1.47 1.47 1.96.49 1.96 0 .49.49 0 0 0zm-26.452-4.41c0-.488 0-.488-.49-.488v.49h.49zm-243.468 1.96v-.49c-.98.49-1.47.49-.98.49s-3.918 8.33 1.96.49c-.98 0-1.47 0-.98-.49 0-.49 0 0 0 0zm-69.072 1.47c-.49-1.47-.98-1.96-.98-1.47v.98l.98.49c0 .49 0 1.47 0 0 0-.49 0 0 0 0zm357.608 0c-.49 0-1.47-.49-1.96-.49.49.49 1.47.49 1.96.49 0-.49 0 0 0 0zm-356.628-.49c0-.49 0-.49 0 0-.49 0-.49 0 0 0zm64.663 0c-.49 0-.49 0 0 0zm248.856.49c-.49-.49-.49-.49 0 0zm37.72.49c-.49-.98-.98-.49-.49.49.49 0 .49-.49.49-.49 0-.49 0 0 0 0zm28.414 9.308s0-.49 0 0c-.98-1.96-2.94-3.43-4.9-3.92h-.49c-.49-.49-1.468-.98-2.448-.98-.49.49-1.47 0-1.96-.49h-1.47c-2.938-.978-4.408-.488-5.878 1.96 0-.49-.49-.49-.49-.49-.98 1.47-.98-3.428-.98-2.448 0-1.47-.49-1.47-.98-1.47h-.49c-3.918-.98-3.918.98-1.958 2.45.49.49.49 0 1.47 0 .49 0 1.47.98.49.49s-1.47-.49-1.47 0c0-.49 1.47 1.96 1.47 1.47-.49 0 2.938.98 2.938.98 0 .978 0 1.468.49.978h.98c1.96-.49 4.41 2.45 4.9 3.92 0 .49 0 .98.49 1.96.488 1.958-4.41 2.448 3.428 3.918 1.47 0 2.94-.49 3.43-.98.49-.49.98-1.96 1.958-1.96.98.98 1.47.98 1.47 0h.49c1.96.49 3.92 3.43 4.41 4.41h.488l1.96.98h.49c-.98-2.94-4.41-4.9-5.39-7.35 4.41-.49-2.448-3.918-2.448-3.428zm-315.478-8.818c.49-.49.49-.49 0 0zm291.964 0h-.49.49zm-50.947 0c1.47 1.96 1.47 1.96 0 0 .49.98 0 0 0 0zm49.967 0s0 .49 0 0zm.49.98c.49-.49.98-.49.49-.49 0 0 0 .49-.49.49zm-4.41-.49s-.49 0 0 0zm-7.347 1.47c.49-.98-1.47.49 0 0zm-27.433.49v.98c.49 0 .98.49.98.98 0-.98-.49-1.96-.98-2.45-.98-.49-.98-.49-.98.49h.98zm38.21-.49h.49v-.49l-.49.49.49-.49c-.49 0-.49 0-.49.49 0 0 0-.49 0 0zm-5.878-.49c-.98-.49-1.47 0-1.47.49l1.47-.49zm-1.96.49c-1.47-.49-1.96.49 0 0zm-145.002.49c-1.47-.49-1.47-.49 0 0-.49-.49-.49 0 0 0zm179.294.49c1.47 0 1.47 0 0-.49v.49c.49.49 0 0 0 0zm-73.97.49c0-.49 0-.49 0 0 0-.49.49 0 0 0zm12.245 0s-.49 2.45.98 0h-.98c-.49.49 0 0 0 0zm67.112.49c.98 0 1.47.49 0 0zm-33.31 0c-2.45-.49-.49.98.978.98.49.49.98.49 1.96.49l-2.94-1.47zm-4.9.49c1.47 1.96 1.96.49 1.96 0v-.49c-.49 0-1.47.49-1.96.49 0 .49.49 0 0 0zm39.68 0c.49.49.98.98 1.96.98-1.47-1.47-1.96-1.96-1.96-.98zm2.94 3.428v-.98c-1.47-2.45-1.47-1.96 0 .98.49-.49 0 0 0 0zm-4.9 1.96c-2.45-.98-.98.98.98.98h.49c.49-.98 1.47-1.96 2.94-1.96 0-.49-.49-.98.49-.98v-.98c-.98.49-1.47.49-.98.49-.49 0-.49.49-.49.49v.49c-.49 0-.98.49-.98.98-1.47-.98-1.96-.98-2.45.49-.49-.49.49 0 0 0zm-42.13-1.96c-.49.49-.49.49 0 0-.98-.49-.98 0-.98 0 1.47.49 1.96 1.47 1.47-.98-.49 0-.98.49-.49.98 0 0-.49-.49 0 0zm51.438 2.94c-.98-.49-.98-2.94-1.96-1.96v.98c3.43 4.41 1.96.98 1.96.98-.49-.49.49 0 0 0zm-67.113 3.43l1.96.978c-.49-.49-.49-.49-.49-.98s-.49-1.96-1.47-1.96h-.49c-3.43-.98.98-4.408-6.368-2.448-2.94-.98-4.9-1.96-5.88.98.49.98.98.98 1.96.98h.49c.49 0 1.96.49 2.45.49h1.96c.49 0 .978.49 1.958.49H475.718c.49 1.47.98 1.47.98 1.47.49 0-.49-.49 0 0zm13.717-5.39s0 .49 0 0zm41.15.98c.49-.49.49-.49 0 0 0-.49 0-.49 0 0 .49-.49 0 0 0 0zm-20.576.98v-.49c-.49-.49-1.96 1.47-.98 1.47.49.49.49-.98.98-.98zm-152.35 0v-.98c0 .49.49.49 0 .98zm118.06 0c-.49 0 2.938.98 0 0zm69.56 1.96c-.49-.49 0-.49-.98-.98l.98.98c-.49-.49 0 .49 0 0zm-29.39-.49c-.49 0-.49 0-.49.49h.49v-.49zm-12.248 2.448c.98-2.94.49-.98 0 0zm45.558.49c-2.45-1.96-2.45-1.96-.98-.49 0 .49.98.98.98.49zm-70.542 0c0-.98 0-2.94 0 0zm17.146-.98v.49h1.47c-.49-.49-.98-.98-.98-.49h-.49zm50.457 0c-.49 0-.49.49-.49.98.98.98.98.49.49-.98-.49.49 0 .49 0 0zm-65.154 1.47v-.98c-.98.98-1.47 1.47-.49.98h.49c0-.49 0 0 0 0zm1.47.98l.98-.49h.98c-1.47-1.96-1.96-2.45-2.45-.98h.49v.49c-1.96-.49-1.47 1.47 0 .98zm6.368 0c.49-.49 6.368-.49-.49-.98h-.49c-1.96-.49-2.45 0-.49.98h1.47c0-.49-.49 0 0 0zm4.41-.98h.978c-.49-.49-.49 0-.98 0zm-1.47 0c.49 0 .49-.49 0 0zm-1.47 4.41c1.96.49 8.817-5.39 6.368-4.9-2.45.49-4.9 1.96-6.37 3.92v.98c.98.49 0 0 0 0zm61.723-2.45c-.49-.98-1.47-2.94-.49-.49l.49.49zm-17.145 0h.49c-.49-.49-.49-.49-.49 0zm16.166 0s-1.96-.49-1.47-.49c-.49-.49 2.45 2.45 1.47.49zm-64.664 1.47c.49-1.47 0-1.96-1.47-1.47-.49.98 0 1.47 1.47 1.47 1.96 0-.49-.49 0 0zm49.478-.49c.49-.49 0 0 0 0zm16.165.49c.49 1.96 3.43.98 0 0 0 .49.98.49 0 0zm-12.736 36.25c0-.49-.49-.98-.49-.98v-1.47c.98-2.45-1.96-6.368-3.428-8.327 0-.49-.49-.98-.98-.98-.98 0-.98-2.45-.98-2.94l-.98-.98c-.49-.49-1.96-3.918-1.96-2.448-.98 0-1.958-.98-2.448-1.96v-.49c0-1.96-.98-2.94-1.47-4.898v-1.47c-.49-1.96-1.96-1.47-2.94-2.45.98-3.43-2.45-8.328-3.428-1.47 0 .49 0 .98-.49.98V237.37c.49.98 0 1.47-.49 1.47-2.45 7.347-8.328-2.94-8.818-4.9v-.49h.98c.49-.49.98-1.47.49-2.45h-.49v-.49c-1.96 0-4.9.49-6.368-.98-.49.98 0 2.94-2.45 1.47-.98 0-1.47 0-1.47.98 0 .49-.98 3.43-1.96 2.94 3.43 3.43-3.428.98-4.898 0v-.49.98c-.49 0-.49 0-.49-.49-.49 0-.49 0-.49.49-.98.98 0 .98-.98 1.47v.98h-.98 1.96c0 1.468 0 2.448-.98.98h-.49c.98 1.468.98 1.958 0 1.958h-.49v.49c-.98-.49-.98-3.43-1.958-.49 0 .98-.49 1.47 0 1.96 0 .98-1.47 2.45-2.45 2.94h-.49c-3.43.98-7.348 2.938-10.287 5.877h.49v-.98c-.49 0-.49.49-.49.98.49 1.47 0 2.45-.98 3.92.49 1.47 3.43 4.408.49 3.428-.49.98 0 1.96.49 1.96-1.47 0 .49 2.45 1.96 6.858v.49c.49.49.98 2.45.98 3.43v.49c0 .49.49.49 0 .98s-.49.98 0 1.47c0 1.47 0 1.96-.98.98.49 1.96 2.94 3.428 4.898 2.938.98 0 2.94-1.47 2.94-1.96h.98c.49-.49 1.96-.49 2.45 0-.49.49 6.857-1.96 6.367-2.45.98 0 1.96-.978 1.96-1.468h1.47c.49.49 1.47-.98 2.448-.49h1.47c2.45.49 3.92.98 5.88 1.96-1.47.98 0 2.94 1.468 3.43 1.96-1.96 4.41-3.92 3.43.978-.49 1.47-.49 1.96-.49 1.47.98-.98 1.47-2.45 2.45-.98-.49.49-.49.49 0 .49v1.47c.49 0 .98-.49 1.468-.49.49 0 .49.49 0 .98-.98 6.858 6.37 4.408 7.35 3.43.978 0 .978-.98.978.978.49 0 .49 0 .98-.49 1.47 2.94 2.45 1.96 4.9-.98.978.49 1.468.49 1.468 0v-.49c.98-.49.49-.98 0-1.47 0-.978.98-1.958.98-2.448s.98-2.45 1.47-2.94c.49-1.96 1.47-3.428 2.45-4.408.49-.49.98-1.47.98-2.45v-.98c.98-.98.49-3.428.49-4.898zm-28.412 6.858c0-.49 0-.49 0 0zm.98.98s-2.45-4.41 0 0zm2.94-.98c-.49 0-.98-.49-.98-1.47.49 0 .98.49.98 1.47zM505.11 231h.49c-.49-.98-.98-.49-.49 0zm-1.47 0c.49 2.45 0-2.45 0 0 0 .49.49 0 0 0zm1.47 0c0-.49-.49-.49 0 0-.49 0-.49 0-.49.49 0-.49.49-.49.49-.49 0-.49 0 0 0 0zm-128.837 5.39c0-.49 0-.49-.49-.49v-.98c0-.49-1.47-2.94-1.47-2.94-.49.49-.98.98-.49 1.47v.98c.49.49.49.49 0 .49-.98.49-1.47.98-1.47 1.96v.49s-.49 0-.49-.49c.49.98 0 1.47-.49 1.47-2.938.49-4.407 1.468-5.387 3.428 0 .49.49 2.45.49 3.43-1.96 2.938-2.45 3.918-.98 3.918 0 .98-.98.98-.98 2.45-.49.98-.49 1.47 0 1.47 0 .49.49 1.468.98 1.958v.49c1.47 2.94 3.43 3.43 5.878.98V253.534l.49-.98v-1.96l.49-.978v-2.45c-.49-.98.49-2.94 1.47-3.92v-.488c-.49-.49.49-1.96.49-1.96 0-.49-.49-2.94 0-3.43.49.49 2.94 3.43.98-1.47 1.47.49.98.49.98.49zm138.144 0v-.98h-.98v.98h.98zM4.95 238.84c-.49 0-.98.488-.98.488.98 0 1.47 0 .98-.49zm559.924.978c-.98-1.47-.49.49.49.98 0-1.47 0-1.47-.49-.98-.49 0 0 0 0 0zm-46.538 1.47c1.47-.98 0-.49 0 0zm63.684.98c2.94-1.96 2.94-1.96 0-.49-.49 0-.49 0 0 .49.98-.98-.49-.49 0 0zm-578.54-.98c-1.47-.49-2.45.98 0 0zm371.813.49c.49 0 .49-.49 0 0 .49-.49 0-.49 0 0zm189.58 0c.98 1.96.98 1.96 0 0zm15.187 1.96c.49.49.98.49.98.98-.49-.49-.49-.98-.98-.98 0 .49.49-.49 0 0zm-193.01 3.428l-.49.98h.49c.98-1.47.98-1.47 0-.98zm174.885 5.39c.49 0 .98 0 .98.49 4.9-4.41-11.267-2.45-.98-.49 0 .49 0 0 0 0zm-178.314-2.94c.98.98 1.47 1.47.98 0-.98-.49-.98-.49-.98 0zm179.295 0v.98-.98zm-86.218 7.838s0 .49 0 0zm-264.04 14.696c.488 0 .488 0 .488-.49-.49 0-.49 0-.49.49zm-1.96.98c0-.49 0 0 0 0zm370.343 12.736c-.49.49-.98.98-1.96.98l-1.47-1.47c.49-.98 0-.98-.49-.98v-.98 1.96c-.49 0-.49-.49-.49-.49s-.49-2.94 0-2.94v-.978c-.978.49-2.448-1.96-1.958-.98-.49-.49-1.47-.49-.98-1.47-.98 0 2.94 5.39 2.45 4.9-.49 1.47 1.47.98.49 2.938v.98s-.49.49-.49.98c0 7.348 3.43 1.96 3.918 1.96.49-.49.98-.49 1.96-.49-.49-.98-.49-1.47.49-1.47v-.49s.49-.49.49-.98c-1.47-.49-1.96-.98-1.96-.98-.98 0 0 0 0 0zm-65.643-5.388c-1.47.49-1.47.98.49.49-.98-.49-.98-.49-.49-.49zm61.724 2.45c-.49-.49-.49-.49 0 0zm-52.415 7.347c.49-.49.49-.49.49-.98-.49.49-.49.49-.49.98zm6.858-.49c1.47 1.96.98.49 0 0zm0 1.96c-1.47 1.47-2.45 1.96-2.45.98h-.49c-3.428-1.47-2.45.98-1.47 2.94 0 2.938 1.47 1.958 2.94 2.938.49-.98.49-1.47.98-2.94s.49-3.918.49-3.918zm42.13 1.47c-2.45-4.9-6.37 4.408-8.33 6.368-.978.49-2.448 1.96-2.938 2.94-.49.49-.98.98-.98 1.47.49.978.98 1.468 1.96.978v.49s.98.49 1.47.49c2.45 0 3.428-.49 3.428-1.958 0-.49.49-1.96.98-1.96v-.49c0-1.96 1.96-1.96 3.43-1.96h-.49c0-1.47 0-2.45.98-2.45.98-.978 3.918-4.897.49-3.918zm-396.798 2.94c-.98 2.448.98 0 .98 0 0-1.47-.49-1.47 0-2.94-.49.49-.49.49-.98 0v2.94zm-.49 3.428c0-.49 0-.49 0 0zm.49 0c0 .49-.49.49 0 .49v-.49zm-.98 2.94l-.49.49c.49 0 .98 0 .98-.49h.49c0-.49 0-.98-.49-1.96-.49 0-.49 1.96-.49 1.96zm1.47.98s-.49 0 0 0zm386.51 1.958c-.98 2.45 0 2.45 0 0 0 .49 0 .49 0 0zm-389.45 3.43c0 .49 0 .98-.49.98v.98c-.49 1.96 0 3.43 1.47 1.96v-1.47c-.49-.49-.98-2.45-.98-1.96v-.49c.49 0 .49.49 0 0zm.49 4.41s1.47 1.47 0 0zm.98.98c.98.98.98.98 0 0 0 .49.49 0 0 0zm-1.47.49c0-.49 0-.49-.49 0 0 .49.49.49.49 0zm1.47.98c.49.49.49.49 0 0l.49.49-.49-.49c.49-.49 0-.98-.49-.98-.98 1.47-.49 2.448.49 1.958h.49c-.49-.49-.49-.49-.49-.98zm23.514.978c0-1.47-1.47-.98-1.47 0s-1.96 2.45.49.98c.49-.98.98-1.47.98-.98zm2.448-.49c-.98 0-2.45 2.45-2.94 1.96h.98v-.98c.98.49 1.47.49 1.96-.49 0 0-.49-.49 0-.49zm-24.493 3.92c-.49-.49-.98-.98-1.47-.98h.98c.49-.49.49-.98 0-.98-5.88-2.94.98 1.47.49 1.96 0 0 0 .49 0 0zm12.246 3.918h-.978c-1.47-1.47-4.41-3.92-4.9-4.898-.98.49-1.47.49-2.448.49v.98c.49.98.49.98.49.49v.98c1.96-1.96.98 4.408 0 1.958-.49.49-.49.49-.49 0v-.98c-.49 0-.49-.49-.49-.98h-.49v.98c-.49-.49-.98-.98-1.47-.49 0-.49 2.94 2.94.49 1.96v-.49h1.47v.49h.98c.49.49.98 0 .49.49 1.47.49 1.96.49 1.96-.49h.98c1.958 1.96 3.428.98 4.407-.49zm-2.448.49h-1.47 1.47zm-7.838-2.45c.49 0-3.43 0-.98-.49v.49c0 .49.98.49.98 0 0 .49 0 .49 0 0zm12.737 1.47s.98 1.96 0 0c-.49.49 0 .49 0 0zm-11.756.98c.49 0 0-.49 0 0zm.49.98c.49 0 .98.49.98-.49 0-.49-.49 0-.98.49zm4.41.49v-.98c-.98 0-.98 0-1.96.49-2.45.49-.49.98.49.98v-.49h1.47c0-.49-.49-.49 0 0zm-.49 0c.978 1.47.978 1.47 0 0 .49.49.978 0 0 0 0 .49.978 0 0 0zm1.958.98h.49c-.49-.49-.98-.49-.49 0zm-.49 0s0 .49 0 0c0 .49 0 .49 0 0 0 0 0 .49 0 0zm19.595 14.206c-1.96.49 0 .49 0 .49h.49s0-.49-.49-.49z" fill="#62B356"/><g transform="translate(155.23 68.528)" fill="#3E7536"><circle cx="43.873" cy="190.063" r="4.899"/><circle cx="5.19" cy="113.177" r="4.899"/><circle cx="21.395" cy="130.671" r="4.899"/><circle cx="304.443" cy="131.152" r="4.899"/><circle cx="158.051" cy="8.696" r="4.899"/><circle cx="166.687" cy="5.797" r="4.899"/><circle cx="128.354" cy="56.291" r="4.899"/><circle cx="195.038" cy="133.57" r="4.899"/><circle cx="323.937" cy="91.886" r="4.899"/><circle cx="162.747" cy="50.291" r="4.899"/><circle cx="188.038" cy="138.57" r="4.899"/><circle cx="174.544" cy="44.392" r="4.899"/><circle cx="174.544" cy="51.392" r="4.899"/><circle cx="201.937" cy="69.886" r="4.899"/><circle cx="170.544" cy="41.392" r="4.899"/><circle cx="181.342" cy="48.291" r="4.899"/><circle cx="157.848" cy="69.886" r="4.899"/><circle cx="130.442" cy="125.772" r="4.899"/><circle cx="50.076" cy="207.051" r="4.899"/><circle cx="373.392" cy="207.051" r="4.899"/><circle cx="165.544" cy="40.392" r="4.899"/><circle cx="162.747" cy="30.696" r="4.899"/><circle cx="192.139" cy="35.595" r="4.899"/><circle cx="148.051" cy="30.696" r="4.899"/><circle cx="134.354" cy="52.291" r="4.899"/><circle cx="417.481" cy="226.646" r="4.899"/><circle cx="174.443" cy="35.595" r="4.899"/><circle cx="138.253" cy="25.797" r="4.899"/></g></g></svg>